<svg id="圖層_1" data-name="圖層 1" xmlns="http://www.w3.org/2000/svg" viewBox="0 0 570.02 262.88"><defs><style>.cls-1{fill:#1b1464;}.cls-2{fill:#fcc800;}</style></defs><title>樂越秘訣_標題</title><path class="cls-1" d="M530.77,63.31c-1.95-.88-5.92-1.38-10.69,5.07-2.6,3.51-7.18,12.31-17.15,47.79,16-30.22,19.62-42,19.66-42.16a1.26,1.26,0,1,1,2.41.76c-.18.6-4.65,15.23-26.39,54.73a.31.31,0,0,1-.09.11c-2,4.51-3.67,8.48-5,12.14a4.29,4.29,0,0,0,2.6,5.46,4.37,4.37,0,0,0,2.06.2,4.27,4.27,0,0,0,3.39-2.8c4.06-11.42,11.17-25,17.45-36.93,7.11-13.54,13.24-25.24,14.91-33.13,1.57-7.37-.88-10.16-3.2-11.21" transform="translate(-96.98 -62.66)"/><path class="cls-1" d="M498.25,147.6a4.45,4.45,0,0,1-2.17-.21,4.51,4.51,0,0,1-2.73-5.75c1.3-3.66,2.93-7.64,5-12.16v-.07h0c21.72-39.47,26.19-54.08,26.37-54.69a1,1,0,0,0-.7-1.3,1.06,1.06,0,0,0-1.3.71c0,.11-3.62,11.88-19.67,42.19l-1,1.86.57-2c10-35.59,14.6-44.36,17.19-47.86,4.86-6.58,9-6,11-5.15,2.4,1.08,4.93,4,3.33,11.47-1.68,7.92-7.82,19.63-14.93,33.19-6.27,12-13.38,25.49-17.44,36.9a4.45,4.45,0,0,1-3.57,2.94m.47-17.9c-2,4.5-3.65,8.45-4.94,12.09a4,4,0,0,0,2.37,5.14l.08,0a4.08,4.08,0,0,0,5.21-2.45c4.07-11.44,11.18-25,17.46-37,7.1-13.53,13.23-25.21,14.89-33.07,1.54-7.23-.83-10-3.08-11-1.88-.84-5.74-1.32-10.41,5-2.52,3.41-7,11.86-16.53,45.67C519,85.3,522.38,74.06,522.41,74a1.5,1.5,0,0,1,1.85-1,1.48,1.48,0,0,1,1,1.85c-.18.61-4.66,15.27-26.41,54.77a.38.38,0,0,1-.09.13" transform="translate(-96.98 -62.66)"/><path class="cls-1" d="M474.76,154.43a4.28,4.28,0,0,0-6,1l0,0c-6,8.39-11.55,10.4-13.68,10.29h-.34v-.35c.23-4,4.48-12.22,7.6-18.25.82-1.6,1.5-2.91,2.15-4.2,3.93-7.85,1.14-12.27-.24-13.81-2.73-3-7.39-3.81-12.17-2a40.59,40.59,0,0,0-9.65,5.53,43.56,43.56,0,0,0-7.22,7.64,1.25,1.25,0,0,1-.84.51,1.28,1.28,0,0,1-1.21-2,42.79,42.79,0,0,1,3.51-4.21,4.27,4.27,0,0,0-8.3-1.81c0,.07-2.66,8-6,20.27v.08l-.06.06c-5.3,6-10.44,8.55-13.19,9a4.25,4.25,0,0,1-1.07,0,2.13,2.13,0,0,1-1.8-1c-1.06-1.54-1.5-4.39-1.3-8.46A62.92,62.92,0,0,1,406.54,142c.25-.89.47-1.73.63-2.39h0a4.27,4.27,0,0,0-8.25-2.2c-.16.53-.4,1.41-.68,2.55a146.84,146.84,0,0,1-6.12,17.66c-5.1,12-10.81,19.22-15.67,20-1,.15-2.66.28-3.24-.44s-1.27-2.81-.53-7.64c.9-5.86,3.56-14.39,7.9-25.36a4.27,4.27,0,0,0-7.76-3.53c-3.91,7.58-11.8,18.92-17.14,20.4-3.38.95-6,.81-7.71-.4a6.44,6.44,0,0,1-1.94-2.3,131.63,131.63,0,0,1-18.9,11.44c-10,23.53-15.92,42.7-16.64,54-.25,4-.35,17.08,8.84,18.73a9.16,9.16,0,0,0,3,.05c3.17-.48,6.34-2.61,9.16-6.16a44,44,0,0,0,7.1-14.55c5.54-18.39,5.56-41.22,5.08-53.19v-.61l.53.3c3.75,2.13,8.38,2.44,13.77.95a15.83,15.83,0,0,0,4-1.8,51.66,51.66,0,0,1,1.56-6.5,1.26,1.26,0,0,1,1.59-.81h0a1.2,1.2,0,0,1,.73.63,1.29,1.29,0,0,1,.08,1,51.53,51.53,0,0,0-2,10.8c-.13,4.29.73,7.54,2.62,9.92,1.71,2.15,5,4.51,11.2,3.58,7.4-1.11,14.24-8.1,20.33-20.79l.28-.59.32.57c.17.29.35.58.54.85a10.62,10.62,0,0,0,8.08,4.7c3.27.3,6.87-.68,10.71-2.9l.69-.4-.19.77c-.49,2-1,4.05-1.4,6a4.28,4.28,0,0,0,3.21,5.12,4.42,4.42,0,0,0,1.58.06,4.25,4.25,0,0,0,3.54-3.28c1.39-6.12,3-12.45,4.67-18.81v-.07h.05c12.16-15,20.28-20.27,25-22a4.38,4.38,0,0,1,2.62-.35l.2.06v.21c0,.23.19,1.49-1.1,4.06-.67,1.34-1.4,2.75-2.1,4.11-4.4,8.53-8.95,17.36-8.53,23.42a8,8,0,0,0,6,7.26,12.06,12.06,0,0,0,5,.22c3.65-.55,10.92-3.06,18.47-13.69a4.26,4.26,0,0,0-1-6l0,0M335.33,174c.3,17.8-1.42,33.89-4.86,45.29a34.91,34.91,0,0,1-5.53,11.61c-1.59,2-3,3-3.77,3.12h-.33c-.76-.42-2.18-3.36-1.78-9.76.65-10.2,6.19-28.08,15.61-50.35l.63-1.47Z" transform="translate(-96.98 -62.66)"/><path class="cls-1" d="M322.43,242.65a10.07,10.07,0,0,1-3.1,0c-9.38-1.69-9.27-15-9-19,.72-11.31,6.63-30.5,16.65-54.05v-.08h.08a131.2,131.2,0,0,0,18.87-11.42l.21-.15.12.23a6.18,6.18,0,0,0,1.87,2.22c1.68,1.17,4.21,1.29,7.52.37,5.27-1.47,13.11-12.75,17-20.29a4.49,4.49,0,0,1,8.17,3.72c-4.34,10.94-7,19.46-7.89,25.31-.73,4.74-.13,6.67.49,7.46.37.46,1.47.59,3,.36,4.78-.72,10.42-7.94,15.5-19.82a146.29,146.29,0,0,0,6.1-17.63c.28-1.14.52-2,.68-2.56a4.5,4.5,0,0,1,8.69,2.32c-.17.67-.39,1.53-.64,2.42a61.44,61.44,0,0,0-1.54,10.71c-.2,4,.23,6.82,1.25,8.33a2,2,0,0,0,1.64.91,4.17,4.17,0,0,0,1,0c2.8-.42,7.9-3,13.06-8.89v0c3.33-12.19,6-20.21,6-20.29a4.49,4.49,0,0,1,8.73,1.92v.07l-.05.06a41.11,41.11,0,0,0-3.49,4.18,1.1,1.1,0,0,0-.18.77,1,1,0,0,0,.42.68,1.07,1.07,0,0,0,1.45-.23,43.32,43.32,0,0,1,7.26-7.68,40.64,40.64,0,0,1,9.72-5.57c4.86-1.83,9.61-1,12.41,2.07,1.41,1.58,4.27,6.09.27,14.06-.65,1.29-1.33,2.61-2.15,4.2-3.11,6-7.35,14.25-7.58,18.17v.11h.11c2.09.11,7.59-1.89,13.49-10.2a4.5,4.5,0,0,1,7.33,5.22c-7.61,10.7-14.94,13.23-18.63,13.78a12.22,12.22,0,0,1-5.07-.22,8.25,8.25,0,0,1-6.2-7.46c-.42-6.13,4.15-15,8.56-23.55h0c.69-1.35,1.4-2.73,2.07-4.06,1.29-2.56,1.11-3.79,1.08-3.92v-.07h-.07a4.15,4.15,0,0,0-2.48.34c-4.65,1.75-12.74,7-24.87,22h0c-1.71,6.36-3.28,12.68-4.68,18.8a4.49,4.49,0,0,1-8.76-2c.44-1.95.92-4,1.4-6l.07-.26-.24.13c-3.87,2.25-7.52,3.24-10.84,2.94a10.85,10.85,0,0,1-8.25-4.8q-.28-.42-.54-.87l-.11-.19-.1.2c-6.12,12.75-13,19.79-20.5,20.92-6.27.94-9.66-1.48-11.4-3.67-1.93-2.42-2.8-5.72-2.68-10.07a52.83,52.83,0,0,1,2-10.86,1,1,0,0,0-.06-.79,1,1,0,0,0-.6-.52,1.08,1.08,0,0,0-.79.06,1,1,0,0,0-.52.61,53,53,0,0,0-1.55,6.47v.1l-.08.05a16.92,16.92,0,0,1-4.07,1.83c-5.45,1.51-10.14,1.18-13.94-1l-.18-.1v.2c.48,12,.46,34.84-5.09,53.27a44.22,44.22,0,0,1-7.14,14.62c-2.86,3.6-6.07,5.75-9.3,6.24m4.91-72.81c-10,23.47-15.87,42.58-16.58,53.83-.25,3.93-.36,16.87,8.65,18.49,4.06.73,8.31-1.42,12-6a43.72,43.72,0,0,0,7.07-14.47c5.53-18.37,5.55-41.16,5.07-53.12v-1l.88.5c3.69,2.09,8.27,2.4,13.6.92a15.1,15.1,0,0,0,3.87-1.72,54.66,54.66,0,0,1,1.54-6.43,1.52,1.52,0,0,1,.74-.87,1.46,1.46,0,0,1,1.14-.08,1.44,1.44,0,0,1,.86.74,1.48,1.48,0,0,1,.09,1.13,51,51,0,0,0-2,10.74c-.12,4.24.72,7.43,2.58,9.77,1.66,2.1,4.92,4.41,11,3.5,7.32-1.1,14.1-8,20.16-20.67l.47-1,.53.94c.16.29.34.57.52.84a10.43,10.43,0,0,0,7.92,4.6c3.22.29,6.78-.68,10.58-2.88l1.14-.66-.31,1.28c-.49,2-1,4-1.4,6a4.05,4.05,0,0,0,3,4.85,4.07,4.07,0,0,0,4.85-3c1.39-6.13,3-12.45,4.68-18.82l.06-.15v-.05C442.2,142,450.37,136.73,455.08,135a4.64,4.64,0,0,1,2.75-.34l.34.09.06.35c0,.24.21,1.56-1.12,4.2-.66,1.33-1.38,2.72-2.07,4.06h0c-4.39,8.51-8.92,17.3-8.51,23.31a7.79,7.79,0,0,0,5.87,7,11.82,11.82,0,0,0,4.88.22c3.62-.54,10.82-3,18.33-13.6a4,4,0,1,0-6.6-4.65c-6,8.46-11.7,10.49-13.87,10.38h-.57v-.57c.22-4,4.5-12.29,7.62-18.34.82-1.6,1.5-2.91,2.14-4.21,3.88-7.71,1.16-12-.2-13.54-2.67-3-7.23-3.72-11.92-2a40.1,40.1,0,0,0-9.59,5.5,43.39,43.39,0,0,0-7.18,7.59,1.52,1.52,0,0,1-2.08.33,1.49,1.49,0,0,1-.33-2.07,43.45,43.45,0,0,1,3.47-4.18,4,4,0,1,0-7.86-1.64c0,.07-2.69,8.09-6,20.26v.13l-.09.09c-5.23,6-10.45,8.61-13.33,9a4.65,4.65,0,0,1-1.12,0,2.42,2.42,0,0,1-2-1.11c-1.08-1.59-1.53-4.48-1.33-8.6a61.58,61.58,0,0,1,1.59-10.8c.25-.9.47-1.75.63-2.4a4,4,0,1,0-7.81-2.1c-.15.53-.4,1.41-.67,2.54a145.76,145.76,0,0,1-6.13,17.7c-5.14,12-10.91,19.34-15.84,20.08-1.24.19-2.84.25-3.45-.52s-1.33-2.91-.58-7.81c.9-5.88,3.56-14.43,7.91-25.41a4,4,0,1,0-7.36-3.35c-3.92,7.62-11.87,19-17.27,20.52-3.44,1-6.1.82-7.9-.43a6.51,6.51,0,0,1-1.88-2.16,133,133,0,0,1-18.66,11.28m-6.14,64.37h-.36l-.11-.06c-.94-.53-2.29-3.7-1.9-10,.65-10.23,6.2-28.13,15.64-50.42l1-2.46V174h0c.3,17.82-1.42,33.93-4.86,45.35A35.13,35.13,0,0,1,325,231c-1.7,2.18-3.14,3.08-3.91,3.2m-.13-.42h.14c.7-.1,2.09-1.08,3.62-3a35,35,0,0,0,5.5-11.54c3.42-11.46,5.14-27.46,4.84-45.26v-.54l-.21.5c-9.41,22.25-14.95,40.1-15.6,50.28-.39,6.22,1,9.16,1.67,9.55Z" transform="translate(-96.98 -62.66)"/><path class="cls-1" d="M496.57,155.28a5.7,5.7,0,0,0-4.82-.33,8.1,8.1,0,0,0-5.05,8.9,5.57,5.57,0,0,0,6.39,4.61,5.38,5.38,0,0,0,1.19-.33,8.05,8.05,0,0,0,5-8.89,5.73,5.73,0,0,0-2.75-4" transform="translate(-96.98 -62.66)"/><path class="cls-1" d="M493.08,168.67a5.78,5.78,0,0,1-3.73-.67,5.94,5.94,0,0,1-2.87-4.11,8.29,8.29,0,0,1,5.19-9.15A5.79,5.79,0,0,1,499.2,158a5.91,5.91,0,0,1,.34,1.23,8.29,8.29,0,0,1-5.19,9.15,6.77,6.77,0,0,1-1.27.33M493,154.86a6.32,6.32,0,0,0-1.19.31,7.83,7.83,0,0,0-4.9,8.63,5.36,5.36,0,0,0,6.15,4.43,4.85,4.85,0,0,0,1.13-.31,7.85,7.85,0,0,0,4.9-8.64,5.5,5.5,0,0,0-2.64-3.81,5.37,5.37,0,0,0-3.45-.61" transform="translate(-96.98 -62.66)"/><path class="cls-1" d="M317.1,173.34c.19-.7.37-1.46.53-2.3v-.2l.2-.06a69.55,69.55,0,0,0,9.8-3.77A130.21,130.21,0,0,0,350,152.46a150.43,150.43,0,0,0,11.91-11.09c12-12.43,21.26-24.9,26.64-36,4.56-9.44,6.11-17.63,4.28-22.45a7.6,7.6,0,0,0-6.7-5.18c-12.76-.92-22.36,18-35.64,44.19-2.08,4.1-4.44,8.75-6.81,13.29-3,5.71-5.95,11.72-8.85,17.87v.09l-.08,0a75.91,75.91,0,0,1-16.5,8.53l-.37.13-.07-.38a15.37,15.37,0,0,0-3.5-7.32c-3.06-3.45-7.54-4.93-12.6-4.17-10.66,1.6-21.78,13-25.32,26a27.45,27.45,0,0,0-1,10v.13l-.09.11c-5.55,7.13-10.62,8.84-12.53,8.74h-.34v-.35c.23-4,4.49-12.22,7.6-18.25h0c.79-1.52,1.49-2.88,2.15-4.19,3.94-7.84,1.15-12.26-.24-13.8-2.73-3-7.39-3.81-12.16-2a32,32,0,0,0-5.39,2.71,113.59,113.59,0,0,0-10.11,8.21,1.3,1.3,0,0,1-.65.3,1.26,1.26,0,0,1-1-2.19h0c2.19-1.94,4.21-3.67,6-5.14,12.21-27.77,25.47-53.15,25.6-53.4a4.28,4.28,0,1,0-7.57-4c-.56,1.07-13.95,26.7-26.15,54.53h0C225.81,182,205.19,187,197,188h0a4.27,4.27,0,0,0,1.12,8.47h0l1.35-.18a65,65,0,0,0,29.85-13.13l1-.74-.42,1.13c-2.77,7.4-5,14-6.57,19.74a4.27,4.27,0,0,0,8.23,2.3h0c1.5-5.39,3.6-11.7,6.24-18.75v-.05h0c13.23-16.32,21.37-21.08,25-22.46a4.36,4.36,0,0,1,2.61-.35l.21.06v.21c.05.22.2,1.48-1.1,4.06-.68,1.35-1.43,2.81-2.1,4.11-4.4,8.53-9,17.36-8.53,23.42a8,8,0,0,0,6,7.26,12.06,12.06,0,0,0,5,.22c3.2-.48,8.2-2.27,13.83-8.07l.25-.26.24.27c3.07,3.37,7.5,4.81,12.49,4.06,10.66-1.6,21.78-13,25.32-26m34.32-34.51c2.33-4.46,4.55-8.84,6.7-13.08,5.75-11.34,11.18-22,16.19-29.47,5.14-7.62,8.46-9.65,10.33-10l.34-.07.06.35c.42,2.49-.94,8.52-4.91,16.37-3.57,7-10.69,18.42-24.34,32.5-1.26,1.3-2.55,2.58-3.84,3.82l-1.49,1.43ZM301.4,159v-.24l.26-.07c.39-.1.77-.19,1.16-.25a5.31,5.31,0,0,1,5,1.4,7.24,7.24,0,0,1,1.55,3.68l.06.36h-.36c-3.17.32-5.43-.12-6.52-1.27a5.45,5.45,0,0,1-1.1-3.63m-11,31.89c-2.17.33-3.83-.14-4.95-1.4a6.69,6.69,0,0,1-1.3-2.71v-.05a4.38,4.38,0,0,0-.17-.8v0a18.24,18.24,0,0,1,.6-7.6,32.33,32.33,0,0,1,7.09-12.74,15.6,15.6,0,0,1-.46-3.79,1.26,1.26,0,0,1,1.28-1.24,1.28,1.28,0,0,1,.89.39,1.22,1.22,0,0,1,.35.9,13.48,13.48,0,0,0,.41,3.29,12,12,0,0,0,2.19,3.39c2.64,2.85,6.54,4.22,11.59,4.09h.5l-.17.46c-3.17,9-11,16.91-17.76,17.93" transform="translate(-96.98 -62.66)"/><path class="cls-1" d="M291.81,199.56c-5.06.76-9.57-.7-12.69-4.13l-.08-.09-.08.09c-5.67,5.84-10.72,7.65-14,8.13a12.22,12.22,0,0,1-5.07-.22,8.24,8.24,0,0,1-6.19-7.46c-.43-6.13,4.14-15,8.55-23.55.67-1.29,1.42-2.75,2.1-4.1,1.29-2.57,1.11-3.79,1.08-3.92v-.07h-.07a4.12,4.12,0,0,0-2.47.34c-3.66,1.37-11.75,6.11-25,22.39h0c-2.64,7.05-4.73,13.35-6.23,18.73a4.5,4.5,0,0,1-8.66-2.42c1.59-5.7,3.8-12.35,6.57-19.76l.14-.38-.32.25a65.13,65.13,0,0,1-30,13.17l-1.35.19a4.5,4.5,0,0,1-1.22-8.92H197c8.15-1,28.69-6,43.31-30.49,12.18-27.8,25.6-53.49,26.16-54.57a4.51,4.51,0,1,1,8,4.18c-.13.24-13.35,25.53-25.59,53.38v0h0c-1.81,1.46-3.84,3.19-6,5.13a1.06,1.06,0,0,0-.34.71,1,1,0,0,0,.26.75,1.05,1.05,0,0,0,1.46.09,115.88,115.88,0,0,1,10.13-8.23,32.94,32.94,0,0,1,5.44-2.73c4.86-1.83,9.62-1,12.41,2.07,1.41,1.57,4.27,6.09.27,14.06-.66,1.3-1.36,2.67-2.15,4.19-3.1,6-7.35,14.26-7.58,18.18v.17h.11c1.87.09,6.85-1.6,12.35-8.66h0v-.05a27.85,27.85,0,0,1,1-10.11c3.56-13.06,14.77-24.55,25.5-26.16,5.14-.78,9.69.73,12.81,4.24a15.56,15.56,0,0,1,3.55,7.42v.13h.13a76.56,76.56,0,0,0,16.45-8.5V153c2.9-6.16,5.88-12.18,8.85-17.88,2.38-4.55,4.73-9.19,6.81-13.29,13.32-26.27,23-45.25,35.85-44.32a7.86,7.86,0,0,1,6.9,5.33c1.86,4.88.3,13.13-4.29,22.63-5.38,11.17-14.61,23.66-26.68,36.11a152.59,152.59,0,0,1-11.92,11.1,130.53,130.53,0,0,1-22.39,14.58,69.35,69.35,0,0,1-9.84,3.78h-.06v.07c-.16.85-.34,1.61-.53,2.32-3.56,13.06-14.77,24.55-25.51,26.16m-12.76-4.87.41.44c3,3.31,7.38,4.73,12.29,4,10.57-1.59,21.61-12.94,25.13-25.84.2-.7.37-1.45.53-2.29l.07-.33.33-.1a67.82,67.82,0,0,0,9.76-3.76,129.1,129.1,0,0,0,22.3-14.52,151.67,151.67,0,0,0,11.89-11.06c12-12.42,21.23-24.87,26.6-36C393,95.9,394.5,87.78,392.69,83a7.42,7.42,0,0,0-6.51-5c-12.61-.91-22.18,18-35.42,44.07-2.08,4.1-4.43,8.75-6.81,13.3-3,5.69-5.95,11.7-8.85,17.86l-.06.14-.13.09A76.79,76.79,0,0,1,318.36,162l-.62.22-.13-.64a15,15,0,0,0-3.44-7.21c-3-3.39-7.41-4.85-12.4-4.1-10.57,1.59-21.62,12.94-25.14,25.84a27.36,27.36,0,0,0-.94,9.94v.23l-.14.18c-5.61,7.2-10.77,8.92-12.72,8.83h-.57v-.57c.22-4,4.5-12.29,7.62-18.34.79-1.54,1.49-2.9,2.15-4.21,3.87-7.71,1.15-12-.2-13.55-2.67-3-7.24-3.71-11.92-1.95a31.89,31.89,0,0,0-5.35,2.69,112.85,112.85,0,0,0-10.08,8.18,1.35,1.35,0,0,1-.76.36,1.48,1.48,0,0,1-1.34-.48,1.49,1.49,0,0,1-.37-1.07,1.47,1.47,0,0,1,.5-1c2.16-1.93,4.18-3.65,6-5.11,12.23-28,25.49-53.28,25.57-53.49a4,4,0,1,0-7.17-3.76h0c-.57,1.08-14,26.76-26.14,54.52v.06c-14.77,24.6-35.45,29.65-43.67,30.68H197a4,4,0,0,0-3.42,4.49,4.11,4.11,0,0,0,1.53,2.7,4,4,0,0,0,3,.83c.43,0,.88-.12,1.35-.19A64.67,64.67,0,0,0,229.19,183l1.58-1.23-.7,1.88c-2.77,7.4-5,14-6.56,19.72a4,4,0,1,0,7.8,2.18c1.5-5.4,3.6-11.71,6.24-18.77l.09-.15c13.26-16.37,21.44-21.15,25.14-22.54a4.68,4.68,0,0,1,2.76-.34l.33.09.07.35a7.77,7.77,0,0,1-1.12,4.2c-.68,1.35-1.44,2.82-2.11,4.11-4.39,8.51-8.92,17.3-8.51,23.31a7.79,7.79,0,0,0,5.88,7,11.82,11.82,0,0,0,4.88.22c3.16-.48,8.11-2.25,13.69-8Zm11.5-3.58c-2.25.34-4-.15-5.16-1.47a6.91,6.91,0,0,1-1.45-2.93h0a3.39,3.39,0,0,0-.17-.78v-.07a18.44,18.44,0,0,1,.59-7.71,32.59,32.59,0,0,1,7.06-12.74,16.12,16.12,0,0,1-.44-3.73,1.54,1.54,0,0,1,.46-1.05,1.5,1.5,0,0,1,2.1,0,1.53,1.53,0,0,1,.4,1.08,12.54,12.54,0,0,0,.4,3.23,11.77,11.77,0,0,0,2.14,3.3c2.59,2.79,6.43,4.15,11.42,4h.82l-.28.78c-3.19,9.1-11.07,17-17.93,18.07m1.78-30.42a1,1,0,0,0-.56.27,1.14,1.14,0,0,0-.32.74,15.58,15.58,0,0,0,.45,3.72v.12l-.08.09a32,32,0,0,0-7,12.65,17.78,17.78,0,0,0-.59,7.5h0a3,3,0,0,1,.18.83,6.58,6.58,0,0,0,1.32,2.69c1.06,1.2,2.66,1.64,4.75,1.33,6.71-1,14.43-8.82,17.58-17.78l.06-.16H308c-5.12.13-9.08-1.27-11.76-4.17a12.09,12.09,0,0,1-2.23-3.45,13.41,13.41,0,0,1-.43-3.39,1,1,0,0,0-.3-.74,1,1,0,0,0-.72-.31h-.18M309.83,164l-.6.06c-3.25.33-5.57-.13-6.71-1.34a5.66,5.66,0,0,1-1.17-3.78v-.44l.42-.11a12,12,0,0,1,1.19-.25c2.25-.34,4,.16,5.16,1.47a7.43,7.43,0,0,1,1.61,3.8Zm-8-5.15V159a5.2,5.2,0,0,0,1.05,3.47c1,1.1,3.23,1.52,6.33,1.2h.12v-.12a6.93,6.93,0,0,0-1.5-3.57c-1.06-1.19-2.66-1.64-4.75-1.33a11.63,11.63,0,0,0-1.14.25Zm47.8-17.12,1.59-3,.2.1-.2-.1c2.32-4.45,4.54-8.82,6.68-13.05,5.77-11.38,11.2-22.09,16.22-29.53,5.19-7.68,8.56-9.73,10.48-10.1l.57-.11.09.57c.42,2.53-.94,8.62-4.93,16.51-3.58,7.07-10.71,18.46-24.38,32.56-1.25,1.3-2.55,2.58-3.84,3.82Zm35.17-55.3h-.12c-1.83.36-5.08,2.36-10.18,9.92s-10.44,18.11-16.18,29.44c-2.16,4.26-4.38,8.63-6.7,13.09l-.33.62.51-.49c1.29-1.23,2.58-2.51,3.83-3.8,13.63-14.06,20.73-25.41,24.3-32.46,3.95-7.79,5.3-13.77,4.89-16.22Z" transform="translate(-96.98 -62.66)"/><path class="cls-1" d="M218.89,156.44c-4,5.19-11.73,12.09-25.52,15.58-1,2.4-2.52,5.91-4.07,9.57,18.16-3,28.8-11.26,34.53-17.7,7.58-8.51,11.11-18.8,9.7-28.23a35.8,35.8,0,0,0-11-20.47,49,49,0,0,0-12.12-7.9C200.72,103.13,189.15,102,176,104a74,74,0,0,0-24.38,7.72,47.88,47.88,0,0,0-15,12.4l-.23.29h0a4.3,4.3,0,0,0,6.5,5.63h0c4.86-6.4,14.76-14.61,34.41-17.56,11.52-1.73,21.56-.8,29.83,2.78l.37.15-.21.34c-1.13,1.77-2.24,3.65-3.33,5.57-5.24,9.27-11.11,23.34-17.32,38.23-1.69,4.06-3.8,9.1-5.84,13.88l-.09.22h-.24a26.25,26.25,0,0,1-16.7-7.57,4.27,4.27,0,0,0-6.41,5.65,34.84,34.84,0,0,0,19.32,10.06l.44.07-.18.4c-20.46,45.48-35.89,53.51-48.28,55.37a29.59,29.59,0,0,1-14.09-1.3c-4.67-1.67-8.12-4.42-10-7.95a4.3,4.3,0,0,0-6.83,5.14l.09.16a26.28,26.28,0,0,0,12.24,10.24,36.58,36.58,0,0,0,19.82,2.16,42,42,0,0,0,15.26-5.38,57.65,57.65,0,0,0,14-11.85c9-10.15,17.57-24.85,27-46.27,2.63-6.23,5.28-12.42,6-14.17l0-.11c.76-1.82,1.53-3.65,2.28-5.46,6.12-14.65,11.89-28.49,16.87-37.31,1.08-1.9,2.16-3.72,3.23-5.4l.21-.32.29.24a27.18,27.18,0,0,1,10,16.93c.91,6.06-1.4,13.35-6.19,19.51" transform="translate(-96.98 -62.66)"/><path class="cls-1" d="M130,246.25a36.86,36.86,0,0,1-20-2.18,26.47,26.47,0,0,1-12.31-10.3l-.1-.16a4.53,4.53,0,0,1,7.19-5.41v.05c1.83,3.49,5.23,6.2,9.85,7.85a29.21,29.21,0,0,0,14,1.29c12.34-1.85,27.7-9.86,48.11-55.24l.06-.14h-.14a35.13,35.13,0,0,1-19.47-10.24,4.52,4.52,0,1,1,6.75-6,25.94,25.94,0,0,0,16.54,7.5h.09v-.07c2-4.8,4.14-9.83,5.83-13.88,6.22-14.9,12.09-29,17.33-38.25,1.09-1.93,2.21-3.8,3.34-5.58l.07-.12-.12-.05c-8.24-3.55-18.23-4.48-29.72-2.76C157.71,115.5,147.86,123.69,143,130v.05a4.53,4.53,0,0,1-6.83-5.93l.15-.19h0l.08-.1a48.17,48.17,0,0,1,15.1-12.45A74.18,74.18,0,0,1,176,103.77c13.16-2,24.78-.86,34.51,3.33A49.28,49.28,0,0,1,222.69,115a36,36,0,0,1,11.06,20.61c1.43,9.49-2.13,19.85-9.75,28.41-5.74,6.44-16.41,14.76-34.67,17.77l-.4.07.16-.38,4.07-9.57.05-.1h.11c13.73-3.47,21.39-10.35,25.39-15.5,4.75-6.11,7-13.34,6.15-19.34A26.83,26.83,0,0,0,215,120.18l-.1-.09-.07.11c-1.06,1.68-2.14,3.49-3.22,5.39-5,8.8-10.75,22.63-16.86,37.28l-2.28,5.46v.13c-1,2.26-3.51,8.19-6,14.16-9.39,21.44-18,36.16-27,46.33a57.87,57.87,0,0,1-14.06,11.89A42.11,42.11,0,0,1,130,246.25m-29.09-19A4.07,4.07,0,0,0,98,233.33l.09.16a26,26,0,0,0,12.13,10.15,36.5,36.5,0,0,0,19.69,2.13,41.9,41.9,0,0,0,15.18-5.36,57.22,57.22,0,0,0,14-11.8c9-10.13,17.53-24.81,26.9-46.21,2.52-6,5.06-11.89,6-14.17l.06-.11,2.27-5.45c6.12-14.67,11.9-28.52,16.89-37.34,1.08-1.91,2.16-3.73,3.23-5.41l.34-.53.5.4a27.34,27.34,0,0,1,10,17.06c.92,6.12-1.41,13.48-6.23,19.69l-.18-.14.18.14c-4,5.19-11.75,12.12-25.54,15.63-1,2.31-2.4,5.62-3.87,9.09,17.88-3,28.36-11.22,34-17.56,7.53-8.46,11-18.68,9.64-28a35.58,35.58,0,0,0-10.92-20.34,49.06,49.06,0,0,0-12.06-7.85c-9.65-4.15-21.18-5.26-34.27-3.3a74.09,74.09,0,0,0-24.31,7.7,47.89,47.89,0,0,0-14.95,12.34l-.39.49h0a4.08,4.08,0,0,0,6.31,5.14c4.87-6.42,14.81-14.69,34.56-17.65,11.56-1.74,21.64-.8,29.95,2.79l.61.26-.35.56c-1.12,1.77-2.24,3.64-3.33,5.56-5.22,9.25-11.09,23.31-17.3,38.2-1.69,4-3.79,9.08-5.84,13.89l-.16.37h-.4a26.52,26.52,0,0,1-16.85-7.65,4,4,0,0,0-6.07,5.35h0a34.55,34.55,0,0,0,19.21,10l.72.11-.3.67c-20.5,45.58-36,53.63-48.45,55.5a29.75,29.75,0,0,1-14.19-1.3c-4.71-1.69-8.2-4.47-10.09-8a4.11,4.11,0,0,0-3.54-1.19" transform="translate(-96.98 -62.66)"/><ellipse class="cls-2" cx="82.02" cy="33.67" rx="22.23" ry="22.24"/><path class="cls-1" d="M179,120.1a23.83,23.83,0,1,1,6.77-1A23.46,23.46,0,0,1,179,120.1Zm0-44.49a20.75,20.75,0,1,0,19.86,14.84A20.73,20.73,0,0,0,179,75.61Z" transform="translate(-96.98 -62.66)"/><path class="cls-1" d="M191.82,99.28a1.11,1.11,0,0,0-1.41.69h0s-1.36,3.88-6.59,5.43a14.29,14.29,0,0,1-9.77-.5,15.43,15.43,0,0,1-3.14-1.77,4.79,4.79,0,0,1-.35.72.11.11,0,0,1-.09.07h-.13a.17.17,0,0,1-.05-.22,4.18,4.18,0,0,0,.4-.89,7.85,7.85,0,0,0,.31-1.92,1.12,1.12,0,0,0-2.23-.12,4.19,4.19,0,0,1-2,3.66,1.12,1.12,0,0,0,1,2,1.22,1.22,0,0,0,.36-.18,9.81,9.81,0,0,0,1.42-1.31,16.72,16.72,0,0,0,14.91,2.65c6.33-1.88,8-6.66,8.07-6.86a1.11,1.11,0,0,0-.65-1.44Z" transform="translate(-96.98 -62.66)"/><path class="cls-1" d="M179.56,108.77a17.43,17.43,0,0,1-10-3.21,9.45,9.45,0,0,1-1.18,1,1.41,1.41,0,0,1-.52.26,1.64,1.64,0,0,1-1.75-.57,1.63,1.63,0,0,1,.31-2.27,3.7,3.7,0,0,0,1.81-3.29,1.62,1.62,0,1,1,3.23.18,8.09,8.09,0,0,1-.27,1.83,14.53,14.53,0,0,0,3,1.69,13.73,13.73,0,0,0,9.43.48c4.93-1.46,6.25-5.07,6.26-5.1a1.56,1.56,0,0,1,.81-.93,1.58,1.58,0,0,1,1.31-.07h0a1.63,1.63,0,0,1,1,2c-.07.22-1.83,5.23-8.41,7.18A17.48,17.48,0,0,1,179.56,108.77Zm-10.1-4.57.38.28a16.24,16.24,0,0,0,14.46,2.57c6.08-1.8,7.67-6.34,7.74-6.53a.61.61,0,0,0-.38-.77.64.64,0,0,0-.47,0,.61.61,0,0,0-.3.35s-1.44,4.13-6.93,5.76a14.84,14.84,0,0,1-10.11-.52,16,16,0,0,1-2.73-1.48,1,1,0,0,1-.13.22.63.63,0,0,1-.38.3.66.66,0,0,1-.53-.07.67.67,0,0,1-.23-.91,3.76,3.76,0,0,0,.36-.79,7.19,7.19,0,0,0,.28-1.79.6.6,0,0,0-.57-.64.65.65,0,0,0-.44.16.62.62,0,0,0-.2.42,4.66,4.66,0,0,1-2.21,4,.61.61,0,0,0,.55,1.07.57.57,0,0,0,.19-.1,8.7,8.7,0,0,0,1.34-1.23Zm1.26-.26Zm-.59-.35Z" transform="translate(-96.98 -62.66)"/><circle class="cls-1" cx="85.99" cy="26.18" r="2.22"/><path class="cls-1" d="M183,91.57a2.73,2.73,0,1,1,2.62-3.51h0a2.75,2.75,0,0,1-1.84,3.4A2.88,2.88,0,0,1,183,91.57Zm0-4.45a1.66,1.66,0,0,0-.49.07,1.72,1.72,0,1,0,2.13,1.13,1.74,1.74,0,0,0-1.62-1.2Z" transform="translate(-96.98 -62.66)"/><circle class="cls-1" cx="74.62" cy="29.55" r="2.22"/><path class="cls-1" d="M171.6,94.94a2.73,2.73,0,1,1,2.61-3.51h0a2.72,2.72,0,0,1-1.84,3.39A2.53,2.53,0,0,1,171.6,94.94Zm0-4.45a1.59,1.59,0,0,0-.48.07,1.72,1.72,0,1,0,2.14,1.17h0a1.72,1.72,0,0,0-1.66-1.23Z" transform="translate(-96.98 -62.66)"/><ellipse class="cls-2" cx="451.58" cy="79.07" rx="22.23" ry="22.24"/><path class="cls-1" d="M548.59,165.5a23.77,23.77,0,1,1,22.59-16.56h0A23.76,23.76,0,0,1,548.59,165.5Zm0-44.49a20.72,20.72,0,1,0,6.28,1,20.4,20.4,0,0,0-6.3-1Z" transform="translate(-96.98 -62.66)"/><path class="cls-1" d="M557.51,151.37a1.1,1.1,0,0,0-1.55-.21h0s-3.3,2.44-8.5.78a14.21,14.21,0,0,1-7.8-5.9,15,15,0,0,1-1.6-3.23,4.38,4.38,0,0,1-.7.4h-.11a.16.16,0,0,1-.1-.08.14.14,0,0,1,.07-.2h0a4.33,4.33,0,0,0,.82-.51,7.22,7.22,0,0,0,1.34-1.42,1.11,1.11,0,0,0-1.77-1.35h0a4.2,4.2,0,0,1-3.72,1.9,1.12,1.12,0,0,0-.28,2.18.9.9,0,0,0,.4,0,9.37,9.37,0,0,0,1.91-.28A16.76,16.76,0,0,0,546.77,154c6.29,2,10.36-1,10.53-1.14A1.1,1.1,0,0,0,557.51,151.37Z" transform="translate(-96.98 -62.66)"/><path class="cls-1" d="M551,155.26a14.56,14.56,0,0,1-4.39-.71,17.21,17.21,0,0,1-11-10.46,10.08,10.08,0,0,1-1.56.2,1.66,1.66,0,0,1-.58-.08,1.62,1.62,0,0,1,.4-3.16h0a3.7,3.7,0,0,0,3.34-1.7,1.63,1.63,0,1,1,2.57,2,8,8,0,0,1-1.25,1.36,14.86,14.86,0,0,0,1.54,3.09,13.76,13.76,0,0,0,7.53,5.7c4.89,1.56,8-.68,8-.71a1.61,1.61,0,0,1,2.26.31h0a1.61,1.61,0,0,1-.31,2.27h0A11.47,11.47,0,0,1,551,155.26Zm-14.76-12.38.15.45a16.29,16.29,0,0,0,10.53,10.26c6,1.92,9.9-.94,10.06-1.06a.62.62,0,0,0,.14-.87.63.63,0,0,0-.87-.13s-3.54,2.6-9,.87a14.85,14.85,0,0,1-8.07-6.11,16.78,16.78,0,0,1-1.43-2.76l-.22.11a.73.73,0,0,1-.89-.35.67.67,0,0,1,.32-.88,4.35,4.35,0,0,0,.74-.46,8.09,8.09,0,0,0,1.24-1.31.62.62,0,0,0-.12-.86.61.61,0,0,0-.85.12,4.64,4.64,0,0,1-4.09,2.1.62.62,0,0,0-.42.2.59.59,0,0,0-.15.44.63.63,0,0,0,.42.55.41.41,0,0,0,.22,0,8.41,8.41,0,0,0,1.8-.26Z" transform="translate(-96.98 -62.66)"/><circle class="cls-1" cx="459.07" cy="75.09" r="2.22"/><path class="cls-1" d="M556.05,140.49a2.93,2.93,0,0,1-.83-.13,2.73,2.73,0,1,1,3.43-1.78,2.75,2.75,0,0,1-2.6,1.91Zm0-4.45a1.71,1.71,0,0,0-.52,3.35,1.68,1.68,0,0,0,1.3-.11,1.71,1.71,0,0,0,.73-2.32,1.68,1.68,0,0,0-1-.84A1.49,1.49,0,0,0,556.05,136Z" transform="translate(-96.98 -62.66)"/><circle class="cls-1" cx="447.78" cy="71.49" r="2.22"/><path class="cls-1" d="M544.75,136.88a2.73,2.73,0,0,1-2.73-2.73,2.93,2.93,0,0,1,.13-.83,2.73,2.73,0,1,1,2.6,3.56Zm0-4.45a1.76,1.76,0,1,0,.52.09A1.5,1.5,0,0,0,544.75,132.43Z" transform="translate(-96.98 -62.66)"/><path class="cls-1" d="M276.83,282.09a30.37,30.37,0,0,0-7.82-3.56l2.34-4.19a28.31,28.31,0,0,1,8,3.09Zm1-11.77a30.19,30.19,0,0,0-8-3.71l2.46-4.26a32.54,32.54,0,0,1,8,3.36Zm13.94,12a19,19,0,0,1-1,2.24l19-2.19s.1,1.22.08,1.8c.43,8.33.27,11.93-.71,13.36a4.29,4.29,0,0,1-2.61,1.85,24.9,24.9,0,0,1-4.3.62,10.55,10.55,0,0,0-1.69-4.35,26.92,26.92,0,0,0,2.85-.19,1.46,1.46,0,0,0,1.2-.62c.49-.72.69-2.82.46-7.91l-1.78.2a32.32,32.32,0,0,1-7,13.61,26.75,26.75,0,0,0-4-2.27,24.3,24.3,0,0,0,6.21-10.78L296,288a37.87,37.87,0,0,1-8.8,12.79,29.65,29.65,0,0,0-3.84-2.73,29,29,0,0,0,7.51-9.47l-2.48.28a30.4,30.4,0,0,1-4,4.7,26,26,0,0,0-3.53-2.33c-1.19,3.84-2.51,7.74-3.79,11.15l-5-2.51a127.09,127.09,0,0,0,5.36-14.73l4.45,2.62c-.26.86-.51,1.73-.76,2.6a23.93,23.93,0,0,0,5.54-7.43l-4.88.56-.47-4.14L309.9,276l.47,4.14Zm14.74-7.65-21.64,2.49-1.7-14.85,21.66-2.54Zm-6.38-10.6-11.67,1.34.24,2,11.66-1.35Zm.62,5.44-11.66,1.34.24,2.14L301,271.62Z" transform="translate(-96.98 -62.66)"/><path class="cls-1" d="M318.82,272.22a14.11,14.11,0,0,0-2.95-1.86,30.28,30.28,0,0,0,4.64-13.69h4.73c-.18,1.17-.35,2.34-.61,3.51l4-.46.8-.36,3.09,1.59a56.38,56.38,0,0,1-2.16,5.72l4.92-.57,2,17.55-17,2Zm0,24c1.5-2.29,2-5.83,1.93-9.31l3.67.46c0,3.84-.25,7.79-2,10.38Zm4.8-31.92c-.31,1.13-.72,2.24-1.12,3.34l3.27-.37a28,28,0,0,0,1.11-3.35Zm-.38,10.14,2.44-.28-.31-2.7-2.44.28Zm.77,6.66,2.43-.28-.32-2.83-2.44.28Zm4.23,5a46,46,0,0,1,1.6,8.55l-3.48.8a46.09,46.09,0,0,0-1.38-8.58Zm3.2-15.33-2.48.28.31,2.7,2.48-.29Zm.9,14.76a33.49,33.49,0,0,1,2.89,7.87L332,294.49a37.11,37.11,0,0,0-2.69-8Zm-.15-8.23-2.48.28.32,2.83,2.48-.28Zm4.3,7.09a34.23,34.23,0,0,1,4.14,7.64l-3.2,1.69a34,34,0,0,0-3.86-7.89Zm22.31-1.62-8.14.93,1.21,10.45-5.05.59-1.21-10.46-7.4.86-.52-4.53,7.4-.85-.47-4.1-6.22.72-.51-4.44,6.22-.72-.44-3.79-7.13.82-.54-4.48,3.35-.39a32.74,32.74,0,0,0-3.62-6.91l4-2a29,29,0,0,1,4.12,7.42l-2.29,1.19,8.31-1-3-.4a53.13,53.13,0,0,0,2-8.35l5.39.53a81.64,81.64,0,0,1-2.82,8l3.83-.44.52,4.53-7.14.82.44,3.79,6.49-.75.51,4.44-6.49.75.47,4.09,8.14-.93Z" transform="translate(-96.98 -62.66)"/><path class="cls-1" d="M384.86,273.18l-4.2,4.54a80.58,80.58,0,0,0-10.46-8.5l4.07-4.49A82.1,82.1,0,0,1,384.86,273.18Z" transform="translate(-96.98 -62.66)"/><path class="cls-1" d="M398.43,261.51a41.78,41.78,0,0,0-3.13-9.88l3.51-1.33a40.13,40.13,0,0,1,3.38,9.81Zm31.25-16.26c1.57,6,4.52,11.7,8.24,14.58a23.67,23.67,0,0,0-3.22,3.77c.89,12.34.94,17-.09,18.76a4.28,4.28,0,0,1-2.88,2.19,24.86,24.86,0,0,1-4.86.69,10.86,10.86,0,0,0-1.79-4.43,31.87,31.87,0,0,0,3.54-.23,1.56,1.56,0,0,0,1.38-.81c.55-1,.6-4.35,0-13l-4.75.55c.07,8.64-1.86,14.86-7.21,19.32a18.22,18.22,0,0,0-3.73-3.28c4.64-3.4,6.2-8.57,6-15.47l-3.62.41-.37-3.22-.22.33c-.6-.55-1.72-1.48-2.73-2.24l.26,2.26-5.44.63.35,3.05,1.64-1.47a76.06,76.06,0,0,1,5.58,6.33l-2.88,4.08c-.91-1.7-2.7-4.63-4.08-6.68l1.85,16.11-4.78.56L404,272.34c-.47,4.37-1.56,9.09-3.49,11.83a34.7,34.7,0,0,0-2.89-5.58,24.32,24.32,0,0,0,3.08-10l2.94.63-.3-2.61-6.22.72-.56-4.84,6.22-.71-1.65-14.42,4.78-.55,1.66,14.42,5.44-.63v.17a28.33,28.33,0,0,0,3.07-12.44l4.93.27c-.43,5.52-1.63,10.78-3.77,14.78l14.84-1.71a36.5,36.5,0,0,1-5.88-11.24l-4.18.48-.54-4.74Zm-16.41,4.23c-.69,3.56-1.53,7.81-2.32,10.5l-3.46-.53A63.1,63.1,0,0,0,408.76,249Z" transform="translate(-96.98 -62.66)"/><path class="cls-1" d="M478.46,283.77a13.42,13.42,0,0,1-5.29,1.58,14.15,14.15,0,0,1-14.33-6.86c-7-.52-12.3-6.09-13.35-15.28-1.21-10.49,4-17.26,12.5-18.25s15.11,4.49,16.31,14.94c1,8.79-2.48,15.2-8.69,17.59,1.76,2.27,4.79,2.93,7.71,2.6a11.52,11.52,0,0,0,3.46-.93Zm-17.23-10.63c4.78-.55,7.33-5.26,6.5-12.49-.8-6.92-4.32-10.71-9.11-10.16s-7.36,5-6.56,12c.83,7.18,4.38,11.18,9.17,10.63Z" transform="translate(-96.98 -62.66)"/><path class="cls-1" d="M502.73,259.6l-4.2,4.55a82.18,82.18,0,0,0-10.46-8.51l4.07-4.48A82,82,0,0,1,502.73,259.6Z" transform="translate(-96.98 -62.66)"/><path class="cls-1" d="M516.3,248a41.33,41.33,0,0,0-3.16-9.83l3.51-1.33a39.89,39.89,0,0,1,3.41,9.71Zm11.91,6.09c1,1.07,4.89,6.14,5.7,7.41l-3.12,4.29a73.32,73.32,0,0,0-3.71-6.94l1.73,15.07-4.79.55-1.79-15.55c-.49,4.47-1.58,9.23-3.55,12a41.34,41.34,0,0,0-3.06-5.91,24.54,24.54,0,0,0,3.13-10l3.12.7-.31-2.7-6.56.78-.56-4.83,6.57-.76-1.67-14.41,4.79-.56,1.66,14.42,6.44-.74.56,4.83-6.44.74.34,3Zm3.54-18.3c-.73,3.61-1.52,7.85-2.32,10.5l-3.43-.5a65.87,65.87,0,0,0,1.28-10.38Zm3.11,9.44a37.89,37.89,0,0,1,7.89,4.16l-2.14,4.44a36.86,36.86,0,0,0-7.75-4.58Zm16.71,14.09,1.35,11.75-4.87.57-1.26-10.85-11.89,3.58-1.34-4.75,12.66-3.83L543.37,231l4.87-.57,2.76,24,4.34-1.34,1.34,4.75ZM541,242.93a35.31,35.31,0,0,0-7.39-4.88l2.08-3.77a32.29,32.29,0,0,1,7.51,4.49Z" transform="translate(-96.98 -62.66)"/><path class="cls-1" d="M567.7,249.39a55.42,55.42,0,0,0-7.7-4.06l2-4.11a54.08,54.08,0,0,1,7.78,3.56Zm.14-11.8a57.27,57.27,0,0,0-7.4-4.09l2.06-4a48.71,48.71,0,0,1,7.24,3.58l-.21-1.83,5.88-.68-.34-2.92,4.88-.56.33,2.92,6.1-.7.47,4.13-6.09.71.27,2.39,5.1-.59v.4A26.79,26.79,0,0,0,593.19,226l4.84,1a35.94,35.94,0,0,1-8,12.4,16.14,16.14,0,0,0-3.87-3l.41,3.53-15,1.73-.46-4,5-.58-.28-2.39-5.87.67-.23-2Zm4.48,16.73c-1.39,4.75-3.13,9.94-4.87,14.42l-4.18-3.05a130.32,130.32,0,0,0,5.39-14.43Zm15.44-2.66-14.49,1.67-1.13-9.79,14.49-1.67Zm14.33-.06A29.54,29.54,0,0,1,592,266.48a15.69,15.69,0,0,0-3.77-3.31c.33-.22.61-.43.93-.68-5.39,1.85-10.9,3.72-15.16,5.1l-1.78-4.39c2.61-.74,5.93-1.74,9.59-2.87a50.84,50.84,0,0,0,1.32-8.13l4.89.71c-.61,2-1.2,4.15-1.78,6l4-1.21.68,3.27a23.59,23.59,0,0,0,6.17-10.2Zm-24.53,1.5a21.26,21.26,0,0,1,2.88,6.25l-4.19,1.89a22.55,22.55,0,0,0-2.64-6.45Zm4.81-7.26-5.4.62.34,2.92,5.4-.62ZM600,239.09a32.42,32.42,0,0,1-8.22,12.5,19.18,19.18,0,0,0-3.93-3.07,24.94,24.94,0,0,0,7.27-10.46Z" transform="translate(-96.98 -62.66)"/><path class="cls-1" d="M613.67,244.36a42.15,42.15,0,0,0-6.15-5.16l3.07-3.22a33.87,33.87,0,0,1,6.32,4.78Zm.05-11.44a35.05,35.05,0,0,0-6.06-5.48l3.26-3.15a38.42,38.42,0,0,1,6.23,5.15ZM618.81,248c-.8,4.91-1.95,10.29-3.11,14.79l-4.86-2a119.66,119.66,0,0,0,3.58-14.93Zm31.37,3.19-5.75.66,1,8.49-4.79.55-1-8.49-6.32.73-.5-4.4-4.09.47c-.14,4.91-1.29,9.55-4.8,13.52a19.37,19.37,0,0,0-4.41-2.71,16.48,16.48,0,0,0,4.34-10.28l-4.22.49-.53-4.66,4.78-.55a30.82,30.82,0,0,0-.32-3.54l-.29-2.53-4.52.52-.54-4.65,4.53-.53-.64-5.57c-1.21.27-2.33.49-3.46.66a19.46,19.46,0,0,0-1.74-4,65.49,65.49,0,0,0,11.45-3.57l2.91,4.21-.34-3,15.54-1.79L647,226l-5.48.63.42,3.66,4.87-.56.54,4.66-4.87.56.43,3.74,4.87-.56.54,4.66-4.88.56.44,3.79,5.74-.66Zm-11.08-3.54-.44-3.79-4.74.55-.54-4.66,4.75-.54-.43-3.75-4.75.55-.53-4.66,4.74-.55-.42-3.66-5.27.61-.19-1.65c-1.39.55-2.92,1-4.54,1.53l.71,6.14,4.18-.48.53,4.66-4.18.48.29,2.53c.14,1.22.27,2.35.32,3.54L633,244l.5,4.31Z" transform="translate(-96.98 -62.66)"/><path class="cls-1" d="M657.23,227.87l-.91-6,6.44-.74.48,6.08.94,16.17-4.18.48ZM659,251.45a4.07,4.07,0,1,1,0,.19C659,251.58,659,251.51,659,251.45Z" transform="translate(-96.98 -62.66)"/><path class="cls-1" d="M364.16,222.69c-.1-.52-.26-1.12-.42-1.76-6.34,1.61-7.53,2.06-8.23,2.49a32.37,32.37,0,0,0-1.78-3.59c.89-.32,1.62-1.24,2.57-2.63.37-.57,1.19-1.86,2.11-3.51-2.53.65-3.29.95-3.74,1.27a30.71,30.71,0,0,0-1.78-3.59c.64-.21,1.13-.92,1.64-1.91a33.73,33.73,0,0,0,2.6-8l4.17.93a45.43,45.43,0,0,1-3.24,7.92l2.24-.43c.56-1.3,1.15-2.65,1.58-4l3.88,1.58a61,61,0,0,1-6.35,11.1l3.4-.74c-.29-1-.62-1.92-.94-2.76l3.18-1.12a59.17,59.17,0,0,1,2.46,7.57Zm13.17,4.44,1.42,12.37-5.18.59-1.42-12.32-17.23,2-.5-4.26,17.24-2-.24-2.09,5.18-.6.24,2.09L393.68,221l.49,4.27Zm-6.5,3.66a27.41,27.41,0,0,1-12.36,9.9,25,25,0,0,0-3.88-3.88c4.71-1.51,9.51-4.27,11.88-7.1ZM378,202.35l2,17.07-12.23,1.41-2-17.07,3.48-.4a26.53,26.53,0,0,0,.27-4.18l4.8.24-1,3.47Zm-4.13,4.32-3.27.37.34,2.92,3.27-.38Zm.74,6.44-3.26.38.35,3,3.26-.37Zm16.61-1.69a69,69,0,0,1,2.7,7.36l-3.38,1.32c-.1-.52-.25-1.07-.41-1.67-6.41,1.44-7.64,1.85-8.33,2.32A33.22,33.22,0,0,0,380,217c.89-.32,1.62-1.25,2.57-2.59a39,39,0,0,0,2.22-3.65c-3,.78-3.8,1.1-4.28,1.46a27.84,27.84,0,0,0-1.8-3.68,3.71,3.71,0,0,0,1.59-1.94,34,34,0,0,0,2.63-8.16l4.32.69a41.59,41.59,0,0,1-3.25,8.19l2.88-.6c.49-1.16,1-2.41,1.44-3.65l4,1.7a64.83,64.83,0,0,1-6.61,11.18l3.36-.7c-.33-.93-.65-1.82-1-2.62Zm-8.49,15.89A81.61,81.61,0,0,1,395.2,233l-2.88,4.08A76.48,76.48,0,0,0,380,230.88Z" transform="translate(-96.98 -62.66)"/><path class="cls-1" d="M440.49,205.56a43.8,43.8,0,0,1-4,12.47c.78,1.76,1.46,2.7,2.07,2.63s.68-1.71.37-5.25a12,12,0,0,0,3.62,2c0,5.74-1,7.49-4,7.78-1.69.2-3.19-.91-4.57-2.95a26,26,0,0,1-5.1,5.48c4.44-.51,12.13-1.44,15.08-1.91a16.66,16.66,0,0,0-1.41,5.37L426.79,233c-8.49,1-14.28.41-18.67-4.78a24.07,24.07,0,0,1-2,8.17,11.59,11.59,0,0,0-3.72-2.79c2.17-5.24,1.61-12,.72-17.86l4.38-.24c.24,1.65.44,3.39.59,5.09a15.37,15.37,0,0,0,2.93,4.34l-1.43-12.37-8.44,1-.53-4.58,7.45-.85-.43-3.7-6.05.69-.52-4.53,6.05-.69-.53-4.62,4.78-.55.54,4.62,5.87-.68.52,4.53-5.87.67.42,3.71,6.62-.77.52,4.58-5.74.66.55,4.74,4.91-.56.46,4a3.83,3.83,0,0,0,1.42-3.38l-1.86-16.07,7.83-.9c-.39-2.3-.69-4.56-1-6.9l4.66-.54c.23,2.36.53,4.66.88,6.91l3.61-.41a45.92,45.92,0,0,0-3.87-4.5l3.28-2.18a54.81,54.81,0,0,1,4.32,4.57l-2.86,2,3.4-.39.5,4.31-7.71.89c.57,3,1.15,5.73,1.78,8.17a40.36,40.36,0,0,0,1.82-6.82Zm-24.43,22.27c2.78.79,6.16.66,10.16.2l2.49-.28a22.33,22.33,0,0,0-3.51-3.22,23.85,23.85,0,0,0,6.51-7.06,83.27,83.27,0,0,1-3.43-13.37l-3.44.4L426.16,216l2.84-2.18a19.75,19.75,0,0,0,1.67,3.83c-6.39,5-7.59,6.08-8.19,7a19,19,0,0,0-2.26-3.93l-4.92.57Z" transform="translate(-96.98 -62.66)"/><path class="cls-1" d="M462.75,217.52c-.57-1.13-1.55-2.69-2.52-4.3L462.16,230l-4.79.55-1.64-14.29a36.44,36.44,0,0,1-3,7.94,30.07,30.07,0,0,0-3.11-4.8c1.93-3.09,3.57-8,4.53-12.35l-4.7.54-.56-4.83,5.23-.6-.61-5.27c-1.28.41-2.51.77-3.76,1.09a17.5,17.5,0,0,0-1.89-3.8,57.06,57.06,0,0,0,11.48-4.85l3.49,3.84a30.37,30.37,0,0,1-4.66,2.08l.73,6.35,4.66-.53.56,4.83-4.66.54.07.61c1,1,3.94,4,5.26,5.44a65.69,65.69,0,0,0,.44-11.13l3.93.43c.17,4.61.13,10.71-.72,14.42l-4.21-.88c.06-.27.16-.55.21-.86Zm20.28,4.9c1.26-.15,1.4-1.22,1-6.16a15.29,15.29,0,0,0,4.66,1.44c.23,6.55-.84,8.79-4.71,9.24l-5,.57c-3.75.43-5.35-.49-6.08-3.76a52.55,52.55,0,0,1-4,4.44,33.81,33.81,0,0,0-4.59-3.09,42.15,42.15,0,0,0,7.62-8.91l-2.06-17.85,5-.57,1.2,10.4a77.3,77.3,0,0,0,4.72-18.76l5.08.47a107.9,107.9,0,0,1-2.68,12.71l2.49-1a71.66,71.66,0,0,1,5.14,12.07l-4.54,1.93a67.9,67.9,0,0,0-3.91-10.22,70.49,70.49,0,0,1-5.23,12.11l.39,3.4c.21,1.83.42,2.11,1.77,2Zm-6.47-25.16a83.16,83.16,0,0,0-8.68-5.7l2.77-3.9a94.78,94.78,0,0,1,8.75,5.17Z" transform="translate(-96.98 -62.66)"/><path class="cls-1" d="M511.42,194.57l-16.19,1.87-.47-4.1,6.61-.76a40.28,40.28,0,0,0-2.76-5.24l4.23-1.9a34.46,34.46,0,0,1,3.16,5.33l-3.29,1.66,8.27-1Zm-1.11,6.09-12.62,1.45-.45-3.92,12.62-1.42ZM497.91,204l12.62-1.45.45,3.92-12.62,1.45Zm27,2.24c-.19,6.33-2,12.45-8.09,17.43a24.29,24.29,0,0,0-4.19-3.44l.18,1.52-8.49,1,.19,1.7-4.31.49-1.71-14.89,12.8-1.47,1.33,11.58a18.27,18.27,0,0,0,7-13.29l-6.57.75-.56-4.83,7.19-.83a29.12,29.12,0,0,0-.3-3.36l-.51-4.44-6.27.72-.56-4.83,6.27-.72-.74-6.45,5.13-.59.75,6.44,8.7-1,1.45,12.63,2.83-.33.56,4.84Zm-17.54,7-4.09.47.56,4.88,4.09-.47Zm17.12-15.21c.13,1.13.26,2.22.35,3.36l3.83-.44-.9-7.8-3.79.44Zm5.3,8.13c3,3.85,7.1,9.11,9.1,12.32l-4.34,3c-1.83-3.32-5.81-8.78-8.75-12.85Z" transform="translate(-96.98 -62.66)"/><path class="cls-1" d="M549.7,189.24a4.16,4.16,0,1,1,4.69,3.56h-.09a4.08,4.08,0,0,1-4.59-3.5A.17.17,0,0,0,549.7,189.24ZM552.09,210a4.16,4.16,0,1,1,4.69,3.56h-.09a4.08,4.08,0,0,1-4.59-3.5A.17.17,0,0,0,552.09,210Z" transform="translate(-96.98 -62.66)"/><path class="cls-1" d="M245.56,320.94l16.93-19.71c1.27-1.48-.87-3.64-2.15-2.15l-16.93,19.69c-1.27,1.48.87,3.64,2.15,2.15Z" transform="translate(-96.98 -62.66)"/><path class="cls-1" d="M256.59,324.77l9-18.17c.87-1.75-1.75-3.29-2.63-1.53l-9,18.16C253.09,325,255.71,326.52,256.59,324.77Z" transform="translate(-96.98 -62.66)"/><path class="cls-1" d="M240.38,310.68l12.73-8.91c1.58-1.12.07-3.76-1.54-2.63l-12.73,8.94c-1.58,1.11-.07,3.75,1.54,2.62Z" transform="translate(-96.98 -62.66)"/><path class="cls-1" d="M595,179.65l-17,19.71c-1.27,1.48.87,3.64,2.14,2.15l17-19.74c1.27-1.48-.87-3.64-2.15-2.15Z" transform="translate(-96.98 -62.66)"/><path class="cls-1" d="M583.92,175.77l-9,18.17c-.87,1.75,1.75,3.29,2.62,1.54l9-18.17c.86-1.75-1.76-3.29-2.63-1.54Z" transform="translate(-96.98 -62.66)"/><path class="cls-1" d="M600.13,189.91l-12.73,8.94c-1.59,1.11-.07,3.75,1.53,2.62l12.73-8.93C603.25,191.42,601.74,188.79,600.13,189.91Z" transform="translate(-96.98 -62.66)"/><path class="cls-1" d="M284.54,232.48c-3.85,4.34.09,11.44,5.89,9.66a5.77,5.77,0,0,0,4.18-5.77,6.23,6.23,0,0,0-5-5.66c-1.91-.33-2.73,2.6-.8,2.93,2.88.5,3.9,4.49.81,5.57a2.82,2.82,0,0,1-2.94-4.58c1.29-1.46-.85-3.62-2.15-2.15Z" transform="translate(-96.98 -62.66)"/><path class="cls-1" d="M617.93,277.92c-4.15-4.24-11.6-.32-9.91,5.57s10,5.37,11.41-.39c.46-1.9-2.47-2.71-2.93-.81-.69,2.79-4.67,3.39-5.55.39s2.81-4.68,4.83-2.61c1.37,1.4,3.51-.75,2.15-2.15Z" transform="translate(-96.98 -62.66)"/></svg>