<svg id="圖層_1" data-name="圖層 1" xmlns="http://www.w3.org/2000/svg" viewBox="0 0 455 205.27"><defs><style>.cls-1{fill:#1b1464;}</style></defs><title>開胃小菜_標題</title><path class="cls-1" d="M132.26,549l20.08-2.75-5.18,42.66,8.85-1.21-4.24-47.94,21-2.88,3.14,72.45-18,2.47-1.17-15.52-10.71,3.06-1.75,14.33-15.81,2.16Z" transform="translate(-128.49 -450.96)"/><path class="cls-1" d="M189,544.71,209.12,542l-2.26,63.13L190,607.4Zm19.33,40.47a152.38,152.38,0,0,0,7.26-19.32q2.33-8.16,1.51-14.09a13.16,13.16,0,0,0-1.85-5.36,14.42,14.42,0,0,0-3.94-4,29.73,29.73,0,0,0-6.22-3.22c-2.46-1-5.36-2-8.69-3.1L219.82,528q4.06,1.77,7.15,3.47a25.42,25.42,0,0,1,5.22,3.68,15.44,15.44,0,0,1,5,9.65q.84,6.13-1.64,15.43a176.32,176.32,0,0,1-8,22.34Z" transform="translate(-128.49 -450.96)"/><path class="cls-1" d="M246.83,536.79,266.91,534l-2.26,63.14-16.86,2.3Zm19.33,40.48a153,153,0,0,0,7.26-19.33q2.32-8.15,1.52-14.08a13.41,13.41,0,0,0-1.85-5.36,14.29,14.29,0,0,0-3.94-4,30.24,30.24,0,0,0-6.22-3.23q-3.71-1.46-8.7-3.1l23.38-8.07c2.71,1.18,5.09,2.34,7.16,3.47a26,26,0,0,1,5.22,3.68,15.57,15.57,0,0,1,5,9.65q.84,6.14-1.65,15.43a174.7,174.7,0,0,1-8,22.33Z" transform="translate(-128.49 -450.96)"/><path class="cls-1" d="M306,540.46,321,534.58l0-.21-18,3,1.82-16.14,37.66-5.16L342,530.65l-15.93,2.81-.82,15.69,16.33-2.24-.44,11.5-16.53,3.12-.59,15,16.66-1.44-.41,11.71L306,591.52Z" transform="translate(-128.49 -450.96)"/><path class="cls-1" d="M359.39,533.35l14.9-5.75,0-.2-26.8,4.73-.17-16.72,42.55-5.83-.62,15.56-9.74,1.65-1.9,54.93-17.38,2.37Z" transform="translate(-128.49 -450.96)"/><path class="cls-1" d="M398.18,509.71l21.12-2.89L417,576.32l-17.37,2.38Z" transform="translate(-128.49 -450.96)"/><path class="cls-1" d="M447.06,516.58l-20,2.74,1.33-15,46.51-6.37L450.55,559l17.65-1.14-.75,11.54-39.33,5.38Z" transform="translate(-128.49 -450.96)"/><path class="cls-1" d="M483,516.21l15.1-5.88,0-.2-18,3L481.86,497l37.67-5.15-.44,14.57-15.94,2.82-.82,15.68,16.34-2.23-.44,11.5-16.54,3.11-.59,15,16.66-1.43-.41,11.71L483,567.28Z" transform="translate(-128.49 -450.96)"/><path class="cls-1" d="M531.13,497.86l20.08-2.74L549,558.25l-16.86,2.31Zm19.49,38.55,7.6-18.74a39.15,39.15,0,0,0,2.53-8.66,23,23,0,0,0,.39-4.87,11.09,11.09,0,0,0-3.29-6.23,19.58,19.58,0,0,0-7.63-4.57l-11.69-4.12,23.38-8.07q18.63,6.77,20.24,18.52,1.38,10.09-8.22,23.59l-6.21,8.79,15.77,21.47-21.23,2.9Z" transform="translate(-128.49 -450.96)"/><path class="cls-1" d="M242,506a6.31,6.31,0,0,1-3.71-5.26,5.68,5.68,0,0,1,.28-3.17,2.3,2.3,0,0,1,1.9-1.34,2.48,2.48,0,0,1,1.69.29,1.62,1.62,0,0,1,.8,1.23A6.72,6.72,0,0,1,243,499c0,.1,0,.27,0,.52a6.93,6.93,0,0,0,.05.77,2.64,2.64,0,0,0,2,2.23,11,11,0,0,0,4.78.16,9.17,9.17,0,0,0,4.72-1.78,3.54,3.54,0,0,0,1.32-3.38,3.12,3.12,0,0,0-1.1-2,6.8,6.8,0,0,0-2.22-1.22c-.86-.29-2.06-.63-3.61-1a38.68,38.68,0,0,1-4.88-1.45,9.65,9.65,0,0,1-3.41-2.28,7,7,0,0,1-1.85-4,8.17,8.17,0,0,1,.77-4.88,9.24,9.24,0,0,1,3.63-3.75,16.07,16.07,0,0,1,6.09-2,14.65,14.65,0,0,1,5,.12,8,8,0,0,1,3.91,1.9,6.14,6.14,0,0,1,1.88,3.77,7.12,7.12,0,0,1-.22,3.58,2.44,2.44,0,0,1-3.57,1.08,1.85,1.85,0,0,1-.83-1.3,7.32,7.32,0,0,1-.06-1.3c0-.74-.06-1.21-.09-1.4a2.56,2.56,0,0,0-1.82-2.14,7.86,7.86,0,0,0-3.85-.29,8.55,8.55,0,0,0-4.66,1.81,3.77,3.77,0,0,0-1.22,3.47,3.56,3.56,0,0,0,1.19,2.26,7.07,7.07,0,0,0,2.37,1.36q1.37.48,3.81,1.08a45.28,45.28,0,0,1,4.75,1.44,9,9,0,0,1,3.22,2.09,6.34,6.34,0,0,1,1.72,3.72,7.69,7.69,0,0,1-2.37,7.09c-2,1.86-4.79,3-8.45,3.53A14.64,14.64,0,0,1,242,506Z" transform="translate(-128.49 -450.96)"/><path class="cls-1" d="M266.93,502.76a6.58,6.58,0,0,1-1.57-3.65A31.69,31.69,0,0,1,265,494a31.05,31.05,0,0,1,.54-5,3.05,3.05,0,0,1,.81-1.72,3.71,3.71,0,0,1,2-.76,1.91,1.91,0,0,1,1.16.1,1,1,0,0,1,.41.73,13.65,13.65,0,0,1-.13,2c-.12.94-.2,1.78-.25,2.54a37,37,0,0,0,0,5.22,2.17,2.17,0,0,0,.34,1.06.62.62,0,0,0,.62.23q.56-.07,1.23-1.29a16.43,16.43,0,0,0,1.3-3.57,45.26,45.26,0,0,0,1.06-5.74,2.87,2.87,0,0,1,.68-1.7,2.93,2.93,0,0,1,1.75-.72,2.34,2.34,0,0,1,1.2,0,.81.81,0,0,1,.43.7,35.77,35.77,0,0,1-.23,5.14,41.78,41.78,0,0,0-.23,5.93,1.76,1.76,0,0,0,.44,1,1,1,0,0,0,.83.28,2.93,2.93,0,0,0,1.61-1.14,29.43,29.43,0,0,0,2.29-3.28,1.33,1.33,0,0,1,.92-.65.85.85,0,0,1,.81.34,2.25,2.25,0,0,1,.44,1.17,3.36,3.36,0,0,1-.38,2.36,16.24,16.24,0,0,1-2.95,3.65,7.2,7.2,0,0,1-4,1.82,2.85,2.85,0,0,1-2.77-1,7.52,7.52,0,0,1-1.35-3.7,8.51,8.51,0,0,1-1.34,4.08,3.67,3.67,0,0,1-2.49,1.71A3.19,3.19,0,0,1,266.93,502.76Z" transform="translate(-128.49 -450.96)"/><path class="cls-1" d="M304.73,491.06a2.43,2.43,0,0,1,.44,1.17,3.44,3.44,0,0,1-.39,2.37,16.41,16.41,0,0,1-2.95,3.65,7.19,7.19,0,0,1-3.95,1.81,4.06,4.06,0,0,1-3.34-1,8.33,8.33,0,0,1-4.17,2,45,45,0,0,1-.54,12.1c-.69,3.32-2.12,5.12-4.29,5.42a3.33,3.33,0,0,1-3.13-1,7.19,7.19,0,0,1-1.49-3.83,26.39,26.39,0,0,1,.49-8.59,58.27,58.27,0,0,1,3.65-11.23q-.74-5.34-1.1-7.42a1.9,1.9,0,0,1,.62-1.8,3.77,3.77,0,0,1,2.11-.92,1.65,1.65,0,0,1,1.16.16,1.73,1.73,0,0,1,.55,1.17c.09.61.16,1.06.22,1.35a8.48,8.48,0,0,1,2-2.42,4.85,4.85,0,0,1,2.33-1,4.11,4.11,0,0,1,3.58,1.18,6.86,6.86,0,0,1,1.9,4.14,11.9,11.9,0,0,1-.11,3.86,12.62,12.62,0,0,1-1.26,3.57,5,5,0,0,0,1.31,0,3.72,3.72,0,0,0,2.19-1.19,21.88,21.88,0,0,0,2.41-3.32,1.33,1.33,0,0,1,.92-.65A.88.88,0,0,1,304.73,491.06Zm-18.33,19.4a92.58,92.58,0,0,0-.63-10.83,52.63,52.63,0,0,0-1.53,7.34,21.72,21.72,0,0,0-.15,5.72,4.73,4.73,0,0,0,.52,1.76c.24.39.48.57.73.53C286,514.89,286.35,513.38,286.4,510.46Zm5.91-14.69a8.51,8.51,0,0,0,1.38-3.1,9.79,9.79,0,0,0,.17-3.66,2.67,2.67,0,0,0-.67-1.61,1.43,1.43,0,0,0-1.25-.41c-.88.12-1.81,1.2-2.8,3.22.12,1.08.33,2.66.61,4.73.15,1.13.26,2,.32,2.61A5,5,0,0,0,292.31,495.77Z" transform="translate(-128.49 -450.96)"/><path class="cls-1" d="M321.2,488.8a2.18,2.18,0,0,1,.44,1.17,3.36,3.36,0,0,1-.38,2.36,13.62,13.62,0,0,1-3.41,3.57,10.77,10.77,0,0,1-5.1,2.12,8.23,8.23,0,0,1-6.26-1.27,7.72,7.72,0,0,1-2.91-5.42,10.82,10.82,0,0,1,.41-4.85,8.83,8.83,0,0,1,2.48-3.87,7.39,7.39,0,0,1,4.09-1.86,4.68,4.68,0,0,1,3.58.79,4.6,4.6,0,0,1,1.75,3.25,6,6,0,0,1-1.21,4.59c-1.05,1.37-3,2.61-5.75,3.71.77,1,2,1.44,3.72,1.21a8.08,8.08,0,0,0,3.59-1.67,12.48,12.48,0,0,0,3.23-3.52,1.31,1.31,0,0,1,.92-.65A.85.85,0,0,1,321.2,488.8Zm-12.84-2.49a7.31,7.31,0,0,0-.41,3.93v.08a8.34,8.34,0,0,0,3.19-2,3.06,3.06,0,0,0,.92-2.55,1.56,1.56,0,0,0-.54-1.06,1.33,1.33,0,0,0-1.1-.28A2.7,2.7,0,0,0,308.36,486.31Z" transform="translate(-128.49 -450.96)"/><path class="cls-1" d="M338,482.67a2,2,0,0,1,.76,1.33,3,3,0,0,1-.08,1.06,6.24,6.24,0,0,1-1.34,2.5,3.51,3.51,0,0,1-2.22,1.23,2.36,2.36,0,0,1-1.84-.49,2.72,2.72,0,0,1-1-1.88c-.07-.46-.11-1-.14-1.51a7.31,7.31,0,0,0,0-.82.69.69,0,0,0-.19-.42.41.41,0,0,0-.33-.1c-.35.05-.75.52-1.23,1.42a18.16,18.16,0,0,0-1.31,3.48,27.46,27.46,0,0,0-.85,4.44,5.73,5.73,0,0,1-.59,2.47,2.15,2.15,0,0,1-1.6.82,2,2,0,0,1-2.17-1.2,14.33,14.33,0,0,1-1.21-4.61,30.31,30.31,0,0,1,.11-9.23,2.87,2.87,0,0,1,.87-1.7,3.83,3.83,0,0,1,2-.78,2,2,0,0,1,1.05,0,.76.76,0,0,1,.39.65,14.46,14.46,0,0,1-.19,2.72c-.11,1-.19,1.89-.23,2.64a25.19,25.19,0,0,0,0,2.76,21.17,21.17,0,0,1,2-5.5,10.84,10.84,0,0,1,2.54-3.22,5.36,5.36,0,0,1,2.49-1.2,2.13,2.13,0,0,1,1.71.38,2.52,2.52,0,0,1,.82,1.7,15.82,15.82,0,0,1-.05,2.69l.33,0A2,2,0,0,1,338,482.67Z" transform="translate(-128.49 -450.96)"/><path class="cls-1" d="M362.66,489.54a11.64,11.64,0,0,1-5.57-3.84,13.35,13.35,0,0,1-2.66-6.58,21.82,21.82,0,0,1,.72-9.83,15.9,15.9,0,0,1,4.63-7.22,13.85,13.85,0,0,1,7.41-3.35q4-.54,6.29,1.21a7.3,7.3,0,0,1,2.79,5.08,7.09,7.09,0,0,1-.3,3.69,2.7,2.7,0,0,1-3.74,1.41,1.7,1.7,0,0,1-.78-1.31,10.23,10.23,0,0,1,0-1.22,9.26,9.26,0,0,0,0-1.79q-.45-3.33-4-2.85a7.88,7.88,0,0,0-4.4,2.21,11.19,11.19,0,0,0-2.92,5.12,18,18,0,0,0-.35,7.45,9.16,9.16,0,0,0,3.38,6.46q2.79,2.06,7.59,1.4a20.6,20.6,0,0,0,4.73-1.26,38.16,38.16,0,0,0,5.15-2.59,2.49,2.49,0,0,1,.89-.35,1,1,0,0,1,.94.32,2.13,2.13,0,0,1,.45,1.09,3.52,3.52,0,0,1-2,3.63,25.09,25.09,0,0,1-5.17,2.41,29,29,0,0,1-5.26,1.26A17,17,0,0,1,362.66,489.54Z" transform="translate(-128.49 -450.96)"/><path class="cls-1" d="M397.34,478.34a2.33,2.33,0,0,1,.44,1.17,3.43,3.43,0,0,1-.39,2.37,15.55,15.55,0,0,1-3,3.65,7.45,7.45,0,0,1-4,1.83,5.15,5.15,0,0,1-5.18-2.28,16.24,16.24,0,0,1-2.6-7.36,52.23,52.23,0,0,1-.24-10.34,34.88,34.88,0,0,1,2.05-10.28q1.69-4.41,4.81-4.84a3.15,3.15,0,0,1,3,1.25,9.08,9.08,0,0,1,1.65,4.53,27,27,0,0,1-1,10.44,57,57,0,0,1-5,12.29,4.16,4.16,0,0,0,1.13,2,2,2,0,0,0,1.63.43,4.24,4.24,0,0,0,2.52-1.22,20,20,0,0,0,2.49-3.35,1.27,1.27,0,0,1,.92-.64A.85.85,0,0,1,397.34,478.34Zm-9.92-19a51,51,0,0,0-.83,7.8,55.69,55.69,0,0,0,.31,8.76,47.77,47.77,0,0,0,3-9.16,23.88,23.88,0,0,0,.46-8.06q-.39-2.79-1.41-2.64C388.35,456.07,387.85,457.17,387.42,459.3Z" transform="translate(-128.49 -450.96)"/><path class="cls-1" d="M398.54,484.56a6.6,6.6,0,0,1-2-4.14,12,12,0,0,1,.59-5.73,11.83,11.83,0,0,1,3-4.71,8.35,8.35,0,0,1,4.56-2.25,1.48,1.48,0,0,1,1.13.17,2.69,2.69,0,0,1,.61,1.05,8.79,8.79,0,0,1,1.59-.37c1.2-.16,1.85.18,2,1a27.63,27.63,0,0,1,0,3.74,35.55,35.55,0,0,0,0,6,1.33,1.33,0,0,0,.39.84.89.89,0,0,0,.76.23,2.79,2.79,0,0,0,1.57-1.13A32.56,32.56,0,0,0,415,476a1.28,1.28,0,0,1,.92-.65.85.85,0,0,1,.81.33,2.33,2.33,0,0,1,.44,1.17,3.38,3.38,0,0,1-.38,2.37,18.62,18.62,0,0,1-2.76,3.59,5.48,5.48,0,0,1-3.08,1.73,3.5,3.5,0,0,1-2.33-.52,5,5,0,0,1-1.83-2c-1,2.23-2.45,3.47-4.38,3.74A4.5,4.5,0,0,1,398.54,484.56Zm6.07-3.89a6.38,6.38,0,0,0,.72-2.68l.42-6.92a4.49,4.49,0,0,0-2.67,1.54,7.76,7.76,0,0,0-1.67,3.23,10.28,10.28,0,0,0-.24,4,2.66,2.66,0,0,0,.69,1.62,1.58,1.58,0,0,0,1.34.38A2,2,0,0,0,404.61,480.67Z" transform="translate(-128.49 -450.96)"/><path class="cls-1" d="M421.68,483a2.58,2.58,0,0,1-1.27-1.84,2.26,2.26,0,0,1,.46-1.74,2.84,2.84,0,0,1,2-1,9.17,9.17,0,0,1,1.13-.06h1a4.85,4.85,0,0,0-.67-1.74,9.66,9.66,0,0,0-1.19-1.5c-.47-.47-.9-.87-1.29-1.22a24.2,24.2,0,0,1-1.76,3.9,25.85,25.85,0,0,1-2.07,3,2,2,0,0,1-1.3.86,1.23,1.23,0,0,1-1-.3,1.54,1.54,0,0,1-.51-1,2.16,2.16,0,0,1,.33-1.42l.4-.65a47.61,47.61,0,0,0,2.47-4.52c.32-.77.68-1.78,1.08-3s.78-2.57,1.14-3.91a2.85,2.85,0,0,1,2.67-2,3.87,3.87,0,0,1,1.46,0,.63.63,0,0,1,.48.53,2.93,2.93,0,0,1-.05.72,5.51,5.51,0,0,1-.27,1,5.18,5.18,0,0,0-.35,2.33,2.42,2.42,0,0,0,.55,1.15,13.63,13.63,0,0,0,1.41,1.49,23.18,23.18,0,0,1,2.14,2.37,4.89,4.89,0,0,1,.93,2.28c0,.24,0,.59.07,1q1.69-.94,3.7-4.28a1.31,1.31,0,0,1,.92-.65.85.85,0,0,1,.81.34,2.26,2.26,0,0,1,.44,1.17,3.57,3.57,0,0,1-.38,2.36,11.45,11.45,0,0,1-3.07,3.58,10,10,0,0,1-4,1.46,5.27,5.27,0,0,1-3.31,1.72A4.31,4.31,0,0,1,421.68,483Z" transform="translate(-128.49 -450.96)"/><path class="cls-1" d="M440,480.47a2.59,2.59,0,0,1-1.28-1.84,2.26,2.26,0,0,1,.47-1.74,2.78,2.78,0,0,1,1.95-1,9.29,9.29,0,0,1,1.13-.06h1a4.56,4.56,0,0,0-.67-1.73,8.81,8.81,0,0,0-1.19-1.5c-.46-.47-.89-.88-1.29-1.22a24.12,24.12,0,0,1-1.76,3.9,27.53,27.53,0,0,1-2.06,3,2,2,0,0,1-1.3.85,1.21,1.21,0,0,1-1-.29,1.5,1.5,0,0,1-.51-1,2.12,2.12,0,0,1,.32-1.43l.4-.65a49.18,49.18,0,0,0,2.48-4.52c.31-.76.67-1.78,1.07-3s.78-2.56,1.14-3.9a2.85,2.85,0,0,1,2.68-2,3.62,3.62,0,0,1,1.45,0,.59.59,0,0,1,.48.53,2.45,2.45,0,0,1-.05.71,4.89,4.89,0,0,1-.27,1,5.14,5.14,0,0,0-.35,2.32,2.4,2.4,0,0,0,.55,1.16,14,14,0,0,0,1.42,1.48,23,23,0,0,1,2.13,2.38,4.81,4.81,0,0,1,.93,2.28,8,8,0,0,1,.07,1,11.72,11.72,0,0,0,3.7-4.28,1.31,1.31,0,0,1,.92-.64.83.83,0,0,1,.81.33,2.34,2.34,0,0,1,.45,1.17,3.66,3.66,0,0,1-.39,2.37,11.27,11.27,0,0,1-3.07,3.57,10,10,0,0,1-4,1.47A5.3,5.3,0,0,1,443,481,4.38,4.38,0,0,1,440,480.47Z" transform="translate(-128.49 -450.96)"/><path class="cls-1" d="M453.38,458a2.66,2.66,0,0,1-1-1.89,2.72,2.72,0,0,1,.71-2.28,3.78,3.78,0,0,1,2.39-1.21,3.47,3.47,0,0,1,2.29.36,2.22,2.22,0,0,1,1.1,1.75,3,3,0,0,1-.63,2.46,3.65,3.65,0,0,1-2.41,1.2A3.36,3.36,0,0,1,453.38,458Zm1.13,18.89a8.3,8.3,0,0,1-1.7-4.32,28.31,28.31,0,0,1-.16-4.29,39.9,39.9,0,0,1,.42-5,3.07,3.07,0,0,1,.66-1.73,2.78,2.78,0,0,1,1.7-.68c1.24-.18,1.92.15,2,1a29.9,29.9,0,0,1-.12,4.35,32.74,32.74,0,0,0-.13,5.57,3.89,3.89,0,0,0,.53,1.65,1,1,0,0,0,1.07.45,2.76,2.76,0,0,0,1.52-1.14,32.67,32.67,0,0,0,2.24-3.26,1.31,1.31,0,0,1,.92-.65.85.85,0,0,1,.81.34,2.33,2.33,0,0,1,.44,1.17,3.41,3.41,0,0,1-.38,2.36q-3,4.94-6.17,5.37A3.86,3.86,0,0,1,454.51,476.84Z" transform="translate(-128.49 -450.96)"/><path class="cls-1" d="M467.52,474.7a7.53,7.53,0,0,1-2.7-5.1,11.12,11.12,0,0,1,.46-5.36,9,9,0,0,1,2.57-3.86,7.17,7.17,0,0,1,3.75-1.75,4.15,4.15,0,0,1,3.3.76,4.37,4.37,0,0,1,1.54,2.91,4.82,4.82,0,0,1-.32,2.69,2.07,2.07,0,0,1-1.63,1.31,1.82,1.82,0,0,1-1.17-.18,1.1,1.1,0,0,1-.54-.86,2.28,2.28,0,0,1,0-.59c0-.23,0-.39,0-.49a3.16,3.16,0,0,0,0-1.05,1,1,0,0,0-.33-.7.9.9,0,0,0-.72-.17,2.21,2.21,0,0,0-1.47,1,5.34,5.34,0,0,0-.89,2.19,8.64,8.64,0,0,0-.05,2.88,5.06,5.06,0,0,0,1.29,3.05,3,3,0,0,0,2.59.75,4,4,0,0,0,2.19-1.05,9,9,0,0,0,1.77-2.44,1.27,1.27,0,0,1,.91-.69.85.85,0,0,1,.81.34,2.3,2.3,0,0,1,.45,1.17,4.06,4.06,0,0,1-.32,2.35,7.24,7.24,0,0,1-2.26,2.8,7.6,7.6,0,0,1-3.58,1.4A7.29,7.29,0,0,1,467.52,474.7Z" transform="translate(-128.49 -450.96)"/><path class="cls-1" d="M262.39,642.73a136.43,136.43,0,0,1,16.3,4.17l-1.79,4.68a144.76,144.76,0,0,0-18.13-5.09l1.48-3.46-1.54.21c-1.33,5.54-5.44,9.54-16.6,13A13.22,13.22,0,0,0,239,652c8.43-2.33,12.19-4.81,13.81-8L240,645.8l-.59-4.32,14.41-2c0-.71.06-1.49,0-2.27l-15.74,2.16-.61-4.41L254,632.74l-.32-2.27L241,632.21l-.59-4.27,12.66-1.74-.3-2.18-15.1,2.07L237,621.6l8.13-1.11a24.08,24.08,0,0,0-2.91-3.43l4.28-2.42a18.86,18.86,0,0,1,3.9,4.56l-1.16.72,9.4-1.29a40.42,40.42,0,0,0,2.28-6l5.67.66c-.74,1.62-1.53,3.17-2.3,4.54l8.21-1.13.62,4.49L258,623.3l.3,2.18,13.09-1.8L272,628l-13.08,1.79.31,2.27,17-2.34.6,4.4-17.57,2.42c0,.78,0,1.52,0,2.27l16.68-2.29.59,4.31Z" transform="translate(-128.49 -450.96)"/><path class="cls-1" d="M291.91,638.55l.47,3.42-4.66.64-4-28.94,12.83-1.76,3.51,25.52Zm-2.84-20.65,2.16,15.69,3.59-.49-2.15-15.69Zm26.69,9.36c2.87,4.35,7,8.45,11,10.51a24.16,24.16,0,0,0-3.18,4.75,35.73,35.73,0,0,1-8.15-8.29L317,645.9l-5.13.71-1.65-12a29.45,29.45,0,0,1-7.64,10.67,23.91,23.91,0,0,0-4-3.54A27,27,0,0,0,308,628.33l-7.83,1.07-.66-4.83,9.2-1.26L308,618l-7.83,1.07-.66-4.83,7.82-1.07-.83-6.07,5.13-.71.84,6.07,8.76-1.2.67,4.83-8.77,1.2.73,5.31,10.13-1.4.67,4.83Z" transform="translate(-128.49 -450.96)"/><path class="cls-1" d="M339.14,619.35l3.19,23.16-5,.69-5.26-38.3,16.47-2.26,2.07,15.13Zm-1.58-11.5.3,2.18,6.71-.92-.3-2.18Zm7.79,6.9L345,612.4l-6.72.92.33,2.35Zm14.9,15.5,1.21,8.81-4.45.61-1.21-8.81-4.11.57c0,3-.86,7.35-4.15,10.33a19.66,19.66,0,0,0-3.65-2.47,10.09,10.09,0,0,0,3.44-7.26l-4.32.59-.57-4.15,4.49-.61-.44-3.21-3.89.53-.55-4,20.66-2.84.55,4-4,.55.44,3.21,4.7-.65.57,4.15Zm-5-3.53-.44-3.21-4,.55.44,3.2Zm17.37,5.58c.36,2.61.08,4.09-1.35,5.11s-3.63,1.5-6.88,2a18,18,0,0,0-2.23-4.84c1.94-.17,4-.46,4.67-.59s.86-.38.78-1l-2.35-17.1-11.76,1.61-2.09-15.21,16.76-2.3Zm-15.88-27.08.3,2.18,6.93-.95-.3-2.19Zm8,6.95-.33-2.43-6.93,1,.34,2.43Z" transform="translate(-128.49 -450.96)"/><path class="cls-1" d="M412.75,594.26l2,14.87-32.59,4.48-2-14.88Zm2.38,32.9c.36,2.61,0,3.84-1.79,4.73s-4.44,1.27-8.16,1.78a15.89,15.89,0,0,0-1.63-4.22c2-.19,4.8-.57,5.44-.66s1-.35.88-.95l-.37-2.65c-5.77,2.06-11.65,4-16.28,5.5l-1.72-3.64c.06,3.26-.39,6.68-2,9.38a18.22,18.22,0,0,0-4.5-2.3c2.1-3.42,1.73-7.68,1.26-11.1l-1.08-7.87,27.8-3.82ZM386,603.82l8.64-1.19-.3-2.18-8.64,1.19Zm.76,5.51,8.64-1.19-.3-2.22-8.64,1.19ZM409,621.73l-.8-5.82-17.71,2.44.57,4.14a36.58,36.58,0,0,1,.34,3.74c3.25-.75,8.05-2,13.05-3.31a86.13,86.13,0,0,0-12-1.75l1.29-3.27a68.15,68.15,0,0,1,13.08,1.65l-1.07,3Zm-1-23.17-8.85,1.22.3,2.18,8.85-1.22Zm.75,5.48-8.85,1.21.31,2.23,8.85-1.22Z" transform="translate(-128.49 -450.96)"/><path class="cls-1" d="M435.21,600.63c-.58,6.56-1.8,14.83-4.7,20a44,44,0,0,0-5.32-2c2.82-4.79,3.93-12.56,4.07-18.24Zm9.43-12.23,4.53,33c.43,3.12-.1,4.63-1.87,5.7s-4.79,1.65-8.94,2.22a23.19,23.19,0,0,0-2.73-5c2.79-.25,6-.69,6.89-.86s1.24-.47,1.13-1.29l-4.53-33Zm10.94,8c4.3,5.59,8.87,12.85,10.67,18l-5.26,3c-1.56-5.06-5.92-12.65-10.15-18.42Z" transform="translate(-128.49 -450.96)"/><path class="cls-1" d="M479.71,589.81l-8.17,1.12L471,586.7l8.17-1.12-.33-2.44,4.87-.67.34,2.44,5-.69.58,4.23-5,.69.37,2.69-4.88.67Zm20.54,19.74a37.65,37.65,0,0,0,14.37,4,24.11,24.11,0,0,0-2.75,4.77A35.88,35.88,0,0,1,496.62,612l1.26,9.15-5.35.73-1.21-8.8a39.93,39.93,0,0,1-13,10.23,19,19,0,0,0-3.93-3.82,40.81,40.81,0,0,0,12.65-8.14L474.89,613l-.6-4.36,16.12-2.21L490,603.6l.9-.13a22.08,22.08,0,0,0-3.07-5.15l4.18-2c-5.59,1.21-11.46,2.23-16.84,3a17.24,17.24,0,0,0-1.66-4.13c10.88-1.66,23.42-4.26,30.52-6.84l4.51,3.34a132,132,0,0,1-16.45,4.61,18.4,18.4,0,0,1,3.45,5.41l-2.93,1.49,2.73-.38.4,2.87,16.46-2.26.6,4.36Zm-20.1-10.83a20.13,20.13,0,0,1,4.51,5.57l-4.28,2.41a22.58,22.58,0,0,0-4.23-5.73ZM497,587.43l-5.51.76-.59-4.27,5.52-.76-.33-2.39,4.87-.67.33,2.39,8-1.09.58,4.27-7.95,1.09.29,2.14-4.87.67Zm3.47,14.77a47.67,47.67,0,0,0,3.11-8.48l5.47,1.16c-1.46,3-3,6.29-4.34,8.39Z" transform="translate(-128.49 -450.96)"/><path class="cls-1" d="M198.65,647.76l16.79-19.52c1.26-1.46-.86-3.59-2.12-2.13l-16.79,19.53c-1.25,1.46.86,3.59,2.12,2.12Z" transform="translate(-128.49 -450.96)"/><path class="cls-1" d="M209.59,651.58l9-18c.86-1.73-1.73-3.25-2.59-1.52l-9,18c-.86,1.72,1.72,3.24,2.59,1.51Z" transform="translate(-128.49 -450.96)"/><path class="cls-1" d="M193.52,637.6l12.62-8.85c1.57-1.1.07-3.71-1.52-2.59L192,635c-1.57,1.1-.07,3.7,1.52,2.59Z" transform="translate(-128.49 -450.96)"/><path class="cls-1" d="M508.25,455.55l-16.79,19.52c-1.25,1.46.86,3.59,2.12,2.13l16.79-19.53c1.26-1.46-.85-3.59-2.12-2.12Z" transform="translate(-128.49 -450.96)"/><path class="cls-1" d="M497.32,451.73l-9,18c-.86,1.73,1.73,3.25,2.59,1.52l9-18c.86-1.72-1.73-3.24-2.59-1.51Z" transform="translate(-128.49 -450.96)"/><path class="cls-1" d="M513.39,465.71l-12.62,8.85c-1.57,1.1-.08,3.7,1.51,2.59l12.62-8.85c1.57-1.1.07-3.7-1.51-2.59Z" transform="translate(-128.49 -450.96)"/><path class="cls-1" d="M198.58,495.6c-3.81,4.3.09,11.33,5.84,9.56a5.71,5.71,0,0,0,4.14-5.71,6.18,6.18,0,0,0-4.94-5.6c-1.89-.32-2.7,2.57-.8,2.89,2.87.5,3.88,4.46.8,5.52a2.79,2.79,0,0,1-2.92-4.54c1.28-1.44-.83-3.57-2.12-2.12Z" transform="translate(-128.49 -450.96)"/><path class="cls-1" d="M547.51,590.3c-4.1-4.2-11.49-.32-9.81,5.51s9.9,5.31,11.3-.39c.46-1.87-2.44-2.67-2.9-.8-.67,2.77-4.63,3.37-5.51.39s2.8-4.64,4.8-2.59c1.35,1.38,3.47-.74,2.12-2.12Z" transform="translate(-128.49 -450.96)"/></svg>