<svg xmlns="http://www.w3.org/2000/svg" viewBox="0 0 209 47.5"><defs><style>.cls-1{fill:#1b1464;}</style></defs><title>資產 10</title><g id="圖層_2" data-name="圖層 2"><g id="_09_Mouseover" data-name="09_Mouseover"><path class="cls-1" d="M23.75,46a22.25,22.25,0,0,1,0-44.5h161.5a22.25,22.25,0,0,1,0,44.5Z"/><path class="cls-1" d="M185.25,3a20.75,20.75,0,0,1,0,41.5H23.75a20.75,20.75,0,0,1,0-41.5h161.5m0-3H23.75A23.75,23.75,0,0,0,0,23.75H0A23.75,23.75,0,0,0,23.75,47.5h161.5A23.75,23.75,0,0,0,209,23.75h0A23.75,23.75,0,0,0,185.25,0Z"/></g></g></svg>