<svg id="圖層_1" data-name="圖層 1" xmlns="http://www.w3.org/2000/svg" viewBox="0 0 34.22 34.22"><defs><style>.cls-1{fill:#1b1464;}.cls-2{fill:#ffc122;}</style></defs><title>回到最上方按鈕</title><circle class="cls-1" cx="17.11" cy="17.11" r="17.11"/><path class="cls-2" d="M358.06,474.34a1,1,0,0,1-1-1V460l-4,4a1,1,0,0,1-1.42,0,1,1,0,0,1,0-1.41l5.68-5.68.14-.12h0a1.26,1.26,0,0,1,.26-.13h0a1.06,1.06,0,0,1,.31,0h0a1,1,0,0,1,.29,0h0a.92.92,0,0,1,.28.14h0l.14.11,5.67,5.68A1,1,0,1,1,363,464l-4-4v13.3A1,1,0,0,1,358.06,474.34Z" transform="translate(-340.94 -448.37)"/></svg>