<svg id="圖層_1" data-name="圖層 1" xmlns="http://www.w3.org/2000/svg" viewBox="0 0 245 136"><defs><style>.cls-1{fill:#ffe8a7;}</style></defs><title>精選飲冰品_咖啡文字底圖</title><path class="cls-1" d="M255.76,649.38q-4.2-4.25-4.2-16.09,0-15.69,5.1-27.22a27.15,27.15,0,0,1,16.65-15.46,21.85,21.85,0,0,1,5.4-1.09,10.31,10.31,0,0,1,4.46.44,2.36,2.36,0,0,1,1.86,2.23,10.92,10.92,0,0,1-.78,3.25,25.92,25.92,0,0,1-1.83,4c-.7,1.21-1.28,1.9-1.74,2.06a4.4,4.4,0,0,1-1.33-.28,10.33,10.33,0,0,0-2.88-.34,13.65,13.65,0,0,0-4.14.84q-5.64,1.92-8.59,8.63t-3,18q0,14.29,8.7,11.34a19,19,0,0,0,5.66-3,46.66,46.66,0,0,0,4.67-4.24l.72-.7a2.3,2.3,0,0,1,.61-.49c.47-.16.7.17.7,1a49,49,0,0,1-.41,5.16,15.78,15.78,0,0,1-1.1,4.82,12.69,12.69,0,0,1-4.84,5,31.27,31.27,0,0,1-6.82,3.42Q260,653.64,255.76,649.38Z" transform="translate(-251.56 -515.89)"/><path class="cls-1" d="M300.58,633.71q-4.29-4.66-4.29-16.26a72.16,72.16,0,0,1,2.17-17.81,43.32,43.32,0,0,1,6.88-15,24.09,24.09,0,0,1,12-8.92q8.07-2.74,12.33,2t4.26,16.4q0,16.66-5.39,27.4t-15.55,14.18Q304.87,638.39,300.58,633.71ZM321.76,616q3-6.93,3-17.71,0-7.11-2.09-10t-6.15-1.55c-3.41,1.15-6.08,4-8,8.65s-2.93,10.54-2.93,17.78q0,7,2.09,10t6.15,1.55C317.12,623.52,319.78,620.64,321.76,616Z" transform="translate(-251.56 -515.89)"/><path class="cls-1" d="M348.12,620.68,352,567.83a6.1,6.1,0,0,1,.72-2.74,3.33,3.33,0,0,1,1.83-1.39l19.44-6.6a.85.85,0,0,1,1.16.38,5.66,5.66,0,0,1,.34,2.37v1a23.61,23.61,0,0,1-.6,5,2.89,2.89,0,0,1-1.6,2.22l-12.82,4.35-.93,12.24,12.36-4.2a.85.85,0,0,1,1.16.39,5.62,5.62,0,0,1,.35,2.37v.9q-.12,6.57-2.21,7.28l-12.41,4.22-1.63,21.95c-.11,1.78-1.33,3.07-3.65,3.85l-2,.69Q348.12,623.21,348.12,620.68Z" transform="translate(-251.56 -515.89)"/><path class="cls-1" d="M387,607.48l3.83-52.84a6,6,0,0,1,.73-2.74,3.27,3.27,0,0,1,1.82-1.39l19.44-6.6a.84.84,0,0,1,1.16.38,5.62,5.62,0,0,1,.35,2.37v1a23.52,23.52,0,0,1-.61,5c-.33,1.23-.86,2-1.6,2.21l-12.82,4.36-.93,12.24,12.36-4.2a.86.86,0,0,1,1.16.38,5.64,5.64,0,0,1,.35,2.38v.9c-.08,4.38-.81,6.81-2.21,7.28l-12.41,4.22-1.63,22c-.11,1.78-1.33,3.07-3.65,3.85l-2,.69C388.07,609.64,387,609.17,387,607.48Z" transform="translate(-251.56 -515.89)"/><path class="cls-1" d="M426.23,596a2.64,2.64,0,0,1-.47-1.89l3.77-52.58a5.89,5.89,0,0,1,.73-2.73,3.31,3.31,0,0,1,1.83-1.4l21.23-7.21a.85.85,0,0,1,1.16.38,5.62,5.62,0,0,1,.35,2.37v.74c-.08,4.49-.81,7-2.21,7.45L438,546l-.93,12.16,13-4.41a.84.84,0,0,1,1.16.38,5.62,5.62,0,0,1,.35,2.37v.66q-.12,6.81-2.2,7.53l-13.06,4.43-1,13.58,14.62-5a.85.85,0,0,1,1.16.38,5.62,5.62,0,0,1,.35,2.37v.74q-.12,6.74-2.21,7.45L427.85,596C427.08,596.23,426.54,596.22,426.23,596Z" transform="translate(-251.56 -515.89)"/><path class="cls-1" d="M468,581.78a2.64,2.64,0,0,1-.47-1.89l3.77-52.58a5.89,5.89,0,0,1,.73-2.73,3.29,3.29,0,0,1,1.82-1.4L495.05,516a.85.85,0,0,1,1.16.38,5.62,5.62,0,0,1,.35,2.37v.74q-.12,6.74-2.21,7.45l-14.62,5L478.8,544l13-4.41A.84.84,0,0,1,493,540a5.62,5.62,0,0,1,.35,2.37V543c-.08,4.54-.81,7.05-2.21,7.52L478.05,555l-1,13.58,14.62-5a.85.85,0,0,1,1.16.38,5.66,5.66,0,0,1,.34,2.37v.74c-.07,4.49-.81,7-2.2,7.45l-21.35,7.25C468.81,582.06,468.26,582.05,468,581.78Z" transform="translate(-251.56 -515.89)"/></svg>