<svg id="圖層_1" data-name="圖層 1" xmlns="http://www.w3.org/2000/svg" viewBox="0 0 198 3"><defs><style>.cls-1{fill:#ffefcf;}</style></defs><title>加值套餐_分隔線</title><path class="cls-1" d="M208.88,487.14a1.5,1.5,0,0,1-1.5-1.5,1.36,1.36,0,0,1,0-.29,1.31,1.31,0,0,1,.09-.28,1.26,1.26,0,0,1,.13-.26,1.57,1.57,0,0,1,.42-.42l.26-.14.28-.08a1.42,1.42,0,0,1,.58,0l.28.08.26.14a1.45,1.45,0,0,1,.23.19,2.11,2.11,0,0,1,.19.23,2.15,2.15,0,0,1,.14.26,2.29,2.29,0,0,1,.08.28,1.36,1.36,0,0,1,0,.29,1.52,1.52,0,0,1-.93,1.39A1.56,1.56,0,0,1,208.88,487.14Z" transform="translate(-12.38 -484.14)"/><path class="cls-1" d="M199.26,485.64a1.5,1.5,0,0,1,1.5-1.5h0a1.5,1.5,0,0,1,1.5,1.5h0a1.5,1.5,0,0,1-1.5,1.5h0A1.5,1.5,0,0,1,199.26,485.64Z" transform="translate(-12.38 -484.14)"/><path class="cls-1" d="M191.13,485.64a1.5,1.5,0,0,1,1.5-1.5h0a1.5,1.5,0,0,1,1.5,1.5h0a1.5,1.5,0,0,1-1.5,1.5h0A1.5,1.5,0,0,1,191.13,485.64Zm-8.13,0a1.51,1.51,0,0,1,1.51-1.5h0a1.5,1.5,0,0,1,1.5,1.5h0a1.5,1.5,0,0,1-1.5,1.5h0A1.51,1.51,0,0,1,183,485.64Zm-8.12,0a1.5,1.5,0,0,1,1.5-1.5h0a1.5,1.5,0,0,1,1.5,1.5h0a1.5,1.5,0,0,1-1.5,1.5h0A1.5,1.5,0,0,1,174.88,485.64Zm-8.12,0a1.5,1.5,0,0,1,1.5-1.5h0a1.5,1.5,0,0,1,1.49,1.5h0a1.5,1.5,0,0,1-1.49,1.5h0A1.5,1.5,0,0,1,166.76,485.64Zm-8.13,0a1.5,1.5,0,0,1,1.5-1.5h0a1.5,1.5,0,0,1,1.5,1.5h0a1.5,1.5,0,0,1-1.5,1.5h0A1.5,1.5,0,0,1,158.63,485.64Zm-8.12,0a1.5,1.5,0,0,1,1.5-1.5h0a1.5,1.5,0,0,1,1.5,1.5h0a1.5,1.5,0,0,1-1.5,1.5h0A1.5,1.5,0,0,1,150.51,485.64Zm-8.13,0a1.5,1.5,0,0,1,1.5-1.5h0a1.5,1.5,0,0,1,1.5,1.5h0a1.5,1.5,0,0,1-1.5,1.5h0A1.5,1.5,0,0,1,142.38,485.64Zm-8.13,0a1.51,1.51,0,0,1,1.51-1.5h0a1.5,1.5,0,0,1,1.5,1.5h0a1.5,1.5,0,0,1-1.5,1.5h0A1.51,1.51,0,0,1,134.25,485.64Zm-8.12,0a1.5,1.5,0,0,1,1.5-1.5h0a1.5,1.5,0,0,1,1.5,1.5h0a1.5,1.5,0,0,1-1.5,1.5h0A1.5,1.5,0,0,1,126.13,485.64Zm-8.12,0a1.5,1.5,0,0,1,1.5-1.5h0a1.5,1.5,0,0,1,1.49,1.5h0a1.5,1.5,0,0,1-1.49,1.5h0A1.5,1.5,0,0,1,118,485.64Zm-8.13,0a1.5,1.5,0,0,1,1.5-1.5h0a1.5,1.5,0,0,1,1.5,1.5h0a1.5,1.5,0,0,1-1.5,1.5h0A1.5,1.5,0,0,1,109.88,485.64Zm-8.12,0a1.5,1.5,0,0,1,1.5-1.5h0a1.5,1.5,0,0,1,1.5,1.5h0a1.5,1.5,0,0,1-1.5,1.5h0A1.5,1.5,0,0,1,101.76,485.64Zm-8.13,0a1.5,1.5,0,0,1,1.5-1.5h0a1.5,1.5,0,0,1,1.5,1.5h0a1.5,1.5,0,0,1-1.5,1.5h0A1.5,1.5,0,0,1,93.63,485.64Zm-8.13,0a1.5,1.5,0,0,1,1.5-1.5h0a1.51,1.51,0,0,1,1.51,1.5h0a1.51,1.51,0,0,1-1.51,1.5h0A1.5,1.5,0,0,1,85.5,485.64Zm-8.12,0a1.5,1.5,0,0,1,1.5-1.5h0a1.5,1.5,0,0,1,1.5,1.5h0a1.5,1.5,0,0,1-1.5,1.5h0A1.5,1.5,0,0,1,77.38,485.64Zm-8.12,0a1.5,1.5,0,0,1,1.5-1.5h0a1.5,1.5,0,0,1,1.5,1.5h0a1.5,1.5,0,0,1-1.5,1.5h0A1.5,1.5,0,0,1,69.26,485.64Zm-8.13,0a1.5,1.5,0,0,1,1.5-1.5h0a1.5,1.5,0,0,1,1.5,1.5h0a1.5,1.5,0,0,1-1.5,1.5h0A1.5,1.5,0,0,1,61.13,485.64Zm-8.12,0a1.5,1.5,0,0,1,1.5-1.5h0a1.5,1.5,0,0,1,1.5,1.5h0a1.5,1.5,0,0,1-1.5,1.5h0A1.5,1.5,0,0,1,53,485.64Zm-8.13,0a1.5,1.5,0,0,1,1.5-1.5h0a1.5,1.5,0,0,1,1.5,1.5h0a1.5,1.5,0,0,1-1.5,1.5h0A1.5,1.5,0,0,1,44.88,485.64Zm-8.12,0a1.5,1.5,0,0,1,1.49-1.5h0a1.51,1.51,0,0,1,1.51,1.5h0a1.51,1.51,0,0,1-1.51,1.5h0A1.5,1.5,0,0,1,36.76,485.64Zm-8.13,0a1.5,1.5,0,0,1,1.5-1.5h0a1.5,1.5,0,0,1,1.5,1.5h0a1.5,1.5,0,0,1-1.5,1.5h0A1.5,1.5,0,0,1,28.63,485.64Zm-8.12,0a1.5,1.5,0,0,1,1.5-1.5h0a1.5,1.5,0,0,1,1.5,1.5h0a1.5,1.5,0,0,1-1.5,1.5h0A1.5,1.5,0,0,1,20.51,485.64Z" transform="translate(-12.38 -484.14)"/><path class="cls-1" d="M13.88,487.14a1.56,1.56,0,0,1-.57-.11,1.51,1.51,0,0,1-.49-.33,1.58,1.58,0,0,1-.33-.48,1.66,1.66,0,0,1-.11-.58,1.36,1.36,0,0,1,0-.29,1.31,1.31,0,0,1,.09-.28,1.26,1.26,0,0,1,.13-.26,1.57,1.57,0,0,1,.42-.42l.26-.14.28-.08a1.42,1.42,0,0,1,.58,0l.28.08.26.14a1.57,1.57,0,0,1,.42.42,2.15,2.15,0,0,1,.14.26,2.29,2.29,0,0,1,.08.28,1.36,1.36,0,0,1,0,.29,1.52,1.52,0,0,1-.93,1.39A1.56,1.56,0,0,1,13.88,487.14Z" transform="translate(-12.38 -484.14)"/></svg>