<svg id="圖層_1" data-name="圖層 1" xmlns="http://www.w3.org/2000/svg" viewBox="0 0 148 178"><defs><style>.cls-1{fill:#ffc522;}.cls-2{fill:#1f2b61;}.cls-3{fill:#fff;}</style></defs><title>精選飲冰品_黃底咖啡壺icon</title><ellipse class="cls-1" cx="488.93" cy="526.22" rx="89.04" ry="72.92" transform="translate(-530.82 476.48) rotate(-79.75)"/><path class="cls-2" d="M470.07,457.32c0,.06,0,.14-.05.24a3.12,3.12,0,0,0-.08,1,2.72,2.72,0,0,0,.17.57,8.64,8.64,0,0,0,.44.9l.19.33a10.75,10.75,0,0,0,.87,1.43c.24.3.43.46.59.48h.3a.9.9,0,0,1,.9.43,1,1,0,0,1-.19,1.24,7,7,0,0,1-2,1.44,7.06,7.06,0,0,1-2.26.87c-.59.07-1-.06-1.17-.42a.77.77,0,0,1-.1-.46,2.25,2.25,0,0,1,.32-.68,1.52,1.52,0,0,0,.16-.31.37.37,0,0,0,0-.21,5.28,5.28,0,0,0-.35-.82c-.18-.38-.43-.85-.73-1.4-.16-.29-.28-.51-.38-.66a1.58,1.58,0,0,0-.26-.35,3,3,0,0,0-.85-.48l-.23-.1L463,459.34a1.57,1.57,0,0,0-1-.09,1.25,1.25,0,0,1-.26.05,1.22,1.22,0,0,1-.49-.12.86.86,0,0,1-.33-.35.89.89,0,0,1,.15-1.1,8.09,8.09,0,0,1,2.05-1.41,8.8,8.8,0,0,1,2.34-1,.88.88,0,0,1,1,.39,1,1,0,0,1,.1.6,1.11,1.11,0,0,0,0,.41.89.89,0,0,0,.22.21,3.86,3.86,0,0,0,.42.26,1.94,1.94,0,0,0,.48.19.4.4,0,0,0,.29,0c.11-.06.18-.28.22-.66a1.56,1.56,0,0,0-.08-.82,1.32,1.32,0,0,0-.38-.24,1,1,0,0,1-.48-.42.82.82,0,0,1,.16-.94,4.57,4.57,0,0,1,1.41-1.06,5,5,0,0,1,1.7-.67.78.78,0,0,1,.83.41.66.66,0,0,1,.09.5.89.89,0,0,1-.29.47l-.14.13a1.31,1.31,0,0,0-.4.46,6.11,6.11,0,0,0-.33,1.37v0Z" transform="translate(-414.93 -437.22)"/><path class="cls-2" d="M476.2,454.62l0-.18a3.68,3.68,0,0,0-.27-1,.88.88,0,0,0-.43-.37l-.07,0c-.44-.19-.68-.43-.73-.72s.19-.8.76-1.14a7.73,7.73,0,0,1,2.53-.78,6.39,6.39,0,0,1,2.13-.08.88.88,0,0,1,.77.73,1.13,1.13,0,0,1-.52,1.05l-.18.15c-.11.1-.14.47-.09,1.1s.18,1.58.39,2.86a4.08,4.08,0,0,0,.86,2.21,1.93,1.93,0,0,0,1.74.4,3,3,0,0,0,1-.36,1.75,1.75,0,0,0,.63-.67,2.34,2.34,0,0,0,.16-1.1c0-.5-.13-1.37-.33-2.63l-.08-.49a13.49,13.49,0,0,0-.33-1.64,1.06,1.06,0,0,0-.27-.53,2.36,2.36,0,0,0-.57-.2c-.33-.1-.52-.27-.56-.53s.14-.6.58-.86a5.33,5.33,0,0,1,1.88-.59,3.85,3.85,0,0,1,1.67,0,.84.84,0,0,1,.69.67.94.94,0,0,1-.44.89l-.16.13c-.21.2-.29.64-.23,1.32,0,.07,0,.12,0,.16.05.51.14,1.22.26,2.12a12.36,12.36,0,0,1,.14,3.93,3.64,3.64,0,0,1-1.48,2.15,7.32,7.32,0,0,1-3.09,1.13,5.89,5.89,0,0,1-3.89-.47,3.6,3.6,0,0,1-1.85-2.7Z" transform="translate(-414.93 -437.22)"/><path class="cls-2" d="M489.3,459.53a.8.8,0,0,1,.56-.68,2.49,2.49,0,0,0,.54-.22,4.71,4.71,0,0,0,.54-1.74c.2-1,.41-2.37.63-4.12a4.75,4.75,0,0,0,0-1.27,1,1,0,0,0-.34-.56.81.81,0,0,0-.13-.12,1.15,1.15,0,0,1-.51-.95.9.9,0,0,1,.72-.75,5.06,5.06,0,0,1,1.91,0,11.27,11.27,0,0,1,1.27.23,2.11,2.11,0,0,1,.7.29,1.47,1.47,0,0,1,.29.43c.1.21.31.68.61,1.4q.25.6.6,1.53c.38,1,.69,1.57.94,1.6s.66-.41,1.24-1.34c.42-.67.78-1.22,1.09-1.65a9,9,0,0,1,.68-.87,1.77,1.77,0,0,1,.44-.39,1.56,1.56,0,0,1,.63-.13,9.82,9.82,0,0,1,1.42.11,4.8,4.8,0,0,1,1.85.49.86.86,0,0,1,.44.9.77.77,0,0,1-.55.6,1.26,1.26,0,0,0-.22.12,2,2,0,0,0-.49,1,21,21,0,0,0-.43,2.59c-.14,1.09-.22,2-.25,2.72a3.44,3.44,0,0,0,.06,1.3s.08.08.19.16a1.06,1.06,0,0,1,.51,1,.88.88,0,0,1-.78.76,8.09,8.09,0,0,1-2.44,0,7.45,7.45,0,0,1-2.31-.54.91.91,0,0,1-.56-.95.88.88,0,0,1,.57-.68,1.17,1.17,0,0,0,.28-.17,1.39,1.39,0,0,0,.32-.68,15.9,15.9,0,0,0,.29-1.77,1.08,1.08,0,0,0,0-.53.32.32,0,0,0-.27-.21c-.2,0-.48.28-.83.91-.13.23-.23.41-.31.53-.18.3-.42.7-.71,1.21-.77,1.33-1.31,2-1.6,1.94s-.35-.22-.52-.57a25.54,25.54,0,0,1-.9-2.69c-.08-.27-.18-.64-.29-1.09-.17-.71-.35-1.08-.53-1.1s-.24.1-.32.34a12.8,12.8,0,0,0-.3,1.75,4.63,4.63,0,0,0-.05,1.17.65.65,0,0,0,.28.4l.1.06a.87.87,0,0,1,.48.83.74.74,0,0,1-.6.66,5,5,0,0,1-1.79,0,4.94,4.94,0,0,1-1.72-.43A.73.73,0,0,1,489.3,459.53Z" transform="translate(-414.93 -437.22)"/><path class="cls-2" d="M504.65,461.33a.78.78,0,0,1,.71-.52l.57-.08a4.74,4.74,0,0,0,.95-1.56c.44-.92,1-2.21,1.61-3.85a4.35,4.35,0,0,0,.35-1.22,1,1,0,0,0-.19-.63l-.1-.15a1.1,1.1,0,0,1-.26-1,.88.88,0,0,1,.87-.56,5,5,0,0,1,1.87.43,9.3,9.3,0,0,1,1.17.54,2.24,2.24,0,0,1,.62.44,1.62,1.62,0,0,1,.16.49c.06.23.14.74.26,1.51.07.43.13,1,.21,1.63.12,1.1.29,1.69.52,1.77s.75-.23,1.53-1c.57-.55,1.06-1,1.46-1.33a8.72,8.72,0,0,1,.87-.69,2.17,2.17,0,0,1,.52-.27,1.58,1.58,0,0,1,.64,0,10.58,10.58,0,0,1,1.36.45,4.92,4.92,0,0,1,1.67.92.88.88,0,0,1,.21,1,.82.82,0,0,1-.68.45.82.82,0,0,0-.24.06,2.05,2.05,0,0,0-.74.9,23.84,23.84,0,0,0-1,2.4c-.4,1-.7,1.89-.91,2.58a4.34,4.34,0,0,0-.26,1.27.68.68,0,0,0,.15.21,1,1,0,0,1,.26,1.06.87.87,0,0,1-.94.55,8,8,0,0,1-2.36-.64,7.5,7.5,0,0,1-2.11-1.09.89.89,0,0,1-.3-1,.86.86,0,0,1,.71-.52,1.1,1.1,0,0,0,.31-.1,1.4,1.4,0,0,0,.48-.58,13.14,13.14,0,0,0,.71-1.65,1.18,1.18,0,0,0,.11-.52.33.33,0,0,0-.21-.27c-.19-.07-.54.16-1,.69l-.43.43-1,1c-1.07,1.09-1.74,1.59-2,1.48s-.29-.29-.37-.68a25.09,25.09,0,0,1-.22-2.82c0-.28,0-.66,0-1.13,0-.73-.07-1.13-.25-1.2s-.26,0-.39.26a11.05,11.05,0,0,0-.72,1.63,4.25,4.25,0,0,0-.33,1.11.63.63,0,0,0,.17.46l.08.09a.86.86,0,0,1,.27.91.74.74,0,0,1-.74.5,7.4,7.4,0,0,1-3.3-1.27A.73.73,0,0,1,504.65,461.33Z" transform="translate(-414.93 -437.22)"/><path class="cls-2" d="M529.77,467.36l-.24,0a3.36,3.36,0,0,0-1,.32,2.24,2.24,0,0,0-.46.36,8.69,8.69,0,0,0-.67.75l-.25.29a11.18,11.18,0,0,0-1,1.35,1.1,1.1,0,0,0-.23.72,2.49,2.49,0,0,0,.11.28.89.89,0,0,1-.07,1,1.05,1.05,0,0,1-1.22.29,9.61,9.61,0,0,1-3.72-3.1c-.29-.52-.31-.93,0-1.24a.71.71,0,0,1,.39-.26,1.84,1.84,0,0,1,.75,0,1.28,1.28,0,0,0,.35,0,.48.48,0,0,0,.2-.07,5.93,5.93,0,0,0,.63-.63c.28-.32.63-.72,1-1.2.21-.26.37-.45.48-.6a2,2,0,0,0,.22-.37,2.73,2.73,0,0,0,.13-1c0-.11,0-.2,0-.26l.1-2.6a1.57,1.57,0,0,0-.27-.92,1.4,1.4,0,0,1-.14-.23,1,1,0,0,1-.07-.5.85.85,0,0,1,.2-.43.91.91,0,0,1,1.08-.27,7.9,7.9,0,0,1,2.07,1.38,9.31,9.31,0,0,1,1.79,1.8.87.87,0,0,1,0,1.09,1,1,0,0,1-.52.32.87.87,0,0,0-.38.14.92.92,0,0,0-.12.29,3,3,0,0,0-.08.48,2.33,2.33,0,0,0,0,.52.42.42,0,0,0,.12.26c.1.08.33.07.7,0a1.61,1.61,0,0,0,.73-.37,1.27,1.27,0,0,0,.08-.45,1.1,1.1,0,0,1,.22-.6.81.81,0,0,1,.93-.2,4.83,4.83,0,0,1,1.51.91,5.25,5.25,0,0,1,1.25,1.34.76.76,0,0,1-.07.92.72.72,0,0,1-.43.27.93.93,0,0,1-.55-.09l-.17-.09a1.38,1.38,0,0,0-.58-.2,6.25,6.25,0,0,0-1.39.2h0Z" transform="translate(-414.93 -437.22)"/><path class="cls-2" d="M528.65,474.81a1.89,1.89,0,0,1,3,1.76,1.91,1.91,0,0,1-2.14,1.62,1.84,1.84,0,0,1-1.25-.74,1.82,1.82,0,0,1-.37-1.4A1.86,1.86,0,0,1,528.65,474.81Zm3.43-.25A.65.65,0,0,1,532,474a4,4,0,0,1,.34-.95,8.66,8.66,0,0,1,1-1.69,7.11,7.11,0,0,1,1.32-1.31,2.9,2.9,0,0,1,1.81-.7,1.82,1.82,0,0,1,1.42.78,1.74,1.74,0,0,1,.36,1.58,2.89,2.89,0,0,1-1.17,1.54,6.75,6.75,0,0,1-1.3.77,8.45,8.45,0,0,1-1.54.54,5.92,5.92,0,0,1-1.46.22A.91.91,0,0,1,532.08,474.56Z" transform="translate(-414.93 -437.22)"/><path class="cls-2" d="M457.53,580.2a2.17,2.17,0,0,0,.42.23,1.88,1.88,0,0,1,.51.32,1.31,1.31,0,0,1,.31.42,1.39,1.39,0,0,1,.1.53,4.14,4.14,0,0,1-.27,1.39,3.56,3.56,0,0,1-.68,1.14,1.73,1.73,0,0,1-1,.61,1.16,1.16,0,0,1-1-.34,1.21,1.21,0,0,1-.37-.66,2.22,2.22,0,0,1,0-.92c0-.1.05-.24.09-.4.11-.49.1-.79,0-.91a.32.32,0,0,0-.33-.09,1.16,1.16,0,0,0-.41.3l-.36.4c-.26.29-.73.78-1.4,1.47s-1.21,1.26-1.6,1.69a4,4,0,0,0-.71,1,1,1,0,0,0,0,.7l.1.25a.81.81,0,0,1-.08.94,1.06,1.06,0,0,1-1.3.14,9.51,9.51,0,0,1-2.27-1.67,7.32,7.32,0,0,1-1.58-1.89c-.28-.56-.28-1,0-1.27a.91.91,0,0,1,1.06-.13,3.44,3.44,0,0,0,.43.13c.23,0,.64-.23,1.25-.75a28.6,28.6,0,0,0,2.29-2.29l.49-.53a6.63,6.63,0,0,0,.89-1.12.38.38,0,0,0-.06-.48c-.14-.13-.44-.14-.91,0l-.32.08a4,4,0,0,1-1.11.09,1.09,1.09,0,0,1-.63-.3.94.94,0,0,1-.33-.77,1.27,1.27,0,0,1,.38-.85A2.72,2.72,0,0,1,450,576a6.62,6.62,0,0,1,1.3-.47,3.39,3.39,0,0,1,.95-.09,1,1,0,0,1,.62.23,1.71,1.71,0,0,1,.26.39,1.71,1.71,0,0,0,.26.39Z" transform="translate(-414.93 -437.22)"/><path class="cls-2" d="M453.22,590.72a.73.73,0,0,1,.33-.36,1.59,1.59,0,0,1,.76-.06,1,1,0,0,0,.7-.07,6.91,6.91,0,0,0,.76-.57c.34-.27,1-.79,1.82-1.56l.44-.38a40.33,40.33,0,0,0,3.83-3.6l.06-.08a1.3,1.3,0,0,1,1.78-.48,3.54,3.54,0,0,1,1,.63,2.23,2.23,0,0,1,.51.81,7.75,7.75,0,0,1,.29,1.82c0,.78.06,2.11,0,4,0,.52,0,1.2-.08,2a9.28,9.28,0,0,0,0,2.42,1,1,0,0,0,.29.37l.13.13a.77.77,0,0,1,.18.39.75.75,0,0,1-.05.4,1,1,0,0,1-1.13.49,7.91,7.91,0,0,1-2.42-.81,10.61,10.61,0,0,1-2.38-1.39q-.61-.55-.36-1.08a.67.67,0,0,1,.26-.31.71.71,0,0,1,.41-.13h.2q.46,0,.57-.21c.1-.21,0-.45-.3-.7a8.05,8.05,0,0,0-1.64-.94,4.44,4.44,0,0,0-1.34-.47.53.53,0,0,0-.58.3.45.45,0,0,0,0,.29.92.92,0,0,0,.27.35,1,1,0,0,1,.32.45.71.71,0,0,1-.08.43.87.87,0,0,1-.92.47,5.34,5.34,0,0,1-1.87-.6,4.91,4.91,0,0,1-1.54-1A.85.85,0,0,1,453.22,590.72Zm6.22-1.53,2.3,1.09a14.94,14.94,0,0,0,0-1.89c0-.45-.11-.7-.23-.75s-.3,0-.58.25A19.14,19.14,0,0,0,459.44,589.19Z" transform="translate(-414.93 -437.22)"/><path class="cls-2" d="M472.45,599.35a8.72,8.72,0,0,1-2.46-.91,3.68,3.68,0,0,1-1.43-1.15,2.91,2.91,0,0,1-.3-1.22,6.38,6.38,0,0,1,.16-1.63,1.21,1.21,0,0,1,.34-.7.7.7,0,0,1,.63-.11c.34.07.61.38.82.93a4.35,4.35,0,0,0,.18.43,4.26,4.26,0,0,0,.94,1.33,2.71,2.71,0,0,0,1.24.65,1.49,1.49,0,0,0,.87,0,.63.63,0,0,0,.44-.46c.06-.28-.28-.66-1-1.11l-.79-.5a6.21,6.21,0,0,1-2.14-2.14,3.58,3.58,0,0,1,1.55-4.88,5.12,5.12,0,0,1,3.56-.35,7.17,7.17,0,0,1,1.46.49l.73.33a2.58,2.58,0,0,0,.54,0,2.32,2.32,0,0,1,.46,0,1.07,1.07,0,0,1,.51.25,2,2,0,0,1,.4.55,4.51,4.51,0,0,1,.42,1.16,2.36,2.36,0,0,1,0,1,1.27,1.27,0,0,1-.51.81,1.12,1.12,0,0,1-.9.16c-.31-.07-.66-.4-1.05-1a4.81,4.81,0,0,0-.3-.43,2.72,2.72,0,0,0-.66-.65,2.37,2.37,0,0,0-.85-.37,1.18,1.18,0,0,0-.73,0,.6.6,0,0,0-.36.44c-.08.4.43.91,1.54,1.52l.36.19a6,6,0,0,1,2.28,1.92,3.16,3.16,0,0,1,.27,2.34,3.71,3.71,0,0,1-2.12,2.68A6.1,6.1,0,0,1,472.45,599.35Z" transform="translate(-414.93 -437.22)"/><path class="cls-2" d="M489,589.32a2.52,2.52,0,0,0,.48-.09,2,2,0,0,1,.59-.09,1.37,1.37,0,0,1,.51.13,1.12,1.12,0,0,1,.41.34,4.07,4.07,0,0,1,.69,1.24,3.42,3.42,0,0,1,.22,1.3,1.71,1.71,0,0,1-.37,1.11,1.14,1.14,0,0,1-.95.36,1.29,1.29,0,0,1-.71-.26,2.26,2.26,0,0,1-.58-.72c-.05-.09-.12-.21-.19-.36-.23-.45-.44-.67-.62-.68a.36.36,0,0,0-.31.15,1.14,1.14,0,0,0-.11.49l0,.55c0,.38-.06,1.05-.12,2s-.11,1.74-.13,2.32a3.75,3.75,0,0,0,.08,1.19.94.94,0,0,0,.44.54l.24.13a.78.78,0,0,1,.54.76c0,.46-.32.77-.9,1a9.26,9.26,0,0,1-2.81.19,6.92,6.92,0,0,1-2.43-.43c-.57-.24-.85-.56-.83-1s.26-.61.73-.78a2.5,2.5,0,0,0,.41-.18c.19-.13.34-.59.47-1.37a26.9,26.9,0,0,0,.27-3.23l0-.72a5.84,5.84,0,0,0-.05-1.43.37.37,0,0,0-.35-.33c-.19,0-.42.18-.71.57l-.2.26a3.5,3.5,0,0,1-.78.78,1.1,1.1,0,0,1-.68.19,1,1,0,0,1-.75-.38,1.29,1.29,0,0,1-.26-.9,2.91,2.91,0,0,1,.27-1,6.16,6.16,0,0,1,.7-1.19,2.93,2.93,0,0,1,.66-.69,1,1,0,0,1,.63-.21,1.38,1.38,0,0,1,.44.12,1.8,1.8,0,0,0,.45.13Z" transform="translate(-414.93 -437.22)"/><path class="cls-2" d="M500.58,591.65l-.11.21a3.14,3.14,0,0,0-.36,1,2.89,2.89,0,0,0,0,.59c0,.22.09.55.19,1l.08.38a9.91,9.91,0,0,0,.46,1.61c.14.35.28.56.43.62a1.14,1.14,0,0,0,.28.09.91.91,0,0,1,.75.66,1,1,0,0,1-.52,1.14,7,7,0,0,1-2.32.84,6.86,6.86,0,0,1-2.41.21c-.59-.09-.93-.33-1-.72a.75.75,0,0,1,0-.47,1.81,1.81,0,0,1,.49-.56,1.51,1.51,0,0,0,.24-.26.37.37,0,0,0,.06-.21,5.2,5.2,0,0,0-.11-.87c-.08-.42-.18-.94-.32-1.56-.07-.32-.13-.56-.18-.74a1.74,1.74,0,0,0-.16-.4,3,3,0,0,0-.68-.69l-.2-.17-2-1.66a1.5,1.5,0,0,0-.9-.35l-.26,0a1.11,1.11,0,0,1-.44-.25.84.84,0,0,1-.22-.43.88.88,0,0,1,.45-1,7.77,7.77,0,0,1,2.35-.79,9,9,0,0,1,2.52-.32c.5.06.79.27.88.65a1,1,0,0,1-.07.61,1,1,0,0,0-.12.39,1.32,1.32,0,0,0,.15.27,3.6,3.6,0,0,0,.34.36,2.21,2.21,0,0,0,.41.32.37.37,0,0,0,.27.06c.13,0,.26-.22.4-.57a1.54,1.54,0,0,0,.15-.81,1.23,1.23,0,0,0-.3-.34,1,1,0,0,1-.35-.53.82.82,0,0,1,.42-.86,4.53,4.53,0,0,1,1.64-.64,5.2,5.2,0,0,1,1.82-.17.8.8,0,0,1,.64,1.12,1,1,0,0,1-.41.38l-.18.08a1.31,1.31,0,0,0-.5.34,6.18,6.18,0,0,0-.7,1.22v0Z" transform="translate(-414.93 -437.22)"/><path class="cls-2" d="M507.42,592.05a.68.68,0,0,1-.54,0,4.06,4.06,0,0,1-.87-.52,8.89,8.89,0,0,1-1.46-1.33,6.64,6.64,0,0,1-1-1.55,2.87,2.87,0,0,1-.35-1.9,2,2,0,0,1,2.66-1.31,3,3,0,0,1,1.29,1.45,6.65,6.65,0,0,1,.51,1.42,8.9,8.9,0,0,1,.23,1.62,5.46,5.46,0,0,1-.06,1.47A.88.88,0,0,1,507.42,592.05Zm-.41,3.41a1.84,1.84,0,0,1-.1-1.45,1.77,1.77,0,0,1,1-1.08,1.9,1.9,0,0,1,2.63,2.31,1.86,1.86,0,0,1-1,1.09,1.81,1.81,0,0,1-1.44.09A1.83,1.83,0,0,1,507,595.46Z" transform="translate(-414.93 -437.22)"/><path class="cls-2" d="M524.46,531.71a1.36,1.36,0,0,1-.29,0L454,519.06a1.63,1.63,0,1,1,.58-3.21l70.17,12.62a1.64,1.64,0,0,1,1.32,1.89A1.65,1.65,0,0,1,524.46,531.71Z" transform="translate(-414.93 -437.22)"/><polygon class="cls-3" points="86.42 136.03 45.94 128.75 47.45 81.69 101.43 91.4 86.42 136.03"/><path class="cls-2" d="M501.35,574.94l-.3,0-40.48-7.28a1.7,1.7,0,0,1-1.4-1.72l1.52-47a1.68,1.68,0,0,1,.62-1.27,1.7,1.7,0,0,1,1.37-.35l54,9.71a1.69,1.69,0,0,1,1.31,2.21l-15,44.62A1.7,1.7,0,0,1,501.35,574.94Zm-38.74-10.39,37.6,6.76,13.91-41.37-50.1-9Z" transform="translate(-414.93 -437.22)"/><path class="cls-2" d="M484,553.4c-6.19-3.84-12.39-7.67-21.83-5l-2.59,16.66,42.95,7.73,3.31-14.42C496.42,561.06,490.23,557.23,484,553.4Z" transform="translate(-414.93 -437.22)"/><line class="cls-3" x1="72.82" y1="95.54" x2="72.34" y2="98.23"/><path class="cls-2" d="M487.27,537.15l-.3,0a1.71,1.71,0,0,1-1.38-2l.49-2.7a1.7,1.7,0,0,1,3.34.6l-.48,2.7A1.71,1.71,0,0,1,487.27,537.15Z" transform="translate(-414.93 -437.22)"/><line class="cls-3" x1="70.83" y1="106.58" x2="70.35" y2="109.27"/><path class="cls-2" d="M485.28,548.19l-.3,0a1.69,1.69,0,0,1-1.37-2l.48-2.7a1.7,1.7,0,0,1,3.34.6l-.48,2.7A1.71,1.71,0,0,1,485.28,548.19Z" transform="translate(-414.93 -437.22)"/><polygon class="cls-3" points="94.68 90.19 51.5 82.42 59.65 44.92 100.14 52.2 94.68 90.19"/><path class="cls-2" d="M509.61,529.1l-.3,0-43.18-7.76a1.69,1.69,0,0,1-1.11-.73,1.66,1.66,0,0,1-.25-1.3l8.15-37.51a1.7,1.7,0,0,1,2-1.31l40.48,7.28a1.7,1.7,0,0,1,1.38,1.91l-5.45,38a1.68,1.68,0,0,1-.68,1.13A1.72,1.72,0,0,1,509.61,529.1Zm-41.15-10.82,39.72,7.14,5-34.63-37.26-6.7Z" transform="translate(-414.93 -437.22)"/><path class="cls-2" d="M520.6,499.06l-.3,0-54-9.71a1.7,1.7,0,1,1,.6-3.34l54,9.71a1.69,1.69,0,0,1-.3,3.36Z" transform="translate(-414.93 -437.22)"/><path class="cls-2" d="M520.09,523.53h-.22a1.69,1.69,0,0,1-1.46-1.9L520.16,508a1,1,0,0,0-.85-1.16l-5.45-1a1.7,1.7,0,0,1,.6-3.34l5.45,1a4.44,4.44,0,0,1,3.62,4.94l-1.76,13.6A1.69,1.69,0,0,1,520.09,523.53Z" transform="translate(-414.93 -437.22)"/><path class="cls-2" d="M532.63,560a1.77,1.77,0,0,1-.5-.07l-12.38-3.83a1.7,1.7,0,0,1,1-3.25l12.38,3.84a1.69,1.69,0,0,1-.5,3.31Z" transform="translate(-414.93 -437.22)"/><path class="cls-2" d="M522.68,548.31a1.7,1.7,0,0,1-.07-3.39l10-.42a1.7,1.7,0,1,1,.14,3.39l-10,.42Z" transform="translate(-414.93 -437.22)"/><path class="cls-2" d="M525.79,570a1.73,1.73,0,0,1-1-.34l-8-6a1.7,1.7,0,0,1,2-2.72l8,6a1.7,1.7,0,0,1-1,3.06Z" transform="translate(-414.93 -437.22)"/><path class="cls-2" d="M449.72,543.48h-.1l-12.94-.72a1.69,1.69,0,0,1-1.6-1.79,1.71,1.71,0,0,1,1.79-1.6l12.94.73a1.7,1.7,0,0,1-.09,3.39Z" transform="translate(-414.93 -437.22)"/><path class="cls-2" d="M450.18,535.28a1.7,1.7,0,0,1-.66-.14l-9.19-3.87a1.69,1.69,0,1,1,1.32-3.12l9.19,3.87a1.7,1.7,0,0,1-.66,3.26Z" transform="translate(-414.93 -437.22)"/><path class="cls-2" d="M439.69,554.5a1.7,1.7,0,0,1-.48-3.32l9.57-2.82a1.69,1.69,0,1,1,1,3.25l-9.57,2.82A1.59,1.59,0,0,1,439.69,554.5Z" transform="translate(-414.93 -437.22)"/></svg>