<svg id="圖層_1" data-name="圖層 1" xmlns="http://www.w3.org/2000/svg" viewBox="0 0 425 236"><defs><style>.cls-1{fill:#1b1464;}.cls-2{fill:#ffc522;}</style></defs><title>精選飲冰品_標題</title><path class="cls-1" d="M266.85,503.12a6.27,6.27,0,0,1-4.18-4.84,5.67,5.67,0,0,1,0-3.17,2.3,2.3,0,0,1,1.75-1.51,2.4,2.4,0,0,1,1.69.12,1.63,1.63,0,0,1,.92,1.14,7.49,7.49,0,0,1,.19,1.28,3.85,3.85,0,0,1,.07.51,5.21,5.21,0,0,0,.12.76,2.62,2.62,0,0,0,2.2,2,11,11,0,0,0,4.74-.31,9.06,9.06,0,0,0,4.48-2.23,3.52,3.52,0,0,0,1-3.47,3.1,3.1,0,0,0-1.28-1.9,6.86,6.86,0,0,0-2.32-1c-.88-.2-2.1-.42-3.66-.65a36.66,36.66,0,0,1-5-1A9.47,9.47,0,0,1,264,487a6.89,6.89,0,0,1-2.22-3.83,8.11,8.11,0,0,1,.28-4.91,9,9,0,0,1,3.21-4.06,15.74,15.74,0,0,1,5.82-2.58,15,15,0,0,1,5-.38,8,8,0,0,1,4,1.51,6,6,0,0,1,2.22,3.54,7,7,0,0,1,.14,3.56,2.24,2.24,0,0,1-1.72,1.63,2.27,2.27,0,0,1-1.69-.2,1.8,1.8,0,0,1-.95-1.21,6.9,6.9,0,0,1-.2-1.28q-.15-1.09-.21-1.38a2.54,2.54,0,0,0-2-1.93,7.77,7.77,0,0,0-3.82.08,8.55,8.55,0,0,0-4.43,2.26,3.72,3.72,0,0,0-.86,3.55,3.49,3.49,0,0,0,1.39,2.12,7.18,7.18,0,0,0,2.48,1.11c.93.23,2.22.46,3.86.7a46.09,46.09,0,0,1,4.84.95,8.91,8.91,0,0,1,3.38,1.76,6.28,6.28,0,0,1,2.07,3.51,7.74,7.74,0,0,1-1.64,7.26,15,15,0,0,1-8,4.32A14.56,14.56,0,0,1,266.85,503.12Z" transform="translate(-181.95 -413.58)"/><path class="cls-1" d="M291.15,497.5a6.66,6.66,0,0,1-1.9-3.46,32,32,0,0,1-.82-5,31.35,31.35,0,0,1,0-5,3.17,3.17,0,0,1,.63-1.78,3.65,3.65,0,0,1,1.93-.95,1.74,1.74,0,0,1,1.14,0,.91.91,0,0,1,.49.67,16.49,16.49,0,0,1,.07,2c0,.94,0,1.78,0,2.53a34.19,34.19,0,0,0,.49,5.18,2.24,2.24,0,0,0,.43,1,.64.64,0,0,0,.64.17c.36-.09.72-.55,1.08-1.4a15.84,15.84,0,0,0,.94-3.66,47.81,47.81,0,0,0,.48-5.79,3,3,0,0,1,.5-1.75,2.94,2.94,0,0,1,1.66-.89,2.58,2.58,0,0,1,1.19-.08.81.81,0,0,1,.49.66,34.82,34.82,0,0,1,.29,5.11,40.52,40.52,0,0,0,.35,5.89,1.81,1.81,0,0,0,.54,1,.92.92,0,0,0,.84.19,2.84,2.84,0,0,0,1.48-1.28,30.07,30.07,0,0,0,1.95-3.47,1.27,1.27,0,0,1,.84-.74.83.83,0,0,1,.83.26,2.23,2.23,0,0,1,.55,1.11,3.42,3.42,0,0,1-.14,2.38,16.53,16.53,0,0,1-2.56,3.91,7.11,7.11,0,0,1-3.72,2.18,2.84,2.84,0,0,1-2.84-.72,7.41,7.41,0,0,1-1.69-3.53,8.71,8.71,0,0,1-.92,4.18,3.66,3.66,0,0,1-2.3,1.93A3.16,3.16,0,0,1,291.15,497.5Z" transform="translate(-181.95 -413.58)"/><path class="cls-1" d="M327.33,482.2a2.23,2.23,0,0,1,.55,1.11,3.41,3.41,0,0,1-.14,2.38,16.53,16.53,0,0,1-2.56,3.91,7.11,7.11,0,0,1-3.72,2.18,4,4,0,0,1-3.4-.62,8.12,8.12,0,0,1-3.92,2.38,44.84,44.84,0,0,1,.66,12c-.36,3.35-1.59,5.28-3.71,5.79a3.28,3.28,0,0,1-3.19-.71,7.07,7.07,0,0,1-1.85-3.63,26.25,26.25,0,0,1-.35-8.56A57.7,57.7,0,0,1,308.19,487q-1.24-5.22-1.81-7.24a1.89,1.89,0,0,1,.43-1.84,3.75,3.75,0,0,1,2-1.13,1.63,1.63,0,0,1,1.16.05,1.73,1.73,0,0,1,.66,1.1c.14.6.26,1,.35,1.32a8.35,8.35,0,0,1,1.76-2.6,4.89,4.89,0,0,1,2.2-1.19,4.08,4.08,0,0,1,3.65.82,6.8,6.8,0,0,1,2.28,3.92,11.71,11.71,0,0,1,.28,3.82,12.43,12.43,0,0,1-.9,3.66,5,5,0,0,0,1.3-.08,3.67,3.67,0,0,0,2-1.4,21.87,21.87,0,0,0,2.06-3.52,1.3,1.3,0,0,1,.85-.74A.83.83,0,0,1,327.33,482.2Zm-16.19,21a91.84,91.84,0,0,0-1.69-10.65,55.41,55.41,0,0,0-.79,7.41,22.33,22.33,0,0,0,.42,5.68,4.45,4.45,0,0,0,.69,1.69c.27.36.53.52.77.46C311.18,507.63,311.38,506.11,311.14,503.2Zm4.39-15.12a8.39,8.39,0,0,0,1.06-3.21,9.74,9.74,0,0,0-.19-3.64,2.66,2.66,0,0,0-.82-1.52,1.41,1.41,0,0,0-1.27-.28c-.86.21-1.67,1.36-2.45,3.47.22,1.05.58,2.59,1.07,4.61q.39,1.65.57,2.55A4.82,4.82,0,0,0,315.53,488.08Z" transform="translate(-181.95 -413.58)"/><path class="cls-1" d="M343.38,478.34a2.23,2.23,0,0,1,.55,1.11,3.42,3.42,0,0,1-.14,2.38,13.59,13.59,0,0,1-3,3.87,10.64,10.64,0,0,1-4.83,2.59,8.16,8.16,0,0,1-6.31-.63,7.68,7.68,0,0,1-3.4-5.08,10.61,10.61,0,0,1-.07-4.85,8.81,8.81,0,0,1,2.06-4.07,7.55,7.55,0,0,1,3.86-2.25,4.67,4.67,0,0,1,3.62.44,4.62,4.62,0,0,1,2.05,3,5.94,5.94,0,0,1-.76,4.66q-1.33,2.19-5.3,4.25a3.58,3.58,0,0,0,3.78.82,7.89,7.89,0,0,0,3.39-2,12.52,12.52,0,0,0,2.85-3.8,1.27,1.27,0,0,1,.84-.74A.83.83,0,0,1,343.38,478.34Zm-12.93-1.2a7.45,7.45,0,0,0,0,3.93l0,.08a8.41,8.41,0,0,0,3-2.31,3,3,0,0,0,.66-2.61,1.59,1.59,0,0,0-.64-1,1.34,1.34,0,0,0-1.12-.17A2.7,2.7,0,0,0,330.45,477.14Z" transform="translate(-181.95 -413.58)"/><path class="cls-1" d="M359.33,470.63a1.89,1.89,0,0,1,.88,1.24,2.8,2.8,0,0,1,0,1.05,6.15,6.15,0,0,1-1.08,2.6,3.48,3.48,0,0,1-2.07,1.45,2.31,2.31,0,0,1-1.86-.31,2.71,2.71,0,0,1-1.16-1.76c-.11-.46-.2-.95-.28-1.49a7.6,7.6,0,0,0-.12-.8.63.63,0,0,0-.23-.4.41.41,0,0,0-.34-.07c-.33.08-.68.59-1.06,1.53a18,18,0,0,0-1,3.57,26.28,26.28,0,0,0-.4,4.48,5.81,5.81,0,0,1-.34,2.51,2.12,2.12,0,0,1-1.5,1,2,2,0,0,1-2.26-1,14.38,14.38,0,0,1-1.65-4.44,30.15,30.15,0,0,1-.79-9.15,2.78,2.78,0,0,1,.69-1.77,3.77,3.77,0,0,1,1.93-1,2.15,2.15,0,0,1,1-.06.76.76,0,0,1,.45.61,13.91,13.91,0,0,1,.08,2.7c0,1,0,1.9,0,2.64a26.19,26.19,0,0,0,.28,2.74,20.65,20.65,0,0,1,1.44-5.64,10.69,10.69,0,0,1,2.2-3.44,5.19,5.19,0,0,1,2.33-1.44,2.17,2.17,0,0,1,1.73.21,2.5,2.5,0,0,1,1,1.6,15.76,15.76,0,0,1,.23,2.67l.32-.08A1.9,1.9,0,0,1,359.33,470.63Z" transform="translate(-181.95 -413.58)"/><path class="cls-1" d="M384.4,475a11.48,11.48,0,0,1-5.88-3.25,13.35,13.35,0,0,1-3.27-6.25,21.68,21.68,0,0,1-.25-9.81,15.85,15.85,0,0,1,3.85-7.6,13.81,13.81,0,0,1,7-4q3.86-.93,6.33.57a7.26,7.26,0,0,1,3.25,4.76,7.14,7.14,0,0,1,.07,3.69,2.68,2.68,0,0,1-3.56,1.76,1.69,1.69,0,0,1-.89-1.22,8.74,8.74,0,0,1-.14-1.21,9.88,9.88,0,0,0-.2-1.77q-.78-3.25-4.24-2.42a7.82,7.82,0,0,0-4.13,2.62,11.14,11.14,0,0,0-2.38,5.35,18.15,18.15,0,0,0,.38,7.42,9.11,9.11,0,0,0,4,6.05c2,1.18,4.51,1.39,7.63.65a20.5,20.5,0,0,0,4.55-1.72,37.3,37.3,0,0,0,4.83-3.08,3,3,0,0,1,.84-.43,1,1,0,0,1,1,.23,2,2,0,0,1,.55,1,3.5,3.5,0,0,1-1.58,3.78,24.91,24.91,0,0,1-4.87,2.89,27.92,27.92,0,0,1-5.07,1.77A16.85,16.85,0,0,1,384.4,475Z" transform="translate(-181.95 -413.58)"/><path class="cls-1" d="M417.55,460.5a2.23,2.23,0,0,1,.55,1.11A3.35,3.35,0,0,1,418,464a15.8,15.8,0,0,1-2.59,3.92,7.3,7.3,0,0,1-3.79,2.19,5.08,5.08,0,0,1-5.35-1.74,16.28,16.28,0,0,1-3.29-7,52.83,52.83,0,0,1-1.25-10.21,34.9,34.9,0,0,1,1-10.38q1.23-4.53,4.27-5.26a3.1,3.1,0,0,1,3.07.94,9,9,0,0,1,2.08,4.32,26.92,26.92,0,0,1,0,10.44,56.58,56.58,0,0,1-3.73,12.65,4.23,4.23,0,0,0,1.33,1.9,2,2,0,0,0,1.64.26,4.19,4.19,0,0,0,2.37-1.46,19.73,19.73,0,0,0,2.13-3.55,1.31,1.31,0,0,1,.84-.74A.88.88,0,0,1,417.55,460.5Zm-11.66-17.88a49.53,49.53,0,0,0-.06,7.8,54.89,54.89,0,0,0,1.17,8.65,47.8,47.8,0,0,0,2-9.36,23.49,23.49,0,0,0-.34-8c-.43-1.81-1-2.63-1.65-2.47S406.1,440.48,405.89,442.62Z" transform="translate(-181.95 -413.58)"/><path class="cls-1" d="M419.35,466.53a6.62,6.62,0,0,1-2.34-3.9,11.94,11.94,0,0,1,0-5.73,11.54,11.54,0,0,1,2.53-5,8.16,8.16,0,0,1,4.28-2.68,1.51,1.51,0,0,1,1.13.05,2.67,2.67,0,0,1,.7,1,8.2,8.2,0,0,1,1.54-.52c1.17-.28,1.85,0,2,.83a26.84,26.84,0,0,1,.32,3.7,35.49,35.49,0,0,0,.55,5.92,1.33,1.33,0,0,0,.47.79.9.9,0,0,0,.78.16,2.78,2.78,0,0,0,1.43-1.27,32.57,32.57,0,0,0,1.92-3.47,1.29,1.29,0,0,1,.85-.73.84.84,0,0,1,.83.25,2.23,2.23,0,0,1,.55,1.11,3.35,3.35,0,0,1-.15,2.38,18.67,18.67,0,0,1-2.36,3.83,5.54,5.54,0,0,1-2.88,2,3.45,3.45,0,0,1-2.35-.28,5,5,0,0,1-2-1.85q-1.14,3.45-4,4.13A4.42,4.42,0,0,1,419.35,466.53Zm5.61-4.45a6.05,6.05,0,0,0,.44-2.72l-.25-6.89a4.41,4.41,0,0,0-2.5,1.79,7.76,7.76,0,0,0-1.32,3.36,9.86,9.86,0,0,0,.15,4,2.66,2.66,0,0,0,.84,1.54,1.54,1.54,0,0,0,1.36.24A2,2,0,0,0,425,462.08Z" transform="translate(-181.95 -413.58)"/><path class="cls-1" d="M442.05,462.7a2.6,2.6,0,0,1-1.44-1.7,2.23,2.23,0,0,1,.29-1.77,2.76,2.76,0,0,1,1.83-1.16,8.75,8.75,0,0,1,1.11-.17l1-.11a4.75,4.75,0,0,0-.83-1.65,8.53,8.53,0,0,0-1.33-1.36c-.5-.42-1-.78-1.39-1.09a24.4,24.4,0,0,1-1.35,4,29.33,29.33,0,0,1-1.74,3.21,1.94,1.94,0,0,1-1.21,1,1.18,1.18,0,0,1-1-.19,1.45,1.45,0,0,1-.6-.93,2,2,0,0,1,.18-1.44l.33-.68a49.12,49.12,0,0,0,2-4.72c.24-.79.49-1.83.76-3.12s.52-2.61.75-4a2.83,2.83,0,0,1,2.44-2.26,3.7,3.7,0,0,1,1.43-.15.61.61,0,0,1,.53.48,2.49,2.49,0,0,1,0,.71,5.43,5.43,0,0,1-.17,1,5.36,5.36,0,0,0-.12,2.34,2.52,2.52,0,0,0,.66,1.09,13.55,13.55,0,0,0,1.55,1.33,23.35,23.35,0,0,1,2.34,2.14,4.8,4.8,0,0,1,1.14,2.16c.06.24.11.58.17,1,1.06-.73,2.14-2.27,3.24-4.6a1.3,1.3,0,0,1,.84-.73.87.87,0,0,1,.84.25,2.4,2.4,0,0,1,.55,1.12,3.65,3.65,0,0,1-.15,2.38A11.4,11.4,0,0,1,452,459a10,10,0,0,1-3.81,1.84,5.19,5.19,0,0,1-3.1,2A4.31,4.31,0,0,1,442.05,462.7Z" transform="translate(-181.95 -413.58)"/><path class="cls-1" d="M459.89,458.41a2.64,2.64,0,0,1-1.45-1.7,2.27,2.27,0,0,1,.3-1.77,2.76,2.76,0,0,1,1.83-1.16,8.75,8.75,0,0,1,1.11-.17l1-.11a4.75,4.75,0,0,0-.83-1.65,9,9,0,0,0-1.33-1.36c-.5-.42-1-.78-1.39-1.09a23.45,23.45,0,0,1-1.36,4,27.64,27.64,0,0,1-1.73,3.21,2,2,0,0,1-1.21,1,1.18,1.18,0,0,1-1-.19,1.45,1.45,0,0,1-.6-.93,2,2,0,0,1,.18-1.44l.33-.68a49.12,49.12,0,0,0,2-4.72c.24-.79.49-1.83.76-3.12s.52-2.61.75-4a2.83,2.83,0,0,1,2.44-2.26,3.7,3.7,0,0,1,1.43-.15.61.61,0,0,1,.53.48,2.49,2.49,0,0,1,0,.71,5.43,5.43,0,0,1-.17,1,5.35,5.35,0,0,0-.12,2.34,2.52,2.52,0,0,0,.66,1.09,13.55,13.55,0,0,0,1.55,1.33,23.35,23.35,0,0,1,2.34,2.14,4.8,4.8,0,0,1,1.14,2.16c.06.24.11.58.17,1,1.06-.73,2.14-2.27,3.24-4.6a1.28,1.28,0,0,1,.84-.73.87.87,0,0,1,.84.25,2.4,2.4,0,0,1,.55,1.12,3.65,3.65,0,0,1-.15,2.38,11.4,11.4,0,0,1-2.68,3.84,10,10,0,0,1-3.81,1.84,5.19,5.19,0,0,1-3.1,2A4.31,4.31,0,0,1,459.89,458.41Z" transform="translate(-181.95 -413.58)"/><path class="cls-1" d="M470.9,434.79a2.59,2.59,0,0,1-1.22-1.77,2.7,2.7,0,0,1,.48-2.32,3.71,3.71,0,0,1,2.24-1.43,3.47,3.47,0,0,1,2.3.13A2.24,2.24,0,0,1,476,431a3,3,0,0,1-.39,2.5,3.63,3.63,0,0,1-2.26,1.43A3.24,3.24,0,0,1,470.9,434.79Zm3,18.59a8.32,8.32,0,0,1-2.1-4.11,28.45,28.45,0,0,1-.58-4.22,39.57,39.57,0,0,1-.07-5,3.1,3.1,0,0,1,.48-1.78,2.83,2.83,0,0,1,1.61-.84c1.21-.29,1.92,0,2.11.78a29.27,29.27,0,0,1,.32,4.31,30.37,30.37,0,0,0,.42,5.53,3.77,3.77,0,0,0,.68,1.58,1,1,0,0,0,1.1.34,2.83,2.83,0,0,0,1.39-1.28,32.21,32.21,0,0,0,1.89-3.45,1.32,1.32,0,0,1,.84-.73.86.86,0,0,1,.84.26,2.23,2.23,0,0,1,.55,1.11,3.36,3.36,0,0,1-.15,2.38c-1.66,3.45-3.52,5.42-5.56,5.92A3.81,3.81,0,0,1,473.86,453.38Z" transform="translate(-181.95 -413.58)"/><path class="cls-1" d="M486.5,450a7.44,7.44,0,0,1-3.16-4.78,11,11,0,0,1-.07-5.35,9,9,0,0,1,2.15-4.07,7.11,7.11,0,0,1,3.54-2.1,4.1,4.1,0,0,1,3.33.43,4.31,4.31,0,0,1,1.8,2.72,4.82,4.82,0,0,1,0,2.7,2,2,0,0,1-1.48,1.45,1.76,1.76,0,0,1-1.17-.06,1.1,1.1,0,0,1-.62-.79,2.58,2.58,0,0,1-.07-.59v-.49a3.54,3.54,0,0,0-.06-1.05,1.05,1.05,0,0,0-.41-.66.87.87,0,0,0-.72-.09,2.19,2.19,0,0,0-1.36,1.1,5.32,5.32,0,0,0-.66,2.26,8.58,8.58,0,0,0,.23,2.86,5,5,0,0,0,1.58,2.89,2.91,2.91,0,0,0,2.62.48,3.86,3.86,0,0,0,2.06-1.25,8.85,8.85,0,0,0,1.51-2.59,1.24,1.24,0,0,1,.84-.77.85.85,0,0,1,.83.25,2.31,2.31,0,0,1,.55,1.12,4.09,4.09,0,0,1-.07,2.36,7.21,7.21,0,0,1-2,3,7.5,7.5,0,0,1-3.39,1.74A7.22,7.22,0,0,1,486.5,450Z" transform="translate(-181.95 -413.58)"/><path class="cls-1" d="M293.81,624a68.53,68.53,0,0,0-3.93-8.5l3.22-1.65a78.25,78.25,0,0,1,4.12,8.36Zm37.09-8,.85,3.55-23.66,5.69-.85-3.55,9.25-2.22-.44-1.84-7.58,1.83-.79-3.3,7.58-1.82-.4-1.68-8.62,2.08-.38-1.59c-.43,3-.88,6.26-1.29,8.44l-3-.39.53,2.22,4.46-1.08,1.1,4.59L303.2,628l.7,2.92,1.46-1.63c1.07.76,4.88,4.16,5.79,5l-2.27,4.34A71.24,71.24,0,0,0,304.4,633l3.72,15.53-4.33,1-3.31-13.81c-.07,3.77-.56,7.59-1.82,10.06a36.33,36.33,0,0,0-3.26-4.6A24.15,24.15,0,0,0,297,631.17l2.4.26-.57-2.38-5.33,1.28-1.1-4.59,5.33-1.28-3.31-13.82,4.33-1,2.56,10.68a64.94,64.94,0,0,0,.27-8.45l4,.28-.22-.92,8.62-2.07-.73-3,4.79-1.15.73,3.05,9.08-2.19.85,3.55-9.08,2.18.4,1.67,8.25-2,.79,3.3-8.25,2,.44,1.84ZM334,637.56c.5,2.09.38,3.26-.93,4.24s-3.16,1.51-5.79,2.1a15.09,15.09,0,0,0-2.24-3.61c1.56-.33,3.31-.75,3.81-.87s.66-.34.55-.8l-.42-1.75-11.29,2.71A15.06,15.06,0,0,1,316.2,647a19.19,19.19,0,0,0-4.2-2.3c1.71-3.5,1-7.49.24-10.74l-1.78-7.43,19.71-4.74ZM315.79,629l.47,2,10.66-2.56-.47-2Zm12.38,4.61-.48-2L317,634.21c.12.68.24,1.36.35,2Z" transform="translate(-181.95 -413.58)"/><path class="cls-1" d="M351.72,617.92a38.51,38.51,0,0,1-.56,10.91c.86.28,1.9.73,3.33,1.19,3.28,1,7.26.32,12.09-.84a143.52,143.52,0,0,0,16.57-5.13,21.65,21.65,0,0,0-.19,5.43c-3.37,1-10.67,3.1-15.55,4.27-5.5,1.32-9.11,1.7-12.57.68-1.94-.55-3.77-1.56-4.64-1.35s-1.74,3.42-2.21,6l-4.42-3.93a24.06,24.06,0,0,1,2.27-3.77,24.21,24.21,0,0,0,1.58-9l-5,1.21c.33-2.68.57-6.27.75-9.75l-3.63.87-1.06-4.43,9.62-2.31c-.13,3.12-.33,6.7-.59,9.85l.46-.11.68-.29Zm-9-9.84c-1-1.79-2.81-4.58-4.11-6.69l4.21-2.3c1.33,2.07,3.1,4.68,4.18,6.41ZM362,605.2a17.09,17.09,0,0,0,0,3.66c-8,3.29-9.28,3.91-10,4.52a12.73,12.73,0,0,0-2.51-3.28,2.78,2.78,0,0,0,.73-3.05l-1.91-8,11.75-2.82,1.9,7.93-7.92,1.9.48,2Zm18.49,13.39-7.91,1.9a58.62,58.62,0,0,1,7.73,2.29l-3.93,3.11a38.34,38.34,0,0,0-7.75-2.73l2.07-2.22-8.16,2,3.48.35a32.39,32.39,0,0,1-7,7,30.1,30.1,0,0,0-4.43-2.12,27.57,27.57,0,0,0,6.28-4.86l-7.41,1.78-.87-3.63,6.49-1.56-.61-2.55-5,1.22-.87-3.64,5-1.21-.53-2.21,4.5-1.08.53,2.21,4.67-1.12-.53-2.21,4.62-1.12.53,2.22,5.13-1.24.87,3.63L372.29,614l.61,2.54,6.75-1.62ZM353,601.21l.45,1.87,3.79-.91-.45-1.87Zm16.42,6.73c-3.79.91-5-.3-5.87-3.89L361.57,596l11.88-2.86,1.9,7.93-8,1.92.06.26c.27,1.12.53,1.5,1.41,1.29l4.29-1a13.06,13.06,0,0,0,2.77-.93c.34,1,.79,2.37,1.14,3.25a12.6,12.6,0,0,1-3,1Zm-5.77,10.88,4.67-1.13-.61-2.54L363,616.27Zm2.57-20.75.45,1.88,3.83-.92-.45-1.88Z" transform="translate(-181.95 -413.58)"/><path class="cls-1" d="M390.94,597.06a39.65,39.65,0,0,1-4,4.85,27.43,27.43,0,0,0-3-4.25,26.69,26.69,0,0,0,7.38-10.74l4.41.57c-.12.39-.26.73-.39,1.11a68.75,68.75,0,0,1,8.05,1.78l-1.16,4.56a60.06,60.06,0,0,0-8.6-2.26c-.52,1-1.07,2-1.64,2.91l6.37-1.53.74,3.08L391.4,599Zm25.88,1.9c.24,1,.48,2.18.67,3.37,2.88,6.1,6.93,11,12.44,12.37a18.87,18.87,0,0,0-2.32,5c-4.05-1.27-7.26-4.17-10-8.14a23.33,23.33,0,0,1-5.37,11.76,15.08,15.08,0,0,0-3.28-2.09l-2.67,2.1c-.44-.73-1-1.65-1.7-2.68-7.92,5.18-9.23,6.15-10.05,7.14a14.5,14.5,0,0,0-2.64-3.82,2.68,2.68,0,0,0,1.13-3l-4.7-19.62,14.75-3.54,3.58,14.94-2.29.55c1.45,1.82,3.22,4,4.48,5.81,5.22-7.08,4.2-14.47,3.08-19.11l-.47-2,4.88-1.17Zm-23,4.83.49,2.05,5.66-1.37-.49-2Zm1.87,7.8,5.66-1.36-.56-2.34-5.66,1.37Zm6.59,5.83c-.5-.63-.95-1.22-1.39-1.78l3.24-2.28-7.58,1.82,1.2,5Zm8.19-22.09a30.74,30.74,0,0,1-1.6,8.19,33.32,33.32,0,0,0-4.68-1.87c1.83-4.5,1.84-11.08,1-17.68l4.95-.48c.23,2.41.42,4.84.44,7.13l8.25-2,.67-.3H423c.28,4.31.38,9.31.28,12.56l-4.24,0c0-1.94-.18-4.77-.39-7.5Z" transform="translate(-181.95 -413.58)"/><path class="cls-1" d="M439.42,588.53a43.39,43.39,0,0,0-8.95-3.72l2-4.37a48.79,48.79,0,0,1,9,3.22Zm5.23,8.76c-.95,4.47-2.2,9.4-3.48,13.6l-5-2a118.36,118.36,0,0,0,4-13.71ZM452.78,584c1.37,11.24,0,20.17-4.62,26.14a18.94,18.94,0,0,0-4.19-3.32c3.36-3.81,4.8-10.33,4.54-17.29l-6,1.43L441.38,586l7.46-1.79.81-.29Zm17-4.75a72.09,72.09,0,0,1-5.87,10.59c3.3,4.24,7.19,7.41,11.92,8.74a20.8,20.8,0,0,0-2.45,5.23c-5-2-9-6.14-12.43-11.4l2.92,12.18c.63,2.63.42,4.14-.91,5.39s-3.48,2-6.48,2.75a20.2,20.2,0,0,0-3.25-4.74c2.15-.43,4.1-.9,4.81-1.07s.87-.43.71-1.1L450.9,573l5.12-1.23,1.9,7.93a61.24,61.24,0,0,0,3.21,6,50.69,50.69,0,0,0,3.72-8Z" transform="translate(-181.95 -413.58)"/><path class="cls-1" d="M482.12,586.83,498,583l4.45,18.57-5,1.19-.45-1.88-6.2,1.5.5,2.09-4.71,1.13Zm29.33-10.72L487,582l-3.62-15.11L507.83,561ZM488,590.45l1.72,7.18,6.2-1.49L494.17,589Zm16-23.48-14.58,3.51,1.35,5.63,14.58-3.51Zm14,11.25,4.46,18.61-5,1.21-.46-1.92-6.63,1.59.5,2.09L506,600.94l-4.5-18.78Zm-2.13,13.14L514,584.18l-6.62,1.59,1.72,7.18Z" transform="translate(-181.95 -413.58)"/><path class="cls-1" d="M182,554.81l19.56-4.7,4,62.72-16.42,3.95Zm29.25,47a37.65,37.65,0,0,0,2.2-5.58,8.33,8.33,0,0,0,.27-4.25q-.94-4-9.17-5.64,4.17-10.77,6.26-17.71c1.4-4.63,1.78-8.23,1.17-10.81a8.31,8.31,0,0,0-2.25-4,16.58,16.58,0,0,0-4.6-3.08,49.67,49.67,0,0,0-7.06-2.66c-2.77-.83-6-1.68-9.61-2.52l21.1-10a69.59,69.59,0,0,1,15.32,6.63c3.59,2.29,5.81,5.16,6.63,8.61q1.32,5.47-1.21,13.07a128.85,128.85,0,0,1-8.19,18.39,28.51,28.51,0,0,1,7.72,2.93,6.89,6.89,0,0,1,3.33,4.3,9.65,9.65,0,0,1-.44,5.79q-1.11,3-3,6.84l-2.53,5.54-21,5Z" transform="translate(-181.95 -413.58)"/><path class="cls-1" d="M243.38,552l14.33-7.31,0-.2-17.52,4.74.21-16.15L277,524.25l1,14.47-15.46,4.35.73,15.61,15.91-3.82.7,11.43-16,4.71.89,14.92,16.31-3.06.75,11.64-33.45,8Z" transform="translate(-181.95 -413.58)"/><path class="cls-1" d="M285.61,526.38l19.76-4.75,10.54,61-1.5-69.86L334,508.1l-2,74.37-31.11,7.47Z" transform="translate(-181.95 -413.58)"/><path class="cls-1" d="M347.25,527l14.33-7.31-.05-.2L344,524.27l.21-16.16,36.69-8.81,1,14.47-15.46,4.36.73,15.61,15.91-3.82.7,11.42-16,4.71.89,14.93L385,557.92l.75,11.63-33.45,8Z" transform="translate(-181.95 -413.58)"/><path class="cls-1" d="M393,504.13l19.56-4.7,4,62.72-16.41,3.94Zm23,36.24,5.67-19.3a39,39,0,0,0,1.64-8.82,22,22,0,0,0-.09-4.86,11,11,0,0,0-3.86-5.84,19.51,19.51,0,0,0-8-3.78l-12-2.92,22.29-10.3q19.06,4.88,21.81,16.35,2.35,9.84-5.8,24.15l-5.27,9.32,17.68,19.7-20.67,5Z" transform="translate(-181.95 -413.58)"/><path class="cls-1" d="M454.77,485.75l19.56-4.7-.92,42.74,8.62-2.07-8.9-47,20.48-4.91,10.22,71.41L486.3,545.4l-2.68-15.25-10.28,4.08L473,548.58l-15.4,3.7Z" transform="translate(-181.95 -413.58)"/><path class="cls-1" d="M525.05,536.09a48.24,48.24,0,0,1-8.49-10.2A41.37,41.37,0,0,1,511.84,514a52,52,0,0,1,.42-25.12,66.09,66.09,0,0,1,12.89-25l29-7q-13.85,14.71-19.28,28.25t-2.67,25.13a34.63,34.63,0,0,0,4.05,9.76,59.92,59.92,0,0,0,7.49,9.8l.2,0-4.45-36.08,18.65-4.48,2.41,38.29Z" transform="translate(-181.95 -413.58)"/><path class="cls-1" d="M568.48,473.91l14.33-7.31,0-.2-17.51,4.74.2-16.16,36.69-8.81,1,14.47L587.68,465l.73,15.61,15.92-3.82.69,11.43-16,4.7.89,14.93,16.31-3.06.75,11.63-33.45,8Z" transform="translate(-181.95 -413.58)"/><ellipse class="cls-2" cx="45.87" cy="87.96" rx="22.6" ry="22.64"/><path class="cls-1" d="M227.83,525.68a24.13,24.13,0,1,1,23.07-31.07h0a24.12,24.12,0,0,1-23.07,31.07Zm0-45.28A21.15,21.15,0,1,0,248,495.47h0A21.13,21.13,0,0,0,227.81,480.4Z" transform="translate(-181.95 -413.58)"/><path class="cls-1" d="M240.86,504.49a1.14,1.14,0,0,0-1.43.72s-1.36,4-6.68,5.55a14.49,14.49,0,0,1-9.93-.47,15.39,15.39,0,0,1-3.2-1.8,3.79,3.79,0,0,1-.35.74.13.13,0,0,1-.09.07.15.15,0,0,1-.13,0,.17.17,0,0,1-.06-.22,4.63,4.63,0,0,0,.41-.9,8.75,8.75,0,0,0,.31-2,1.13,1.13,0,0,0-2.26-.12,4.32,4.32,0,0,1-2,3.74,1.13,1.13,0,0,0,1,2,1.15,1.15,0,0,0,.37-.18,8.87,8.87,0,0,0,1.43-1.34,17,17,0,0,0,15.17,2.64c6.43-1.93,8.11-6.8,8.18-7A1.13,1.13,0,0,0,240.86,504.49Z" transform="translate(-181.95 -413.58)"/><path class="cls-1" d="M228.38,514.19A17.72,17.72,0,0,1,218.3,511a9.83,9.83,0,0,1-1.2,1.06,1.4,1.4,0,0,1-.53.27,1.63,1.63,0,0,1-1.45-2.86,3.79,3.79,0,0,0,1.83-3.36,1.61,1.61,0,0,1,.53-1.13,1.65,1.65,0,0,1,1.18-.42,1.58,1.58,0,0,1,1.13.54,1.63,1.63,0,0,1,.42,1.17,9.2,9.2,0,0,1-.28,1.87,14.89,14.89,0,0,0,3.08,1.72,14,14,0,0,0,9.6.46c5-1.5,6.34-5.19,6.35-5.23a1.63,1.63,0,0,1,2.06-1h0a1.63,1.63,0,0,1,1,2.07c-.07.21-1.84,5.32-8.5,7.32A18,18,0,0,1,228.38,514.19Zm-10.22-4.58.37.28a16.53,16.53,0,0,0,14.73,2.57c6.18-1.86,7.78-6.49,7.85-6.69a.63.63,0,0,0-.4-.8h0a.63.63,0,0,0-.8.4s-1.46,4.2-7,5.87a15,15,0,0,1-10.26-.49,16,16,0,0,1-2.8-1.5,1.71,1.71,0,0,1-.13.23.66.66,0,0,1-.38.3.64.64,0,0,1-.52-.06.71.71,0,0,1-.31-.41.73.73,0,0,1,.07-.5,3.94,3.94,0,0,0,.36-.8,7.88,7.88,0,0,0,.29-1.83.65.65,0,0,0-.16-.46.62.62,0,0,0-.44-.2.58.58,0,0,0-.46.16.66.66,0,0,0-.21.44,4.72,4.72,0,0,1-2.22,4.1.64.64,0,0,0-.12.89.65.65,0,0,0,.69.23.78.78,0,0,0,.2-.11,9,9,0,0,0,1.37-1.26Z" transform="translate(-181.95 -413.58)"/><ellipse class="cls-1" cx="49.87" cy="80.31" rx="2.26" ry="2.26"/><path class="cls-1" d="M231.82,496.66a2.7,2.7,0,0,1-1.3-.33,2.76,2.76,0,1,1,3.95-3.23h0a2.77,2.77,0,0,1-2.65,3.56Zm0-4.53a1.77,1.77,0,0,0-.5.07,1.79,1.79,0,0,0-1,.86,1.78,1.78,0,0,0,.72,2.39,1.76,1.76,0,0,0,2.39-.72,1.74,1.74,0,0,0,.13-1.34h0A1.76,1.76,0,0,0,231.82,492.13Z" transform="translate(-181.95 -413.58)"/><ellipse class="cls-1" cx="38.33" cy="83.78" rx="2.26" ry="2.26"/><path class="cls-1" d="M220.28,500.13a2.76,2.76,0,1,1,1.31-5.2,2.77,2.77,0,0,1-1.31,5.2Zm0-4.53a1.68,1.68,0,0,0-.5.07,1.76,1.76,0,1,0,1,3.38,1.77,1.77,0,0,0,1.18-2.19h0a1.75,1.75,0,0,0-.85-1.05A1.77,1.77,0,0,0,220.28,495.6Z" transform="translate(-181.95 -413.58)"/><path class="cls-1" d="M543.88,569.91c-4.08-4.18-11.42-.31-9.75,5.49s9.83,5.29,11.22-.39c.46-1.87-2.42-2.67-2.88-.79-.67,2.75-4.59,3.34-5.46.38s2.77-4.61,4.75-2.57c1.35,1.38,3.46-.74,2.12-2.12Z" transform="translate(-181.95 -413.58)"/><path class="cls-1" d="M243.56,643.22l16.66-19.43c1.25-1.45-.85-3.58-2.11-2.11L241.44,641.1c-1.24,1.46.86,3.58,2.12,2.12Z" transform="translate(-181.95 -413.58)"/><path class="cls-1" d="M254.41,647l8.9-17.9c.85-1.72-1.72-3.24-2.58-1.51l-8.9,17.9c-.85,1.72,1.72,3.24,2.58,1.51Z" transform="translate(-181.95 -413.58)"/><path class="cls-1" d="M238.46,633.11,251,624.3c1.56-1.09.07-3.69-1.51-2.58L237,630.52c-1.56,1.1-.07,3.7,1.51,2.59Z" transform="translate(-181.95 -413.58)"/><path class="cls-1" d="M527.74,418.14l-16.66,19.43c-1.25,1.45.85,3.58,2.11,2.11l16.67-19.42c1.24-1.45-.86-3.58-2.12-2.12Z" transform="translate(-181.95 -413.58)"/><path class="cls-1" d="M516.89,414.34l-8.9,17.9c-.85,1.72,1.72,3.24,2.58,1.52l8.9-17.91c.85-1.72-1.72-3.23-2.58-1.51Z" transform="translate(-181.95 -413.58)"/><path class="cls-1" d="M532.84,428.25l-12.53,8.81c-1.56,1.1-.07,3.69,1.51,2.58l12.53-8.8c1.56-1.1.07-3.7-1.51-2.59Z" transform="translate(-181.95 -413.58)"/></svg>