<svg id="圖層_1" data-name="圖層 1" xmlns="http://www.w3.org/2000/svg" viewBox="0 0 245 138"><defs><style>.cls-1{fill:#ffe8a7;}</style></defs><title>精選飲冰品_飲品文字底圖</title><path class="cls-1" d="M258.42,644.75a2.8,2.8,0,0,1-.47-1.93l3.79-52.66a6.11,6.11,0,0,1,.73-2.75,3.37,3.37,0,0,1,1.84-1.4l13.07-4.43q8.16-2.76,12.45,1.89t4.29,16.12a65.32,65.32,0,0,1-2.57,19.15,38.48,38.48,0,0,1-7.29,13.94,25.08,25.08,0,0,1-11.14,7.71l-13.07,4.42C259.28,645.08,258.73,645.06,258.42,644.75Zm15.46-15.36q5.07-1.71,8-8.41t3-17.1c0-4.64-.7-7.92-2.08-9.83s-3.43-2.4-6.15-1.47l-6.36,2.15-2.74,36.82Z" transform="translate(-257.95 -507)"/><path class="cls-1" d="M308.81,627.8q-.75-.39-.75-1.71l3.85-52.93a5.94,5.94,0,0,1,.72-2.74,3.33,3.33,0,0,1,1.84-1.4l11.38-3.86q13.47-4.56,13.47,8.79A23.93,23.93,0,0,1,337.19,584a21.55,21.55,0,0,1-5.74,7.68V592c.66.15,1.33.84,2,2.06a16.35,16.35,0,0,1,1.6,4.25l3.8,16.74a9.11,9.11,0,0,1,.17,1.5c-.12,1.13-1.32,2.09-3.62,2.86l-2.39.81c-1.9.65-3,.45-3.26-.61l-3.45-14.81a5.84,5.84,0,0,0-1.75-3.22c-.7-.5-1.94-.45-3.73.16l-2.27.77L317,623.05c-.12,1.79-1.34,3.07-3.68,3.86l-2,.68A3.58,3.58,0,0,1,308.81,627.8Zm16.1-38.31a6.85,6.85,0,0,0,3.48-3.47,12.18,12.18,0,0,0,1.54-5.94,4.88,4.88,0,0,0-1.17-3.7,3.07,3.07,0,0,0-3.26-.37l-5.14,1.74-1,13.61Z" transform="translate(-257.95 -507)"/><path class="cls-1" d="M353.62,610.74l3.9-53.85q.18-2.68,3.68-3.87l2-.69q3.33-1.12,3.33,1.41l-3.91,53.85c-.12,1.79-1.34,3.08-3.68,3.87l-2,.69C354.72,612.9,353.62,612.43,353.62,610.74Z" transform="translate(-257.95 -507)"/><path class="cls-1" d="M381.45,603.19a1.75,1.75,0,0,1-.76-1.71l3.91-53.76c.12-1.79,1.34-3.08,3.68-3.87l2.51-.85a4.87,4.87,0,0,1,2.3-.33,2,2,0,0,1,1.43,1.28l11,24.63a34.44,34.44,0,0,1,1.63,4.37l.35-.2c0-1.42.1-3.31.29-5.67l2-27.9q.18-2.68,3.68-3.87l1.69-.57a3.6,3.6,0,0,1,2.57-.22,1.77,1.77,0,0,1,.76,1.71L414.59,590c-.12,1.79-1.34,3.08-3.68,3.87l-2.21.75a4.93,4.93,0,0,1-2.31.33,2,2,0,0,1-1.43-1.28l-11.2-25a24.87,24.87,0,0,1-1.69-4.26l-.35.2c0,1.42-.1,3.31-.29,5.67l-2,28.23q-.18,2.69-3.68,3.87L384,603A3.53,3.53,0,0,1,381.45,603.19Z" transform="translate(-257.95 -507)"/><path class="cls-1" d="M433.55,585.54c-.51-.26-.76-.83-.76-1.71l3.91-53.76c.11-1.79,1.34-3.08,3.67-3.87l2-.69a3.6,3.6,0,0,1,2.57-.22,1.75,1.75,0,0,1,.76,1.71l-1.63,22.52h.23l11.84-27.12a5.63,5.63,0,0,1,3.62-2.78l2.74-.93a6.63,6.63,0,0,1,2.39-.48c.55,0,.82.21.82.54a5.32,5.32,0,0,1-.58,2L452.1,549.43l10.67,23.92a3.76,3.76,0,0,1,.35,1.35,1.77,1.77,0,0,1-.76,1.37,8.66,8.66,0,0,1-2.56,1.24l-3.39,1.14a6.29,6.29,0,0,1-2.33.46,1.18,1.18,0,0,1-1.11-.85l-9.16-21.81-.23.16-1.75,24.36q-.18,2.68-3.67,3.87l-2.05.69A3.5,3.5,0,0,1,433.55,585.54Z" transform="translate(-257.95 -507)"/><path class="cls-1" d="M482.1,569.38a7.26,7.26,0,0,1-4.52-1,3,3,0,0,1-1.23-2.62,40.88,40.88,0,0,1,.44-7.44c.29-1.3.65-2,1.08-2.17.19-.07.66.1,1.4.51a12.23,12.23,0,0,0,3.44,1.58,7.27,7.27,0,0,0,4.14-.38,9.33,9.33,0,0,0,4.14-2.84,8.06,8.06,0,0,0,1.75-5.47,3.68,3.68,0,0,0-1.37-3.3,14.9,14.9,0,0,0-4.34-1.73c-1.09-.28-1.91-.52-2.45-.72a10.2,10.2,0,0,1-5.05-3.7c-1.22-1.72-1.84-4.46-1.84-8.23q0-9.92,4.44-15.88a22.05,22.05,0,0,1,10.73-8.1,14.72,14.72,0,0,1,5.48-.92,6.29,6.29,0,0,1,3.62,1.11,2.45,2.45,0,0,1,1,2,10.66,10.66,0,0,1-.64,3,21.52,21.52,0,0,1-1.54,3.64c-.61,1.11-1.12,1.73-1.55,1.88a1.45,1.45,0,0,1-.73,0,7.45,7.45,0,0,1-.85-.25,9.23,9.23,0,0,0-4.78.39,8.1,8.1,0,0,0-4.55,3.14,7.58,7.58,0,0,0-1.22,4c0,1.8.45,3.06,1.37,3.76a12.74,12.74,0,0,0,4.34,1.84l1.69.5a11.34,11.34,0,0,1,5.58,3.43q2.07,2.42,2.07,7.91,0,11-4.32,17a20.93,20.93,0,0,1-10.27,8.07A20,20,0,0,1,482.1,569.38Z" transform="translate(-257.95 -507)"/></svg>