<svg id="圖層_1" data-name="圖層 1" xmlns="http://www.w3.org/2000/svg" viewBox="0 0 168 168"><defs><style>.cls-1{fill:#1b1464;}</style></defs><title>圓形文字icon</title><path class="cls-1" d="M339.6,572.75l-13.48,2.73-1.84-9.05,2.74-.56,1.2,5.91,2.55-.51-1.13-5.59,2.61-.53,1.13,5.59,2.8-.57-1.27-6.25,2.78-.56Z" transform="translate(-323.61 -470.23)"/><path class="cls-1" d="M337.66,546.39l-2.76.9-.32,5.31,2.63,1.17-.22,3.6-13.38-6.57.19-3.22,14.08-4.87Zm-10.29,3.08,4.61,2,.21-3.44Z" transform="translate(-323.61 -470.23)"/><path class="cls-1" d="M330.43,528.93l10.44,3.2-1,3.17-10.44-3.2-1.14,3.71-2.71-.82,3.25-10.6,2.71.83Z" transform="translate(-323.61 -470.23)"/><path class="cls-1" d="M349.28,499.6a4.24,4.24,0,0,1,1.29,1.62,3.64,3.64,0,0,1,.27,1.78,5.53,5.53,0,0,1-.53,1.82,9.34,9.34,0,0,1-1.12,1.74l-1.05,1.28,4,3.27-2.1,2.57L339.4,505l3.19-3.91a9.63,9.63,0,0,1,1.51-1.49,5.07,5.07,0,0,1,1.63-.87,3.53,3.53,0,0,1,1.74-.07A4.44,4.44,0,0,1,349.28,499.6Zm-2.09,2.58a1.52,1.52,0,0,0-.74-.35,1.34,1.34,0,0,0-.71.1,2.37,2.37,0,0,0-.65.43,5.93,5.93,0,0,0-.59.63l-.92,1.13,2.51,2.05.89-1.08a5.15,5.15,0,0,0,.5-.75,2.5,2.5,0,0,0,.28-.76,1.43,1.43,0,0,0-.07-.74A1.57,1.57,0,0,0,347.19,502.18Z" transform="translate(-323.61 -470.23)"/><path class="cls-1" d="M368.56,495.83l-3.38-4.65-4.34,3.15,3.38,4.65-2.68,1.95-8.09-11.12,2.69-1.95,3.06,4.21,4.34-3.15-3.06-4.2,2.69-2,8.08,11.11Z" transform="translate(-323.61 -470.23)"/><path class="cls-1" d="M389.39,478.91a8,8,0,0,1,.45,3,6.85,6.85,0,0,1-.72,2.7,7,7,0,0,1-1.76,2.18,8.37,8.37,0,0,1-2.66,1.47,8.12,8.12,0,0,1-3,.49,6.91,6.91,0,0,1-2.72-.63,6.58,6.58,0,0,1-2.24-1.67,8.19,8.19,0,0,1-2-5.62,6.39,6.39,0,0,1,.74-2.65,6.74,6.74,0,0,1,1.76-2.13,9,9,0,0,1,5.65-2,7,7,0,0,1,2.72.57,6.58,6.58,0,0,1,2.22,1.63A7.64,7.64,0,0,1,389.39,478.91ZM386,480.08a4.83,4.83,0,0,0-.82-1.48,4,4,0,0,0-1.2-1,3.68,3.68,0,0,0-1.46-.42,4,4,0,0,0-1.62.22,3.79,3.79,0,0,0-2.62,3.58,4.94,4.94,0,0,0,.29,1.67,4.82,4.82,0,0,0,.84,1.53,3.91,3.91,0,0,0,1.2,1,3.49,3.49,0,0,0,1.46.43,3.66,3.66,0,0,0,1.61-.22,3.9,3.9,0,0,0,1.4-.82,3.85,3.85,0,0,0,.88-1.24,3.89,3.89,0,0,0,.33-1.54A5.05,5.05,0,0,0,386,480.08Z" transform="translate(-323.61 -470.23)"/><path class="cls-1" d="M413.15,473.31l-.22,2.82,5.31.41-.21,2.73-5.31-.41-.41,5.32-3.27-.25,1.06-13.7,9,.7-.21,2.82Z" transform="translate(-323.61 -470.23)"/><path class="cls-1" d="M436.68,486.83a5.13,5.13,0,0,1-1.7,1.27,5.53,5.53,0,0,1-2.14.46,6.93,6.93,0,0,1-2.44-.4,7.14,7.14,0,0,1-2.19-1.18,5.39,5.39,0,0,1-1.37-1.67,5,5,0,0,1-.54-2,5.94,5.94,0,0,1,.35-2.27l2.78-8.1,3.12,1.07-2.69,7.84a4.06,4.06,0,0,0-.21,1.06,3,3,0,0,0,.13,1,2.18,2.18,0,0,0,.55.85,2.85,2.85,0,0,0,1.06.61,2.77,2.77,0,0,0,1.2.16,2.24,2.24,0,0,0,1-.33,2.56,2.56,0,0,0,.72-.71,4.16,4.16,0,0,0,.47-1l2.69-7.83,3.14,1.07-2.78,8.1A5.81,5.81,0,0,1,436.68,486.83Z" transform="translate(-323.61 -470.23)"/><path class="cls-1" d="M450.22,498.25l.66-10.53-.05,0-5.12,7.39-2.63-1.86L451,482l3.1,2.18-.66,10.5.05,0,5.1-7.38,2.64,1.86-7.92,11.23Z" transform="translate(-323.61 -470.23)"/><path class="cls-1" d="M477,519a2,2,0,1,1,.8-2.71A2,2,0,0,1,477,519Z" transform="translate(-323.61 -470.23)"/><path class="cls-1" d="M477.65,545.58l13.72-1,.24,3.32-10.83.78.38,5.3-2.89.2Z" transform="translate(-323.61 -470.23)"/><path class="cls-1" d="M477.81,561l13.66,1.6-.39,3.32-13.66-1.61Z" transform="translate(-323.61 -470.23)"/><path class="cls-1" d="M473.76,578.73l1.08-3.13,14.7-.45-1.21,3.52-10.26-.16,0,.07,8.2,6.16-1.2,3.47Z" transform="translate(-323.61 -470.23)"/><path class="cls-1" d="M469,589.29l11.48,7.57-5.1,7.71L473,603l3.33-5-2.17-1.43L471,601.32l-2.22-1.47,3.15-4.76-2.39-1.57L466,598.85l-2.37-1.56Z" transform="translate(-323.61 -470.23)"/><path class="cls-1" d="M454.86,620.49l-1.62-2.32-4.37,3L447.31,619l4.37-3-3.06-4.38,2.7-1.88,7.86,11.27-7.43,5.17-1.62-2.32Z" transform="translate(-323.61 -470.23)"/><path class="cls-1" d="M426.71,629.58a7.59,7.59,0,0,1-.48-3,6.78,6.78,0,0,1,2.44-4.9,8.77,8.77,0,0,1,5.62-2,7,7,0,0,1,2.74.6,6.89,6.89,0,0,1,2.25,1.65,8.2,8.2,0,0,1,2,5.6,6.61,6.61,0,0,1-.71,2.66,7,7,0,0,1-1.75,2.15,8.9,8.9,0,0,1-2.64,1.48,8.62,8.62,0,0,1-3,.53,7,7,0,0,1-2.72-.55,6.69,6.69,0,0,1-2.24-1.6A7.58,7.58,0,0,1,426.71,629.58Zm3.35-1.2a4.85,4.85,0,0,0,.83,1.48,4,4,0,0,0,1.21,1,3.91,3.91,0,0,0,5.35-1.92,3.63,3.63,0,0,0,.31-1.52,4.46,4.46,0,0,0-.3-1.66,4.68,4.68,0,0,0-.85-1.52,4.07,4.07,0,0,0-1.21-1,3.68,3.68,0,0,0-1.46-.42,3.81,3.81,0,0,0-1.61.24,3.68,3.68,0,0,0-1.39.84,3.78,3.78,0,0,0-.88,1.25,4.07,4.07,0,0,0-.31,1.54A5,5,0,0,0,430.06,628.38Z" transform="translate(-323.61 -470.23)"/><path class="cls-1" d="M409.91,624.64l3.33,5.25,1.13-.08-.35-5.44,3.24-.2.88,13.71-5.24.33a9,9,0,0,1-1.94-.08,5.12,5.12,0,0,1-1.73-.58,3.56,3.56,0,0,1-1.27-1.2,3.91,3.91,0,0,1-.58-2A3.66,3.66,0,0,1,408,632a4.14,4.14,0,0,1,2-1.49l-4-5.64Zm.75,9.49a1.39,1.39,0,0,0,.25.78,1.41,1.41,0,0,0,.56.43,2.37,2.37,0,0,0,.73.17,4.09,4.09,0,0,0,.78,0l1.77-.11-.21-3.2-1.57.1a5,5,0,0,0-.84.13,2.56,2.56,0,0,0-.76.29,1.41,1.41,0,0,0-.71,1.4Z" transform="translate(-323.61 -470.23)"/><path class="cls-1" d="M382.71,631.63l.9-2.69-5.05-1.69.87-2.59,5.05,1.69,1.7-5.06,3.11,1-4.37,13-8.58-2.88.9-2.68Z" transform="translate(-323.61 -470.23)"/><path class="cls-1" d="M363.19,612.77a4.77,4.77,0,0,1,1.95-.81,5.42,5.42,0,0,1,2.19.07,7,7,0,0,1,2.27,1,7.1,7.1,0,0,1,1.83,1.68,5.3,5.3,0,0,1,.93,1.95,5,5,0,0,1,0,2.1,6,6,0,0,1-.89,2.12L366.82,628l-2.77-1.79,4.52-7a3.58,3.58,0,0,0,.46-1,2.67,2.67,0,0,0,.12-1,2.07,2.07,0,0,0-.32-1,2.74,2.74,0,0,0-.88-.84,2.68,2.68,0,0,0-1.13-.46,2.18,2.18,0,0,0-1,.09,2.39,2.39,0,0,0-.86.52,3.74,3.74,0,0,0-.7.82l-4.52,6.94-2.79-1.81,4.67-7.17A5.92,5.92,0,0,1,363.19,612.77Z" transform="translate(-323.61 -470.23)"/><path class="cls-1" d="M352.83,598.44l-3.18,10.06,0,0,6.75-5.93,2.11,2.43-10.4,9-2.48-2.86,3.18-10,0,0L342.07,607,340,604.58l10.4-9Z" transform="translate(-323.61 -470.23)"/><path class="cls-1" d="M336.59,585.91a2,2,0,0,1,2.67,1,2,2,0,0,1-3.61,1.72A2,2,0,0,1,336.59,585.91Z" transform="translate(-323.61 -470.23)"/></svg>