<svg id="圖層_1" data-name="圖層 1" xmlns="http://www.w3.org/2000/svg" viewBox="0 0 20 20"><defs><style>.cls-1{fill:#fff;}</style></defs><title>footer_instagram連結</title><path class="cls-1" d="M520.25,607.23a1.22,1.22,0,1,0,1.22,1.22,1.22,1.22,0,0,0-1.22-1.22Z" transform="translate(-505 -603.76)"/><path class="cls-1" d="M519.94,603.76H510a5,5,0,0,0-5,5v9.91a5.05,5.05,0,0,0,5,5H520a5,5,0,0,0,5-5h0V608.8a5,5,0,0,0-5-5Zm2.82,14.9a2.86,2.86,0,0,1-2.85,2.87h-9.84a2.86,2.86,0,0,1-2.86-2.87v-9.82a2.86,2.86,0,0,1,2.86-2.86h9.82a2.86,2.86,0,0,1,2.87,2.86Z" transform="translate(-505 -603.76)"/><path class="cls-1" d="M514.94,608.6a5.16,5.16,0,1,0,5.15,5.16h0A5.17,5.17,0,0,0,514.94,608.6Zm0,8.13a3,3,0,1,1,3-3,3,3,0,0,1-3,3Z" transform="translate(-505 -603.76)"/></svg>