<svg id="圖層_1" data-name="圖層 1" xmlns="http://www.w3.org/2000/svg" viewBox="0 0 255 138"><defs><style>.cls-1{fill:#ffe8a7;}</style></defs><title>精選飲冰品_冰淇淋文字底圖</title><path class="cls-1" d="M228.49,706.22l3.16-47.62c.09-1.58,1.17-2.73,3.22-3.44l1.8-.62q2.93-1,2.94,1.23l-3.16,47.63c-.09,1.58-1.17,2.72-3.22,3.43l-1.8.63Q228.51,708.46,228.49,706.22Z" transform="translate(-228.49 -569.77)"/><path class="cls-1" d="M247.71,697.21Q244,693.46,243.89,683q-.07-13.9,4.39-24.17A24.06,24.06,0,0,1,263,645a18.84,18.84,0,0,1,4.78-1,9,9,0,0,1,4,.37c1.1.39,1.66,1,1.66,2a9.37,9.37,0,0,1-.68,2.89,21.09,21.09,0,0,1-1.6,3.56c-.61,1.08-1.12,1.7-1.53,1.84a4.16,4.16,0,0,1-1.18-.24,9,9,0,0,0-2.55-.28,11.87,11.87,0,0,0-3.68.76q-5,1.73-7.57,7.7t-2.53,16q.07,12.68,7.78,10a16.84,16.84,0,0,0,5-2.71,38.79,38.79,0,0,0,4.12-3.79,8.64,8.64,0,0,0,.64-.62,2.16,2.16,0,0,1,.54-.44q.62-.21.63.87a44.42,44.42,0,0,1-.34,4.58,14.16,14.16,0,0,1-.95,4.29,11.38,11.38,0,0,1-4.27,4.49,27.72,27.72,0,0,1-6,3.07Q251.46,701,247.71,697.21Z" transform="translate(-228.49 -569.77)"/><path class="cls-1" d="M276.23,691.29a2.38,2.38,0,0,1-.42-1.67L278.87,643a5.53,5.53,0,0,1,.63-2.44,3,3,0,0,1,1.62-1.25l18.8-6.5a.75.75,0,0,1,1,.33,5,5,0,0,1,.32,2.1v.65c0,4-.68,6.19-1.91,6.62L286.41,647l-.75,10.79,11.5-4a.75.75,0,0,1,1,.33,4.85,4.85,0,0,1,.32,2.1v.58q-.07,6-1.92,6.69l-11.55,4-.86,12.06,12.95-4.49a.76.76,0,0,1,1,.34,5,5,0,0,1,.32,2.1v.65c0,4-.68,6.19-1.91,6.62l-18.91,6.54C277,691.54,276.51,691.54,276.23,691.29Z" transform="translate(-228.49 -569.77)"/><path class="cls-1" d="M322,671.48q-3.77-3.75-3.82-14.25-.09-13.9,4.38-24.17a24.11,24.11,0,0,1,14.69-13.79,18.84,18.84,0,0,1,4.78-1,9.18,9.18,0,0,1,4,.36,2.1,2.1,0,0,1,1.66,2,10,10,0,0,1-.68,2.89,22.81,22.81,0,0,1-1.6,3.56c-.61,1.08-1.12,1.7-1.53,1.84a3.82,3.82,0,0,1-1.19-.24,9,9,0,0,0-2.55-.28,11.82,11.82,0,0,0-3.67.76q-5,1.73-7.58,7.7t-2.53,16q.09,12.68,7.79,10a16.84,16.84,0,0,0,5-2.71,40.84,40.84,0,0,0,4.12-3.79c.17-.15.38-.36.64-.62a1.85,1.85,0,0,1,.54-.44c.41-.14.61.15.62.87a43.77,43.77,0,0,1-.33,4.58,14.48,14.48,0,0,1-.95,4.29,11.34,11.34,0,0,1-4.28,4.49,27.72,27.72,0,0,1-6,3.07Q325.8,675.23,322,671.48Z" transform="translate(-228.49 -569.77)"/><path class="cls-1" d="M350.71,665.58c-.45-.23-.67-.73-.68-1.51l3.12-46.81a5.23,5.23,0,0,1,.63-2.43,2.93,2.93,0,0,1,1.61-1.25l10-3.47q11.86-4.1,11.93,7.7a21.24,21.24,0,0,1-1.82,8.91,19,19,0,0,1-5,6.82v.29c.58.14,1.18.75,1.79,1.82a15.27,15.27,0,0,1,1.44,3.75l3.43,14.78a6.84,6.84,0,0,1,.16,1.32c-.09,1-1.15,1.85-3.17,2.55l-2.11.73c-1.68.58-2.64.41-2.88-.52L366,645.18a5.25,5.25,0,0,0-1.56-2.84c-.62-.43-1.72-.38-3.3.16l-2,.7-1.23,18.13c-.09,1.59-1.16,2.73-3.22,3.44l-1.75.61A3.12,3.12,0,0,1,350.71,665.58Zm14-34a6,6,0,0,0,3.05-3.08,10.78,10.78,0,0,0,1.33-5.25,4.32,4.32,0,0,0-1-3.27,2.71,2.71,0,0,0-2.89-.31l-4.51,1.57-.81,12Z" transform="translate(-228.49 -569.77)"/><path class="cls-1" d="M382.58,654.48a2.32,2.32,0,0,1-.43-1.67l3.07-46.65a5.19,5.19,0,0,1,.63-2.43,2.93,2.93,0,0,1,1.61-1.25l18.8-6.51a.76.76,0,0,1,1,.33,4.87,4.87,0,0,1,.32,2.11v.65c-.05,4-.69,6.19-1.92,6.61l-12.94,4.49L392,621l11.5-4a.78.78,0,0,1,1,.33,5.2,5.2,0,0,1,.32,2.11V620q-.06,6-1.92,6.68l-11.55,4-.86,12.05,13-4.48a.75.75,0,0,1,1,.33,5,5,0,0,1,.32,2.1v.66c0,4-.68,6.19-1.91,6.61L384,654.49C383.33,654.72,382.85,654.72,382.58,654.48Z" transform="translate(-228.49 -569.77)"/><path class="cls-1" d="M407.92,644.9a5.64,5.64,0,0,1,.3-1.55l14.67-51.76c.3-1.12,1.31-2,3-2.57l2.67-.92c1.71-.59,2.66-.41,2.84.54l8.39,43.77a4.87,4.87,0,0,1,.17,1.18,2,2,0,0,1-.72,1.48,5.49,5.49,0,0,1-2.05,1.15L435,637c-1.68.58-2.6.39-2.78-.56l-1.54-8.32-12.43,4.3-2.78,9.81a3.53,3.53,0,0,1-2.45,2.38l-2.06.71C408.93,646,407.93,645.87,407.92,644.9ZM429,619.1l-2.14-12.18a35.22,35.22,0,0,1-.44-4.49l-.2.07q-.6,3.18-1.1,5l-4,14.31Z" transform="translate(-228.49 -569.77)"/><path class="cls-1" d="M460.17,614.62l-5.23-14.09L454,598l-.2.14c0,.88-.11,2.09-.24,3.64l-1.79,27.11c-.1,1.59-1.17,2.73-3.22,3.44l-1.49.52a3.14,3.14,0,0,1-2.27.2,1.57,1.57,0,0,1-.68-1.51L447.28,584q.14-2.37,3.22-3.44l2.72-.94c1.68-.58,2.73-.29,3.14.87l6.7,18.08.79,2.05,1.06-2.69,9.64-23.73a5.27,5.27,0,0,1,3.33-3.12l2.67-.92a3.06,3.06,0,0,1,2.26-.2c.45.23.67.73.68,1.5L480.33,619q-.15,2.37-3.22,3.43l-1.49.52a3.09,3.09,0,0,1-2.27.2c-.45-.23-.67-.73-.68-1.5l1.8-27.12.23-3.64-.26,0c-.33.94-.69,1.86-1.06,2.76l-7.61,19a3.81,3.81,0,0,1-2.14,2.12l-1.49.52A1.5,1.5,0,0,1,460.17,614.62Z" transform="translate(-228.49 -569.77)"/></svg>