<svg id="圖層_1" data-name="圖層 1" xmlns="http://www.w3.org/2000/svg" viewBox="0 0 40 40"><defs><style>.cls-1{fill:#231815;}</style></defs><title>選單_instagram連結</title><path class="cls-1" d="M545.63,615.42a2.44,2.44,0,1,0,2.44,2.44,2.44,2.44,0,0,0-2.44-2.44Z" transform="translate(-515.12 -608.47)"/><path class="cls-1" d="M545,608.47h-19.8a10.08,10.08,0,0,0-10.08,10.08v19.83a10.07,10.07,0,0,0,10.06,10.09H545a10.09,10.09,0,0,0,10.09-10.09h0V618.55A10.09,10.09,0,0,0,545,608.47Zm5.64,29.81a5.73,5.73,0,0,1-5.71,5.74H525.27a5.74,5.74,0,0,1-5.73-5.74V618.64a5.75,5.75,0,0,1,5.73-5.73h19.64a5.73,5.73,0,0,1,5.73,5.73Z" transform="translate(-515.12 -608.47)"/><path class="cls-1" d="M535,618.16a10.31,10.31,0,1,0,10.29,10.32h0A10.33,10.33,0,0,0,535,618.16Zm0,16.26a6,6,0,1,1,5.94-5.95,6,6,0,0,1-5.94,5.95Z" transform="translate(-515.12 -608.47)"/></svg>