<svg id="圖層_1" data-name="圖層 1" xmlns="http://www.w3.org/2000/svg" viewBox="0 0 20 20"><defs><style>.cls-1{fill:#231815;}</style></defs><title>instagram連結</title><path class="cls-1" d="M397.25,296.78a1.22,1.22,0,1,0,1.22,1.22,1.22,1.22,0,0,0-1.22-1.22Z" transform="translate(-382 -293.3)"/><path class="cls-1" d="M396.94,293.3H387a5,5,0,0,0-5,5v9.92a5,5,0,0,0,5,5H397a5,5,0,0,0,5.05-5h0v-9.92a5.05,5.05,0,0,0-5.05-5Zm2.82,14.91a2.87,2.87,0,0,1-2.85,2.87h-9.84a2.87,2.87,0,0,1-2.86-2.87v-9.82a2.87,2.87,0,0,1,2.86-2.87h9.82a2.87,2.87,0,0,1,2.87,2.87Z" transform="translate(-382 -293.3)"/><path class="cls-1" d="M391.94,298.15a5.16,5.16,0,1,0,5.15,5.16h0A5.17,5.17,0,0,0,391.94,298.15Zm0,8.13a3,3,0,1,1,3-3,3,3,0,0,1-3,3Z" transform="translate(-382 -293.3)"/></svg>