<svg id="圖層_1" data-name="圖層 1" xmlns="http://www.w3.org/2000/svg" viewBox="0 0 155 259.73"><defs><style>.cls-1{fill:#fcc800;}.cls-2{fill:#0d0205;}</style></defs><title>樂越_logo</title><path class="cls-1" d="M393.2,1044.76c-42.18,0-76.5-34.51-76.5-76.92V864C316.7,821.53,351,787,393.2,787s76.5,34.5,76.5,76.92V967.84C469.7,1010.25,435.38,1044.76,393.2,1044.76Z" transform="translate(-315.7 -786.03)"/><path d="M393.2,788c41.63,0,75.5,34.06,75.5,75.92V967.84c0,41.86-33.87,75.92-75.5,75.92s-75.5-34.06-75.5-75.92V864c0-41.86,33.87-75.92,75.5-75.92m0-2h0c-42.8,0-77.5,34.88-77.5,77.92V967.84c0,43,34.7,77.92,77.5,77.92h0c42.8,0,77.5-34.89,77.5-77.92V864c0-43-34.7-77.92-77.5-77.92Z" transform="translate(-315.7 -786.03)"/><path class="cls-2" d="M337.22,908.54v1.69l-6.32,1.67v0l6.32,1.9v1.59l-6.32,1.87v0l6.32,1.71v1.64l-8.6-2.53v-1.49l6.45-2v0l-6.45-2v-1.49Z" transform="translate(-315.7 -786.03)"/><path class="cls-2" d="M337.22,931.21v1.68l-6.32,1.68v0l6.32,1.91v1.58L330.9,940v0l6.32,1.71v1.64l-8.6-2.53v-1.49l6.45-2v0l-6.45-2v-1.5Z" transform="translate(-315.7 -786.03)"/><path class="cls-2" d="M337.22,953.89v1.68l-6.32,1.68v0l6.32,1.91v1.59l-6.32,1.86v0l6.32,1.71V966l-8.6-2.53V962l6.45-2v0l-6.45-2v-1.49Z" transform="translate(-315.7 -786.03)"/><path class="cls-2" d="M330.08,976.77a.88.88,0,0,1,.7.18,1,1,0,0,1,.39.64,1.06,1.06,0,0,1-.16.71.88.88,0,0,1-.61.4.89.89,0,0,1-.7-.18,1,1,0,0,1-.37-1,1,1,0,0,1,.15-.34.88.88,0,0,1,.25-.26A.87.87,0,0,1,330.08,976.77Z" transform="translate(-315.7 -786.03)"/><path class="cls-2" d="M340.8,987.84l1.13,2.59a5.55,5.55,0,0,1,.41,1.28,2.82,2.82,0,0,1,0,1.12,2.13,2.13,0,0,1-.44.92,2.61,2.61,0,0,1-1,.67,2.54,2.54,0,0,1-1.21.24,2.15,2.15,0,0,1-1-.35,3.26,3.26,0,0,1-.82-.8,6.15,6.15,0,0,1-.64-1.13l-.47-1.09-3.26,1.44-.62-1.41Zm-2.39,3.92a3.77,3.77,0,0,0,.34.63,1.65,1.65,0,0,0,.42.48,1,1,0,0,0,.52.24,1.1,1.1,0,0,0,.64-.11,1.07,1.07,0,0,0,.5-.39,1.11,1.11,0,0,0,.17-.54,1.74,1.74,0,0,0-.08-.62,6.35,6.35,0,0,0-.23-.65l-.45-1-2.26,1Z" transform="translate(-315.7 -786.03)"/><path class="cls-2" d="M348.57,1002l1,1.16-2.62,2.29,2.63,3.05,2.63-2.28,1,1.16-6.5,5.66-1-1.16,2.89-2.51-2.63-3.06-2.89,2.51-1-1.16Z" transform="translate(-315.7 -786.03)"/><path class="cls-2" d="M358.82,1017.78a5,5,0,0,1,1.24-1.44,4.18,4.18,0,0,1,1.55-.74,4.1,4.1,0,0,1,1.71,0,5.15,5.15,0,0,1,1.75.66,5.24,5.24,0,0,1,1.44,1.22,4.35,4.35,0,0,1,.81,1.53,4.08,4.08,0,0,1,.12,1.71,5.19,5.19,0,0,1-1.88,3.22,4.33,4.33,0,0,1-1.56.75,4.22,4.22,0,0,1-1.74.06,5,5,0,0,1-1.77-.65,5,5,0,0,1-1.42-1.23,4.44,4.44,0,0,1-.78-1.55,4.23,4.23,0,0,1-.1-1.74A4.84,4.84,0,0,1,358.82,1017.78Zm1.43.85a3.65,3.65,0,0,0-.45,1.21,2.81,2.81,0,0,0,1.4,3,2.85,2.85,0,0,0,1.15.41,2.61,2.61,0,0,0,1.15-.1,2.82,2.82,0,0,0,1-.56,3.76,3.76,0,0,0,1.27-2.17,3.07,3.07,0,0,0,0-1.17,2.88,2.88,0,0,0-.47-1.06,3,3,0,0,0-.93-.83,2.92,2.92,0,0,0-1.16-.4,2.73,2.73,0,0,0-1.14.11,3,3,0,0,0-1,.55A3.55,3.55,0,0,0,360.25,1018.63Z" transform="translate(-315.7 -786.03)"/><path class="cls-2" d="M378.65,1022.26l5.42,1.2-.29,1.31-3.92-.87-.51,2.31,3.7.83-.28,1.26-3.7-.82-.78,3.55-1.49-.33Z" transform="translate(-315.7 -786.03)"/><path class="cls-2" d="M401.47,1029.14a3.5,3.5,0,0,1-.16,1.43,3.18,3.18,0,0,1-.64,1.12,3.08,3.08,0,0,1-1,.76,3.84,3.84,0,0,1-1.35.35,3.91,3.91,0,0,1-1.38-.13,3.39,3.39,0,0,1-1.15-.59,3,3,0,0,1-.81-1,3.61,3.61,0,0,1-.37-1.39l-.43-5.46,1.53-.12.42,5.4a3.14,3.14,0,0,0,.15.74,1.79,1.79,0,0,0,.38.64,1.6,1.6,0,0,0,.63.43,2.05,2.05,0,0,0,.93.11,2.12,2.12,0,0,0,.9-.25,1.75,1.75,0,0,0,.55-.53,1.62,1.62,0,0,0,.27-.68,2.8,2.8,0,0,0,0-.76l-.42-5.4,1.53-.12Z" transform="translate(-315.7 -786.03)"/><path class="cls-2" d="M411.39,1021.21l1.87-.79,6.18,4.4h0l-2.51-6,1.41-.6,3.35,8-1.79.76-6.35-4.56h0l2.58,6.15-1.41.6Z" transform="translate(-315.7 -786.03)"/><path class="cls-2" d="M432.14,1018.54a.91.91,0,0,1-.19-.7.93.93,0,0,1,.36-.65,1,1,0,0,1,.7-.22.87.87,0,0,1,.64.34.91.91,0,0,1,.19.7.93.93,0,0,1-.36.65.91.91,0,0,1-.34.17,1.12,1.12,0,0,1-.36,0,.88.88,0,0,1-.35-.1A.83.83,0,0,1,432.14,1018.54Z" transform="translate(-315.7 -786.03)"/><path class="cls-2" d="M441.47,1000.27a1.86,1.86,0,0,0-1.07.31,2.61,2.61,0,0,0-.81.73,2.94,2.94,0,0,0-.54,1.13,3,3,0,0,0,0,1.16,3,3,0,0,0,.43,1.08,3.44,3.44,0,0,0,.87.92,3.89,3.89,0,0,0,1.15.61,2.92,2.92,0,0,0,1.16.13,2.75,2.75,0,0,0,1.07-.35,2.94,2.94,0,0,0,.9-.83,2.68,2.68,0,0,0,.52-1.16,2.52,2.52,0,0,0-.06-1.13l1.42-.46a4,4,0,0,1,.06,1.79,4.48,4.48,0,0,1-.84,1.79,4.84,4.84,0,0,1-1.38,1.3,4.09,4.09,0,0,1-1.62.6,4.14,4.14,0,0,1-1.71-.09,4.91,4.91,0,0,1-1.68-.84,4.59,4.59,0,0,1-1.28-1.41,4.14,4.14,0,0,1-.55-1.64,4.45,4.45,0,0,1,.16-1.73,5.26,5.26,0,0,1,.86-1.68,4.82,4.82,0,0,1,.57-.65,4.73,4.73,0,0,1,.72-.55,4.42,4.42,0,0,1,.79-.38,2.39,2.39,0,0,1,.83-.15Z" transform="translate(-315.7 -786.03)"/><path class="cls-2" d="M449,991.22a4.81,4.81,0,0,1-1.67-.92,4.12,4.12,0,0,1-1-1.36,4.41,4.41,0,0,1-.4-1.68,5.27,5.27,0,0,1,.28-1.85,5.59,5.59,0,0,1,.88-1.68,4.38,4.38,0,0,1,1.32-1.12,4,4,0,0,1,1.65-.47,4.84,4.84,0,0,1,1.88.25,5.11,5.11,0,0,1,1.64.91,4.36,4.36,0,0,1,1.48,3.08,5.18,5.18,0,0,1-.26,1.88,5.06,5.06,0,0,1-.9,1.65,4.42,4.42,0,0,1-1.35,1.1,4.23,4.23,0,0,1-1.66.46A4.62,4.62,0,0,1,449,991.22Zm.52-1.59a3.62,3.62,0,0,0,1.27.2,2.88,2.88,0,0,0,1.14-.26,2.82,2.82,0,0,0,.92-.69,2.73,2.73,0,0,0,.6-1.07,3,3,0,0,0,.16-1.22,2.87,2.87,0,0,0-1.1-2,3.65,3.65,0,0,0-1.14-.61,3.6,3.6,0,0,0-1.24-.19,3.22,3.22,0,0,0-1.13.26,2.72,2.72,0,0,0-.93.69,3.09,3.09,0,0,0-.62,1.08,3.13,3.13,0,0,0-.14,1.23,2.77,2.77,0,0,0,.34,1.1,3.06,3.06,0,0,0,.76.89A3.46,3.46,0,0,0,449.51,989.63Z" transform="translate(-315.7 -786.03)"/><path class="cls-2" d="M449.18,970.83v-2.41l6.11-2.24v0l-6.11-2.22V961.5h8.6V963h-6.91v0l6.91,2.63v1.07l-6.91,2.59v0h6.91v1.46Z" transform="translate(-315.7 -786.03)"/><path class="cls-2" d="M456.93,949.82a.87.87,0,0,1-.66-.28,1,1,0,0,1-.28-.69,1,1,0,0,1,.26-.69.91.91,0,0,1,1.33,0,1,1,0,0,1,.28.69,1,1,0,0,1-.08.37.89.89,0,0,1-.19.31.86.86,0,0,1-.29.21A.77.77,0,0,1,456.93,949.82Z" transform="translate(-315.7 -786.03)"/><path class="cls-2" d="M450.52,935.38V938h-1.34v-6.84h1.34v2.65h7.26v1.54Z" transform="translate(-315.7 -786.03)"/><path class="cls-2" d="M449.18,920.66V919l6.32-1.67v0l-6.32-1.91v-1.59l6.32-1.87v0l-6.32-1.71v-1.64l8.6,2.53v1.49l-6.45,2v0l6.45,2v1.49Z" transform="translate(-315.7 -786.03)"/><path class="cls-2" d="M328.94,857.07l.67-4.73,1.1.16-.49,3.46,1.81.25.46-3.27,1.06.15-.46,3.28,2,.28.51-3.64,1.12.16-.69,4.91Z" transform="translate(-315.7 -786.03)"/><path class="cls-2" d="M331,846.37l.3-1.07,7.75-1-.41,1.41-1.76.18-.87,3,1.4,1.08-.4,1.38Zm4.71-.32-3.11.25,2.49,1.9Z" transform="translate(-315.7 -786.03)"/><path class="cls-2" d="M334.65,839.31l-.87,2-1-.44,2.25-5.24,1,.44-.87,2,5.56,2.42-.51,1.17Z" transform="translate(-315.7 -786.03)"/><path class="cls-2" d="M338.31,829.7l1.3-2a5,5,0,0,1,.72-.87,2.26,2.26,0,0,1,.77-.5,1.65,1.65,0,0,1,.85-.1,2.07,2.07,0,0,1,.89.38,2,2,0,0,1,.71.75,1.85,1.85,0,0,1,.21.86,2.79,2.79,0,0,1-.2,1,5.16,5.16,0,0,1-.51.95l-.55.82,2.47,1.67-.72,1.06Zm3.8-.05a3.56,3.56,0,0,0,.3-.53,1.65,1.65,0,0,0,.15-.51,1,1,0,0,0-.07-.47.92.92,0,0,0-.36-.41.84.84,0,0,0-.95-.06,1.38,1.38,0,0,0-.4.33,5.55,5.55,0,0,0-.35.46l-.52.78,1.7,1.15Z" transform="translate(-315.7 -786.03)"/><path class="cls-2" d="M343.1,822.92l.85-1,2.15,1.94,2.24-2.51-2.16-1.94.85-1,5.35,4.81-.86,1-2.37-2.13-2.23,2.51,2.37,2.13-.85,1Z" transform="translate(-315.7 -786.03)"/><path class="cls-2" d="M351.81,818.75a4,4,0,0,1-.76-1.4,3.45,3.45,0,0,1-.12-1.42,3.68,3.68,0,0,1,.47-1.36,4.33,4.33,0,0,1,1-1.18,4.59,4.59,0,0,1,1.37-.77,3.39,3.39,0,0,1,1.43-.19,3.33,3.33,0,0,1,1.37.41,4.29,4.29,0,0,1,1.94,2.41,3.37,3.37,0,0,1,.13,1.44,3.69,3.69,0,0,1-.46,1.38,4,4,0,0,1-1,1.2,4.1,4.1,0,0,1-1.36.76,3.56,3.56,0,0,1-1.44.16,3.48,3.48,0,0,1-1.37-.43A3.76,3.76,0,0,1,351.81,818.75Zm1.07-.88a3.13,3.13,0,0,0,.81.71,2.45,2.45,0,0,0,.92.34,2.34,2.34,0,0,0,.95-.07,2.32,2.32,0,0,0,.9-.48,2.43,2.43,0,0,0,.65-.79,2.33,2.33,0,0,0,.27-.92,2.56,2.56,0,0,0-.14-1,2.92,2.92,0,0,0-.53-.93,2.75,2.75,0,0,0-.79-.7,2.56,2.56,0,0,0-.91-.33,2.19,2.19,0,0,0-.95.06,2.56,2.56,0,0,0-1.57,1.28,2.39,2.39,0,0,0-.25.93,2.45,2.45,0,0,0,.13,1A3,3,0,0,0,352.88,817.87Z" transform="translate(-315.7 -786.03)"/><path class="cls-2" d="M361.81,807.18l4.11-2.13.51,1-3,1.55.9,1.75,2.81-1.45.49,1-2.8,1.46,1.38,2.7-1.13.58Z" transform="translate(-315.7 -786.03)"/><path class="cls-2" d="M375.77,806.1a3.15,3.15,0,0,1,.18,1.18,2.63,2.63,0,0,1-.27,1.05,2.7,2.7,0,0,1-.67.84,3.44,3.44,0,0,1-1,.57,3.14,3.14,0,0,1-1.15.2,2.67,2.67,0,0,1-1.05-.22,2.43,2.43,0,0,1-.87-.63,3,3,0,0,1-.6-1l-1.53-4.29,1.21-.43,1.51,4.24a2.51,2.51,0,0,0,.28.57,1.63,1.63,0,0,0,.44.43,1.3,1.3,0,0,0,.6.2,1.69,1.69,0,0,0,.77-.11,1.73,1.73,0,0,0,.67-.4,1.41,1.41,0,0,0,.33-.54,1.43,1.43,0,0,0,.07-.62,2.45,2.45,0,0,0-.13-.61L373,802.24l1.2-.43Z" transform="translate(-315.7 -786.03)"/><path class="cls-2" d="M378,800.76l1.66-.32,4.28,4.67h0l-1-5.3,1.26-.24,1.34,7.08L384,807l-4.38-4.83h0l1,5.47-1.25.24Z" transform="translate(-315.7 -786.03)"/><path class="cls-2" d="M391.46,803.28a.8.8,0,0,1,.23-.56.78.78,0,0,1,.57-.24.79.79,0,0,1,.57.21.7.7,0,0,1,.25.55.71.71,0,0,1-.23.56.79.79,0,0,1-.56.25A.78.78,0,0,1,392,804a.76.76,0,0,1-.26-.16.88.88,0,0,1-.19-.24A.78.78,0,0,1,391.46,803.28Z" transform="translate(-315.7 -786.03)"/><path class="cls-2" d="M400.08,799.36l1.26.17-.8,6,3,.41-.15,1.12-4.29-.58Z" transform="translate(-315.7 -786.03)"/><path class="cls-2" d="M407.1,800.53l1.24.29-1.61,7-1.25-.29Z" transform="translate(-315.7 -786.03)"/><path class="cls-2" d="M411.05,801.45l1.35.47.06,5.89h0l3.69-4.59,1.3.46-5.06,5.86-1-.36Z" transform="translate(-315.7 -786.03)"/><path class="cls-2" d="M420.18,804.92l4.24,2.15-.5,1-3.1-1.58-.82,1.64,2.94,1.49-.49,1-2.94-1.5-.91,1.82,3.26,1.66-.51,1-4.4-2.24Z" transform="translate(-315.7 -786.03)"/><path class="cls-2" d="M430.68,811.06l3.68,2.83-.68.89-2.66-2-1.19,1.57,2.51,1.93-.65.85-2.51-1.92-1.84,2.41-1-.78Z" transform="translate(-315.7 -786.03)"/><path class="cls-2" d="M434.14,818.34a4,4,0,0,1,1.32-.88,3.44,3.44,0,0,1,1.4-.26,3.7,3.7,0,0,1,1.39.35,4.52,4.52,0,0,1,1.26.92,4.37,4.37,0,0,1,.89,1.3,3.71,3.71,0,0,1,.32,1.41,3.47,3.47,0,0,1-.28,1.4,4,4,0,0,1-.91,1.3,3.81,3.81,0,0,1-1.3.87,3.37,3.37,0,0,1-1.42.26,3.54,3.54,0,0,1-1.41-.33,4.16,4.16,0,0,1-1.28-.92,4.21,4.21,0,0,1-.88-1.3A3.76,3.76,0,0,1,433,821a3.5,3.5,0,0,1,.3-1.41A3.79,3.79,0,0,1,434.14,818.34Zm1,1a3.21,3.21,0,0,0-.63.87,2.34,2.34,0,0,0-.24.95,2.23,2.23,0,0,0,.15,1,2.51,2.51,0,0,0,.55.86,2.7,2.7,0,0,0,.84.58,2.39,2.39,0,0,0,1,.17,2.31,2.31,0,0,0,.95-.22,3.1,3.1,0,0,0,.88-.61,2.94,2.94,0,0,0,.61-.86,2.48,2.48,0,0,0,.25-.94,2.23,2.23,0,0,0-.15-1,2.28,2.28,0,0,0-.56-.87,2.51,2.51,0,0,0-.85-.59,2.36,2.36,0,0,0-.94-.16,2.43,2.43,0,0,0-.94.22A3.09,3.09,0,0,0,435.11,819.34Z" transform="translate(-315.7 -786.03)"/><path class="cls-2" d="M444.24,824.14l1.46,2a4.33,4.33,0,0,1,.49.86,2.46,2.46,0,0,1,.21.9,2,2,0,0,1-.17.86,2,2,0,0,1-.66.74,1.78,1.78,0,0,1-1.28.39,2.27,2.27,0,0,1-1.24-.59l-1.47,3.43-.89-1.26,1.49-3.14-.54-.76-2.47,1.79-.74-1Zm-1.15,3.71a3.62,3.62,0,0,0,.36.42,1.27,1.27,0,0,0,.4.31,1,1,0,0,0,.47.11,1,1,0,0,0,.52-.19.83.83,0,0,0,.31-.4.94.94,0,0,0,.05-.44,1.43,1.43,0,0,0-.15-.47,2.58,2.58,0,0,0-.26-.43l-.67-.94L442.48,827Z" transform="translate(-315.7 -786.03)"/><path class="cls-2" d="M450.86,834.64l1.95,4.22-1,.47-1.42-3.05-1.78.84,1.33,2.87-1,.46-1.33-2.88-2.74,1.29-.54-1.17Z" transform="translate(-315.7 -786.03)"/><path class="cls-2" d="M451.38,848.74a2.88,2.88,0,0,1-1.18.13,2.53,2.53,0,0,1-1-.31,2.73,2.73,0,0,1-.81-.71,3.4,3.4,0,0,1-.53-1,3.34,3.34,0,0,1-.15-1.16,2.8,2.8,0,0,1,.26-1,2.5,2.5,0,0,1,.67-.85,2.94,2.94,0,0,1,1.05-.56l4.33-1.36.38,1.22-4.28,1.35a2.44,2.44,0,0,0-.57.26,1.81,1.81,0,0,0-.45.42,1.45,1.45,0,0,0-.23.6,1.82,1.82,0,0,0,.08.78,1.88,1.88,0,0,0,.38.69,1.45,1.45,0,0,0,.52.35,1.4,1.4,0,0,0,.61.1,2.6,2.6,0,0,0,.62-.11l4.28-1.35.38,1.23Z" transform="translate(-315.7 -786.03)"/><path class="cls-2" d="M456.59,851.14l.25,1.68L452,856.93v0l5.31-.8.19,1.27-7.09,1.07-.24-1.61,5-4.21v0l-5.48.82-.19-1.27Z" transform="translate(-315.7 -786.03)"/><path class="cls-2" d="M405.42,880.11a9.56,9.56,0,1,0,13.89-8.56,9.58,9.58,0,1,0-9.58-.53,10.36,10.36,0,0,1,5.24-1.43.45.45,0,0,1,0,.9,9.34,9.34,0,0,0-4.34,1.06h0A9.62,9.62,0,0,0,405.42,880.11Zm8-14.16a3.36,3.36,0,0,1-1.36-4.54A3.34,3.34,0,1,1,413.4,866ZM415,876.76a3.35,3.35,0,1,1-3.33,3.35A3.35,3.35,0,0,1,415,876.76Zm-29-26a3,3,0,0,0,1.83-.61l7.28-5.34a3.15,3.15,0,0,0,.68-4.38,3.12,3.12,0,0,0-4.36-.68l-7.27,5.35a3.13,3.13,0,0,0,1.84,5.66Zm2.29,29.48a40.72,40.72,0,0,0,4,4.86,39.46,39.46,0,0,1-5.06,4.36,3.13,3.13,0,0,1-3.53-5.16A36.47,36.47,0,0,0,388.26,880.23Zm-4.74-16.4a26.15,26.15,0,0,0,3.34,12.47l.1.19.42.73c.07.13.15.26.23.39s.2.34.31.5.19.32.29.47l.23.34a41.69,41.69,0,0,0,6.88,7.88l.05.06a34.46,34.46,0,0,0,3.2,2.59,3.09,3.09,0,0,0,4.32-.81,3.14,3.14,0,0,0-.79-4.35s-1-.7-2.34-1.89l-.07,0a33.66,33.66,0,0,1-8-10.34,19.32,19.32,0,0,1-1.92-7.91s0-.05,0-.07c0-3.82,1.35-7.85,5-7.85a.45.45,0,0,1,0,.89,3.31,3.31,0,0,0-3,1.83,2.3,2.3,0,0,1,1.12-.29c2.3,0,3.14,3.12,3.14,5.22a20,20,0,0,1-2.63,9.54,31,31,0,0,0,4,5.45,27.33,27.33,0,0,0,4.85-15c0-6.66-3.94-11.49-9.37-11.49S383.52,857.17,383.52,863.83Zm-22.29,16.28a9.56,9.56,0,1,0,13.9-8.56,9.57,9.57,0,1,0-9.59-.53,10.43,10.43,0,0,1,5.25-1.43.45.45,0,0,1,0,.9,9.42,9.42,0,0,0-4.35,1.06h0A9.63,9.63,0,0,0,361.23,880.11Zm8-14.16a3.36,3.36,0,0,1-1.36-4.54,3.32,3.32,0,0,1,4.51-1.36,3.36,3.36,0,0,1,1.36,4.53A3.33,3.33,0,0,1,369.22,866Zm1.57,10.81a3.35,3.35,0,1,1-3.33,3.35A3.34,3.34,0,0,1,370.79,876.76Zm-7.34,33.35a3.14,3.14,0,0,0,.24,6.26h.24c13.21-1,20.8-10,22.73-16.64h0a9.36,9.36,0,0,0,.25-2.09.45.45,0,0,1,.89,0,10.59,10.59,0,0,1-.23,2.09h2.2v15.45a3.12,3.12,0,1,0,6.23,0V892.53a3.12,3.12,0,1,0-6.23,0v.93h-26a3.13,3.13,0,0,0,0,6.26H380C378,903.64,373.05,909.37,363.45,910.11Zm42-12.93a.43.43,0,0,1,.52.35,9.22,9.22,0,0,0,.84,2.19h15.24a3.13,3.13,0,0,0,0-6.26H396.89v6.26h2.22c1.93,6.62,9.52,15.61,22.73,16.64h.24a3.14,3.14,0,0,0,.24-6.26c-9.6-.74-14.58-6.47-16.51-10.39h0a9,9,0,0,1-.73-2A.44.44,0,0,1,405.45,897.18Z" transform="translate(-315.7 -786.03)"/><path class="cls-2" d="M395,969.15V937.31a3.12,3.12,0,0,1,3.11-3.13h5.44c.1,1.9.23,4.34.38,6.26h-2.71v30.31c0,1.08,0,3.34-1.85,4.67a6.51,6.51,0,0,1-4.08.88h-2.64a3.13,3.13,0,0,1-.08-6.26h4.63a.45.45,0,0,0,0-.89Zm9.86-28.33A46.24,46.24,0,0,0,407.75,954a24.52,24.52,0,0,0,2.67,4.89,34.63,34.63,0,0,1-4.78,4.63,3.14,3.14,0,0,0-.51,4.4,3.09,3.09,0,0,0,2.44,1.19,3.05,3.05,0,0,0,1.93-.68,40.68,40.68,0,0,0,5.33-5.09A24,24,0,0,0,423,967a3.29,3.29,0,0,0,.76.09,3.13,3.13,0,0,0,.76-6.17,18,18,0,0,1-5.24-2.16c-.38.55-.82,1.15-1.3,1.76a.44.44,0,0,1-.35.16.46.46,0,0,1-.27-.09.45.45,0,0,1-.08-.63c.76-1,1.43-1.93,1.9-2.65a37.76,37.76,0,0,0,4-8.57,3.11,3.11,0,1,0-6-1.74,32,32,0,0,1-2.89,6.31c-1.66-3.12-2.71-7.3-3.29-12.88h9.29a3.13,3.13,0,0,0,0-6.26h-9.73c-.09-2.22-.13-4.61-.13-7.19a3.12,3.12,0,1,0-6.23,0c0,2,0,3.82.07,5.57C404.43,934.57,404.62,938.31,404.83,940.82ZM417,926.3l4.7,4.26a3.1,3.1,0,0,0,4.4-.22,3.15,3.15,0,0,0-.23-4.43l-4.69-4.26A3.13,3.13,0,0,0,417,926.3Zm-50.26,17a3.14,3.14,0,0,0,0,6.27H388.4a3.14,3.14,0,0,0,0-6.27h-7.71v-7.16h0v-6.26h0v-3a3.12,3.12,0,1,0-6.23,0v3h-7.72a3.13,3.13,0,0,0,0,6.26h7.72v7.16Zm58.8,29.06a3.11,3.11,0,0,0-4.34.77c-.06.09-6.72,9.36-22,9.36a39.76,39.76,0,0,1-25.79-9.15,41.84,41.84,0,0,1-7-7.28,13.46,13.46,0,0,1-1.51,1.68.5.5,0,0,1-.3.11.43.43,0,0,1-.33-.14.44.44,0,0,1,0-.63,12.71,12.71,0,0,0,1.77-2.07,23,23,0,0,0,2.37-4.92,3.12,3.12,0,1,0-5.87-2.11c-1.61,4.53-3.54,6.46-8.28,8.27a3.13,3.13,0,0,0,1.1,6.06,3,3,0,0,0,1.1-.21,25.48,25.48,0,0,0,4.85-2.39,46.71,46.71,0,0,0,37.87,19c18.47,0,26.74-11.53,27.08-12A3.14,3.14,0,0,0,425.54,972.33Zm-44-36.22h6.81a3.13,3.13,0,0,0,0-6.26h-6.81Zm-4,15.76a3.12,3.12,0,0,0-3.11,3.13v12.56a3.12,3.12,0,1,0,6.23,0v-.73a4.63,4.63,0,0,1,1.29-3.48c1.17-1.14,3.15-1.68,5.76-1.6a3.13,3.13,0,0,0,.22-6.26,15.61,15.61,0,0,0-7.27,1.3h0a7.25,7.25,0,0,0-2.28,1.67.45.45,0,0,1-.34.15.46.46,0,0,1-.29-.11.47.47,0,0,1,0-.64,8.87,8.87,0,0,1,2.95-2.06V955A3.13,3.13,0,0,0,377.57,951.87Z" transform="translate(-315.7 -786.03)"/></svg>