<svg id="圖層_1" data-name="圖層 1" xmlns="http://www.w3.org/2000/svg" viewBox="0 0 58 90"><defs><style>.cls-1{fill:#fff;}.cls-2{fill:#1b1464;}</style></defs><title>地圖地標</title><ellipse class="cls-1" cx="28.01" cy="29.11" rx="25.85" ry="25.95"/><path class="cls-2" d="M521,579c-19.17,0-29.15,15-29,30,.24,21.84,17.06,34,29,60,11.49-25.9,29-38.64,29-60,0-15-11.25-30-29-30m0,7.94a21.18,21.18,0,1,1-21.08,21.19A21.16,21.16,0,0,1,521,586.94" transform="translate(-492 -579)"/><path class="cls-2" d="M528,597.93a3.51,3.51,0,0,0,0,7h0a3.5,3.5,0,0,0,3.48-3.51A3.5,3.5,0,0,0,528,597.93Z" transform="translate(-492 -579)"/><path class="cls-2" d="M510.06,601.43a3.5,3.5,0,0,0,3.48,3.51h0a3.51,3.51,0,1,0-3.48-3.51Z" transform="translate(-492 -579)"/><path class="cls-2" d="M510.26,609.73a2,2,0,0,0-1.45,2.12c.08,1.8,1.05,3.67,3,5.72a11.77,11.77,0,0,0,7.5,3.37,14.71,14.71,0,0,0,8.14-1.5,11.71,11.71,0,0,0,4.91-5.32c.59-1.25.91-3,0-4a1.85,1.85,0,0,0-1.42-.49h0c-1.15.05-2,1.19-2.74,2.28l-.31.42A9.06,9.06,0,0,1,521,616h-.09a7.15,7.15,0,0,1-3.75-.88,10.88,10.88,0,0,1-4.13-3.89,3.31,3.31,0,0,0-2.31-1.58,1.49,1.49,0,0,0-.36.05Z" transform="translate(-492 -579)"/></svg>