<svg id="圖層_1" data-name="圖層 1" xmlns="http://www.w3.org/2000/svg" viewBox="0 0 463 200"><defs><style>.cls-1{fill:#fff3d3;}.cls-2{fill:#1b1464;}</style></defs><title>分店訊息_標題</title><circle class="cls-1" cx="415.16" cy="107.82" r="25.71"/><path class="cls-2" d="M638.31,636.52c-17.16-8.31-32.57.73-38.9,14.18-9.22,19.57.59,37.68,0,66,21.47-18.11,42.66-21.86,51.89-40.9,6.47-13.37,2.89-31.62-13-39.33m-3.42,7.08a21,21,0,1,1-28,9.75,21,21,0,0,1,28-9.75" transform="translate(-209.69 -554.23)"/><g id="a"><path class="cls-2" d="M638.9,661.5a4.46,4.46,0,1,1-8-3.89h0a4.46,4.46,0,1,1,8,3.89h0" transform="translate(-209.69 -554.23)"/><path class="cls-1" d="M634.87,665a5.46,5.46,0,1,1,4.93-3.08h0A5.48,5.48,0,0,1,634.87,665Zm0-8.92a3.46,3.46,0,0,0-1.51,6.58,3.47,3.47,0,0,0,4.62-1.61h0a3.47,3.47,0,0,0-3.11-5Z" transform="translate(-209.69 -554.23)"/></g><g id="a-2" data-name="a"><path class="cls-2" d="M626,655.24a4.46,4.46,0,0,1-8-3.89h0a4.45,4.45,0,0,1,8,3.88h0" transform="translate(-209.69 -554.23)"/><path class="cls-1" d="M622,658.75a5.35,5.35,0,0,1-2.37-.55,5.44,5.44,0,0,1-2.63-7.07h0l.09-.19v0l.08-.15a5.46,5.46,0,0,1,10,.74,5.44,5.44,0,0,1-.24,4.17h0a5.47,5.47,0,0,1-3.12,2.78A5.57,5.57,0,0,1,622,658.75Zm-3.17-6.82a3.46,3.46,0,0,0,6.29,2.87h0a3.47,3.47,0,0,0-1.6-4.62,3.44,3.44,0,0,0-4.52,1.41v.17Z" transform="translate(-209.69 -554.23)"/></g><path class="cls-2" d="M634.33,667.24c-1.66-.71-3.32.37-4.75,1.12a8,8,0,0,1-6.94.22,6,6,0,0,1-2.57-2.09,9.87,9.87,0,0,1-1.82-4.79c-.24-1.43-1-3-2.5-3.37a2.9,2.9,0,0,0-3.44,1.81c-1,2.25-.55,4.81.15,7.07a12.77,12.77,0,0,0,5.69,6.8,15.66,15.66,0,0,0,8.5,2.34,12.53,12.53,0,0,0,7.26-2.82c1.34-1.07,2.57-2.81,2-4.6a2.82,2.82,0,0,0-1.62-1.69" transform="translate(-209.69 -554.23)"/><path class="cls-1" d="M626.13,677.36a17.08,17.08,0,0,1-8.49-2.48,13.83,13.83,0,0,1-6.14-7.37c-1-3.14-1-5.68-.11-7.76a3.88,3.88,0,0,1,4.63-2.39c1.68.41,2.85,1.93,3.21,4.18a9,9,0,0,0,1.64,4.35,5,5,0,0,0,2.07,1.73l.16.07a7,7,0,0,0,6-.23l.39-.21c1.45-.79,3.25-1.76,5.18-.93l-.37.85.38-.85a3.86,3.86,0,0,1,2.18,2.31c.56,1.92-.33,4-2.38,5.68a13.65,13.65,0,0,1-7.86,3ZM615,659.21a2.11,2.11,0,0,0-1.78,1.32c-.71,1.64-.65,3.72.18,6.38a11.77,11.77,0,0,0,5.26,6.25,14.75,14.75,0,0,0,7.93,2.19,11.53,11.53,0,0,0,6.69-2.61c1.07-.85,2.08-2.23,1.7-3.53a1.83,1.83,0,0,0-1.06-1.06h0c-1-.45-2.26.21-3.43.85l-.45.24a9,9,0,0,1-7.8.25,7.1,7.1,0,0,1-3-2.41,10.85,10.85,0,0,1-2-5.27c-.1-.64-.49-2.24-1.72-2.52l-.1,0A1.52,1.52,0,0,0,615,659.21Z" transform="translate(-209.69 -554.23)"/><path class="cls-2" d="M600.2,639l-8.62-8.65q-.45-.45.36-1.26l.47-.47c.55-.54,1-.66,1.26-.36l8.63,8.65c.29.3.17.72-.37,1.25l-.47.48Q600.65,639.48,600.2,639Z" transform="translate(-209.69 -554.23)"/><path class="cls-2" d="M609,631.83a1.47,1.47,0,0,1,0-.35l0-13c0-.29.31-.53.9-.73l.94-.32c.6-.21,1-.2,1.16,0l7.93,10.26a1.38,1.38,0,0,1,.17.31c.08.26-.17.5-.77.7l-.8.27c-.59.21-1,.19-1.14,0l-1.47-2-4.27,1.45,0,2.45c0,.29-.23.51-.7.67l-.72.24C609.52,632.1,609.11,632.1,609,631.83Zm5.31-6.91-2.13-2.87a8.4,8.4,0,0,1-.66-1.06l-.07,0c0,.07,0,.24.08.5a3.9,3.9,0,0,1,0,.75l0,3.57Z" transform="translate(-209.69 -554.23)"/><path class="cls-2" d="M628.39,625l-1.91-4.41c-.14-.3-.25-.56-.34-.79h-.08l-.09.94-.71,6.93c0,.4-.44.57-1.2.49l-.55-.06q-1.14-.12-1.08-.72l1.24-12.16c0-.4.44-.56,1.2-.49l1,.11c.6.06,1,.27,1.14.63l2.58,5.94.16.35.2-.31,3.78-5.29a1.24,1.24,0,0,1,1.25-.39l1,.1c.76.07,1.12.32,1.08.72l-1.24,12.16c0,.4-.45.56-1.2.49l-.56-.06c-.75-.08-1.11-.32-1.07-.72l.7-6.94.1-.93-.07,0c-.14.2-.3.43-.5.69l-2.76,4a.91.91,0,0,1-.8.28l-.55-.06A.87.87,0,0,1,628.39,625Z" transform="translate(-209.69 -554.23)"/><path class="cls-2" d="M644.6,633.08l8.18-9.07c.27-.31.69-.2,1.26.31l.5.45c.56.51.71.91.44,1.22l-3.16,3.5,3.83,3.45,3.16-3.5c.27-.31.69-.2,1.26.31l.49.45c.57.51.72.91.45,1.22l-8.18,9.07c-.27.31-.69.2-1.26-.31l-.5-.45c-.56-.51-.71-.91-.44-1.22l3.33-3.7-3.82-3.45-3.34,3.7c-.27.31-.69.2-1.26-.31l-.49-.45C644.48,633.79,644.33,633.39,644.6,633.08Z" transform="translate(-209.69 -554.23)"/><path class="cls-2" d="M654.61,644.11a.76.76,0,0,1,.44-.42l10.62-5.24a.8.8,0,0,1,.6-.09.79.79,0,0,1,.42.44l3,6a.47.47,0,0,1,0,.49,1.43,1.43,0,0,1-.59.45l-.53.26a1.6,1.6,0,0,1-.71.2.47.47,0,0,1-.4-.29l-2-4.06-2.48,1.22,1.77,3.6a.46.46,0,0,1,0,.49,1.41,1.41,0,0,1-.59.44l-.53.27a1.47,1.47,0,0,1-.71.19.45.45,0,0,1-.4-.29l-1.77-3.59-2.78,1.37,2,4.07a.45.45,0,0,1,0,.49,1.5,1.5,0,0,1-.59.45l-.53.26a1.64,1.64,0,0,1-.71.2.46.46,0,0,1-.4-.29l-3-6A.81.81,0,0,1,654.61,644.11Z" transform="translate(-209.69 -554.23)"/><path class="cls-2" d="M659.43,654.24l12-1.3a.66.66,0,0,1,.84.68l.4,3.7q.51,4.73-3,5.11a3,3,0,0,1-1.92-.39,3.56,3.56,0,0,1-1.34-1.5h-.08a1.82,1.82,0,0,1-.55.81,5,5,0,0,1-1.05.74l-4,2.13a1.19,1.19,0,0,1-.35.13c-.11,0-.22-.07-.31-.25a2.76,2.76,0,0,1-.19-.85l-.09-.77c-.07-.62,0-1,.28-1.15l3.54-1.9a2.31,2.31,0,0,0,.8-.79,2.17,2.17,0,0,0,.13-1.25l-.08-.74-4.63.5c-.41.05-.65-.31-.73-1.07l-.07-.64C658.86,654.69,659,654.29,659.43,654.24Zm7.67,4a1.37,1.37,0,0,0,.58,1,1.65,1.65,0,0,0,1.21.31,1.39,1.39,0,0,0,1-.54,1.74,1.74,0,0,0,.26-1.21l-.18-1.67-3.08.33Z" transform="translate(-209.69 -554.23)"/><path class="cls-2" d="M659.59,667.12a.81.81,0,0,1,.61,0l11.49,2.85a.67.67,0,0,1,.56.93l-1.62,6.5a.44.44,0,0,1-.32.37,1.49,1.49,0,0,1-.74,0l-.57-.14a1.44,1.44,0,0,1-.68-.31.47.47,0,0,1-.11-.48l1.09-4.39-2.69-.67-1,3.89a.49.49,0,0,1-.32.38,1.52,1.52,0,0,1-.74-.05l-.57-.14a1.44,1.44,0,0,1-.68-.31.47.47,0,0,1-.11-.48l1-3.89-3-.74-1.09,4.41a.47.47,0,0,1-.33.37,1.52,1.52,0,0,1-.74,0l-.57-.14a1.5,1.5,0,0,1-.67-.3.48.48,0,0,1-.12-.49l1.62-6.52A.8.8,0,0,1,659.59,667.12Z" transform="translate(-209.69 -554.23)"/><path class="cls-2" d="M230.15,716A69.58,69.58,0,0,1,216,704.22a24.63,24.63,0,0,1-6-13.15,46.26,46.26,0,0,1,1.26-17,138.45,138.45,0,0,1,7.48-21.66l19.59-2.68.35-6.49,17.55-2.41-1.31,35.94-18,2.45,1.2-27.7q-8.91,24.51-7.37,35.72,1.9,14,24.24,25.26Z" transform="translate(-209.69 -554.23)"/><path class="cls-2" d="M275.83,709.69a75.31,75.31,0,0,1-8.23-12.27,34.54,34.54,0,0,1-3.71-11.14,50.54,50.54,0,0,1,.55-16.08,90.86,90.86,0,0,1,5.83-18.57l16.83-2.3a123.43,123.43,0,0,0-12.81-8.54l24-6.82a47.29,47.29,0,0,1,11.82,11.58,31.53,31.53,0,0,1,5.26,13.72q2.5,18.27-12.52,46.72Zm13.65-6.54a125.74,125.74,0,0,0,5.16-20.77A61.32,61.32,0,0,0,295,665a31.77,31.77,0,0,0-2.31-8.52,21.22,21.22,0,0,0-4.77-6.72q-5.6,20.61-3.55,35.51A60.64,60.64,0,0,0,286.2,694,82.8,82.8,0,0,0,289.48,703.15Z" transform="translate(-209.69 -554.23)"/><path class="cls-2" d="M344.35,653.64l-.21,0-.56,46.74-14.59,2-3.34-64.6,25.91-3.55,10.75,48.83-2.12-56.46,17.35,0L375.4,696,355,700.51Z" transform="translate(-209.69 -554.23)"/><path class="cls-2" d="M394.42,643.56l14.6-5.64,0-.2-26.29,4.64-.16-16.4,41.72-5.72-.61,15.26-9.55,1.62L412.24,691l-17,2.33Z" transform="translate(-209.69 -554.23)"/><path class="cls-2" d="M434.17,622.94l19.69-2.7-5.08,41.86,8.67-1.19-4.15-47,20.61-2.83L477,682.14l-17.65,2.41-1.15-15.22-10.5,3L446,686.39l-15.51,2.12Z" transform="translate(-209.69 -554.23)"/><path class="cls-2" d="M506.9,678a70.24,70.24,0,0,1-14.13-11.73,24.66,24.66,0,0,1-6-13.16,46.27,46.27,0,0,1,1.26-17,139.42,139.42,0,0,1,7.48-21.65l19.59-2.69.36-6.49L533,603l-1.31,35.93-17.95,2.46,1.19-27.71q-8.91,24.51-7.37,35.73,1.92,14,24.25,25.26Z" transform="translate(-209.69 -554.23)"/><path class="cls-2" d="M549.27,622.35l14.61-5.64,0-.21-26.28,4.64-.17-16.4L579.13,599l-.61,15.26L569,615.91l-1.87,53.88-17,2.34Z" transform="translate(-209.69 -554.23)"/><path class="cls-2" d="M292,605.93a2.19,2.19,0,0,1,.42,1.1,3.39,3.39,0,0,1-.36,2.25c-1.91,3.11-4.15,4.84-6.74,5.19a6.5,6.5,0,0,1-5.73-1.86q-2.37-2.33-3-7.17c-.1-.79-.18-1.58-.22-2.38a46.63,46.63,0,0,1-4.9,1.31l-2.44.52c-.14,2.42-.39,5.39-.75,8.93-.21,2.08-1,3.21-2.36,3.4s-2.31-.37-2.49-1.71a6.59,6.59,0,0,1,0-1.27c.35-3.28.6-6,.77-8.3l-1.66.3a2.89,2.89,0,0,1-1.72-.17,1.59,1.59,0,0,1-.7-1.23,2.09,2.09,0,0,1,.43-1.78,3.89,3.89,0,0,1,2.1-.9l1.83-.32a46.07,46.07,0,0,0-.12-7.58,3.73,3.73,0,0,0-.79-2.15,1.61,1.61,0,0,0-1.37-.42q-2.41.34-4.92,4.81a1.25,1.25,0,0,1-.92.73,1,1,0,0,1-.89-.34,1.8,1.8,0,0,1-.51-1.09,4.07,4.07,0,0,1,.55-2.41,12.8,12.8,0,0,1,3.37-4,9.31,9.31,0,0,1,4.53-2,4.24,4.24,0,0,1,3.69,1.07,7.67,7.67,0,0,1,1.9,4.63,49.85,49.85,0,0,1,.23,7.91l3.38-.64a34.84,34.84,0,0,0,3.69-.86,36.53,36.53,0,0,1,.93-7.4,17.06,17.06,0,0,1,2.45-5.85,5.71,5.71,0,0,1,4-2.66,3.25,3.25,0,0,1,2.93,1A5.92,5.92,0,0,1,288,588q1.19,8.6-7.13,13.13c.05.93.15,1.9.29,2.89a10.81,10.81,0,0,0,1.61,5,2.82,2.82,0,0,0,2.74,1.18,4.85,4.85,0,0,0,2.5-1.1,12.73,12.73,0,0,0,2.32-2.92,1.23,1.23,0,0,1,.86-.61A.8.8,0,0,1,292,605.93Zm-9.57-17.73a18,18,0,0,0-1.09,4,35.72,35.72,0,0,0-.49,5.39,8.51,8.51,0,0,0,3.64-3.81,10.37,10.37,0,0,0,.57-5.63,2.36,2.36,0,0,0-.45-1.21.82.82,0,0,0-.75-.35C283.34,586.67,282.86,587.2,282.42,588.2Z" transform="translate(-209.69 -554.23)"/><path class="cls-2" d="M310.93,600.39a2.43,2.43,0,0,1,.4,1.11c.15,1.11-.09,1.82-.73,2.12a16.19,16.19,0,0,1-4.47,1.46,8.7,8.7,0,0,1-2,5,6.43,6.43,0,0,1-4.16,2.35,6.26,6.26,0,0,1-3.69-.51,6.51,6.51,0,0,1-2.6-2.37,8.65,8.65,0,0,1-1.26-3.5,10.71,10.71,0,0,1,.36-4.83,8,8,0,0,1,2.33-3.61,7,7,0,0,1,3.76-1.69,5.43,5.43,0,0,1,4.49,1.23,7.86,7.86,0,0,1,2.51,4.23,21.29,21.29,0,0,0,3.79-1.23,2.26,2.26,0,0,1,.47-.13A.78.78,0,0,1,310.93,600.39Zm-9.35,7.19a5,5,0,0,0,.74-2.75,4.91,4.91,0,0,1-1.91-1.68,5.71,5.71,0,0,1-.91-2.42,6.07,6.07,0,0,1-.05-1.13l-.18,0a2.76,2.76,0,0,0-2.12,1.65,6.66,6.66,0,0,0-.4,3.89A4.91,4.91,0,0,0,297.9,608a2.16,2.16,0,0,0,1.88.76A2.54,2.54,0,0,0,301.58,607.58Z" transform="translate(-209.69 -554.23)"/><path class="cls-2" d="M333.88,592.37a3.41,3.41,0,0,1-.12,1.18,81.19,81.19,0,0,1-3.85,11.3,10,10,0,0,1-1.88,3,3.89,3.89,0,0,1-2.19,1,2.32,2.32,0,0,1-2.21-.79,8.13,8.13,0,0,1-1.33-3.42c-.13-.6-.3-1.49-.52-2.69a31.08,31.08,0,0,1-1.33,4.83,6.48,6.48,0,0,1-1.43,2.4,3.54,3.54,0,0,1-1.95.87,2.67,2.67,0,0,1-2.39-.8,7.22,7.22,0,0,1-1.5-3.36q-1.08-4.8-1.58-8.44l-.17-1.21a2,2,0,0,1,.37-1.69,2.94,2.94,0,0,1,1.74-.68,1.89,1.89,0,0,1,1.39.21,1.81,1.81,0,0,1,.62,1.28c.36,2.65,1,6.09,1.9,10.29q.82-2.58,1.48-4.93t1.47-6a2.88,2.88,0,0,1,.73-1.53,2.17,2.17,0,0,1,1.21-.53,2.32,2.32,0,0,1,1.52.19,1.66,1.66,0,0,1,.66,1.27l.74,5.38q.48,3.47.72,5,1.22-3,2-5.18a58.5,58.5,0,0,0,1.55-5.82,2.57,2.57,0,0,1,.81-1.55,3,3,0,0,1,1.51-.57C333.08,591.24,333.77,591.56,333.88,592.37Z" transform="translate(-209.69 -554.23)"/><path class="cls-2" d="M364.87,595.92a2.1,2.1,0,0,1,.41,1.1,3.22,3.22,0,0,1-.36,2.25,15.06,15.06,0,0,1-2.84,3.46,7.3,7.3,0,0,1-3.9,1.73q-7.06,1-8.44-9c-.14-1-.24-2-.32-3.1l-1.35.18a2,2,0,0,1-1.46-.19,1.78,1.78,0,0,1-.53-1.16c-.17-1.29.26-2,1.3-2.15l2-.28a34.42,34.42,0,0,1,.85-7.21,15.72,15.72,0,0,1,2.24-5.43,5,5,0,0,1,3.43-2.38,2.64,2.64,0,0,1,2.47,1,5.88,5.88,0,0,1,1.27,3.11,12.27,12.27,0,0,1-3.22,10l3.88-.54a1.1,1.1,0,0,1,.83.14,1.26,1.26,0,0,1,.37.86q.33,2.4-3.59,2.93l-4.23.59c.11,1.16.22,2.06.3,2.71a10.85,10.85,0,0,0,1.55,4.94,2.9,2.9,0,0,0,2.89,1.09,4.23,4.23,0,0,0,2.51-1.26,21.65,21.65,0,0,0,2.33-3.08,1.22,1.22,0,0,1,.87-.61A.81.81,0,0,1,364.87,595.92Zm-10.46-17.23a18.42,18.42,0,0,0-.72,3.77,49.64,49.64,0,0,0-.25,5.24,11.92,11.92,0,0,0,2.52-4.39,9.8,9.8,0,0,0,.48-4.14c-.19-1.37-.54-2-1.05-1.94C355.05,577.27,354.72,577.76,354.41,578.69Z" transform="translate(-209.69 -554.23)"/><path class="cls-2" d="M369.38,601.88a6.41,6.41,0,0,1-2.54-2.39,8.92,8.92,0,0,1-1.21-3.47,10.72,10.72,0,0,1,.34-4.83,8.12,8.12,0,0,1,2.24-3.59,6.74,6.74,0,0,1,3.66-1.69,6,6,0,0,1,3.64.55,6.34,6.34,0,0,1,2.55,2.38,8.93,8.93,0,0,1,1.22,3.47,10.74,10.74,0,0,1-.36,4.84,8.19,8.19,0,0,1-2.28,3.6,6.7,6.7,0,0,1-3.64,1.68A6,6,0,0,1,369.38,601.88Zm5.31-4.81a7.18,7.18,0,0,0,.3-3.85,5,5,0,0,0-1.09-2.78,2,2,0,0,0-1.8-.75,2.46,2.46,0,0,0-1.89,1.55,7.26,7.26,0,0,0-.3,3.88,5,5,0,0,0,1.1,2.81,2.1,2.1,0,0,0,1.86.7A2.36,2.36,0,0,0,374.69,597.07Z" transform="translate(-209.69 -554.23)"/><path class="cls-2" d="M422.72,566.74a1.85,1.85,0,0,1,.53,1.13c.22,1.59-.54,2.45-2.26,2.57l-1.23.06c-1.38.08-2.75.17-4.11.29s-2.78.27-4.26.48l-1.56.21q.29,5.19.42,9.48l5.94-.92a2.43,2.43,0,0,1,1.78.21,1.7,1.7,0,0,1,.6,1.15,2.48,2.48,0,0,1-.44,2,2.71,2.71,0,0,1-1.88.95l-5.93.81v1.53q.06,5.8-2,8.57a8.82,8.82,0,0,1-6.21,3.32,9.2,9.2,0,0,1-4.47-.43,7.48,7.48,0,0,1-3.25-2.07,2.63,2.63,0,0,1-.58-1.37,2.7,2.7,0,0,1,.2-1.51,1.15,1.15,0,0,1,.9-.76,1.42,1.42,0,0,1,.86.16,5.53,5.53,0,0,1,1.17.94,5,5,0,0,0,4.42,1.61,4.17,4.17,0,0,0,3.09-2.06,9.77,9.77,0,0,0,1-5.32l-.06-1.93-1.66.22a2.11,2.11,0,0,1-1.43-.26,1.56,1.56,0,0,1-.75-1.2,2.26,2.26,0,0,1,.33-1.72,2.17,2.17,0,0,1,1.55-.8c.65-.09,1.28-.19,1.9-.3q-.11-3.87-.37-9.37a14.42,14.42,0,0,0-5.1,1.93,2.8,2.8,0,0,0-1.17,2.78,4.13,4.13,0,0,0,1,2.15,1.05,1.05,0,0,1,.29.6,1.33,1.33,0,0,1-.54,1.19,2.8,2.8,0,0,1-1.49.68,2.41,2.41,0,0,1-1.68-.34,3.44,3.44,0,0,1-1-1.31,7.21,7.21,0,0,1-.71-2.34c-.39-2.86.8-5.15,3.56-6.84s7-2.94,12.65-3.72a76.16,76.16,0,0,1,10.49-.8A2.06,2.06,0,0,1,422.72,566.74Z" transform="translate(-209.69 -554.23)"/><path class="cls-2" d="M421.62,576.09a2.48,2.48,0,0,1-1-1.79,2.58,2.58,0,0,1,.67-2.15,3.58,3.58,0,0,1,2.27-1.15,3.36,3.36,0,0,1,2.16.34,2.12,2.12,0,0,1,1,1.66,2.83,2.83,0,0,1-.6,2.33,3.5,3.5,0,0,1-2.28,1.14A3.14,3.14,0,0,1,421.62,576.09ZM422.69,594a7.78,7.78,0,0,1-1.61-4.09,26.77,26.77,0,0,1-.15-4.06,37.78,37.78,0,0,1,.4-4.7,3,3,0,0,1,.62-1.64,2.69,2.69,0,0,1,1.61-.64c1.18-.16,1.82.15,1.93.93a27.7,27.7,0,0,1-.11,4.12,30.1,30.1,0,0,0-.12,5.28,3.67,3.67,0,0,0,.49,1.55,1,1,0,0,0,1,.43,2.7,2.7,0,0,0,1.44-1.08,32.43,32.43,0,0,0,2.12-3.09,1.22,1.22,0,0,1,.87-.61.81.81,0,0,1,.76.32,2.1,2.1,0,0,1,.42,1.11,3.2,3.2,0,0,1-.36,2.24c-1.91,3.11-3.85,4.8-5.84,5.07A3.61,3.61,0,0,1,422.69,594Z" transform="translate(-209.69 -554.23)"/><path class="cls-2" d="M432.85,592.79a13.51,13.51,0,0,1-1.15-4.36,28.71,28.71,0,0,1,.11-8.74,2.65,2.65,0,0,1,.82-1.61,3.54,3.54,0,0,1,1.93-.74,1.88,1.88,0,0,1,1,0,.71.71,0,0,1,.37.62,13.33,13.33,0,0,1-.18,2.56c-.1,1-.17,1.79-.22,2.51a25.38,25.38,0,0,0,0,2.61,19.86,19.86,0,0,1,1.9-5.21,10.18,10.18,0,0,1,2.42-3.05,5.14,5.14,0,0,1,2.4-1.14,2,2,0,0,1,2.57,1.94,29,29,0,0,1-.09,5,23.27,23.27,0,0,0-.11,4.07c.12.93.52,1.34,1.19,1.25a2.73,2.73,0,0,0,1.53-1.07,28.46,28.46,0,0,0,2.17-3.11,1.2,1.2,0,0,1,.87-.61.79.79,0,0,1,.77.31,2.17,2.17,0,0,1,.41,1.11,3.19,3.19,0,0,1-.36,2.24,15.48,15.48,0,0,1-2.79,3.46,6.81,6.81,0,0,1-3.74,1.71,3.41,3.41,0,0,1-2.81-.65,4.44,4.44,0,0,1-1.31-2.84,22.44,22.44,0,0,1,0-3.54,18.9,18.9,0,0,0,0-3.07c-.05-.37-.2-.54-.46-.51s-.67.49-1.1,1.34a18.41,18.41,0,0,0-1.25,3.3,23.82,23.82,0,0,0-.81,4.2,5.41,5.41,0,0,1-.59,2.33,2,2,0,0,1-1.49.78A1.9,1.9,0,0,1,432.85,592.79Z" transform="translate(-209.69 -554.23)"/><path class="cls-2" d="M466.5,587.25a3.23,3.23,0,0,1,.26.92c.15,1-.42,1.65-1.69,1.82a2.21,2.21,0,0,1-1.73-.36,5.7,5.7,0,0,1-1.36-2.07l-.05-.14a8.25,8.25,0,0,1-2.08,2.51,5.2,5.2,0,0,1-2.36.89,4.41,4.41,0,0,1-3.7-1.1,6.06,6.06,0,0,1-1.94-3.92,11.46,11.46,0,0,1,.48-5.29A10.72,10.72,0,0,1,455,576.2a9.67,9.67,0,0,1,4.32-2.45,45,45,0,0,1,1-11.74c.79-3.41,2.22-5.25,4.27-5.54a3,3,0,0,1,2.67,1,7.07,7.07,0,0,1,1.55,4,26.7,26.7,0,0,1-.65,9.17,71,71,0,0,1-3.51,11.18A45.69,45.69,0,0,0,466.5,587.25Zm-7-.8a9.59,9.59,0,0,0,1.37-2.24,38,38,0,0,1-1.06-5.18c-.1-.72-.17-1.28-.2-1.67a5.58,5.58,0,0,0-2.8,3,8,8,0,0,0-.65,4.54c.23,1.69.92,2.45,2.08,2.29A2.07,2.07,0,0,0,459.48,586.45Zm4-21.14a98.79,98.79,0,0,0,.34,11.33q2.71-8.85,2-14a7.47,7.47,0,0,0-.5-2c-.22-.47-.43-.68-.64-.66C464,560,463.58,561.81,463.46,565.31Z" transform="translate(-209.69 -554.23)"/><path class="cls-2" d="M488.74,584.89a6.14,6.14,0,0,1-2.08-4.11,19.12,19.12,0,0,1-.06-3.78l.78-10.21c0-.19.07-.71.12-1.57a12.78,12.78,0,0,0-.11-2.73,2,2,0,0,0-.5-1.21A1.1,1.1,0,0,0,486,561a4.37,4.37,0,0,0-2.29,1.32,14.09,14.09,0,0,0-2.5,3.43,1.37,1.37,0,0,1-1,.81,1.07,1.07,0,0,1-.91-.35,1.67,1.67,0,0,1-.51-1,4.37,4.37,0,0,1,.63-2.56q2.88-5.34,7.62-6a4.35,4.35,0,0,1,3.49.83,5.42,5.42,0,0,1,1.72,3.61,21.38,21.38,0,0,1,.2,3.29c0,1-.12,2.41-.28,4.17l-.54,6.54q0,.33-.09,1.14c-.05.55-.07,1.07-.07,1.55a9.51,9.51,0,0,0,.08,1.42,2.5,2.5,0,0,0,.87,1.68,2.38,2.38,0,0,0,1.86.42,6.09,6.09,0,0,0,3.91-2.8,21.16,21.16,0,0,0,3-7.7,59.93,59.93,0,0,0,1.09-13,6.2,6.2,0,0,1,.38-2.55,2.07,2.07,0,0,1,1.72-1,2.2,2.2,0,0,1,1.9.48,3.79,3.79,0,0,1,.92,2.28,18.82,18.82,0,0,1,.11,2.49c0,1,0,2.49-.09,4.36q-.21,5.43-.15,9.94a22.47,22.47,0,0,0,.13,3,3.25,3.25,0,0,0,.94,2.08,2.15,2.15,0,0,0,1.82.51,3.87,3.87,0,0,0,2.13-1.07,15.22,15.22,0,0,0,2.23-2.88,1.21,1.21,0,0,1,.87-.62.82.82,0,0,1,.77.32,2.19,2.19,0,0,1,.42,1.11,3.3,3.3,0,0,1-.37,2.24,13.42,13.42,0,0,1-3.13,3.68,7.53,7.53,0,0,1-3.57,1.51,6.1,6.1,0,0,1-4.61-.87,5.15,5.15,0,0,1-2.05-3.62,44.72,44.72,0,0,1-.15-5.2,20.13,20.13,0,0,1-3.32,8.36,8.4,8.4,0,0,1-5.75,3.51A5.73,5.73,0,0,1,488.74,584.89Z" transform="translate(-209.69 -554.23)"/><path class="cls-2" d="M523.64,581.66a2.43,2.43,0,0,1-1.21-1.74,2.16,2.16,0,0,1,.44-1.65,2.63,2.63,0,0,1,1.85-.92,8.27,8.27,0,0,1,1.07-.06h.94a4.74,4.74,0,0,0-.63-1.64,9.39,9.39,0,0,0-1.13-1.42c-.44-.44-.85-.83-1.22-1.15a23.17,23.17,0,0,1-1.67,3.69,25.11,25.11,0,0,1-2,2.88,1.87,1.87,0,0,1-1.23.8,1.17,1.17,0,0,1-1-.27,1.45,1.45,0,0,1-.48-.94,2,2,0,0,1,.31-1.35l.37-.62a45,45,0,0,0,2.35-4.27,23.9,23.9,0,0,0,.93-2.57c.3-1,.69-2.32,1.17-4a2.67,2.67,0,0,1,2.52-1.9,3.67,3.67,0,0,1,1.38,0,.58.58,0,0,1,.46.5,2.64,2.64,0,0,1-.05.68,5,5,0,0,1-.26,1,5,5,0,0,0-.33,2.2,2.31,2.31,0,0,0,.52,1.09,13.35,13.35,0,0,0,1.34,1.41,22,22,0,0,1,2,2.25,4.5,4.5,0,0,1,.88,2.15,5.78,5.78,0,0,1-.3,2.85,5.49,5.49,0,0,1-1.6,2.36,5,5,0,0,1-2.66,1.18A4.12,4.12,0,0,1,523.64,581.66Z" transform="translate(-209.69 -554.23)"/><path class="cls-2" d="M362.2,716.56c2.49,5.26,7.06,10.07,12.66,12.06a26.21,26.21,0,0,0-2.59,4.58,27.49,27.49,0,0,1-3.16-1.79c1.11,11.16,1.25,15.55.15,17.27a4.52,4.52,0,0,1-3.18,2.28,38.44,38.44,0,0,1-5.66.89,11,11,0,0,0-2.09-4.31c2.09-.14,4.05-.37,5-.5a1.73,1.73,0,0,0,1.43-.73c.64-.93.6-4.34-.14-12.21l-7.41,1c.05,7.36-1.51,14.13-10.76,19.12a15.06,15.06,0,0,0-3.54-3.73c8.13-3.92,9.4-9.15,9.41-14.71l-6.36.87-.34-2.48a34.44,34.44,0,0,1-2.45,3.1,30,30,0,0,0-4.22-2.8,26.81,26.81,0,0,0,7.44-15l4.86.48a39.1,39.1,0,0,1-4.35,12.14l19.49-2.67a31.89,31.89,0,0,1-6.92-8.22l-6,.82-.57-4.17Z" transform="translate(-209.69 -554.23)"/><path class="cls-2" d="M414.59,713.08l.59,4.26-27,3.7.72,5.27c.84,6.1,1.57,15.58-1.12,22a20.3,20.3,0,0,0-4.31-2c2.42-5.86,1.59-13.83.83-19.33l-1.3-9.48,14.08-1.93a22.56,22.56,0,0,0-1.77-3.1l4.35-1.55a19.63,19.63,0,0,1,2.46,3.95ZM403.4,723.67l11.51-1.58.55,4L404,727.7l.47,3.46,9.75-1.34,1.94,14.11-4.59.63-.2-1.47-13.21,1.82.2,1.46-4.4.61L392,732.87l7.83-1.08-1.51-11,4.62-.64Zm6.74,10.88-13.21,1.82.64,4.59,13.2-1.82Z" transform="translate(-209.69 -554.23)"/><path class="cls-2" d="M437.75,715.54,424,717.43l-.48-3.54,6-.82a34,34,0,0,0-2.87-4.43l3-2.06a39,39,0,0,1,3.2,4.66l-2.1,1.67,6.58-.91Zm-11.54,6.76-.46-3.39,10.91-1.5.47,3.39Zm.23,1.65,11-1.5.47,3.38-11,1.51ZM439.71,739l-7.53,1,.22,1.58-3.42.48-1.79-13,10.95-1.5Zm-8.6-6.79.58,4.21,4-.55-.58-4.21Zm23-26.93c1.37,12.43,3.52,27.85,5,28.11.2.05.05-2.42-.17-4.85a20.22,20.22,0,0,0,2.83,3.29c.19,5.58-1.57,7-4,6.35-3.78-1-5.6-14-7.49-28l-4.55.62,1.36,9.94,3.61-.5.58,4.18-3.62.49,2,14.83-4.18.57-2-14.82-4.22.58-.57-4.18,4.21-.58-1.36-9.94-3.69.51-.58-4.25Z" transform="translate(-209.69 -554.23)"/><path class="cls-2" d="M470.09,733.1a40.72,40.72,0,0,0,2.49-8.39l4.21,1.11a68.77,68.77,0,0,1-2.29,8.71Zm15.12-11.85-10.8,1.48-2.53-18.44,8.65-1.19a33.48,33.48,0,0,0,.48-3.82l5.51-.06c-.37,1.2-.84,2.26-1.21,3.23L495.62,701l2.54,18.44L487.32,721a23.8,23.8,0,0,1,4.63,4.42L488.56,728a26.31,26.31,0,0,0-5.3-5.33Zm-8.3-12.4,14.87-2-.24-1.73-14.86,2Zm.68,4.93,14.87-2-.24-1.73-14.87,2Zm14.12,15.43c1.81-.25,2-.78,1.78-4.38a11.79,11.79,0,0,0,4.28,1c.19,5.34-.95,6.8-5.16,7.38l-7.15,1c-5.27.73-6.83-.32-7.39-4.35l-.71-5.19,4.55-.63.71,5.16c.16,1.12.55,1.19,2.69.89Zm-13.44-10.46,14.87-2-.25-1.77L478,717Zm21.23,1.53a31.69,31.69,0,0,1,5.28,7.48l-4,2.4a32.84,32.84,0,0,0-5-7.68Z" transform="translate(-209.69 -554.23)"/></svg>