<svg id="圖層_1" data-name="圖層 1" xmlns="http://www.w3.org/2000/svg" viewBox="0 0 477 220.02"><defs><style>.cls-1{fill:#1b1464;}.cls-2{fill:none;}.cls-2,.cls-3,.cls-5{stroke:#1f2b61;stroke-width:4px;}.cls-2,.cls-5{stroke-linecap:round;stroke-linejoin:round;}.cls-3{fill:#ffc522;stroke-miterlimit:10;}.cls-4,.cls-5{fill:#1f2b61;}</style></defs><title>經典越式河粉米食_標題</title><path class="cls-1" d="M161.38,587.79l18.68-15.45c1.49-1.23-.64-3.35-2.12-2.12l-18.68,15.45c-1.49,1.23.65,3.34,2.12,2.12Z" transform="translate(-116.49 -383.66)"/><path class="cls-1" d="M170.93,594.09l13.89-16.23c1.25-1.46-.87-3.6-2.12-2.13L168.8,592c-1.24,1.46.87,3.59,2.13,2.12Z" transform="translate(-116.49 -383.66)"/><path class="cls-1" d="M158.24,577l14.19-5.93c1.75-.73,1-3.64-.8-2.89l-14.19,5.93c-1.75.73-1,3.64.8,2.89Z" transform="translate(-116.49 -383.66)"/><path class="cls-1" d="M519.5,388.23l-16.75,19.49c-1.25,1.46.86,3.59,2.12,2.12l16.75-19.49c1.25-1.45-.86-3.58-2.12-2.12Z" transform="translate(-116.49 -383.66)"/><path class="cls-1" d="M508.59,384.42l-8.94,18c-.86,1.72,1.73,3.25,2.59,1.52l8.94-18c.86-1.72-1.73-3.24-2.59-1.51Z" transform="translate(-116.49 -383.66)"/><path class="cls-1" d="M524.62,398.38,512,407.21c-1.57,1.1-.07,3.7,1.52,2.59L526.13,401c1.57-1.1.07-3.7-1.51-2.59Z" transform="translate(-116.49 -383.66)"/><path class="cls-1" d="M120,495.79l20-2.75-2.25,63L121,558.36Zm19.27,40.39a152.84,152.84,0,0,0,7.25-19.28q2.31-8.14,1.51-14.06a13.21,13.21,0,0,0-1.85-5.35,14.21,14.21,0,0,0-3.93-4,29.79,29.79,0,0,0-6.2-3.22q-3.69-1.45-8.67-3.1l23.32-8.06c2.7,1.19,5.07,2.34,7.13,3.47a25.88,25.88,0,0,1,5.21,3.67,15.64,15.64,0,0,1,5,9.63q.82,6.13-1.65,15.4a174.75,174.75,0,0,1-8,22.3Z" transform="translate(-116.49 -383.66)"/><path class="cls-1" d="M177,484.49l20.65-2.83-.46,32.1,11.41-1.56-.52-38.52L229,470.82l-2.67,73.11-17.12,2.35-.3-25.34L197.15,524,196.84,548l-16.92,2.32Z" transform="translate(-116.49 -383.66)"/><path class="cls-1" d="M251.48,540.48A76.41,76.41,0,0,1,243.11,528a35,35,0,0,1-3.77-11.33,51.43,51.43,0,0,1,.56-16.36,92.63,92.63,0,0,1,5.92-18.89L263,479.06a126,126,0,0,0-13-8.68l24.42-6.94a48.1,48.1,0,0,1,12,11.78,32.17,32.17,0,0,1,5.34,14q2.55,18.57-12.73,47.53Zm13.89-6.66a128.6,128.6,0,0,0,5.25-21.13,62.69,62.69,0,0,0,.32-17.7,31.77,31.77,0,0,0-2.35-8.66,21.56,21.56,0,0,0-4.85-6.85q-5.69,21-3.61,36.13a63.15,63.15,0,0,0,1.9,8.89A83.55,83.55,0,0,0,265.37,533.82Z" transform="translate(-116.49 -383.66)"/><path class="cls-1" d="M366.61,531.05A225,225,0,0,1,346.85,508a10,10,0,0,0-2.05,7.47,12.77,12.77,0,0,0,2.22,5.41,41.4,41.4,0,0,0,5,5.86l-22.11,3a29,29,0,0,1-4.31-6,19.6,19.6,0,0,1-2.05-6.43,19.88,19.88,0,0,1,2.16-11.66A66.1,66.1,0,0,1,335,492.35a34.38,34.38,0,0,1-5.41-8.25,26.55,26.55,0,0,1-2.29-7.08q-.93-6.75,3.74-13.63l12.66-1.73L340,455.6l21.48-2.94a26.82,26.82,0,0,1,5.8,12.95,27.92,27.92,0,0,1-2.41,15.24A85.64,85.64,0,0,1,354,498.21q6.42,8.31,13.39,16t14.71,14.74ZM342.83,482.5q4.88-6.81,3.95-13.65a16.59,16.59,0,0,0-2.32-6.14q-5.67,6.5-4.85,12.51A16.39,16.39,0,0,0,342.83,482.5Z" transform="translate(-116.49 -383.66)"/><path class="cls-1" d="M406.19,456.58l20-2.74-2.25,63-16.81,2.3Zm19.43,38.47,7.59-18.7a39.63,39.63,0,0,0,2.52-8.64,23.08,23.08,0,0,0,.39-4.87,11.08,11.08,0,0,0-3.28-6.21,19.39,19.39,0,0,0-7.61-4.56L413.57,448l23.32-8.05q18.57,6.75,20.18,18.48,1.38,10.08-8.19,23.54l-6.2,8.78,15.73,21.43L437.24,515Z" transform="translate(-116.49 -383.66)"/><path class="cls-1" d="M467.68,441.81l21.07-2.89-2.34,69.37-17.33,2.38Z" transform="translate(-116.49 -383.66)"/><path class="cls-1" d="M519.31,503.78a70.62,70.62,0,0,1-14.37-11.93,25,25,0,0,1-6.12-13.39,47,47,0,0,1,1.29-17.25,140,140,0,0,1,7.6-22l19.93-2.73.36-6.61,17.85-2.44L544.52,464l-18.27,2.5,1.21-28.19Q518.4,463.2,520,474.62q1.95,14.22,24.66,25.69Z" transform="translate(-116.49 -383.66)"/><path class="cls-1" d="M557.07,447.64l15.06-5.87,0-.2-18,3,1.81-16.11,37.57-5.15-.44,14.55-15.9,2.81-.81,15.66,16.29-2.23-.43,11.48-16.5,3.1-.59,15,16.62-1.43-.41,11.69-34.24,4.69Z" transform="translate(-116.49 -383.66)"/><path class="cls-1" d="M237.9,437.35a1.12,1.12,0,0,1,.47.8,2.41,2.41,0,0,1-.28,1.58,2,2,0,0,1-1.47.93,19.17,19.17,0,0,1-4.7.32,28.5,28.5,0,0,1-4.36,8.95q-2.77,3.72-6.08,4.23T215.81,451a28.36,28.36,0,0,1-3.31-10.43,60.23,60.23,0,0,1-.78-10.44,4.83,4.83,0,0,1,.48-2.43,2.39,2.39,0,0,1,1.75-.89c1.44-.23,2.25.28,2.44,1.53a6.53,6.53,0,0,1,.05.72,66,66,0,0,0,.66,10.8,26.6,26.6,0,0,0,2,7.47c.82,1.65,1.79,2.38,2.9,2.21s2.24-1.15,3.33-2.92a26.75,26.75,0,0,0,2.75-6.48,8.12,8.12,0,0,1-3.5-2.75,10,10,0,0,1-1.72-4.4,10.81,10.81,0,0,1,.13-4.48,5.94,5.94,0,0,1,1.78-3,5.67,5.67,0,0,1,2.95-1.36,4.09,4.09,0,0,1,3.55,1,6.38,6.38,0,0,1,1.85,3.93,23.92,23.92,0,0,1-.37,8.45,23.71,23.71,0,0,0,4-.32A1.64,1.64,0,0,1,237.9,437.35Zm-9-.69a19.44,19.44,0,0,0,.35-6.24,4.5,4.5,0,0,0-.67-1.95,1.12,1.12,0,0,0-1.08-.49,1.65,1.65,0,0,0-1.28,1.25,6.34,6.34,0,0,0-.1,3A5.55,5.55,0,0,0,228.91,436.66Z" transform="translate(-116.49 -383.66)"/><path class="cls-1" d="M239.5,432.77a2.28,2.28,0,0,1-1-1.67,2.44,2.44,0,0,1,.6-2.05,3.35,3.35,0,0,1,2.12-1.11,3.12,3.12,0,0,1,2.05.28,2,2,0,0,1,1,1.55,2.74,2.74,0,0,1-.53,2.21,3.25,3.25,0,0,1-2.14,1.11A2.93,2.93,0,0,1,239.5,432.77Zm1.28,16.88a7.3,7.3,0,0,1-1.58-3.84A25.24,25.24,0,0,1,239,442a38.43,38.43,0,0,1,.3-4.44,2.77,2.77,0,0,1,.57-1.56,2.53,2.53,0,0,1,1.5-.64c1.11-.17,1.73.12,1.84.86a26.37,26.37,0,0,1,0,3.88,28.93,28.93,0,0,0,0,5,3.54,3.54,0,0,0,.49,1.46.92.92,0,0,0,1,.39,2.49,2.49,0,0,0,1.34-1,31.24,31.24,0,0,0,1.95-2.95,1.19,1.19,0,0,1,.81-.59.76.76,0,0,1,.73.29,2.08,2.08,0,0,1,.42,1,3.06,3.06,0,0,1-.31,2.12q-2.62,4.45-5.44,4.89A3.44,3.44,0,0,1,240.78,449.65Z" transform="translate(-116.49 -383.66)"/><path class="cls-1" d="M264.13,440.36a2,2,0,0,1,.41,1,3.06,3.06,0,0,1-.3,2.12,12.08,12.08,0,0,1-3,3.24,9.52,9.52,0,0,1-4.53,2,7.41,7.41,0,0,1-5.61-1,7,7,0,0,1-2.68-4.81,9.61,9.61,0,0,1,.3-4.34,7.77,7.77,0,0,1,2.16-3.49,6.64,6.64,0,0,1,3.63-1.73,4,4,0,0,1,4.82,3.54,5.37,5.37,0,0,1-1,4.12,11.75,11.75,0,0,1-5.08,3.4,3.26,3.26,0,0,0,3.34,1,7.24,7.24,0,0,0,3.19-1.55,11.23,11.23,0,0,0,2.83-3.19,1.18,1.18,0,0,1,.81-.6A.78.78,0,0,1,264.13,440.36Zm-11.51-2a6.66,6.66,0,0,0-.31,3.52v.07a7.67,7.67,0,0,0,2.83-1.84,2.77,2.77,0,0,0,.78-2.3,1.44,1.44,0,0,0-.5-.94,1.19,1.19,0,0,0-1-.23A2.4,2.4,0,0,0,252.62,438.33Z" transform="translate(-116.49 -383.66)"/><path class="cls-1" d="M278.31,438.18a2,2,0,0,1,.41,1,3,3,0,0,1-.3,2.12,13.94,13.94,0,0,1-2.64,3.31,6.71,6.71,0,0,1-3.65,1.7q-6.66,1-8.1-8.34c-.15-1-.27-1.94-.35-2.93l-1.28.2a1.8,1.8,0,0,1-1.37-.16,1.58,1.58,0,0,1-.52-1.09c-.19-1.22.2-1.9,1.18-2l1.87-.29a32.6,32.6,0,0,1,.68-6.83,15.15,15.15,0,0,1,2-5.16,4.78,4.78,0,0,1,3.21-2.3,2.47,2.47,0,0,1,2.34.88,5.52,5.52,0,0,1,1.25,2.92,11.59,11.59,0,0,1-2.88,9.47l3.65-.57a1.07,1.07,0,0,1,.79.12,1.18,1.18,0,0,1,.36.81c.23,1.5-.88,2.45-3.34,2.82l-4,.62c.13,1.09.23,1.95.33,2.56a10.34,10.34,0,0,0,1.53,4.64,2.76,2.76,0,0,0,2.75,1,3.91,3.91,0,0,0,2.35-1.23,19.08,19.08,0,0,0,2.15-2.94,1.19,1.19,0,0,1,.81-.59A.76.76,0,0,1,278.31,438.18Zm-10.13-16.11a17,17,0,0,0-.62,3.57,45.65,45.65,0,0,0-.16,5,11.38,11.38,0,0,0,2.31-4.19,9.25,9.25,0,0,0,.39-3.92c-.2-1.29-.54-1.89-1-1.82C268.75,420.72,268.45,421.19,268.18,422.07Z" transform="translate(-116.49 -383.66)"/><path class="cls-1" d="M279.49,443.88a12.54,12.54,0,0,1-1.15-4.1,26.93,26.93,0,0,1,0-8.26,2.48,2.48,0,0,1,.75-1.53,3.36,3.36,0,0,1,1.81-.73,1.86,1.86,0,0,1,.94,0,.7.7,0,0,1,.36.58,12.92,12.92,0,0,1-.13,2.43c-.08.9-.14,1.69-.17,2.36a24,24,0,0,0,.05,2.47,18.81,18.81,0,0,1,1.71-4.94,9.48,9.48,0,0,1,2.24-2.92,4.84,4.84,0,0,1,2.25-1.12,1.89,1.89,0,0,1,2.45,1.79,26.14,26.14,0,0,1,0,4.72,22.75,22.75,0,0,0-.05,3.85c.14.87.52,1.26,1.15,1.16a2.55,2.55,0,0,0,1.43-1,27.19,27.19,0,0,0,2-3,1.16,1.16,0,0,1,.81-.59.76.76,0,0,1,.73.28,2,2,0,0,1,.41,1,3,3,0,0,1-.31,2.12,14.06,14.06,0,0,1-2.58,3.31,6.36,6.36,0,0,1-3.5,1.68,3.22,3.22,0,0,1-2.67-.58,4.11,4.11,0,0,1-1.27-2.66,20.19,20.19,0,0,1,0-3.34,17.38,17.38,0,0,0,0-2.9c-.06-.35-.2-.51-.44-.47s-.63.47-1,1.28a17.81,17.81,0,0,0-1.12,3.13,22.48,22.48,0,0,0-.7,4,5.26,5.26,0,0,1-.52,2.2,1.92,1.92,0,0,1-1.4.77A1.8,1.8,0,0,1,279.49,443.88Z" transform="translate(-116.49 -383.66)"/><path class="cls-1" d="M297.7,440.91a5.92,5.92,0,0,1-1.8-3.67,10.78,10.78,0,0,1,.44-5.13,10.53,10.53,0,0,1,2.64-4.26,7.41,7.41,0,0,1,4-2.08,1.31,1.31,0,0,1,1,.13,2.42,2.42,0,0,1,.56.94,7,7,0,0,1,1.42-.35c1.06-.17,1.66.13,1.77.89a24.68,24.68,0,0,1,0,3.34,31.84,31.84,0,0,0,.05,5.35,1.17,1.17,0,0,0,.37.74.8.8,0,0,0,.68.2,2.59,2.59,0,0,0,1.38-1,31.08,31.08,0,0,0,2-3,1.19,1.19,0,0,1,.81-.59.76.76,0,0,1,.73.29,2,2,0,0,1,.42,1,3.06,3.06,0,0,1-.31,2.12,16.85,16.85,0,0,1-2.41,3.24,5,5,0,0,1-2.73,1.6,3.13,3.13,0,0,1-2.09-.43,4.56,4.56,0,0,1-1.67-1.8,5,5,0,0,1-3.85,3.4A4,4,0,0,1,297.7,440.91Zm5.37-3.57a5.79,5.79,0,0,0,.6-2.4l.28-6.2a4,4,0,0,0-2.37,1.42,6.85,6.85,0,0,0-1.44,2.92,8.86,8.86,0,0,0-.16,3.56,2.36,2.36,0,0,0,.64,1.44,1.41,1.41,0,0,0,1.2.32A1.82,1.82,0,0,0,303.07,437.34Z" transform="translate(-116.49 -383.66)"/><path class="cls-1" d="M314.73,438.45a12.87,12.87,0,0,1-1.15-4.1,27.25,27.25,0,0,1,0-8.26,2.48,2.48,0,0,1,.75-1.53,3.41,3.41,0,0,1,1.81-.74,2,2,0,0,1,.94,0,.66.66,0,0,1,.35.58,11.77,11.77,0,0,1-.12,2.43c-.09.9-.14,1.68-.18,2.35a23.73,23.73,0,0,0,0,2.45,17.48,17.48,0,0,1,1.44-4.64,10,10,0,0,1,2.11-3,4.49,4.49,0,0,1,2.3-1.24,2.17,2.17,0,0,1,1.7.28,2.32,2.32,0,0,1,.72,1.52,22,22,0,0,1,0,3.89c-.05.81-.08,1.42-.09,1.82a16.46,16.46,0,0,1,2.73-6.41,5.81,5.81,0,0,1,3.44-2.4,1.9,1.9,0,0,1,2.45,1.79,26.42,26.42,0,0,1,0,4.72,22.37,22.37,0,0,0,0,3.85c.13.87.51,1.26,1.15,1.16a2.53,2.53,0,0,0,1.42-1,25.81,25.81,0,0,0,2-3,1.21,1.21,0,0,1,.81-.6.8.8,0,0,1,.74.29,2.12,2.12,0,0,1,.41,1,3.06,3.06,0,0,1-.31,2.12,14.36,14.36,0,0,1-2.59,3.31,6.36,6.36,0,0,1-3.5,1.68,3.19,3.19,0,0,1-2.66-.58,4.11,4.11,0,0,1-1.28-2.66,21.41,21.41,0,0,1-.05-3.34,17.38,17.38,0,0,0,0-2.9c-.05-.35-.2-.51-.44-.47s-.63.47-1,1.28a16.32,16.32,0,0,0-1.12,3.13,23.41,23.41,0,0,0-.69,4,5.12,5.12,0,0,1-.51,2.22,2,2,0,0,1-1.44.75,1.76,1.76,0,0,1-1.78-.78,5.41,5.41,0,0,1-.92-2.41,29.23,29.23,0,0,1-.23-3.65c0-1.42-.09-2.34-.16-2.78s-.2-.5-.44-.47-.68.51-1.06,1.37a17.08,17.08,0,0,0-1,3.23,29,29,0,0,0-.57,3.77,5.14,5.14,0,0,1-.51,2.2,1.92,1.92,0,0,1-1.41.77A1.83,1.83,0,0,1,314.73,438.45Z" transform="translate(-116.49 -383.66)"/><path class="cls-1" d="M354.67,426.41a2.08,2.08,0,0,1,.41,1,3.06,3.06,0,0,1-.31,2.12,12.07,12.07,0,0,1-3,3.24,9.62,9.62,0,0,1-4.53,2,7.41,7.41,0,0,1-5.61-1,6.91,6.91,0,0,1-2.67-4.81,9.32,9.32,0,0,1,.3-4.34,7.76,7.76,0,0,1,2.15-3.49,6.58,6.58,0,0,1,3.63-1.73,4,4,0,0,1,4.82,3.53,5.35,5.35,0,0,1-1,4.12,11.78,11.78,0,0,1-5.07,3.41,3.22,3.22,0,0,0,3.33,1,7.21,7.21,0,0,0,3.19-1.54,11.12,11.12,0,0,0,2.83-3.2,1.19,1.19,0,0,1,.81-.59A.78.78,0,0,1,354.67,426.41Zm-11.52-2a6.69,6.69,0,0,0-.31,3.53V428a7.43,7.43,0,0,0,2.83-1.84,2.75,2.75,0,0,0,.78-2.29,1.45,1.45,0,0,0-.5-.95,1.21,1.21,0,0,0-1-.23A2.43,2.43,0,0,0,343.15,424.37Z" transform="translate(-116.49 -383.66)"/><path class="cls-1" d="M359.22,432.86a2.33,2.33,0,0,1-1.17-1.62,2,2,0,0,1,.39-1.57,2.56,2.56,0,0,1,1.73-.9,7.27,7.27,0,0,1,1-.07l.89,0a4.18,4.18,0,0,0-.63-1.54,7.5,7.5,0,0,0-1.09-1.32c-.42-.42-.81-.77-1.16-1.08a22,22,0,0,1-1.52,3.51,22.4,22.4,0,0,1-1.8,2.75,1.7,1.7,0,0,1-1.15.78,1.06,1.06,0,0,1-.91-.24,1.44,1.44,0,0,1-.47-.88,2,2,0,0,1,.27-1.28l.35-.59a44.25,44.25,0,0,0,2.15-4.07c.27-.69.57-1.6.91-2.74s.66-2.3,1-3.51a2.53,2.53,0,0,1,2.35-1.83,3.37,3.37,0,0,1,1.3,0,.53.53,0,0,1,.44.46,2.53,2.53,0,0,1,0,.64,5.28,5.28,0,0,1-.23.91,4.77,4.77,0,0,0-.28,2.08,2.2,2.2,0,0,0,.51,1,12.8,12.8,0,0,0,1.29,1.3,22,22,0,0,1,1.94,2.1,4.17,4.17,0,0,1,.86,2,7.84,7.84,0,0,1,.08.92,10.56,10.56,0,0,0,3.25-3.88,1.15,1.15,0,0,1,.81-.59.77.77,0,0,1,.73.29,2.08,2.08,0,0,1,.41,1,3.19,3.19,0,0,1-.31,2.12,10.08,10.08,0,0,1-2.69,3.24,9,9,0,0,1-3.56,1.37,4.71,4.71,0,0,1-2.93,1.59A3.89,3.89,0,0,1,359.22,432.86Z" transform="translate(-116.49 -383.66)"/><path class="cls-1" d="M384.43,422.83a2,2,0,0,1,.41,1,3.64,3.64,0,0,1-.24,2.12,6.32,6.32,0,0,1-2.06,2.55,7.52,7.52,0,0,1-3.42,1.33,6.36,6.36,0,0,1-5.16-1.12,7.29,7.29,0,0,1-2.51-4.82,9.46,9.46,0,0,1,.3-4.34,7.84,7.84,0,0,1,2.15-3.49,6.64,6.64,0,0,1,3.63-1.73,4.14,4.14,0,0,1,3.21.66,4.09,4.09,0,0,1,1.61,2.87,5.3,5.3,0,0,1-1,4.13,11.87,11.87,0,0,1-5.1,3.41,2.76,2.76,0,0,0,2.87,1.09,3.67,3.67,0,0,0,2.11-1,10.73,10.73,0,0,0,1.69-2.4,1.12,1.12,0,0,1,.8-.62A.74.74,0,0,1,384.43,422.83Zm-8.79-3.47a6.7,6.7,0,0,0-.31,3.53V423a7.56,7.56,0,0,0,2.83-1.85,2.71,2.71,0,0,0,.78-2.29,1.43,1.43,0,0,0-.49-.94,1.17,1.17,0,0,0-1-.23A2.4,2.4,0,0,0,375.64,419.36Z" transform="translate(-116.49 -383.66)"/><path class="cls-1" d="M400.92,424.91a5.6,5.6,0,0,1-3.39-4.64,5.09,5.09,0,0,1,.2-2.84,2.09,2.09,0,0,1,1.68-1.23,2.21,2.21,0,0,1,1.51.24,1.49,1.49,0,0,1,.74,1.09,6,6,0,0,1,.07,1.16,3.52,3.52,0,0,1,0,.46,5.76,5.76,0,0,0,.05.7,2.35,2.35,0,0,0,1.83,2,9.89,9.89,0,0,0,4.27.07,8.15,8.15,0,0,0,4.19-1.66,3.2,3.2,0,0,0,1.14-3,2.84,2.84,0,0,0-1-1.8,6,6,0,0,0-2-1.06c-.77-.25-1.85-.53-3.24-.86a32.33,32.33,0,0,1-4.38-1.23,8.51,8.51,0,0,1-3.09-2,6.28,6.28,0,0,1-1.7-3.6,7.21,7.21,0,0,1,.61-4.37,8.21,8.21,0,0,1,3.19-3.4A14.06,14.06,0,0,1,407,397a13.18,13.18,0,0,1,4.48,0,7.3,7.3,0,0,1,3.52,1.65,5.4,5.4,0,0,1,1.73,3.35,6.09,6.09,0,0,1-.14,3.19,2,2,0,0,1-1.67,1.33,2,2,0,0,1-1.5-.3,1.64,1.64,0,0,1-.76-1.15,6.86,6.86,0,0,1-.08-1.16c0-.67-.07-1.08-.09-1.26a2.3,2.3,0,0,0-1.66-1.88,7.17,7.17,0,0,0-3.45-.21,7.57,7.57,0,0,0-4.13,1.69,3.35,3.35,0,0,0-1,3.12,3.19,3.19,0,0,0,1.09,2,6.33,6.33,0,0,0,2.14,1.17,35.29,35.29,0,0,0,3.42.91,40.84,40.84,0,0,1,4.26,1.22,8.08,8.08,0,0,1,2.91,1.82,5.66,5.66,0,0,1,1.59,3.3,6.89,6.89,0,0,1-2,6.38,13.31,13.31,0,0,1-7.5,3.28A12.94,12.94,0,0,1,400.92,424.91Z" transform="translate(-116.49 -383.66)"/><path class="cls-1" d="M436.25,413.84a2,2,0,0,1,.41,1,3.07,3.07,0,0,1-.31,2.12,14.11,14.11,0,0,1-2.63,3.31,6.81,6.81,0,0,1-3.65,1.7q-6.66,1-8.11-8.35c-.14-1-.26-1.93-.35-2.92l-1.27.2a1.84,1.84,0,0,1-1.38-.16,1.65,1.65,0,0,1-.52-1.09c-.19-1.22.21-1.9,1.19-2.05l1.86-.29a31.93,31.93,0,0,1,.69-6.83,14.76,14.76,0,0,1,2-5.16,4.74,4.74,0,0,1,3.2-2.3,2.48,2.48,0,0,1,2.35.88,5.57,5.57,0,0,1,1.25,2.91,11.57,11.57,0,0,1-2.89,9.48l3.66-.57a1.07,1.07,0,0,1,.79.12,1.28,1.28,0,0,1,.36.81q.35,2.25-3.35,2.82l-4,.62c.12,1.09.23,1.95.32,2.55a10.21,10.21,0,0,0,1.54,4.65,2.74,2.74,0,0,0,2.74,1,3.89,3.89,0,0,0,2.35-1.23,20.84,20.84,0,0,0,2.16-2.94,1.12,1.12,0,0,1,.81-.59A.74.74,0,0,1,436.25,413.84Zm-10.14-16.12a17.83,17.83,0,0,0-.62,3.58,45.72,45.72,0,0,0-.15,5,11.38,11.38,0,0,0,2.31-4.19,9.07,9.07,0,0,0,.38-3.92c-.2-1.29-.54-1.89-1-1.82S426.39,396.85,426.11,397.72Z" transform="translate(-116.49 -383.66)"/><path class="cls-1" d="M453.18,411.31a2,2,0,0,1,.41,1,2.6,2.6,0,0,1,0,1.21,2.11,2.11,0,0,1-.6.86l-5.63,5.18a39.29,39.29,0,0,1-1.61,11.14c-.94,2.78-2.44,4.34-4.51,4.66a3.78,3.78,0,0,1-2.87-.61,3.68,3.68,0,0,1-1.46-2.54,7.71,7.71,0,0,1,.22-3.24,14.24,14.24,0,0,1,2-4.08,43.73,43.73,0,0,1,4.68-5.59l0-.76c0-.83,0-2,0-3.55a8.44,8.44,0,0,1-1.28,3.86,3.46,3.46,0,0,1-2.29,1.61,2.84,2.84,0,0,1-2.61-1,5.8,5.8,0,0,1-1.45-3.23,27.79,27.79,0,0,1-.37-4.54,29.49,29.49,0,0,1,.41-4.5,2.8,2.8,0,0,1,.7-1.55,3.29,3.29,0,0,1,1.8-.71,1.69,1.69,0,0,1,1,.08.87.87,0,0,1,.38.64,12.51,12.51,0,0,1-.09,1.82c-.09.84-.15,1.6-.18,2.27q-.06,1.38-.06,2.64a12.78,12.78,0,0,0,.11,2c.13.83.42,1.21.88,1.14s.68-.44,1.07-1.17a14.55,14.55,0,0,0,1.11-3.21,39.8,39.8,0,0,0,.86-5.15,2.15,2.15,0,0,1,2.14-2.2,2,2,0,0,1,1.07,0,.75.75,0,0,1,.4.61c.08.54.08,2.46,0,5.75l0,5.39q2.22-2.28,4.37-4.22a1.55,1.55,0,0,1,.71-.38A.76.76,0,0,1,453.18,411.31ZM442.6,430a28.06,28.06,0,0,0,1-6.62,18.6,18.6,0,0,0-3,4.43A5.84,5.84,0,0,0,440,431a1.81,1.81,0,0,0,.35.88.76.76,0,0,0,.76.25C441.6,432,442.12,431.31,442.6,430Z" transform="translate(-116.49 -383.66)"/><path class="cls-1" d="M465.81,409.28a2,2,0,0,1,.41,1,3,3,0,0,1-.31,2.12,14.1,14.1,0,0,1-2.61,3.31,6.69,6.69,0,0,1-3.57,1.69,4.57,4.57,0,0,1-4.66-2,14.4,14.4,0,0,1-2.43-6.54,46.4,46.4,0,0,1-.37-9.24,31.25,31.25,0,0,1,1.68-9.23c1-2.64,2.37-4.11,4.22-4.39a2.81,2.81,0,0,1,2.69,1.07,8,8,0,0,1,1.54,4,24.06,24.06,0,0,1-.76,9.35,51,51,0,0,1-4.28,11.06,3.94,3.94,0,0,0,1,1.79,1.78,1.78,0,0,0,1.46.36,3.86,3.86,0,0,0,2.24-1.13,17.77,17.77,0,0,0,2.17-3,1.19,1.19,0,0,1,.81-.59A.76.76,0,0,1,465.81,409.28Zm-9.14-16.88a44.68,44.68,0,0,0-.62,7,48.4,48.4,0,0,0,.4,7.83A42.69,42.69,0,0,0,459,399a21.14,21.14,0,0,0,.29-7.22c-.25-1.65-.69-2.43-1.3-2.34S457,390.49,456.67,392.4Z" transform="translate(-116.49 -383.66)"/><path class="cls-1" d="M479.41,408.19a2,2,0,0,1,.42,1,3.7,3.7,0,0,1-.25,2.11,6.32,6.32,0,0,1-2.06,2.55,7.64,7.64,0,0,1-3.42,1.34,6.4,6.4,0,0,1-5.16-1.13,7.29,7.29,0,0,1-2.51-4.82,9.61,9.61,0,0,1,.3-4.34,7.84,7.84,0,0,1,2.15-3.49,6.68,6.68,0,0,1,3.63-1.73,4.18,4.18,0,0,1,3.21.66,4.09,4.09,0,0,1,1.61,2.88,5.29,5.29,0,0,1-1,4.12,11.87,11.87,0,0,1-5.1,3.41,2.76,2.76,0,0,0,2.87,1.09,3.61,3.61,0,0,0,2.11-1,10.73,10.73,0,0,0,1.69-2.4,1.15,1.15,0,0,1,.8-.62A.74.74,0,0,1,479.41,408.19Zm-8.79-3.46a6.66,6.66,0,0,0-.31,3.52v.07a7.67,7.67,0,0,0,2.83-1.84,2.71,2.71,0,0,0,.78-2.3,1.43,1.43,0,0,0-.49-.94,1.2,1.2,0,0,0-1-.23A2.4,2.4,0,0,0,470.62,404.73Z" transform="translate(-116.49 -383.66)"/><path class="cls-1" d="M218,590.29c-.14-.46-.34-1-.55-1.66-7.77,2.28-9.16,2.76-10,3.31-.36-.8-1.36-2.8-2-3.92,1-.38,1.71-1.37,2.74-3,.4-.62,1.16-1.89,2.05-3.63-2.93.76-3.77,1.12-4.32,1.48a40.7,40.7,0,0,0-1.93-3.7,4.82,4.82,0,0,0,2-2.49,46.1,46.1,0,0,0,3.39-10.41l4.32,1.14a57.61,57.61,0,0,1-4,10.22l2.59-.56a51.18,51.18,0,0,0,2-5.53l4.22,1.85a72.74,72.74,0,0,1-6.47,12.94l4.09-1.09c-.42-1-.92-2.06-1.37-3l3.22-1.54a57.36,57.36,0,0,1,3.58,7.84Zm-6.34,3a47.27,47.27,0,0,1-.43,10.41,25.72,25.72,0,0,0-3.87-.84,35.6,35.6,0,0,0,.37-9.64Zm4-1.23a78.59,78.59,0,0,1,2.19,8l-3.51,1.21a73.71,73.71,0,0,0-2-8.1Zm3.75-1.77a52.92,52.92,0,0,1,2.66,5.78l-3.17,1.65a46.44,46.44,0,0,0-2.56-6ZM240,568.19l-21.39,2.93-.57-4.2L239.46,564Zm-13.63,3.48c-.91,2.23-1.95,4.64-3,6.68a43,43,0,0,1,5,5.79l-3.57,2a41,41,0,0,0-5.75-7.09,61.22,61.22,0,0,0,3.18-7.76ZM244,594.08l.59,4.32-22.69,3.12-.59-4.32,9-1.24-.75-5.47-7.14,1-.58-4.21,19.24-2.64.58,4.2-7.34,1,.75,5.48Zm-12.48-9a41.65,41.65,0,0,0-5.85-7,64.19,64.19,0,0,0,3.24-7.6l4.09.36c-.91,2.19-2,4.6-3,6.6a47.56,47.56,0,0,1,5,5.58Zm7-.81a40.13,40.13,0,0,0-6.3-7,62.55,62.55,0,0,0,3.37-7.78l4.18.39c-.94,2.27-2.07,4.65-3.12,6.7a43.69,43.69,0,0,1,5.37,5.57Z" transform="translate(-116.49 -383.66)"/><path class="cls-1" d="M288.35,584l-11.43,1.57A112.58,112.58,0,0,1,288.4,590l-3.93,3.78a80.29,80.29,0,0,0-11.55-4.92l2.5-3-11.75,1.62,4.07,1.94a50.11,50.11,0,0,1-11.3,8.35,31.12,31.12,0,0,0-4.2-2.9,43.75,43.75,0,0,0,10.36-7.25l-11.19,1.54-.61-4.44,3.93-.54-2.6-18.93,8.21-1.13-.64-4.68,4.4-.61.65,4.69,3.77-.52-.65-4.69,4.49-.61.64,4.68,8.57-1.18,2.6,18.93,3.57-.49Zm-31.06-15.1.68,4.92,3.65-.5-.68-4.93Zm2,14.56,3.65-.5-.72-5.28-3.65.5Zm6.06-15.67.67,4.92,3.77-.52-.67-4.92Zm5,8.77-3.77.52.73,5.27,3.77-.51Zm3.21-9.9.68,4.92,3.8-.53-.67-4.92Zm2,14.56,3.81-.52-.73-5.28-3.81.52Z" transform="translate(-116.49 -383.66)"/><path class="cls-1" d="M330.66,562.81a39.65,39.65,0,0,1-3.44,11.47c.75,1.59,1.39,2.44,1.94,2.36s.6-1.58.23-4.8a11.22,11.22,0,0,0,3.36,1.76c.11,5.24-.8,6.86-3.5,7.19-1.55.22-2.94-.77-4.24-2.61a23.88,23.88,0,0,1-4.55,5.11c4-.55,11.06-1.56,13.74-2a15.23,15.23,0,0,0-1.18,4.93l-14.36,2c-7.74,1.06-13.05.66-17.16-4a22.18,22.18,0,0,1-1.64,7.5,10.77,10.77,0,0,0-3.45-2.47c1.88-4.83,1.23-11,.3-16.34l4-.31c.25,1.51.47,3.09.64,4.65a13.87,13.87,0,0,0,2.76,3.9l-1.55-11.27-7.7,1.06-.57-4.17,6.78-.93-.46-3.37-5.51.76-.57-4.13,5.51-.76-.57-4.2,4.36-.6.58,4.2,5.36-.73.56,4.12-5.35.74.46,3.37,6-.83.57,4.17-5.23.72.59,4.33,4.48-.62.5,3.61a3.5,3.5,0,0,0,1.23-3.12l-2-14.64,7.14-1c-.41-2.09-.73-4.15-1.07-6.29l4.25-.58c.25,2.15.58,4.25.94,6.3l3.3-.45a43.55,43.55,0,0,0-3.63-4l3-2.07a52.83,52.83,0,0,1,4,4.1L327,556.69l3.1-.43.53,3.93-7,1c.58,2.75,1.16,5.21,1.79,7.43a36,36,0,0,0,1.52-6.27Zm-21.88,20.84c2.56.66,5.65.47,9.3,0l2.26-.31a20.25,20.25,0,0,0-3.26-2.87,21.9,21.9,0,0,0,5.8-6.58,76.2,76.2,0,0,1-3.4-12.14l-3.14.43,1.43,10.44,2.56-2a16.51,16.51,0,0,0,1.61,3.45c-5.74,4.72-6.82,5.71-7.35,6.55a16.85,16.85,0,0,0-2.15-3.54l-4.48.61Z" transform="translate(-116.49 -383.66)"/><path class="cls-1" d="M364.25,556.7c2.42,11.47,6.1,20.31,9,19.91.83-.12,1-2.29.52-7.35a13,13,0,0,0,4.51,2.21c.32,7.6-1,9.64-4.79,10.16-6.78.93-11.37-10.41-14.24-24.24l-19.72,2.7-.63-4.6,19.48-2.68c-.38-2.13-.72-4.34-1-6.53l5.08-.69c.26,2.18.56,4.41.94,6.54l6.26-.86a27.61,27.61,0,0,0-5.21-3.53l2.78-3a29.57,29.57,0,0,1,5.8,3.69l-2.37,2.71,3.73-.51.63,4.6Zm-10.09,19.54c2.36-.77,4.83-1.6,7.19-2.4l.93,4.15c-6.31,2.32-13.09,4.75-18.06,6.53l-2-4.58c2-.6,4.55-1.36,7.34-2.23l-1.31-9.56-6,.83-.62-4.57,17-2.34.63,4.57-6.35.87Z" transform="translate(-116.49 -383.66)"/><path class="cls-1" d="M391.07,560.94c-1.78-.93-5.45-2.33-8-3.27l2.1-3.85c2.33.78,6.1,2,8,2.83Zm28.4-16.36-2.9.4,3.32,24.17c.4,2.9-.09,4.38-1.84,5.43s-4.77,1.5-9.17,2.11a19.65,19.65,0,0,0-2.51-4.71c3.16-.24,6.69-.76,7.64-.89s1.27-.5,1.15-1.37l-3.31-24.09-18.17,2.5-.29-2.11-2.2,4c-1.75-1-5.35-2.5-7.84-3.54l2.23-3.74a79.52,79.52,0,0,1,7.78,3.06l-.31-2.31L418.83,540Zm-32.79,31.51a106,106,0,0,0,5.79-13.52l3.92,2.69c-1.53,4.42-3.41,9.28-5.26,13.46Zm15.5-9.93.36,2.62-4.25.59-2.37-17.27L409,550.31,411,565Zm-1.44-10.43.86,6.23,4.52-.62-.85-6.23Z" transform="translate(-116.49 -383.66)"/><path class="cls-1" d="M430,548.75a38.63,38.63,0,0,0-3.05-9l3.18-1.28a36.54,36.54,0,0,1,3.28,8.89Zm28.23-15.48c1.56,5.45,4.37,10.6,7.83,13.16a21.31,21.31,0,0,0-2.87,3.51c1.06,11.25,1.21,15.56.29,17.14a3.87,3.87,0,0,1-2.59,2,21.07,21.07,0,0,1-4.42.73,9.92,9.92,0,0,0-1.73-4c1.37-.06,2.56-.19,3.24-.28a1.38,1.38,0,0,0,1.19-.73c.49-.87.47-4-.26-11.89l-4.32.59c.23,7.9-1.41,13.62-6.21,17.8a17,17,0,0,0-3.47-2.92c4.17-3.2,5.5-7.95,5.2-14.26l-3.3.45-.4-2.93-.2.31c-.55-.49-1.6-1.32-2.54-2l.29,2.06-5,.68.38,2.78,1.47-1.37a70,70,0,0,1,5.22,5.67l-2.55,3.79c-.86-1.54-2.56-4.18-3.86-6l2,14.68-4.37.6-2-14.33c-.34,4-1.24,8.34-3,10.88a31.57,31.57,0,0,0-2.75-5,22.4,22.4,0,0,0,2.62-9.17l2.7.51-.33-2.38-5.67.78-.61-4.4,5.68-.78-1.81-13.14,4.37-.59,1.8,13.13,5-.68,0,.16a26.31,26.31,0,0,0,2.56-11.43l4.5.15a34.93,34.93,0,0,1-3.14,13.57l13.52-1.86a33,33,0,0,1-5.59-10.15l-3.81.53-.6-4.33Zm-14.9,4.19c-.57,3.27-1.24,7.17-1.91,9.65l-3.17-.42a59.78,59.78,0,0,0,.95-9.55Z" transform="translate(-116.49 -383.66)"/><path class="cls-1" d="M494.92,547.11l2.41,17.54-5.08.7-2.41-17.54-15.19,2.09-.66-4.8L489.18,543l-2-14.72,5.08-.7,2,14.72,15.24-2.09.66,4.8Zm-14.42-4.64a34.81,34.81,0,0,0-6.19-8.57l4.06-2.5a36.43,36.43,0,0,1,6.52,8.32Zm8.55,8.73A39.45,39.45,0,0,1,480,566.84a23,23,0,0,0-4-3.37,31.55,31.55,0,0,0,8.75-13.17Zm11.07-3.3c4.79,3.38,10.34,8.16,12.91,11.85l-3.77,3.18c-2.4-3.67-7.76-8.8-12.6-12.29Zm6.6-18.5a88.22,88.22,0,0,1-5.11,10.49l-4.38-1.26a51.26,51.26,0,0,0,3.93-10.57Z" transform="translate(-116.49 -383.66)"/><path class="cls-1" d="M535.84,523.18c-.23.35-.47.67-.71,1,4.48,2.54,11.53,4.49,17.56,5.07a18.87,18.87,0,0,0-2.52,4.35c-1.49-.24-2.95-.56-4.5-1l1.78,12.9-18.81,2.58.9,6.55,9-2.25a25.93,25.93,0,0,0,.5,3.94c-10.44,2.89-12.14,3.44-13.25,4.16a11.79,11.79,0,0,0-2.49-3.09,3.88,3.88,0,0,0,1.36-3.62l-2.46-17.9c-1.16.68-2.28,1.32-3.49,1.93a19.47,19.47,0,0,0-3.41-3.37c6.47-2.87,13.06-7.58,16.06-12.8Zm9.42,9.38a58.2,58.2,0,0,1-6.32-2.17l.26,1.91-10.64,1.46-.28-2.1c-1.79,1.41-3.71,2.77-5.64,4Zm-4,3.94-14,1.92.23,1.67,14-1.93Zm.87,6.34-.23-1.66-14,1.92.23,1.67Zm-5.44-13.4c-1.38-.66-2.78-1.4-4-2.12-.94,1.06-2,2.09-3.05,3.09Zm15.91,17.18c-1.7,1.49-3.67,3-5.58,4.45a54.56,54.56,0,0,1,5.69,2.57l-2.9,3.59a100.27,100.27,0,0,0-15.92-6.7l2.68-3.16c1.9.59,4.1,1.29,6.31,2.08a45,45,0,0,0,5.91-5.22Z" transform="translate(-116.49 -383.66)"/><path class="cls-2" d="M155.61,423.58h0c-23.35,12.45-38.79,29.08-37,32.49s22.82-3.6,45.07-17.32C187.49,427.93,205,414.4,203.2,411S179,411.13,155.61,423.58Z" transform="translate(-116.49 -383.66)"/><path class="cls-2" d="M190.88,417.3s6.54,33.64-14.67,44.94-45.47-12.88-45.47-12.88" transform="translate(-116.49 -383.66)"/><ellipse class="cls-3" cx="47.21" cy="55.09" rx="26.62" ry="26.62"/><path class="cls-4" d="M180.25,440.64a1.34,1.34,0,0,0-1.49,1.16c0,.05-.66,4.87-6.43,7.95a17.06,17.06,0,0,1-11.58,1.75,18.17,18.17,0,0,1-4.11-1.32,6,6,0,0,1-.23.93.2.2,0,0,1-.09.11.22.22,0,0,1-.16,0,.18.18,0,0,1-.11-.24,5.63,5.63,0,0,0,.25-1.14,9.35,9.35,0,0,0-.09-2.33,1.34,1.34,0,1,0-2.64.4,5,5,0,0,1-1.48,4.77,1.34,1.34,0,0,0,1.64,2.06,1.74,1.74,0,0,0,.37-.3,10.2,10.2,0,0,0,1.35-1.88,20,20,0,0,0,18.13-.47c7-3.72,7.8-9.72,7.83-10A1.33,1.33,0,0,0,180.25,440.64Z" transform="translate(-116.49 -383.66)"/><circle class="cls-4" cx="51.95" cy="48.89" r="2.66"/><circle class="cls-4" cx="39.42" cy="55.57" r="2.66"/><path class="cls-5" d="M155.61,423.58h0c20.58-11,40.42-15,46.09-13.5h0c-3.9-1.89-38.78-7.82-57.69-8.27-10.18,16-24.71,48.23-25.31,52.51h0C120.61,448.76,135,434.55,155.61,423.58Z" transform="translate(-116.49 -383.66)"/></svg>