<svg id="圖層_1" data-name="圖層 1" xmlns="http://www.w3.org/2000/svg" viewBox="0 0 200 154"><defs><style>.cls-1{fill:#ffc522;}.cls-2{fill:#1f2b61;}.cls-3{fill:#fff;}</style></defs><title>經典越式河粉米食_黃底麵食icon</title><ellipse class="cls-1" cx="355.99" cy="461.63" rx="75.82" ry="100.87" transform="translate(-423.64 333.19) rotate(-78.43)"/><path class="cls-2" d="M302.63,414.86c0,.08,0,.18-.06.33a4.19,4.19,0,0,0-.07,1.41,3.05,3.05,0,0,0,.23.76,13.59,13.59,0,0,0,.63,1.21l.26.45a14.69,14.69,0,0,0,1.23,1.91c.32.4.59.61.8.64h.4a1.21,1.21,0,0,1,1.23.55,1.43,1.43,0,0,1-.21,1.69,9.42,9.42,0,0,1-2.67,2,9.25,9.25,0,0,1-3,1.24c-.79.12-1.32-.06-1.59-.53a1,1,0,0,1-.14-.63,2.59,2.59,0,0,1,.4-.92,1.92,1.92,0,0,0,.22-.44.54.54,0,0,0,0-.28,7.6,7.6,0,0,0-.49-1.1c-.27-.51-.61-1.14-1-1.89-.22-.38-.4-.68-.53-.88a3.08,3.08,0,0,0-.36-.46,4,4,0,0,0-1.16-.63l-.32-.14-3.25-1.36a2.05,2.05,0,0,0-1.3-.1,1.89,1.89,0,0,1-.35.07,1.41,1.41,0,0,1-.67-.15,1.16,1.16,0,0,1-.46-.47,1.22,1.22,0,0,1,.18-1.49,10.41,10.41,0,0,1,2.74-2,12,12,0,0,1,3.13-1.42,1.19,1.19,0,0,1,1.39.5,1.39,1.39,0,0,1,.15.82,1.3,1.3,0,0,0,0,.55,1.27,1.27,0,0,0,.31.29,3.59,3.59,0,0,0,.57.33,3.51,3.51,0,0,0,.66.26.58.58,0,0,0,.38,0c.15-.08.24-.39.28-.91A2.13,2.13,0,0,0,300,413a1.82,1.82,0,0,0-.53-.31,1.45,1.45,0,0,1-.66-.56,1.1,1.1,0,0,1,.2-1.28,6.17,6.17,0,0,1,1.87-1.47,7.21,7.21,0,0,1,2.28-1,1.06,1.06,0,0,1,1.14.53,1,1,0,0,1,.14.68,1.27,1.27,0,0,1-.38.65l-.2.17a1.94,1.94,0,0,0-.52.64,8.57,8.57,0,0,0-.41,1.86v0Z" transform="translate(-255.99 -384.63)"/><path class="cls-2" d="M309.86,411.19l-.07-.23a5,5,0,0,0-.52-1.35,1.27,1.27,0,0,0-.64-.44l-.1,0c-.62-.19-1-.48-1.09-.86q-.24-.82.84-1.65a10.09,10.09,0,0,1,3.27-1.45,8,8,0,0,1,2.85-.46,1.19,1.19,0,0,1,1.14.86,1.51,1.51,0,0,1-.52,1.49l-.22.24c-.13.16-.11.65.06,1.49s.49,2.11,1,3.8a5.53,5.53,0,0,0,1.51,2.84,2.56,2.56,0,0,0,2.39.26,3.68,3.68,0,0,0,1.33-.66,2.35,2.35,0,0,0,.75-1,3.32,3.32,0,0,0,0-1.51,33,33,0,0,0-.87-3.49l-.18-.64a20.43,20.43,0,0,0-.7-2.16,1.41,1.41,0,0,0-.46-.67,2.86,2.86,0,0,0-.79-.18.92.92,0,0,1-.83-.62c-.13-.42.09-.84.63-1.26a7.3,7.3,0,0,1,2.43-1.09,5.42,5.42,0,0,1,2.25-.27,1.15,1.15,0,0,1,1,.79,1.31,1.31,0,0,1-.45,1.27l-.2.2c-.26.3-.29.91-.1,1.82,0,.09,0,.16,0,.21q.22,1,.69,2.82a16.79,16.79,0,0,1,.82,5.28,5,5,0,0,1-1.64,3.12,9.8,9.8,0,0,1-4,2,8,8,0,0,1-5.31,0,4.9,4.9,0,0,1-2.91-3.35Z" transform="translate(-255.99 -384.63)"/><path class="cls-2" d="M328.23,415.59a1.07,1.07,0,0,1,.57-1,5.22,5.22,0,0,0,.65-.43,6.22,6.22,0,0,0,.28-2.46c0-1.39-.07-3.27-.23-5.66a6,6,0,0,0-.26-1.71,1.39,1.39,0,0,0-.59-.66l-.21-.12c-.58-.34-.89-.71-.91-1.13a1.17,1.17,0,0,1,.75-1.18,6.84,6.84,0,0,1,2.53-.54,14.55,14.55,0,0,1,1.74,0,2.77,2.77,0,0,1,1,.2,2.09,2.09,0,0,1,.48.5c.2.25.59.83,1.18,1.71.32.49.72,1.12,1.19,1.89.77,1.28,1.32,1.91,1.65,1.88s.78-.72,1.31-2.09c.39-1,.73-1.83,1-2.48a14.45,14.45,0,0,1,.68-1.34,2.64,2.64,0,0,1,.49-.63,2.12,2.12,0,0,1,.8-.34,13.45,13.45,0,0,1,1.92-.21,6.65,6.65,0,0,1,2.58.17,1.18,1.18,0,0,1,.81,1.1,1,1,0,0,1-.57.94,1.34,1.34,0,0,0-.26.21,2.73,2.73,0,0,0-.39,1.53,34.09,34.09,0,0,0,.09,3.55c.1,1.5.22,2.73.37,3.7a5.23,5.23,0,0,0,.41,1.71,1.4,1.4,0,0,0,.3.17,1.4,1.4,0,0,1,.92,1.16,1.21,1.21,0,0,1-.85,1.22,10.89,10.89,0,0,1-3.25.55,9.84,9.84,0,0,1-3.21-.13,1.21,1.21,0,0,1-1-1.13,1.15,1.15,0,0,1,.57-1,1.75,1.75,0,0,0,.33-.3,2,2,0,0,0,.26-1,23.44,23.44,0,0,0-.07-2.43,1.57,1.57,0,0,0-.18-.7.41.41,0,0,0-.4-.21c-.28,0-.57.49-.88,1.43-.11.33-.21.59-.28.78-.16.45-.37,1-.63,1.8-.69,2-1.23,3-1.62,3s-.53-.2-.85-.63a32.52,32.52,0,0,1-1.88-3.35c-.18-.34-.4-.81-.66-1.38-.41-.9-.74-1.35-1-1.33s-.3.19-.34.53a15.34,15.34,0,0,0,.06,2.42,6,6,0,0,0,.22,1.56.88.88,0,0,0,.48.47l.15.06c.54.23.82.55.85,1a1,1,0,0,1-.63,1,10,10,0,0,1-4.78.32A1,1,0,0,1,328.23,415.59Z" transform="translate(-255.99 -384.63)"/><path class="cls-2" d="M349,414.25a1.07,1.07,0,0,1,.76-.91,5,5,0,0,0,.73-.3,6.29,6.29,0,0,0,.75-2.35q.42-2,.88-5.6a6.34,6.34,0,0,0,.07-1.72,1.43,1.43,0,0,0-.45-.77l-.18-.16a1.52,1.52,0,0,1-.68-1.28,1.17,1.17,0,0,1,1-1,6.51,6.51,0,0,1,2.59,0,14.48,14.48,0,0,1,1.71.33,2.92,2.92,0,0,1,.95.39,2.05,2.05,0,0,1,.38.59c.15.29.42.92.83,1.91.22.54.48,1.24.79,2.08.51,1.41.93,2.13,1.26,2.17s.9-.55,1.69-1.8c.57-.9,1.07-1.65,1.48-2.23a12.88,12.88,0,0,1,.93-1.18,2.46,2.46,0,0,1,.6-.52,2.06,2.06,0,0,1,.85-.18,14.78,14.78,0,0,1,1.93.16,6.73,6.73,0,0,1,2.49.68,1.19,1.19,0,0,1,.59,1.23,1,1,0,0,1-.75.81,1.36,1.36,0,0,0-.29.16,2.67,2.67,0,0,0-.68,1.43,29.87,29.87,0,0,0-.6,3.5c-.2,1.48-.32,2.72-.36,3.7a5,5,0,0,0,.07,1.75,1.18,1.18,0,0,0,.25.23,1.42,1.42,0,0,1,.69,1.32,1.19,1.19,0,0,1-1.07,1,10.66,10.66,0,0,1-3.3-.08,10.06,10.06,0,0,1-3.12-.76,1.24,1.24,0,0,1-.74-1.3,1.16,1.16,0,0,1,.77-.91,1.52,1.52,0,0,0,.38-.23,1.91,1.91,0,0,0,.45-.92,22,22,0,0,0,.4-2.4,1.46,1.46,0,0,0,0-.72.4.4,0,0,0-.35-.28q-.42-.06-1.14,1.23c-.18.3-.32.54-.43.71l-1,1.64c-1.05,1.79-1.78,2.66-2.17,2.61-.24,0-.48-.29-.71-.77a35.68,35.68,0,0,1-1.19-3.65c-.11-.38-.23-.88-.38-1.49-.22-1-.46-1.46-.71-1.5s-.33.13-.44.46a16.45,16.45,0,0,0-.41,2.38,6.12,6.12,0,0,0-.09,1.58.89.89,0,0,0,.38.54l.14.1a1.17,1.17,0,0,1,.64,1.12,1,1,0,0,1-.82.89,7.14,7.14,0,0,1-2.42,0,6.84,6.84,0,0,1-2.32-.6A1,1,0,0,1,349,414.25Z" transform="translate(-255.99 -384.63)"/><path class="cls-2" d="M383.62,411.84a1.63,1.63,0,0,1-.27.19,4,4,0,0,0-1.07.91,3.72,3.72,0,0,0-.39.7,12.17,12.17,0,0,0-.44,1.29l-.15.5a15.74,15.74,0,0,0-.54,2.21,1.56,1.56,0,0,0,.1,1,3.3,3.3,0,0,0,.28.29,1.21,1.21,0,0,1,.44,1.27,1.4,1.4,0,0,1-1.37,1,9.45,9.45,0,0,1-3.29-.55,9.17,9.17,0,0,1-3-1.36c-.64-.49-.87-1-.72-1.52a1,1,0,0,1,.36-.53,2.63,2.63,0,0,1,.94-.35,1.79,1.79,0,0,0,.47-.14.64.64,0,0,0,.2-.2,7.94,7.94,0,0,0,.45-1.11c.19-.55.41-1.23.66-2.05.12-.43.21-.76.27-1a2.49,2.49,0,0,0,.09-.58,3.93,3.93,0,0,0-.35-1.27l-.12-.33-1.25-3.3a2.12,2.12,0,0,0-.82-1,1.56,1.56,0,0,1-.29-.21,1.43,1.43,0,0,1-.36-.59,1.2,1.2,0,0,1,0-.65,1.23,1.23,0,0,1,1.21-.9,10.73,10.73,0,0,1,3.3.63,12,12,0,0,1,3.18,1.31,1.16,1.16,0,0,1,.59,1.35,1.31,1.31,0,0,1-.48.67,1.59,1.59,0,0,0-.4.38,1.21,1.21,0,0,0,0,.42,3.13,3.13,0,0,0,.15.65,2.82,2.82,0,0,0,.27.65.49.49,0,0,0,.28.26c.16.05.45-.09.85-.42a2.1,2.1,0,0,0,.72-.85,2.07,2.07,0,0,0-.14-.6,1.37,1.37,0,0,1,0-.86,1.08,1.08,0,0,1,1.06-.74,6.07,6.07,0,0,1,2.36.34,7.08,7.08,0,0,1,2.26,1,1.06,1.06,0,0,1,.4,1.19,1,1,0,0,1-.39.57,1.29,1.29,0,0,1-.74.17l-.25,0a2,2,0,0,0-.83.06,8.83,8.83,0,0,0-1.63,1l0,0Z" transform="translate(-255.99 -384.63)"/><path class="cls-2" d="M386.6,421.46a2.56,2.56,0,1,1,1.34,3.36,2.39,2.39,0,0,1-1.37-1.4A2.47,2.47,0,0,1,386.6,421.46Zm3.85-2.6a.91.91,0,0,1-.45-.57,5.5,5.5,0,0,1-.24-1.35,11.92,11.92,0,0,1,.08-2.68,9.45,9.45,0,0,1,.66-2.43,4,4,0,0,1,1.66-2.05,2.46,2.46,0,0,1,2.2,0,2.41,2.41,0,0,1,1.48,1.62,4,4,0,0,1-.34,2.61,9.32,9.32,0,0,1-1,1.78,11.62,11.62,0,0,1-1.45,1.67,7.68,7.68,0,0,1-1.56,1.24A1.21,1.21,0,0,1,390.45,418.86Z" transform="translate(-255.99 -384.63)"/><path class="cls-2" d="M378.93,520.43a44.45,44.45,0,0,1-8.71-.88c-23.71-4.83-37.19-26.67-32.08-51.93,1.61-7.95,13.29-13.29,29.07-13.29A80.38,80.38,0,0,1,383.09,456c22.56,4.59,39.09,17.28,36.86,28.28-4.45,22-20.55,36.17-41,36.17Z" transform="translate(-255.99 -384.63)"/><path class="cls-2" d="M367.21,455.45a78.92,78.92,0,0,1,15.66,1.63c21.58,4.39,38.07,16.74,36,27-2.18,10.79-7.26,19.81-14.69,26.11a38.52,38.52,0,0,1-25.24,9.17,42.26,42.26,0,0,1-8.49-.87,39.7,39.7,0,0,1-25.79-17.26c-6.06-9.4-7.93-20.93-5.42-33.35,1.5-7.41,12.75-12.39,28-12.39m0-2.23c-16,0-28.37,5.35-30.16,14.17-5.48,27.07,9.79,48.54,32.95,53.25a44.81,44.81,0,0,0,8.93.91c19.75,0,37.34-13.51,42.11-37.07,2.36-11.62-14.54-24.87-37.73-29.59a81.57,81.57,0,0,0-16.1-1.67Z" transform="translate(-255.99 -384.63)"/><path class="cls-3" d="M390.89,497.55A79.66,79.66,0,0,1,375,495.89c-22.56-4.59-39.1-17.27-36.87-28.27,1.61-7.95,13.29-13.29,29.07-13.29A80.38,80.38,0,0,1,383.09,456c22.55,4.59,39.09,17.28,36.86,28.28C418.35,492.21,406.66,497.55,390.89,497.55Z" transform="translate(-255.99 -384.63)"/><path class="cls-2" d="M367.21,453.22v2.23a78.92,78.92,0,0,1,15.66,1.63c21.58,4.39,38.06,16.74,36,27-1.5,7.41-12.74,12.39-28,12.39a78.84,78.84,0,0,1-15.66-1.63c-10.89-2.21-20.66-6.4-27.52-11.78-6.43-5-9.44-10.43-8.48-15.18,1.5-7.41,12.75-12.39,28-12.39v-2.23m0,0c-16,0-28.37,5.35-30.16,14.17C334.7,479,351.59,492.27,374.79,497a81.57,81.57,0,0,0,16.1,1.67c16,0,28.37-5.35,30.15-14.18,2.36-11.62-14.54-24.87-37.73-29.59a81.57,81.57,0,0,0-16.1-1.67Z" transform="translate(-255.99 -384.63)"/><path class="cls-3" d="M390.83,489.9a72.2,72.2,0,0,1-14.3-1.5c-9.18-1.87-17.58-5.3-23.66-9.66-5.54-4-7.63-7.7-7.25-9.6.59-2.89,7.87-7.16,21.64-7.16a72.3,72.3,0,0,1,14.31,1.5c20.74,4.22,31.79,14.87,30.91,19.26C411.89,485.63,404.61,489.9,390.83,489.9Z" transform="translate(-255.99 -384.63)"/><path class="cls-2" d="M367.26,460.87v2.23h0a70.81,70.81,0,0,1,14.09,1.47c9,1.84,17.28,5.21,23.22,9.48,5.47,3.92,7.07,7.21,6.82,8.47-.46,2.25-7.72,6.26-20.56,6.26a71.54,71.54,0,0,1-14.08-1.47c-9-1.84-17.28-5.21-23.23-9.48-5.46-3.92-7.06-7.22-6.81-8.47.46-2.25,7.71-6.26,20.55-6.26v-2.23m0,0c-13.08,0-21.91,4-22.73,8.05-1.09,5.39,11,16.35,31.77,20.57A72.7,72.7,0,0,0,390.83,491c13.09,0,21.92-4,22.74-8.05,1.09-5.39-11-16.35-31.78-20.57a72.7,72.7,0,0,0-14.53-1.52Z" transform="translate(-255.99 -384.63)"/><path class="cls-2" d="M433.4,456l-67.1-14.21a1.15,1.15,0,0,1-.88-1.35v0a1.15,1.15,0,0,1,1.34-.89l67.32,13.13a1.72,1.72,0,0,1,1.34,2h0A1.7,1.7,0,0,1,433.4,456Z" transform="translate(-255.99 -384.63)"/><path class="cls-3" d="M396.26,442.75l-22.39-4.55a2.85,2.85,0,0,0-3.37,2.23L363,477.58l28,5.7,7.52-37.15h0A2.86,2.86,0,0,0,396.26,442.75Z" transform="translate(-255.99 -384.63)"/><path class="cls-1" d="M367.87,479.69a.9.9,0,0,1-.23,0,1.1,1.1,0,0,1-.86-1.31L374,442.68a1.1,1.1,0,0,1,1.31-.87,1.11,1.11,0,0,1,.87,1.31L369,478.8A1.1,1.1,0,0,1,367.87,479.69Z" transform="translate(-255.99 -384.63)"/><path class="cls-1" d="M373.94,480.93l-.23,0a1.11,1.11,0,0,1-.86-1.32l7.22-35.68a1.11,1.11,0,1,1,2.18.45L375,480A1.11,1.11,0,0,1,373.94,480.93Z" transform="translate(-255.99 -384.63)"/><path class="cls-1" d="M380,482.17a.83.83,0,0,1-.22,0,1.11,1.11,0,0,1-.87-1.31l7.22-35.68a1.11,1.11,0,1,1,2.18.44l-7.22,35.68A1.12,1.12,0,0,1,380,482.17Z" transform="translate(-255.99 -384.63)"/><path class="cls-1" d="M386.08,483.4l-.22,0a1.12,1.12,0,0,1-.87-1.32l7.23-35.68a1.1,1.1,0,0,1,1.31-.87,1.12,1.12,0,0,1,.87,1.32l-7.23,35.68A1.11,1.11,0,0,1,386.08,483.4Z" transform="translate(-255.99 -384.63)"/><path class="cls-2" d="M434.82,449.2l-67.75-10.67a1.15,1.15,0,0,1-.95-1.3v0a1.16,1.16,0,0,1,1.29-1l67.91,9.59a1.7,1.7,0,0,1,1.44,1.94h0A1.7,1.7,0,0,1,434.82,449.2Z" transform="translate(-255.99 -384.63)"/><path class="cls-2" d="M289.67,451.58a1.9,1.9,0,0,1-.5-.75,1.69,1.69,0,0,1-.05-.92l2-9.82a1.63,1.63,0,0,1,.4-.81,1.8,1.8,0,0,1,.75-.5,1.62,1.62,0,0,1,.87-.06l4.77,1a1.78,1.78,0,0,1,.82.38,1.57,1.57,0,0,1,.48.69,1.81,1.81,0,0,1,0,.9,1.59,1.59,0,0,1-.71,1.1,1.76,1.76,0,0,1-1.29.18l-2.95-.6L294,444l2.67.54a1.73,1.73,0,0,1,1.12.68,1.84,1.84,0,0,1-.48,2.41,1.72,1.72,0,0,1-1.3.19l-2.66-.54-.36,1.78,3,.62a1.78,1.78,0,0,1,1.15.67,1.82,1.82,0,0,1-.5,2.39,1.71,1.71,0,0,1-1.29.2l-4.87-1A1.71,1.71,0,0,1,289.67,451.58Z" transform="translate(-255.99 -384.63)"/><path class="cls-2" d="M298.77,453.37a1.38,1.38,0,0,1-.24-1.17,6.2,6.2,0,0,1,.84-1.87l4.7-7.51a4.25,4.25,0,0,1,1.31-1.4,2.43,2.43,0,0,1,3.06.62,4.21,4.21,0,0,1,.68,1.81l1.36,8.53c.08.52.12.95.14,1.29a4.39,4.39,0,0,1-.07,1,1.41,1.41,0,0,1-.67,1,1.83,1.83,0,0,1-1.29.15,1.65,1.65,0,0,1-1.09-.67,3.06,3.06,0,0,1-.4-1.4l-.11-.91-4.49-.92-.36.74a4.22,4.22,0,0,1-.68,1,1.53,1.53,0,0,1-.71.41,2,2,0,0,1-.84,0A1.84,1.84,0,0,1,298.77,453.37Zm7.89-4.05-.32-4.29h0l-2.11,3.8Z" transform="translate(-255.99 -384.63)"/><path class="cls-2" d="M313.68,456.32a1.78,1.78,0,0,1-.22-1.4l1.69-8.33-1.49-.31a1.89,1.89,0,0,1-1.2-.69,1.8,1.8,0,0,1,.49-2.4,1.88,1.88,0,0,1,1.37-.16l6.5,1.32A1.9,1.9,0,0,1,322,445a1.79,1.79,0,0,1-.49,2.4,1.85,1.85,0,0,1-1.36.17l-1.5-.31L317,455.64a1.82,1.82,0,0,1-.74,1.2,1.73,1.73,0,0,1-1.36.21A1.82,1.82,0,0,1,313.68,456.32Z" transform="translate(-255.99 -384.63)"/><path class="cls-3" d="M281,469a1.83,1.83,0,0,1-.22-1.4l2-9.88a1.7,1.7,0,0,1,1.15-1.31,1.59,1.59,0,0,1,.86-.06l4,.81a5,5,0,0,1,2,.95,4.36,4.36,0,0,1,1.6,4.48,5.44,5.44,0,0,1-1.07,2.42,3.94,3.94,0,0,1-1.89,1.31,4.78,4.78,0,0,1-2.45.09l-2.25-.46-.48,2.37a1.78,1.78,0,0,1-.74,1.19,1.75,1.75,0,0,1-1.36.22A1.82,1.82,0,0,1,281,469Zm5.8-5.89A1.79,1.79,0,0,0,288,463a1.36,1.36,0,0,0,.68-1,1.48,1.48,0,0,0-.21-1.23,1.68,1.68,0,0,0-1.08-.62l-1.45-.3-.61,3Z" transform="translate(-255.99 -384.63)"/><path class="cls-3" d="M292.83,471.45a1.75,1.75,0,0,1-.22-1.39l2-9.94a1.75,1.75,0,0,1,.75-1.19,1.78,1.78,0,0,1,1.38-.22,1.68,1.68,0,0,1,1.38,2.13l-.64,3.16,5.11,1,.64-3.17a1.67,1.67,0,0,1,2.12-1.4,1.76,1.76,0,0,1,1.17.73,1.79,1.79,0,0,1,.22,1.39l-2,9.94a1.68,1.68,0,0,1-2.1,1.41,1.77,1.77,0,0,1-1.18-.73,1.74,1.74,0,0,1-.22-1.4l.7-3.5-5.1-1-.71,3.5a1.69,1.69,0,0,1-2.1,1.42A1.8,1.8,0,0,1,292.83,471.45Z" transform="translate(-255.99 -384.63)"/><path class="cls-3" d="M309.78,474.77a6,6,0,0,1-1.88-2.92,8.72,8.72,0,0,1,1.49-7.42,5.88,5.88,0,0,1,2.87-1.93,7.29,7.29,0,0,1,3.73-.12,7.45,7.45,0,0,1,3.37,1.55,5.94,5.94,0,0,1,1.89,2.9,8.79,8.79,0,0,1-1.49,7.42,6,6,0,0,1-2.85,2,8.12,8.12,0,0,1-7.13-1.44Zm5.74-1.83a3,3,0,0,0,1.3-1.1,5.2,5.2,0,0,0,.75-1.89,5,5,0,0,0,0-2,3,3,0,0,0-.77-1.52,2.84,2.84,0,0,0-1.53-.81,2.81,2.81,0,0,0-1.68.14,3,3,0,0,0-1.3,1.1,5,5,0,0,0-.76,1.87,4.94,4.94,0,0,0,0,2.06,2.94,2.94,0,0,0,.8,1.51,2.71,2.71,0,0,0,1.46.76A2.8,2.8,0,0,0,315.52,472.94Z" transform="translate(-255.99 -384.63)"/><path class="cls-2" d="M278.81,488a1.77,1.77,0,0,1-.22-1.39l2-9.91a1.58,1.58,0,0,1,.41-.8,1.69,1.69,0,0,1,.73-.49,1.65,1.65,0,0,1,.88-.06l4.71,1a1.7,1.7,0,0,1,1.12.69,1.62,1.62,0,0,1,.22,1.29,1.59,1.59,0,0,1-.69,1.1,1.79,1.79,0,0,1-1.31.18l-2.88-.59-.33,1.64,2.53.51a1.75,1.75,0,0,1,1.12.68,1.57,1.57,0,0,1,.22,1.28,1.64,1.64,0,0,1-.71,1.12,1.73,1.73,0,0,1-1.3.2l-2.52-.52-.69,3.43a1.85,1.85,0,0,1-3.29.68Z" transform="translate(-255.99 -384.63)"/><path class="cls-2" d="M290.68,490.35a5.39,5.39,0,0,1-1.65-2.5,6.29,6.29,0,0,1-.12-3.18l1.23-6.08a1.75,1.75,0,0,1,.75-1.2,1.82,1.82,0,0,1,1.37-.21,1.66,1.66,0,0,1,1.39,2.12l-1.24,6.12a2.58,2.58,0,0,0,0,1.3,2.3,2.3,0,0,0,.69,1,2.71,2.71,0,0,0,1.22.57,2.49,2.49,0,0,0,1.33-.06,2.28,2.28,0,0,0,1-.68,2.46,2.46,0,0,0,.57-1.18l1.24-6.12a1.83,1.83,0,0,1,.74-1.19,2,2,0,0,1,2.55.51,1.76,1.76,0,0,1,.22,1.39l-1.23,6.09a6.4,6.4,0,0,1-1.34,2.88,5.36,5.36,0,0,1-2.5,1.66,6.52,6.52,0,0,1-3.33.1A6.39,6.39,0,0,1,290.68,490.35Z" transform="translate(-255.99 -384.63)"/><path class="cls-2" d="M302.7,492.84a1.76,1.76,0,0,1-.22-1.39l2-9.92a1.92,1.92,0,0,1,.69-1.23,1.58,1.58,0,0,1,1.32-.22,1.86,1.86,0,0,1,.93.42,3.11,3.11,0,0,1,.65.94l3.93,7h0l1.06-5.23a1.75,1.75,0,0,1,.75-1.19,1.83,1.83,0,0,1,1.37-.22,1.67,1.67,0,0,1,1.39,2.12l-2,9.92a1.83,1.83,0,0,1-.73,1.22,1.66,1.66,0,0,1-1.32.23,1.78,1.78,0,0,1-.93-.46,4.31,4.31,0,0,1-.75-1.1l-3.8-6.8h0L306,492.16a1.8,1.8,0,0,1-.74,1.2,1.75,1.75,0,0,1-1.36.21A1.79,1.79,0,0,1,302.7,492.84Z" transform="translate(-255.99 -384.63)"/></svg>