<?xml version="1.0" encoding="utf-8"?>
<!-- Generator: Adobe Illustrator 22.0.1, SVG Export Plug-In . SVG Version: 6.00 Build 0)  -->
<svg version="1.1" id="圖層_1" xmlns="http://www.w3.org/2000/svg" xmlns:xlink="http://www.w3.org/1999/xlink" x="0px" y="0px"
	 viewBox="0 0 147.3 72.3" style="enable-background:new 0 0 147.3 72.3;" xml:space="preserve">
<style type="text/css">
	.st0{fill:#FFFFFF;}
</style>
<title>選單_樂越logo</title>
<path class="st0" d="M42.8,35.5c0,5,4.1,9.1,9.1,9.1c5,0,9.1-4.1,9.1-9.1c0-3.4-1.9-6.6-5-8.2c4.5-2.3,6.3-7.8,4-12.3
	c-2.3-4.5-7.8-6.3-12.3-4c-4.5,2.3-6.3,7.8-4,12.3c0.7,1.4,1.8,2.6,3.1,3.5c1.5-0.9,3.2-1.3,5-1.3c0.2,0,0.5,0.1,0.5,0.4
	c0,0.2-0.1,0.5-0.4,0.5c0,0-0.1,0-0.1,0c-1.4,0-2.9,0.3-4.1,1l0,0C44.7,29,42.8,32.1,42.8,35.5z M50.5,22.1
	c-1.5-0.8-2.1-2.8-1.3-4.3c0.8-1.5,2.8-2.1,4.3-1.3c1.5,0.8,2.1,2.8,1.3,4.3C53.9,22.3,52,22.9,50.5,22.1
	C50.5,22.1,50.5,22.1,50.5,22.1z M52,32.4c1.8,0,3.2,1.4,3.2,3.2c0,1.8-1.4,3.2-3.2,3.2c-1.8,0-3.2-1.4-3.2-3.2l0,0
	C48.8,33.8,50.2,32.4,52,32.4z M26.4,35.7c1.2,1.6,2.4,3.2,3.8,4.6c-1.5,1.5-3.1,2.9-4.8,4.1c-1.5,0.8-3.3,0.2-4-1.3
	c-0.6-1.2-0.3-2.7,0.7-3.6C23.6,38.4,25.1,37.1,26.4,35.7z M21.9,20.1c0,4.2,1.1,8.3,3.2,11.9c0,0.1,0.1,0.1,0.1,0.2
	c0.1,0.2,0.3,0.5,0.4,0.7l0.2,0.4l0.3,0.5l0.3,0.4l0.2,0.3c1.9,2.8,4.1,5.3,6.6,7.5V42c1,0.9,2,1.7,3.1,2.5c0.5,0.3,1.1,0.5,1.7,0.5
	c1.7,0,3-1.4,2.9-3.1c0-0.9-0.5-1.8-1.2-2.3c-0.8-0.6-1.5-1.2-2.2-1.8h-0.1c-3.2-2.7-5.8-6.1-7.6-9.8c-1.1-2.3-1.8-4.9-1.8-7.5
	c0,0,0,0,0-0.1c0-3.6,1.3-7.5,4.8-7.5c0.2,0,0.4,0.3,0.4,0.5c0,0.2-0.2,0.3-0.4,0.4c-1.2,0-2.3,0.7-2.8,1.7c0.3-0.2,0.7-0.3,1.1-0.3
	c2.2,0,3,3,3,5c-0.1,3.2-0.9,6.3-2.5,9.1c1.1,1.9,2.4,3.6,3.8,5.2c2.9-4.2,4.5-9.1,4.6-14.2c0-6.3-3.8-10.9-9-10.9
	S21.9,13.8,21.9,20.1z M0.6,35.5c0,5,4.1,9.1,9.1,9.1c5,0,9.1-4.1,9.1-9.1c0-3.4-1.9-6.6-5-8.2c4.5-2.3,6.3-7.8,4-12.3
	c-2.3-4.5-7.8-6.3-12.3-4s-6.3,7.8-4,12.3c0.7,1.4,1.8,2.6,3.1,3.5c1.5-0.9,3.2-1.3,5-1.3c0.2,0,0.4,0.3,0.4,0.5
	c0,0.2-0.2,0.3-0.4,0.4c-1.4,0-2.9,0.3-4.2,1l0,0C2.5,29,0.6,32.1,0.6,35.5z M8.3,22.1c-1.5-0.8-2.1-2.8-1.3-4.3
	c0.8-1.5,2.8-2.1,4.3-1.3c1.5,0.8,2.1,2.8,1.3,4.3C11.7,22.3,9.8,22.9,8.3,22.1C8.3,22.1,8.3,22.1,8.3,22.1L8.3,22.1z M9.8,32.4
	c1.8,0,3.2,1.4,3.2,3.2c0,1.8-1.4,3.2-3.2,3.2c-1.8,0-3.2-1.4-3.2-3.2l0,0C6.6,33.8,8,32.4,9.8,32.4L9.8,32.4z M2.8,64
	c-1.6,0.3-2.7,1.8-2.4,3.5C0.6,68.9,1.7,69.9,3,70h0.2c12.6-1,19.9-9.5,21.7-15.8l0,0c0.2-0.7,0.2-1.3,0.2-2c0-0.2,0.3-0.4,0.5-0.4
	c0.2,0,0.3,0.2,0.4,0.4c0,0.7-0.1,1.3-0.2,2h2.1v14.7c0.2,1.6,1.7,2.8,3.4,2.6c1.4-0.2,2.4-1.2,2.6-2.6V47.3
	c0.2-1.6-0.9-3.1-2.6-3.4s-3.1,0.9-3.4,2.6c0,0.3,0,0.5,0,0.8v0.9H3c-1.7,0-3,1.3-3,3s1.3,3,3,3h15.5C16.6,57.9,11.9,63.3,2.8,64
	L2.8,64z M42.9,51.8c0.2,0,0.5,0.1,0.5,0.3c0,0,0,0,0,0c0.2,0.7,0.4,1.4,0.8,2.1h14.5c1.7,0,3-1.3,3-3s-1.3-3-3-3l0,0H34.6v6h2.1
	C38.6,60.5,45.9,69,58.5,70h0.2c1.6-0.2,2.9-1.6,2.7-3.3c-0.1-1.3-1.1-2.4-2.5-2.7c-9.2-0.7-13.9-6.2-15.8-9.9l0,0
	c-0.3-0.6-0.5-1.3-0.7-1.9C42.4,52,42.6,51.8,42.9,51.8C42.8,51.8,42.8,51.8,42.9,51.8L42.9,51.8z"/>
<path class="st0" d="M23.6,9.2l5.1-3.6c0.6-0.4,1.1-1.1,1.2-1.8c0.4-1.7-0.6-3.3-2.3-3.7c-0.8-0.2-1.7,0-2.4,0.5l-5.1,3.6
	C18.7,5,18.3,7,19.3,8.4c0.9,1.4,2.8,1.8,4.3,0.9C23.6,9.2,23.6,9.2,23.6,9.2z"/>
<path class="st0" d="M140,12.7c0.6,0.5,1.3,0.8,2.1,0.8c1.7,0,3.1-1.4,3.1-3.1c0-0.9-0.4-1.7-1-2.3L139.5,4
	c-1.3-1.1-3.3-0.9-4.3,0.4c-1,1.2-0.9,3,0.2,4.1L140,12.7z"/>
<path class="st0" d="M108,41c-2.5-0.1-4.9,0.3-7.2,1.3l0,0c-0.8,0.4-1.6,1-2.2,1.6C98.5,44,98.4,44,98.2,44c-0.1,0-0.2,0-0.3-0.1
	c-0.2-0.2-0.2-0.4,0-0.6c0.8-0.9,1.8-1.5,2.9-2v-1.7c0-1.7-1.4-3.1-3.1-3.1c-1.7,0-3.1,1.4-3.1,3.1c0,0,0,0,0,0v14.2
	c0,1.7,1.4,3.1,3.1,3.1c1.7,0,3.1-1.4,3.1-3.1v-1.7c-0.1-1.3,0.4-2.5,1.3-3.4c1.2-1.1,3.1-1.7,5.7-1.6c1.7,0.1,3.1-1.3,3.2-3
	S109.7,41.1,108,41L108,41z"/>
<path class="st0" d="M110.8,17.3c0-1.7-1.4-3.1-3.1-3.1H101v6.2h6.7C109.4,20.4,110.8,19,110.8,17.3
	C110.8,17.3,110.8,17.3,110.8,17.3z"/>
<path class="st0" d="M87,28c-1.7-0.1-3.2,1.2-3.3,2.9c-0.1,1.7,1.2,3.2,2.9,3.3c0.1,0,0.2,0,0.4,0h20.7c1.7,0.1,3.2-1.2,3.3-2.9
	c0.1-1.7-1.2-3.2-2.9-3.3c-0.1,0-0.2,0-0.4,0h-7.6V9.2c0-1.7-1.4-3.1-3.1-3.1c-1.7,0-3.1,1.4-3.1,3.1v5.1H87
	c-1.7-0.1-3.2,1.2-3.3,2.9c-0.1,1.7,1.2,3.2,2.9,3.3c0.1,0,0.2,0,0.4,0h6.9V28L87,28z"/>
<path class="st0" d="M116.4,55.8h-4.6c-1.7,0.1-3,1.6-2.9,3.3c0.1,1.6,1.4,2.8,2.9,2.9h2.6c1.4,0.2,2.8-0.2,4-0.9
	c1.8-1.3,1.8-3.5,1.8-4.6V23.1h3.3c-0.1-1.7-0.1-2.7-0.1-2.8V17h-6.3c-1.7,0-3.1,1.4-3.1,3.1c0,0,0,0,0,0v35h2.2
	c0.2,0,0.4,0.2,0.4,0.4s-0.2,0.4-0.4,0.4L116.4,55.8z"/>
<path class="st0" d="M124.6,51.8c-1.3,1-1.6,2.9-0.6,4.2c1,1.3,2.9,1.6,4.2,0.6l0,0c2.6-2,4.8-4.3,6.7-7c1.4,1.3,2.9,2.4,4.5,3.4
	c0.5,0.3,1,0.4,1.5,0.4c1.7-0.1,3-1.4,2.9-3.1c0-1-0.5-1.9-1.3-2.4c-1.4-0.9-2.7-1.9-3.9-3c-0.4,0.6-0.8,1.2-1.2,1.8
	c-0.1,0.1-0.2,0.2-0.4,0.2c-0.1,0-0.2,0-0.3-0.1c-0.2-0.2-0.2-0.4-0.1-0.6c0.7-0.9,1.2-1.8,1.8-2.8l0.3-0.6c1.8-3.9,3.1-8,3.9-12.3
	c0.3-1.6-0.9-3.2-2.5-3.4s-3.2,0.9-3.4,2.5c-0.6,3.1-1.5,6.1-2.7,9c-0.2-0.4-0.4-0.9-0.6-1.3c-1.8-4.5-2.8-9.3-2.9-14.2h8
	c1.7,0.1,3.2-1.2,3.3-2.9c0.1-1.7-1.2-3.2-2.9-3.3c-0.1,0-0.2,0-0.4,0h-8.2c0-4,0.1-7.4,0.1-7.5c0.3-1.6-0.8-3.2-2.5-3.5
	c-1.6-0.3-3.2,0.8-3.5,2.5c0,0.3-0.1,0.6,0,0.8c0,0.1,0,1.3-0.1,3v7.9c0,0.1,0,1.2,0.1,2.8l0,0c0.2,5.7,1.3,11.2,3.4,16.5
	c0.8,1.8,1.7,3.6,2.8,5.2C129.2,47.5,127.1,49.8,124.6,51.8z"/>
<path class="st0" d="M146.4,58.1c-1.2-1.1-3.1-1.1-4.2,0.1c-0.1,0.1-8,8.1-24.7,8.1c-15.6,0-25.8-9.2-29.6-13.4
	c-0.4,0.7-0.9,1.3-1.3,1.9c-0.1,0.1-0.2,0.2-0.3,0.2c-0.3,0-0.5-0.2-0.5-0.5c0-0.1,0-0.2,0.1-0.3c0.5-0.6,1-1.3,1.4-2
	c0.3-0.5,0.5-0.9,0.7-1.4c1.1-2.5,1.8-5.2,1.9-8c0.1-1.7-1.2-3-2.9-3.1c-1.7-0.1-3,1.2-3.1,2.9l0,0c0,0.1-0.4,8.8-7.3,12.1
	c-1.5,0.7-2.2,2.5-1.5,4c0.5,1.1,1.6,1.7,2.7,1.7c0.4,0,0.9-0.1,1.3-0.3c1.6-0.8,3.1-1.8,4.4-3c3.1,3.3,6.6,6.2,10.5,8.6
	c7,4.3,15.1,6.6,23.3,6.6c19.2,0,28.6-9.5,29-9.9C147.6,61.2,147.6,59.3,146.4,58.1z"/>
</svg>
