<svg id="圖層_1" data-name="圖層 1" xmlns="http://www.w3.org/2000/svg" viewBox="0 0 147.28 72.27"><title>選單_樂越logo</title><path d="M484.18,613.57a9.13,9.13,0,1,0,13.27-8.12,9.12,9.12,0,1,0-9.15-.51,9.94,9.94,0,0,1,5-1.35.43.43,0,1,1,0,.85,9.08,9.08,0,0,0-4.15,1h0A9.14,9.14,0,0,0,484.18,613.57Zm7.63-13.45a3.18,3.18,0,1,1,4.31-1.3A3.18,3.18,0,0,1,491.81,600.12Zm1.5,10.27a3.18,3.18,0,1,1-3.18,3.18A3.18,3.18,0,0,1,493.31,610.39Zm-25.51,3.3a40,40,0,0,0,3.82,4.62,37.64,37.64,0,0,1-4.84,4.14,3,3,0,0,1-3.36-4.91A33.65,33.65,0,0,0,467.8,613.69Zm-4.53-15.58A24.77,24.77,0,0,0,466.46,610a1.62,1.62,0,0,0,.1.18c.13.23.26.46.4.69l.21.37.3.48.28.44.22.33a39,39,0,0,0,6.57,7.48l0,.06a33.5,33.5,0,0,0,3.07,2.46,2.94,2.94,0,0,0,1.67.52,3,3,0,0,0,1.7-5.42,28.19,28.19,0,0,1-2.23-1.8l-.08,0a32,32,0,0,1-7.64-9.82,18.16,18.16,0,0,1-1.84-7.52s0,0,0-.06c0-3.63,1.29-7.46,4.76-7.46a.43.43,0,0,1,0,.85,3.16,3.16,0,0,0-2.84,1.74,2.11,2.11,0,0,1,1.07-.28c2.2,0,3,3,3,5a18.87,18.87,0,0,1-2.51,9.06,28.75,28.75,0,0,0,3.83,5.18,25.84,25.84,0,0,0,4.63-14.24c0-6.32-3.76-10.91-9-10.91S463.27,591.79,463.27,598.11ZM442,613.57a9.13,9.13,0,1,0,13.27-8.12,9.13,9.13,0,1,0-9.16-.51,10,10,0,0,1,5-1.35.43.43,0,0,1,0,.85,9.09,9.09,0,0,0-4.16,1h0A9.13,9.13,0,0,0,442,613.57Zm7.62-13.45a3.18,3.18,0,1,1,4.31-1.3A3.18,3.18,0,0,1,449.61,600.12Zm1.51,10.27a3.18,3.18,0,1,1-3.18,3.18A3.19,3.19,0,0,1,451.12,610.39Zm-7,31.69a3,3,0,0,0,.23,5.94h.23c12.62-1,19.86-9.52,21.71-15.8h0a9.13,9.13,0,0,0,.24-2,.43.43,0,0,1,.85,0,10.35,10.35,0,0,1-.22,2h2.1v14.68a3,3,0,0,0,5.95,0V625.38a3,3,0,1,0-5.95,0v.88H444.36a3,3,0,1,0,0,6h15.51C458,635.92,453.27,641.37,444.1,642.08Zm40.12-12.29a.42.42,0,0,1,.5.33,8.09,8.09,0,0,0,.8,2.09h14.55a3,3,0,1,0,0-6H476v6h2.12c1.84,6.28,9.09,14.82,21.71,15.8h.23a3,3,0,0,0,.23-5.94c-9.17-.71-13.93-6.16-15.77-9.87h0a8.11,8.11,0,0,1-.69-1.92A.42.42,0,0,1,484.22,629.79Z" transform="translate(-441.36 -578.03)"/><path d="M465,587.2l5.13-3.56a3,3,0,0,0,1.25-1.83,3.08,3.08,0,0,0-4.75-3.23l-5.14,3.56A3.08,3.08,0,1,0,465,587.2Z" transform="translate(-441.36 -578.03)"/><path d="M581.34,590.74a3,3,0,0,0,2.06.8,3.08,3.08,0,0,0,2.08-5.36L580.84,582a3.08,3.08,0,0,0-4.13,4.56Z" transform="translate(-441.36 -578.03)"/><path d="M549.36,619a15.67,15.67,0,0,0-7.18,1.28h0a7.35,7.35,0,0,0-2.25,1.64.44.44,0,0,1-.33.15.46.46,0,0,1-.29-.11.44.44,0,0,1,0-.62,8.67,8.67,0,0,1,2.91-2v-1.68a3.08,3.08,0,1,0-6.16,0v14.22a3.08,3.08,0,0,0,6.16,0v-1.68a4.57,4.57,0,0,1,1.28-3.43c1.15-1.11,3.11-1.65,5.69-1.56a3.08,3.08,0,1,0,.21-6.16Z" transform="translate(-441.36 -578.03)"/><path d="M552.14,595.34a3.08,3.08,0,0,0-3.08-3.07h-6.73v6.15h6.73A3.08,3.08,0,0,0,552.14,595.34Z" transform="translate(-441.36 -578.03)"/><path d="M528.4,606.06a3.08,3.08,0,1,0,0,6.15h20.66a3.08,3.08,0,1,0,0-6.15h-7.62V587.21a3.08,3.08,0,0,0-6.16,0v5.06H528.4a3.08,3.08,0,1,0,0,6.15h6.88v7.64Z" transform="translate(-441.36 -578.03)"/><path d="M557.73,633.86h-4.57a3.08,3.08,0,0,0,.07,6.15h2.61a6.42,6.42,0,0,0,4-.87c1.84-1.31,1.84-3.52,1.84-4.58V601.1H565c-.09-1.65-.09-2.7-.09-2.82V595h-6.3a3.08,3.08,0,0,0-3.08,3.08v35h2.18a.44.44,0,0,1,0,.88Z" transform="translate(-441.36 -578.03)"/><path d="M566,629.79a3,3,0,0,0,3.63,4.79,32,32,0,0,0,6.7-7,30,30,0,0,0,4.54,3.4,2.92,2.92,0,0,0,1.55.44,3,3,0,0,0,1.56-5.5,22.66,22.66,0,0,1-3.91-3c-.39.63-.8,1.23-1.21,1.78a.47.47,0,0,1-.37.19.41.41,0,0,1-.27-.1.46.46,0,0,1-.09-.64,24.46,24.46,0,0,0,1.78-2.77l.3-.56a50.45,50.45,0,0,0,3.89-12.28,3,3,0,0,0-5.93-.93,45.22,45.22,0,0,1-2.7,9c-.21-.43-.41-.86-.61-1.31a42.48,42.48,0,0,1-2.9-14.17h8a3.08,3.08,0,1,0,0-6.15h-8.16c0-4,.08-7.41.08-7.46a3,3,0,1,0-5.94-.18c0,.11,0,1.29-.06,3v7.94c0,.11,0,1.16.09,2.81h0a48.52,48.52,0,0,0,3.39,16.51,30.71,30.71,0,0,0,2.85,5.22A26.59,26.59,0,0,1,566,629.79Z" transform="translate(-441.36 -578.03)"/><path d="M587.73,636.18a3,3,0,0,0-4.2.09c-.08.08-8,8.09-24.67,8.09-15.6,0-25.75-9.19-29.57-13.4a16.13,16.13,0,0,1-1.35,1.89.48.48,0,0,1-.35.16.46.46,0,0,1-.34-.76,14.65,14.65,0,0,0,1.4-2c.27-.46.51-.93.73-1.38a23.86,23.86,0,0,0,1.94-8,3,3,0,1,0-6-.2c0,.09-.38,8.79-7.27,12.08a3,3,0,0,0,1.29,5.72,2.94,2.94,0,0,0,1.29-.3,16.89,16.89,0,0,0,4.43-3,48.29,48.29,0,0,0,10.48,8.57,44.43,44.43,0,0,0,23.32,6.59c19.2,0,28.56-9.51,28.95-9.92A3,3,0,0,0,587.73,636.18Z" transform="translate(-441.36 -578.03)"/></svg>