<?xml version="1.0" encoding="utf-8"?>
<!-- Generator: Adobe Illustrator 22.0.1, SVG Export Plug-In . SVG Version: 6.00 Build 0)  -->
<svg version="1.1" id="圖層_1" xmlns="http://www.w3.org/2000/svg" xmlns:xlink="http://www.w3.org/1999/xlink" x="0px" y="0px"
	 viewBox="0 0 6.5 6.6" style="enable-background:new 0 0 6.5 6.6;" xml:space="preserve">
<style type="text/css">
	.st0{fill:none;}
	.st1{fill:#1B1464;}
</style>
<title>scroll down箭頭</title>
<path class="st0" d="M2,3.1l2.8-2.9C5,0.1,5.3,0,5.5,0H2V3.1z"/>
<path class="st1" d="M6.2,0.2C6,0.1,5.8,0,5.6,0H5.5C5.3,0,5,0.1,4.8,0.2L2,3.1V0H0v5.6c0,0.6,0.4,1,1,1c0.3,0,0.5-0.1,0.7-0.3
	l4.5-4.6c0,0,0,0,0,0C6.6,1.3,6.6,0.6,6.2,0.2z"/>
<path class="st1" d="M5.5,0L5.5,0C5.5,0,5.5,0,5.5,0z"/>
</svg>
