<svg id="圖層_1" data-name="圖層 1" xmlns="http://www.w3.org/2000/svg" viewBox="0 0 250 139"><defs><style>.cls-1{fill:#ffe8a7;}</style></defs><title>精選飲冰品_冰沙文字底圖</title><path class="cls-1" d="M306.49,571.44a7,7,0,0,1-4.44-1,3,3,0,0,1-1.2-2.57,41.1,41.1,0,0,1,.43-7.34c.29-1.28.64-2,1.06-2.13.19-.07.65.1,1.37.5a11.8,11.8,0,0,0,3.38,1.55,7,7,0,0,0,4.06-.37,9.18,9.18,0,0,0,4.06-2.79,8,8,0,0,0,1.72-5.39,3.65,3.65,0,0,0-1.35-3.26,14.46,14.46,0,0,0-4.26-1.7q-1.6-.42-2.4-.72a9.87,9.87,0,0,1-4.95-3.64q-1.8-2.54-1.8-8.11,0-9.76,4.35-15.65a21.62,21.62,0,0,1,10.52-8,14.58,14.58,0,0,1,5.38-.91,6.2,6.2,0,0,1,3.55,1.1,2.4,2.4,0,0,1,1,1.93,10.65,10.65,0,0,1-.63,3,20.39,20.39,0,0,1-1.52,3.58c-.59,1.09-1.09,1.71-1.51,1.85a1.42,1.42,0,0,1-.72,0c-.32-.08-.6-.16-.83-.24a9,9,0,0,0-4.69.38,8,8,0,0,0-4.46,3.1,7.53,7.53,0,0,0-1.2,3.92c0,1.78.45,3,1.34,3.7a12.49,12.49,0,0,0,4.27,1.82l1.65.49a11.13,11.13,0,0,1,5.47,3.38q2,2.38,2,7.79,0,10.83-4.23,16.79a20.58,20.58,0,0,1-10.07,8A19.69,19.69,0,0,1,306.49,571.44Z" transform="translate(-300.85 -432.45)"/><path class="cls-1" d="M340.68,559.44a2.61,2.61,0,0,1-.46-1.87l3.83-52.82q.18-2.64,3.61-3.81l2-.68q3.25-1.11,3.26,1.39l-3.26,44.72L362.42,542a.84.84,0,0,1,1.14.38,5.55,5.55,0,0,1,.34,2.35v.48c-.07,4.6-.8,7.14-2.17,7.6l-19.45,6.63C341.51,559.72,341,559.71,340.68,559.44Z" transform="translate(-300.85 -432.45)"/><path class="cls-1" d="M380.33,545a8.69,8.69,0,0,1-5.29-4.38,18.17,18.17,0,0,1-1.89-8.88c0-.49,0-1.28.12-2.38l2.46-35.4q.16-2.64,3.66-3.83l1.94-.67a3.4,3.4,0,0,1,2.49-.2,1.79,1.79,0,0,1,.72,1.7l-2.46,34.59A13.39,13.39,0,0,0,382,527c0,2.86.65,4.84,2,6s3,1.32,5.09.61a11.66,11.66,0,0,0,5.86-4.74,15.69,15.69,0,0,0,2.72-8l2.52-35.26q.16-2.64,3.66-3.83l1.89-.64a3.28,3.28,0,0,1,2.48-.2,1.77,1.77,0,0,1,.72,1.69l-2.57,36.08A31.5,31.5,0,0,1,400.87,535a24.93,24.93,0,0,1-12.61,9.42A13.2,13.2,0,0,1,380.33,545Z" transform="translate(-300.85 -432.45)"/><path class="cls-1" d="M429.94,529.41a7,7,0,0,1-4.43-.95,3,3,0,0,1-1.2-2.58,39.93,39.93,0,0,1,.43-7.33c.28-1.28.63-2,1.05-2.14.19-.06.65.1,1.38.5a12.07,12.07,0,0,0,3.37,1.56,7.07,7.07,0,0,0,4.06-.37,9.32,9.32,0,0,0,4.07-2.8,8,8,0,0,0,1.71-5.39,3.68,3.68,0,0,0-1.34-3.26,15,15,0,0,0-4.26-1.7c-1.07-.28-1.87-.52-2.41-.71a10,10,0,0,1-4.94-3.65q-1.81-2.54-1.81-8.1,0-9.78,4.35-15.66a21.75,21.75,0,0,1,10.53-8,14.31,14.31,0,0,1,5.38-.9,6.17,6.17,0,0,1,3.54,1.09,2.44,2.44,0,0,1,1,1.93,10.65,10.65,0,0,1-.63,3,21.28,21.28,0,0,1-1.52,3.59c-.59,1.09-1.1,1.7-1.52,1.85a1.38,1.38,0,0,1-.71,0,6.49,6.49,0,0,1-.83-.25,8.89,8.89,0,0,0-4.69.39A7.92,7.92,0,0,0,436,482.6a7.49,7.49,0,0,0-1.21,3.92c0,1.78.45,3,1.35,3.71a12.44,12.44,0,0,0,4.26,1.81l1.66.49a11,11,0,0,1,5.46,3.39c1.36,1.58,2,4.18,2,7.79q0,10.82-4.23,16.78a20.48,20.48,0,0,1-10.07,8A19.25,19.25,0,0,1,429.94,529.41Z" transform="translate(-300.85 -432.45)"/><path class="cls-1" d="M466.12,515,470,461.89q.18-2.64,3.61-3.81l2-.68q3.26-1.11,3.26,1.39l-1.49,20.54,15.45-5.26,1.49-20.46q.17-2.64,3.6-3.81l2-.68c2.18-.74,3.26-.27,3.26,1.4l-3.83,53.06c-.11,1.76-1.32,3-3.6,3.81l-2,.68q-3.26,1.11-3.26-1.39L492,485l-15.45,5.26L475,511.86q-.18,2.64-3.61,3.81l-2,.68Q466.13,517.46,466.12,515Z" transform="translate(-300.85 -432.45)"/><path class="cls-1" d="M527,496.09a1.71,1.71,0,0,1-.75-1.68l1.83-25.34-9.44-22.7a4.25,4.25,0,0,1-.34-1.58,2.22,2.22,0,0,1,.94-1.9A11,11,0,0,1,522,441.6l2.46-.83c1.87-.64,3-.5,3.32.4l5.72,15.33,8.3-20.1c.49-1.19,1.67-2.11,3.54-2.74l2.06-.7c2.33-.8,3.49-.65,3.49.42a6.63,6.63,0,0,1-.63,2.24l-13.33,30.7-1.83,25.09q-.16,2.64-3.6,3.81l-2,.66A3.47,3.47,0,0,1,527,496.09Z" transform="translate(-300.85 -432.45)"/></svg>