<svg id="圖層_1" data-name="圖層 1" xmlns="http://www.w3.org/2000/svg" viewBox="0 0 161.61 161.61"><defs><style>.cls-1{fill:#fff;}.cls-2{fill:#1f2b61;}.cls-3{fill:#fcc800;}</style></defs><title>白底笑臉icon</title><circle class="cls-1" cx="80.8" cy="80.8" r="80.79"/><path class="cls-1" d="M402,595.74h0c-34.57,6.76-60.7,21.93-59.71,27s30.45,4.29,64.1-4.53c34.49-4.52,62.07-14.93,61.08-20S436.52,589,402,595.74Z" transform="translate(-324.64 -532.76)"/><path class="cls-2" d="M355.7,627.82c-6.39,0-11.17-.68-13.47-2.12a4,4,0,0,1-2-2.6c-1.58-8.11,29.92-23.19,61.29-29.33l.39,2-.39-2c31.37-6.14,66.23-4,67.82,4.06a4,4,0,0,1-.82,3.15c-4.77,6.62-33.06,15.39-61.84,19.17C388,625.06,368.57,627.82,355.7,627.82Zm-11.44-5.55c2.75,2.37,26.6,3.15,61.58-6l.25,0c35.86-4.69,57.65-14.41,59.31-17.63-2.49-2.92-28.06-7.72-63.06-.87S345.47,618.63,344.26,622.27Z" transform="translate(-324.64 -532.76)"/><path class="cls-2" d="M406.72,655.59c-11.31,0-22.66-5.43-33.19-16a93.14,93.14,0,0,1-15-19.82,2,2,0,0,1,3.52-1.88c.21.39,21.18,38.83,50.74,33.06s34.49-49.31,34.53-49.75a2,2,0,1,1,4,.42,93.66,93.66,0,0,1-6.44,24c-7,16.49-17.78,26.6-31.3,29.24A35,35,0,0,1,406.72,655.59Z" transform="translate(-324.64 -532.76)"/><circle class="cls-3" cx="81.71" cy="85.42" r="35.43"/><path class="cls-2" d="M406.27,655.63A37.43,37.43,0,1,1,443.09,611h0a37.5,37.5,0,0,1-36.82,44.63Zm.15-70.89a33.44,33.44,0,1,0,32.74,27h0a33.45,33.45,0,0,0-32.74-27Z" transform="translate(-324.64 -532.76)"/><path class="cls-2" d="M426.69,627a1.78,1.78,0,0,0-2.35.9c0,.06-2.74,5.94-11.27,7.61a22.71,22.71,0,0,1-15.43-2.26,23.71,23.71,0,0,1-4.71-3.29,8.32,8.32,0,0,1-.67,1.1.22.22,0,0,1-.15.1.28.28,0,0,1-.2,0,.27.27,0,0,1-.06-.36,7,7,0,0,0,.77-1.34,13,13,0,0,0,.79-3,1.77,1.77,0,0,0-3.51-.53c-.41,2.7-1.28,4-3.74,5.51a1.78,1.78,0,0,0,1.28,3.25,1.75,1.75,0,0,0,.59-.24,14.26,14.26,0,0,0,2.45-1.86A26.66,26.66,0,0,0,413.75,639c10.33-2,13.7-9.35,13.84-9.66A1.78,1.78,0,0,0,426.69,627Z" transform="translate(-324.64 -532.76)"/><circle class="cls-2" cx="90.15" cy="79.38" r="3.54"/><circle class="cls-2" cx="71.61" cy="83.01" r="3.54"/><path class="cls-2" d="M402,595.74h0c30.45-6,57.29-3.41,63.92.73h0c-4.23-3.91-46.34-25-70.24-33-19.15,16.35-50.19,51.78-52.63,57h0C347.61,614.18,371.5,601.7,402,595.74Z" transform="translate(-324.64 -532.76)"/><path class="cls-2" d="M343,622.52a2,2,0,0,1-1.81-2.85c2.62-5.62,33.77-41.13,53.14-57.67a2,2,0,0,1,1.93-.37c24.17,8,66.41,29.15,71,33.37a2,2,0,0,1-2.42,3.17c-5.55-3.47-31.18-6.59-62.48-.47s-53.86,18.68-57.69,24a2.06,2.06,0,0,1-1.3.8Zm53.07-56.74c-13.77,11.94-32.42,32.25-43,44.88,10.94-6.09,28.23-12.91,48.52-16.89a183.61,183.61,0,0,1,41.35-3.45c3.54.12,6.85.38,9.85.74C438.15,583.37,413.31,571.63,396.09,565.78Z" transform="translate(-324.64 -532.76)"/><path class="cls-2" d="M365.65,652.06l0,0-10.52,7.13-2.71-2.94,13.9-10.79,4.81,5.23-9.22,10,12.26-9.25,2.7,3.88L361,665.56l-4.18-3.84Z" transform="translate(-324.64 -532.76)"/><path class="cls-2" d="M369.11,671.79a13,13,0,0,1,.22-3.56,11.33,11.33,0,0,1,1.26-3.18,13.9,13.9,0,0,1,4.71-4.82,17.64,17.64,0,0,1,7.12-2.5l6.94,4a25.05,25.05,0,0,0-9,1.94,11,11,0,0,0-5.15,4.41,9.33,9.33,0,0,0-1,2.65,16.19,16.19,0,0,0-.35,3.29l.05,0,5.78-7.85,4.47,2.56-6.59,7.91Z" transform="translate(-324.64 -532.76)"/><path class="cls-2" d="M386.75,680.15a21,21,0,0,1-.92-3.92,9.25,9.25,0,0,1,.11-3.18,13.64,13.64,0,0,1,1.67-4,24.72,24.72,0,0,1,3.25-4.17l4.51,1a33,33,0,0,0-2.45-3.39l6.76.54a12.67,12.67,0,0,1,1.91,4.08,8.54,8.54,0,0,1,0,4Q400.52,676,394,681.77Zm4.11-.37a35.34,35.34,0,0,0,3.29-4.8,17.06,17.06,0,0,0,1.73-4.4,8.9,8.9,0,0,0,.23-2.39,5.89,5.89,0,0,0-.58-2.17,24.52,24.52,0,0,0-4.28,8.71,15.06,15.06,0,0,0-.36,2.4A23.18,23.18,0,0,0,390.86,679.78Z" transform="translate(-324.64 -532.76)"/><path class="cls-2" d="M409.56,670.13h-.05l-.78,12.69-4,.35,0-17.59,7.08-.62,2.27,13.4.18-15.36,4.71.24L417.43,682l-5.59,1Z" transform="translate(-324.64 -532.76)"/><path class="cls-3" d="M436.36,677.87a10.53,10.53,0,0,1-8.32-5.55,13.44,13.44,0,0,1-1.39-4.15,26.32,26.32,0,0,1-.31-5.28l4.06-2.2a33.34,33.34,0,0,0-4.08-.94l5.46-4a12.61,12.61,0,0,1,4.12,1.83,8.62,8.62,0,0,1,2.69,3.05c1.35,2.47,1.94,6.14,1.78,11l-3.79,2a11.69,11.69,0,0,0,2.64.61,31.36,31.36,0,0,0,3.47.22Zm.15-4.37a24.24,24.24,0,0,0-.74-5,19.31,19.31,0,0,0-1.72-4.36,9.83,9.83,0,0,0-1.45-2,7.29,7.29,0,0,0-1.92-1.43c.43,4,1.18,7,2.23,8.95a9.72,9.72,0,0,0,3.6,3.82Z" transform="translate(-324.64 -532.76)"/><path class="cls-3" d="M451.24,665.17a6.84,6.84,0,0,1-3.05-.07,6,6,0,0,1-2.49-1.51q-.3-.29-.9-1c-.4-.44-.88-1-1.46-1.8l-5.44-7.06,3.62-3.79,6.82,9.16c.12.17.24.32.36.46a5.08,5.08,0,0,0,.39.41,6.24,6.24,0,0,0,4.9,1.4l-11.62-14.18,3.85-4,11.39,15.32Z" transform="translate(-324.64 -532.76)"/><path class="cls-3" d="M445.28,633.79l2-4.07.71,4.5-1.45,2.94Zm2.75,7.88,2.39-4.84,8.65,7.52,1.06-2.13L448.9,636l2.51-5.08,16.48,10.14-2.15,4.35-3.6-2.06-.93,2.82,2.91,2.52-1.89,3.82Z" transform="translate(-324.64 -532.76)"/><path class="cls-3" d="M451.79,627.63l1.28-5.25,11.87,5.68-1.08,4.43Zm13.51,5.62,1.15-4.74,4.49,1.93-1.16,4.76Z" transform="translate(-324.64 -532.76)"/><path class="cls-2" d="M350.83,580.25l3.05,1.9-1.08,1.75L349.74,582l-5.84.11,1.32-2.1,3.62.12-1.7-3.2,1.27-2Z" transform="translate(-324.64 -532.76)"/><path class="cls-2" d="M359.24,572.23a3.13,3.13,0,0,1,.35,1.26,3.54,3.54,0,0,1-.21,1.34,4.33,4.33,0,0,1-.77,1.31,4.27,4.27,0,0,1-1.16,1,3.12,3.12,0,0,1-1.27.42,3,3,0,0,1-1.29-.14,3.68,3.68,0,0,1-1.24-.7l-4.06-3.4,1.31-1.56,3.93,3.29a2.43,2.43,0,0,0,.57.35,1.61,1.61,0,0,0,.6.15,1.26,1.26,0,0,0,.62-.13,1.65,1.65,0,0,0,.58-.47,1.55,1.55,0,0,0,.36-.66,1.23,1.23,0,0,0,0-.63,1.33,1.33,0,0,0-.25-.57,2.3,2.3,0,0,0-.45-.49L353,569.31l1.32-1.57,4.06,3.39A3.9,3.9,0,0,1,359.24,572.23Z" transform="translate(-324.64 -532.76)"/><path class="cls-2" d="M367.73,566.91l-3.88-4.59,0,0,2.25,6-1.1.94-5.54-3.16,0,0,4,4.53-1.46,1.25-5.54-6.44,2.22-1.9,5,2.87,0,0-2.15-5.34,2.25-1.94,5.54,6.45Z" transform="translate(-324.64 -532.76)"/><path class="cls-2" d="M377.26,560.78l-3-5.22,0,0,1.11,6.31-1.24.72-4.88-4.12h0l3.06,5.18-1.67,1-4.27-7.35,2.53-1.46,4.41,3.74,0,0-1.14-5.64,2.57-1.49,4.26,7.35Z" transform="translate(-324.64 -532.76)"/><path class="cls-2" d="M383.3,554.26l1.29,3.36-1.92.74L381.38,555l-4.73-3.44,2.32-.88,2.82,2.28.56-3.58,2.25-.86Z" transform="translate(-324.64 -532.76)"/><path class="cls-2" d="M397.45,554.4l-.94-.68a3.26,3.26,0,0,1-.86.88,3.49,3.49,0,0,1-1.41.53,4.36,4.36,0,0,1-1.14,0,2.92,2.92,0,0,1-1-.3,2.36,2.36,0,0,1-.81-.66,2.18,2.18,0,0,1-.45-1.06,2.31,2.31,0,0,1,0-.83,2.23,2.23,0,0,1,.27-.72,3,3,0,0,1,.48-.59,4.51,4.51,0,0,1,.6-.48,3.32,3.32,0,0,1-.77-.72,2.09,2.09,0,0,1-.41-1,1.87,1.87,0,0,1,.06-1,2.23,2.23,0,0,1,.5-.77,2.64,2.64,0,0,1,.77-.53,4.34,4.34,0,0,1,.91-.28,3.77,3.77,0,0,1,1,0,2.54,2.54,0,0,1,.89.24,2.09,2.09,0,0,1,.7.56,2,2,0,0,1,.38.92,1.89,1.89,0,0,1,0,.75,2.16,2.16,0,0,1-.26.65,2.46,2.46,0,0,1-.45.57,5.84,5.84,0,0,1-.59.51l1.24.89.62-1.44,2.15-.37-1.39,2.74,2.44,1.71Zm-4-2.94a2.23,2.23,0,0,0-.55.51,1,1,0,0,0-.14.77,1,1,0,0,0,.18.43,1.22,1.22,0,0,0,.32.28,1.06,1.06,0,0,0,.4.14,1,1,0,0,0,.42,0,1.45,1.45,0,0,0,.67-.28,1.59,1.59,0,0,0,.45-.57Zm1-3.13a.75.75,0,0,0-.3-.51.81.81,0,0,0-.62-.12.84.84,0,0,0-.54.32.76.76,0,0,0-.13.59,1.13,1.13,0,0,0,.26.54,2.08,2.08,0,0,0,.55.44,2.4,2.4,0,0,0,.62-.56A.89.89,0,0,0,394.4,548.33Z" transform="translate(-324.64 -532.76)"/><path class="cls-2" d="M407.93,547.13l-.09,6.74-2,0,.09-6.75-2.4,0,0-1.75,6.85.09,0,1.75Z" transform="translate(-324.64 -532.76)"/><path class="cls-2" d="M416.34,554.7l-.43-1.74-3.26-.44-.84,1.57-2.21-.3,4.66-7.94,2,.26L418.6,555Zm-1.43-6.48L413.45,551l2.12.28Z" transform="translate(-324.64 -532.76)"/><path class="cls-2" d="M425.59,550.45a2,2,0,0,0-.52-.7,2,2,0,0,0-.75-.4,1.77,1.77,0,0,0-.4-.08,1.37,1.37,0,0,0-.41,0,1.24,1.24,0,0,0-.34.18.8.8,0,0,0-.22.37.82.82,0,0,0,0,.38,1,1,0,0,0,.19.31,2.72,2.72,0,0,0,.35.3l.47.32.79.54a3.72,3.72,0,0,1,.7.67,2.65,2.65,0,0,1,.42.86,2,2,0,0,1,0,1.09,2.72,2.72,0,0,1-.59,1.15,2.48,2.48,0,0,1-.93.66,3.14,3.14,0,0,1-1.15.22,4.2,4.2,0,0,1-1.21-.16,4.84,4.84,0,0,1-1.62-.77,3.58,3.58,0,0,1-1.12-1.25l1.65-1a2.57,2.57,0,0,0,.63.84,2.13,2.13,0,0,0,.91.51,1.62,1.62,0,0,0,.44.07,1,1,0,0,0,.4,0,.78.78,0,0,0,.33-.21.9.9,0,0,0,.2-.39.67.67,0,0,0,0-.42,1.22,1.22,0,0,0-.25-.39,3.35,3.35,0,0,0-.47-.39l-.66-.43a7.09,7.09,0,0,1-.68-.51,2.71,2.71,0,0,1-.55-.63,2.16,2.16,0,0,1-.3-.79,2.37,2.37,0,0,1,.08-1,2.37,2.37,0,0,1,1.55-1.69,3.54,3.54,0,0,1,1.14-.18,5.26,5.26,0,0,1,1.19.17,4.25,4.25,0,0,1,1.34.65,3.74,3.74,0,0,1,1.07,1.1Z" transform="translate(-324.64 -532.76)"/><path class="cls-2" d="M432.63,552.54l-2.54,6.24-1.9-.77,2.54-6.25-2.22-.9.66-1.62,6.35,2.58-.66,1.62Z" transform="translate(-324.64 -532.76)"/><path class="cls-2" d="M439.08,559.29l-1.78,3.13-1.78-1,1.78-3.13-.36-5.83,2.16,1.22,0,3.63,3.13-1.84,2.09,1.19Z" transform="translate(-324.64 -532.76)"/><path class="cls-2" d="M443.35,565.2a1,1,0,0,1-.34.32,1,1,0,0,1-.41.15,1.16,1.16,0,0,1-.45,0,1.14,1.14,0,0,1-.42-.19,1.12,1.12,0,0,1-.32-.33,1.21,1.21,0,0,1-.16-.41,1.31,1.31,0,0,1,0-.44.88.88,0,0,1,.18-.41,1,1,0,0,1,.32-.31,1.06,1.06,0,0,1,.42-.15,1.09,1.09,0,0,1,.44,0,1.49,1.49,0,0,1,.43.19,1.24,1.24,0,0,1,.31.34,1.17,1.17,0,0,1,.17.86A1,1,0,0,1,443.35,565.2Zm-.72-2.75,3.28-4.6,1.63,1.16-3.28,4.6Z" transform="translate(-324.64 -532.76)"/></svg>