<svg id="圖層_1" data-name="圖層 1" xmlns="http://www.w3.org/2000/svg" viewBox="0 0 155 155"><defs><style>.cls-1{fill:#1b1464;}.cls-2{fill:#fcc800;}.cls-3{fill:#ffc522;}.cls-4{fill:#fff;}</style></defs><title>藍底笑臉icon</title><circle class="cls-1" cx="77.5" cy="77.5" r="77.48"/><path class="cls-2" d="M415.15,583.9a29.67,29.67,0,1,1,15.73-4.54A29.68,29.68,0,0,1,415.15,583.9Zm-.1-56.34A26.67,26.67,0,1,0,437.69,540,26.53,26.53,0,0,0,415.05,527.56Z" transform="translate(-337.6 -476.73)"/><path class="cls-3" d="M431.75,553.45a1.41,1.41,0,0,0-1.48,1.33c0,.06-.33,5.2-6.19,8.88a18.05,18.05,0,0,1-12.1,2.72,18.27,18.27,0,0,1-4.43-1.09,6.74,6.74,0,0,1-.18,1,.2.2,0,0,1-.09.11.22.22,0,0,1-.16,0,.2.2,0,0,1-.14-.25,5.72,5.72,0,0,0,.18-1.21,10,10,0,0,0-.27-2.46,1.41,1.41,0,0,0-2.76.61,5.33,5.33,0,0,1-1.2,5.16,1.41,1.41,0,0,0,1.88,2.05,1.37,1.37,0,0,0,.37-.35,11.46,11.46,0,0,0,1.29-2.08,21.21,21.21,0,0,0,19.11-1.86c7.09-4.45,7.5-10.85,7.51-11.12A1.41,1.41,0,0,0,431.75,553.45Z" transform="translate(-337.6 -476.73)"/><circle class="cls-3" cx="79.78" cy="67" r="2.82"/><circle class="cls-3" cx="67.05" cy="74.99" r="2.82"/><path class="cls-4" d="M362.37,583.58l-2.6-3.16,0,0,2.15,4.08-4,.85-4.22-8.63,3.53-1,1.94,3.6,3.83-1-1.83-3.74,2.79-.81,2.06,3.72,3.65-1-1.66-3.88,2.84-.83,3.84,7.86Z" transform="translate(-337.6 -476.73)"/><path class="cls-4" d="M352.42,568.11l-.81-5.05,10.81,1.08-.36-2.23L350,563.24l-.84-5.29,18.28-1.19.72,4.54-3.91.37.83,2.69,3.63.37.63,4Z" transform="translate(-337.6 -476.73)"/><path class="cls-4" d="M355.11,548.75l-.43-4h-.05l-.6,6.85-4.09-1.05,1.36-10.76,3.75,1.17-.23,2.48,13.28,4.05-.55,4.4Z" transform="translate(-337.6 -476.73)"/><path class="cls-2" d="M369.38,528.57a37.62,37.62,0,0,0-2.7-4.46,8.68,8.68,0,0,0-2.56-2.5,3.34,3.34,0,0,0-1.35-.48,3.72,3.72,0,0,0-1.41.16,7.23,7.23,0,0,0-1.61.73c-.58.33-1.24.75-2,1.24l2.05-5.9c.66-.35,1.26-.65,1.81-.88a6.88,6.88,0,0,1,1.55-.46,4,4,0,0,1,2.69.52,10.17,10.17,0,0,1,2.8,2.74,44.79,44.79,0,0,1,3.18,5.09Zm-11.05-2.49,2.59-4.42L373.09,532l-2.17,3.7Z" transform="translate(-337.6 -476.73)"/><path class="cls-2" d="M369.17,509.24l4-3.46,4.34,6.87,2.2-1.91-5.44-8.09,4-3.5L387.84,515l-3.3,2.87L381,512.56l-2.06,2.28,3.24,5.11-3.26,2.84Z" transform="translate(-337.6 -476.73)"/><path class="cls-2" d="M393.41,511.75a19.54,19.54,0,0,1-2.81-2.56,9.12,9.12,0,0,1-1.62-2.56,13.13,13.13,0,0,1-.85-4.05,23.51,23.51,0,0,1,.31-5l4.07-1.61a32.08,32.08,0,0,0-3.73-1.34l5.58-3.19A12,12,0,0,1,398,493.6a8,8,0,0,1,2.16,3.11q1.76,4.41-.25,12.45Zm3-2.48a32.68,32.68,0,0,0,0-5.51,15.67,15.67,0,0,0-1-4.37,8.37,8.37,0,0,0-1.1-2,5.53,5.53,0,0,0-1.61-1.38,23.47,23.47,0,0,0,1.3,9.09,15.15,15.15,0,0,0,1,2.07A18.79,18.79,0,0,0,396.42,509.27Z" transform="translate(-337.6 -476.73)"/><path class="cls-2" d="M414.72,493.89l4-.77v-.06l-4.53-.07,1.18-3.93,9.59.44-.77,3.6-4.09,0-1.16,4.62,4.18.19-.68,2.84-4.2.1-1.36,6-4.48-.2Z" transform="translate(-337.6 -476.73)"/><path class="cls-2" d="M427.39,508.22a6.7,6.7,0,0,1-1.13-2.65,5.82,5.82,0,0,1,.33-2.74c.09-.25.25-.64.48-1.16s.56-1.17,1-1.95l4-7.46,4.68,1.65-5.24,9.45c-.1.18-.19.34-.26.5a3.37,3.37,0,0,0-.2.49,5.92,5.92,0,0,0,.7,4.78l7.71-15.56,5,1.75-8.77,15.8Z" transform="translate(-337.6 -476.73)"/><path class="cls-2" d="M451.5,507.29l0,0-8.84,8.17-3-2.37L451.15,501l5.25,4.22-7.23,10.65,10.18-10.39,3.08,3.25-13.35,11.86-4.46-3Z" transform="translate(-337.6 -476.73)"/><path class="cls-4" d="M471.63,521.85l2.45,4.64L460,531.09l2,3.89-2.88.91L455,528.2Z" transform="translate(-337.6 -476.73)"/><path class="cls-4" d="M477.18,535.62l1.46,5.18-17.47,1.85-1.2-4.26Z" transform="translate(-337.6 -476.73)"/><path class="cls-4" d="M479.06,547.88l.11,5.17-15.72-.69,17.42,3.41.1,5.12-18.34-4.54-.16-8.14Z" transform="translate(-337.6 -476.73)"/><path class="cls-4" d="M474.09,566.92,474,571l0,0,1.08-4.49,3.58,2-2.52,9.26-3.35-1.54.92-4-3.57-1.74-1.09,4-2.63-1.23.91-4.15-3.43-1.63-1.32,4-2.68-1.26,2.3-8.44Z" transform="translate(-337.6 -476.73)"/><path class="cls-2" d="M465,588.14l-1.63,3.73.05,0,2.63-3.7,2.56,3.21-5.79,7.65-2.53-2.68,2.34-3.35-3.15-3.58L457,592.79l-2-2.17,2.3-3.51-4.15-4.5,2.71-3.58Z" transform="translate(-337.6 -476.73)"/><path class="cls-2" d="M446.57,590.07a19.49,19.49,0,0,1,3.35,1.8,9,9,0,0,1,2.19,2.09,12.88,12.88,0,0,1,1.81,3.72,23.54,23.54,0,0,1,.92,4.93l-3.55,2.56a31.65,31.65,0,0,0,3.94.39L450.6,610a12.38,12.38,0,0,1-4.09-1.2,8.12,8.12,0,0,1-2.85-2.49q-2.78-3.86-2.8-12.14Zm-2.32,3.14a32.9,32.9,0,0,0,1.33,5.35,16,16,0,0,0,2,4,8,8,0,0,0,1.55,1.66,5.77,5.77,0,0,0,1.9,1,23.29,23.29,0,0,0-3.48-8.51,14.85,14.85,0,0,0-1.48-1.76A22,22,0,0,0,444.25,593.21Z" transform="translate(-337.6 -476.73)"/><path class="cls-2" d="M431.62,604.49l-1.16,5a10.27,10.27,0,0,0-.29,2.26,5.4,5.4,0,0,0,.1,1.23,2.77,2.77,0,0,0,1.06,1.43,5.11,5.11,0,0,0,2.08.84l3.08.57L431,618.73c-3.28-.64-5.2-1.91-5.78-3.83q-.74-2.46,1.12-6.21l1.21-2.44-4.78-4.73,5.18-1.56Zm6.38,8.86-4.9,1.47L431.18,599l4.11-1.24Z" transform="translate(-337.6 -476.73)"/><path class="cls-2" d="M410.63,614.4l-4,.45v.06l4.51.43-1.49,3.82-9.53-1.2,1.06-3.53,4.07.36,1.54-4.52-4.16-.52.91-2.77,4.19.23,1.84-5.83,4.44.56Z" transform="translate(-337.6 -476.73)"/><path class="cls-2" d="M399.11,599.09a6.46,6.46,0,0,1,.91,2.74,5.57,5.57,0,0,1-.55,2.7c-.1.25-.29.61-.56,1.11s-.66,1.13-1.15,1.88l-4.56,7.11-4.53-2,6-9c.11-.16.21-.32.3-.47a5.21,5.21,0,0,0,.24-.47,5.92,5.92,0,0,0-.32-4.82L386,612.72l-4.82-2.15,10-15Z" transform="translate(-337.6 -476.73)"/><path class="cls-2" d="M375,598.08l0,0,9.48-7.42,2.75,2.61-12.43,11.08L370,599.75l8.07-10-11,9.53-2.8-3.49L378.51,585l4.2,3.35Z" transform="translate(-337.6 -476.73)"/></svg>