<svg id="圖層_1" data-name="圖層 1" xmlns="http://www.w3.org/2000/svg" viewBox="0 0 12.5 20.25"><defs><style>.cls-1{fill:#c1272d;}.cls-2{fill:#009245;}</style></defs><title>經典越式河粉米食_辣椒</title><path class="cls-1" d="M462,500.78a2.66,2.66,0,0,0-1.81-1.39h0c-1.62-.39-2.42-.14-3.17,1a7.22,7.22,0,0,0-.81,2.77,15.24,15.24,0,0,1-.39,1.9l-.11.38c-.49,1.76-1.53,5.41-5.07,6.7a1.06,1.06,0,0,0-.8,1.24,1,1,0,0,0,.92.76l.64,0c4.91,0,8.16-3,10.48-9.79l.32-1.3A3.4,3.4,0,0,0,462,500.78Z" transform="translate(-449.8 -493.93)"/><path class="cls-2" d="M461.26,498.66h-.95v-.57a5.07,5.07,0,0,0-.49-2.42,4.9,4.9,0,0,0-1-1.29l-.22-.22a.86.86,0,1,0-1.21,1.23l.66.65a3,3,0,0,1,.52,2.07v.56h-.92a1,1,0,1,0,0,2h.65v.07a1.2,1.2,0,0,0,1,1.19,1.14,1.14,0,0,0,1.32-1.13v-.14h.66a1,1,0,0,0,1-1A1,1,0,0,0,461.26,498.66Z" transform="translate(-449.8 -493.93)"/></svg>