<svg id="圖層_1" data-name="圖層 1" xmlns="http://www.w3.org/2000/svg" viewBox="0 0 70 70"><defs><style>.cls-1{fill:#171c61;}.cls-2{fill:#ffc522;}</style></defs><title>經典越式河粉米食_肉量1,5倍icon</title><circle class="cls-1" cx="35" cy="35" r="35"/><path class="cls-2" d="M441.73,510.25l-1.81-4.13h0l.33,4.79-1,.44-3.31-3.46h0l1.87,4.1-1.33.6-2.59-5.82,2-.9,3,3.14h0l-.4-4.3,2-.91,2.6,5.82Z" transform="translate(-414.47 -497.75)"/><path class="cls-2" d="M449.55,507.58a2.4,2.4,0,0,1-.47.86,2.55,2.55,0,0,1-.82.61,3.13,3.13,0,0,1-1.1.3,3.31,3.31,0,0,1-1.15-.08,2.52,2.52,0,0,1-.9-.44,2.41,2.41,0,0,1-.62-.76,3,3,0,0,1-.29-1l-.38-3.95,1.52-.15.37,3.82a1.85,1.85,0,0,0,.12.49,1.28,1.28,0,0,0,.25.4,1,1,0,0,0,.39.25,1.26,1.26,0,0,0,.56.06,1.32,1.32,0,0,0,.54-.16,1,1,0,0,0,.51-.77,2.05,2.05,0,0,0,0-.5l-.37-3.82,1.53-.15.38,3.95A2.63,2.63,0,0,1,449.55,507.58Z" transform="translate(-414.47 -497.75)"/><path class="cls-2" d="M455.72,509.68a3.24,3.24,0,0,1-1.46,0,3.5,3.5,0,0,1-1.3-.48,3.27,3.27,0,0,1-.95-.86,3.23,3.23,0,0,1-.52-1.18,3.41,3.41,0,0,1,0-1.39,3.66,3.66,0,0,1,.5-1.32,3,3,0,0,1,.91-.91,3.31,3.31,0,0,1,1.2-.47,3.77,3.77,0,0,1,1.38,0,3.69,3.69,0,0,1,1.26.46,2.49,2.49,0,0,1,.92.87l-1.21.85a1.17,1.17,0,0,0-.48-.53,1.73,1.73,0,0,0-.68-.27,1.76,1.76,0,0,0-.76,0,1.51,1.51,0,0,0-.64.3,1.79,1.79,0,0,0-.48.54,2.18,2.18,0,0,0-.27.74,2.4,2.4,0,0,0,0,.8,1.87,1.87,0,0,0,.27.68,1.64,1.64,0,0,0,.49.49,1.92,1.92,0,0,0,.69.27,1.72,1.72,0,0,0,.82,0,1.59,1.59,0,0,0,.62-.36l.88,1.18A2.93,2.93,0,0,1,455.72,509.68Z" transform="translate(-414.47 -497.75)"/><path class="cls-2" d="M461,512l1.17-2.39-2.23-1.1-1.17,2.4-1.38-.68,2.8-5.72,1.38.67-1.06,2.17,2.23,1.09,1.06-2.16,1.38.67-2.8,5.73Z" transform="translate(-414.47 -497.75)"/><path class="cls-2" d="M439.87,561.82l1.87-4.64,0,0-3.54,4-1.12-.44.16-5.32h0l-1.8,4.68-1.5-.59,2.59-6.59,2.27.89-.16,4.81,0,0,3.1-3.67,2.3.91-2.59,6.59Z" transform="translate(-414.47 -497.75)"/><path class="cls-2" d="M445.08,563l.45-7.07,4.75.31-.09,1.44-3.11-.2-.08,1.33,2.93.19-.09,1.37-2.93-.19-.09,1.47,3.28.21-.1,1.46Z" transform="translate(-414.47 -497.75)"/><path class="cls-2" d="M458,562.1l-.83-1.25-2.68.57-.22,1.46-1.82.39,1.44-7.54,1.63-.35,4.34,6.32Zm-2.93-4.69-.38,2.56,1.74-.36Z" transform="translate(-414.47 -497.75)"/><path class="cls-2" d="M461.79,554.58l2.43,5.06-1.55.74-2.43-5.06-1.8.86-.63-1.32,5.15-2.47.63,1.32Z" transform="translate(-414.47 -497.75)"/><path class="cls-2" d="M470.91,554.23a.55.55,0,0,1-.38-.15.56.56,0,0,1,0-.79,29,29,0,0,0,0-40.06.55.55,0,0,1,0-.78.54.54,0,0,1,.78,0,30.12,30.12,0,0,1,0,41.59A.56.56,0,0,1,470.91,554.23Z" transform="translate(-414.47 -497.75)"/><path class="cls-2" d="M468.94,552.35a.55.55,0,0,1-.4-.93,26.3,26.3,0,0,0,0-36.31.56.56,0,0,1,0-.79.55.55,0,0,1,.78,0,27.4,27.4,0,0,1,0,37.84A.52.52,0,0,1,468.94,552.35Z" transform="translate(-414.47 -497.75)"/><path class="cls-2" d="M428,554.23a.58.58,0,0,1-.41-.17,30.15,30.15,0,0,1,0-41.59.56.56,0,0,1,.81.76,29,29,0,0,0,0,40.06.56.56,0,0,1,0,.79A.57.57,0,0,1,428,554.23Z" transform="translate(-414.47 -497.75)"/><path class="cls-2" d="M430,552.35a.52.52,0,0,1-.4-.17,27.4,27.4,0,0,1,0-37.84.55.55,0,0,1,.78,0,.56.56,0,0,1,0,.79,26.3,26.3,0,0,0,0,36.31.55.55,0,0,1,0,.78A.57.57,0,0,1,430,552.35Z" transform="translate(-414.47 -497.75)"/><path class="cls-2" d="M447.55,532.09V520.31h-6.33v-.11c.09-.77.14-1.56.19-2.38h-2.08c0,.91-.07,1.66-.16,2.4v.09h-6.33v14.08h2V522.2h4l0,.13a5.72,5.72,0,0,1-3.38,3.45,5.46,5.46,0,0,1,1.13,1.45,7.58,7.58,0,0,0,3.44-2.79l.05-.08.08,0a28.18,28.18,0,0,1,3.58,2.66l1.32-1.49a30.81,30.81,0,0,0-4.19-2.8l-.07,0,0-.07a3.84,3.84,0,0,0,.11-.4l0-.07h4.79V532c0,.35-.12.47-.48.49s-1,0-1.73,0h0l0,0-.27,0a8.18,8.18,0,0,1,.57,1.92,6.91,6.91,0,0,0,3-.38C447.32,533.74,447.55,533.21,447.55,532.09Z" transform="translate(-414.47 -497.75)"/><path class="cls-2" d="M443.24,532.33l.05,0,1.48-1.39a33.88,33.88,0,0,0-3.84-3l-.06,0,0-.07a12.48,12.48,0,0,0,.45-1.72h-2a5.8,5.8,0,0,1-4,4.82,5.67,5.67,0,0,1,1.1,1.45,8,8,0,0,0,3.55-2.75l.06-.09.08.07A30.09,30.09,0,0,1,443.24,532.33Z" transform="translate(-414.47 -497.75)"/><path class="cls-2" d="M464.48,522.56v-4.25H453v4.25Zm-9.63-3.33h7.67V520h-7.67Zm0,1.64h7.67v.79h-7.67Z" transform="translate(-414.47 -497.75)"/><rect class="cls-2" x="36.26" y="25.55" width="16.09" height="1.33"/><path class="cls-2" d="M465.24,531.74v-1.19h-5.59v-.77h5.24v-4.41H452.65v4.41h5.15v.77h-5.51v1.19h5.51v.85h-7.11v1.35h16.17v-1.35h-7.21v-.85Zm-5.59-5.44H463v.83h-3.36Zm0,1.7H463v.83h-3.36Zm-1.85.83h-3.33V528h3.33Zm0-1.7h-3.33v-.83h3.33Z" transform="translate(-414.47 -497.75)"/><path class="cls-2" d="M434.73,547.12h2.09v-6.66H435.1v-1a5.8,5.8,0,0,0,2.08-.72h1.13v8.33h1.88v1.23h-5.46Z" transform="translate(-414.47 -497.75)"/><path class="cls-2" d="M441.16,547.48a1,1,0,1,1,2,0,1,1,0,1,1-2,0Z" transform="translate(-414.47 -497.75)"/><path class="cls-2" d="M443.91,547.25l.71-1a3.07,3.07,0,0,0,2.24,1,1.87,1.87,0,0,0,1.9-2,1.78,1.78,0,0,0-1.82-2,2.56,2.56,0,0,0-1.54.54l-.73-.48.29-4.53h4.85v1.26h-3.55L446,542.5a2.88,2.88,0,0,1,4.22,2.71,3.15,3.15,0,0,1-3.22,3.31A4.22,4.22,0,0,1,443.91,547.25Z" transform="translate(-414.47 -497.75)"/><path class="cls-2" d="M456.79,537.84a20.53,20.53,0,0,1-1.29,2.79v8.74h-1.14v-6.89c-.33.44-.65.84-1,1.22a8.93,8.93,0,0,0-.65-1.21,14.61,14.61,0,0,0,3-5Zm8,4.64v1.09h-8.37v-1.09h4.91a18.46,18.46,0,0,0,.94-2.51l1.14.3c-.29.74-.62,1.57-.95,2.21Zm-.42-2.54h-7.45v-1.06h3.18a10.64,10.64,0,0,0-.37-1.37l1.13-.19a11.33,11.33,0,0,1,.46,1.56h3Zm-6.89,4.62h6.22v4.76h-1.19v-.46H458.6v.51h-1.15Zm1-2.09a8.51,8.51,0,0,0-.71-2.14l1-.31a9.09,9.09,0,0,1,.77,2.11Zm.13,3.17v2.16h3.88v-2.16Z" transform="translate(-414.47 -497.75)"/></svg>