<svg id="圖層_1" data-name="圖層 1" xmlns="http://www.w3.org/2000/svg" viewBox="0 0 70 70"><defs><style>.cls-1{fill:#ffc522;}</style></defs><title>經典越式河粉米食_總量1,5倍icon</title><circle class="cls-1" cx="35" cy="35" r="35"/><path d="M423.8,511.27a1.49,1.49,0,0,0-.64-.1,1.41,1.41,0,0,0-.61.18,1.06,1.06,0,0,0-.26.17.87.87,0,0,0-.2.23.66.66,0,0,0-.09.27.56.56,0,0,0,.08.32.53.53,0,0,0,.19.2.67.67,0,0,0,.27.07,2.12,2.12,0,0,0,.34,0l.42-.08.71-.12a2.49,2.49,0,0,1,.72,0,1.85,1.85,0,0,1,.68.24,1.54,1.54,0,0,1,.55.6,2,2,0,0,1,.29.93,1.83,1.83,0,0,1-.16.84,2.19,2.19,0,0,1-.49.72,3.63,3.63,0,0,1-.73.56,3.87,3.87,0,0,1-1.28.43,2.74,2.74,0,0,1-1.25-.08l.38-1.38a1.89,1.89,0,0,0,.77.12,1.68,1.68,0,0,0,.76-.2,1.35,1.35,0,0,0,.27-.2.72.72,0,0,0,.19-.24.53.53,0,0,0,.07-.28.84.84,0,0,0-.1-.32.49.49,0,0,0-.23-.22.8.8,0,0,0-.33-.08,2.77,2.77,0,0,0-.46,0l-.58.11-.63.09a1.88,1.88,0,0,1-.63,0,1.65,1.65,0,0,1-.57-.27,1.73,1.73,0,0,1-.48-.57,1.76,1.76,0,0,1-.25-.9,1.8,1.8,0,0,1,.19-.82,2.46,2.46,0,0,1,.52-.69,3.76,3.76,0,0,1,.72-.54,3.58,3.58,0,0,1,1.06-.36,2.78,2.78,0,0,1,1.15,0Z" transform="translate(-401.47 -501.75)"/><path d="M432.65,511.87a2.33,2.33,0,0,1-.34.92,2.46,2.46,0,0,1-.71.73,3.19,3.19,0,0,1-1,.46,3.08,3.08,0,0,1-1.15.1,2.57,2.57,0,0,1-1-.3,2.22,2.22,0,0,1-.72-.65,2.84,2.84,0,0,1-.45-1l-1-3.85,1.49-.38,1,3.72a2.11,2.11,0,0,0,.19.46,1.55,1.55,0,0,0,.31.36,1,1,0,0,0,.43.19,1.41,1.41,0,0,0,1.07-.28A.94.94,0,0,0,431,512a1.22,1.22,0,0,0,.09-.46,1.38,1.38,0,0,0-.06-.49l-1-3.73,1.5-.38,1,3.84A2.83,2.83,0,0,1,432.65,511.87Z" transform="translate(-401.47 -501.75)"/><path d="M439.46,508.7a2.07,2.07,0,0,1-.22.94,1.82,1.82,0,0,1-.57.6,2.39,2.39,0,0,1-.82.33,3.74,3.74,0,0,1-1,.09h-.77l0,2.4-1.54,0,.11-6.37,2.34,0a3.79,3.79,0,0,1,1,.12,2.18,2.18,0,0,1,.79.34,1.71,1.71,0,0,1,.52.61A2.14,2.14,0,0,1,439.46,508.7Zm-1.54,0a.7.7,0,0,0-.09-.37.63.63,0,0,0-.23-.23,1.3,1.3,0,0,0-.35-.11,2.6,2.6,0,0,0-.4,0h-.67l0,1.5h.65a2.73,2.73,0,0,0,.41,0,1,1,0,0,0,.36-.12.64.64,0,0,0,.25-.24A.67.67,0,0,0,437.92,508.68Z" transform="translate(-401.47 -501.75)"/><path d="M440.3,513.28l1.55-6.18,4.16,1-.32,1.25-2.71-.68-.3,1.17,2.57.65-.3,1.19-2.57-.65-.32,1.29,2.87.72-.32,1.28Z" transform="translate(-401.47 -501.75)"/><path d="M448.73,516.43v-2.88l-.46-.25-1.21,2.23-1.32-.72,3-5.6,2.14,1.15a4.4,4.4,0,0,1,.74.51,2.24,2.24,0,0,1,.54.66,1.62,1.62,0,0,1,.2.78,1.84,1.84,0,0,1-.25.91,1.71,1.71,0,0,1-.83.79,1.85,1.85,0,0,1-1.15.09l.16,3.19Zm2-3.91a.67.67,0,0,0,.09-.37.64.64,0,0,0-.11-.3,1,1,0,0,0-.25-.25,2.61,2.61,0,0,0-.3-.2l-.72-.39-.71,1.31.64.34a1.65,1.65,0,0,0,.36.16,1.3,1.3,0,0,0,.37.08.85.85,0,0,0,.35-.08A.74.74,0,0,0,450.78,512.52Z" transform="translate(-401.47 -501.75)"/><path d="M429.54,561.09a1.57,1.57,0,0,0-.41-.6,1.61,1.61,0,0,0-.6-.37l-.34-.08a.89.89,0,0,0-.33,0,.81.81,0,0,0-.3.13.65.65,0,0,0-.19.3.48.48,0,0,0,0,.31.7.7,0,0,0,.14.27,1.79,1.79,0,0,0,.28.26l.38.29.63.48a2.84,2.84,0,0,1,.56.59,2.09,2.09,0,0,1,.32.73,1.68,1.68,0,0,1-.08.9,2.22,2.22,0,0,1-.54.94,2.19,2.19,0,0,1-.8.51,2.54,2.54,0,0,1-1,.14,3.45,3.45,0,0,1-1-.18A4.09,4.09,0,0,1,425,565a3.15,3.15,0,0,1-.89-1.09l1.42-.74a2.2,2.2,0,0,0,.48.73,2,2,0,0,0,.74.46,1.53,1.53,0,0,0,.37.08,1,1,0,0,0,.34,0,.63.63,0,0,0,.27-.16.69.69,0,0,0,.19-.32.53.53,0,0,0,0-.35.94.94,0,0,0-.19-.33,3.18,3.18,0,0,0-.37-.35l-.54-.38a5.83,5.83,0,0,1-.55-.46,2.22,2.22,0,0,1-.43-.54,1.81,1.81,0,0,1-.11-1.49,2,2,0,0,1,.54-.89,2.05,2.05,0,0,1,.81-.46,2.81,2.81,0,0,1,1-.11,4.59,4.59,0,0,1,1,.19,3.57,3.57,0,0,1,1.1.59,3.2,3.2,0,0,1,.84,1Z" transform="translate(-401.47 -501.75)"/><path d="M431.46,566.81l.9-7,1.71.22-.9,7Z" transform="translate(-401.47 -501.75)"/><path d="M435.76,567.29l-.1-1.48,3.1-4.36-3.28.21-.09-1.44,5.42-.34.09,1.37-3.18,4.44,3.51-.23.1,1.48Z" transform="translate(-401.47 -501.75)"/><path d="M444.24,566.33l-2.18-6.74,4.53-1.47.44,1.37-3,1,.42,1.28,2.79-.91.43,1.3-2.8.91.45,1.4,3.13-1,.45,1.38Z" transform="translate(-401.47 -501.75)"/><path d="M457.91,558.23a.55.55,0,0,1-.38-.15.56.56,0,0,1,0-.79,29,29,0,0,0,0-40.06.55.55,0,0,1,0-.78.54.54,0,0,1,.78,0,30.12,30.12,0,0,1,0,41.59A.56.56,0,0,1,457.91,558.23Z" transform="translate(-401.47 -501.75)"/><path d="M455.94,556.35a.55.55,0,0,1-.4-.93,26.3,26.3,0,0,0,0-36.31.56.56,0,0,1,0-.79.55.55,0,0,1,.78,0,27.4,27.4,0,0,1,0,37.84A.52.52,0,0,1,455.94,556.35Z" transform="translate(-401.47 -501.75)"/><path d="M415,558.23a.54.54,0,0,1-.4-.17,30.12,30.12,0,0,1,0-41.59.54.54,0,0,1,.78,0,.55.55,0,0,1,0,.78,29,29,0,0,0,0,40.06.56.56,0,0,1,0,.79A.57.57,0,0,1,415,558.23Z" transform="translate(-401.47 -501.75)"/><path d="M417,556.35a.52.52,0,0,1-.4-.17,27.4,27.4,0,0,1,0-37.84.55.55,0,0,1,.78,0,.56.56,0,0,1,0,.79,26.3,26.3,0,0,0,0,36.31.55.55,0,0,1,0,.78A.57.57,0,0,1,417,556.35Z" transform="translate(-401.47 -501.75)"/><path d="M432.08,534.79c-.23-.46-.63-1.09-1-1.7l-.54-.87h0l-1.21.57c.37.6,1.12,1.85,1.49,2.64l.8-.41h0l.27-.13h0Z" transform="translate(-401.47 -501.75)"/><path d="M418.59,527.07c.18.46.43,1.17.55,1.58a8.54,8.54,0,0,1,2-.36l.21,0-.12.18a16.32,16.32,0,0,1-1.16,1.61,3.61,3.61,0,0,1-1.32,1.23,15.88,15.88,0,0,1,.55,1.52,23.22,23.22,0,0,1,4.35-1l.1,0,.07.32c0,.2.08.4.11.58l1.32-.44a24,24,0,0,0-1-3.3l-1.23.36c.11.31.23.69.33,1.07l0,.11-2.18.39.17-.21a33.08,33.08,0,0,0,3.6-5.39l-1.51-.82c-.36.82-.81,1.64-1.2,2.36l0,0-1.52.11.12-.18a22.51,22.51,0,0,0,2.38-4.29l-1.66-.7a21.55,21.55,0,0,1-2,4.34A2.59,2.59,0,0,1,418.59,527.07Z" transform="translate(-401.47 -501.75)"/><path d="M424.87,535.79h0a25.06,25.06,0,0,0-.64-2.7l-1.16.34a24.19,24.19,0,0,1,.59,2.74Z" transform="translate(-401.47 -501.75)"/><path d="M431.86,535.19c-.05,1.22-.16,1.56-.7,1.56h-1.59c-.55,0-.71-.08-.71-.6v-2.78H427.3v2.79c0,1.39.3,1.89,2,1.89h2c1.25,0,1.66-.51,1.83-2.35A5.91,5.91,0,0,1,431.86,535.19Z" transform="translate(-401.47 -501.75)"/><path d="M423,537.06c-.07-.92-.23-2.33-.45-3.56l-1.21.29a29.93,29.93,0,0,1,.4,3.58Z" transform="translate(-401.47 -501.75)"/><path d="M427,533.78l-1.28-.44a17,17,0,0,1-.64,2.39l-.07.18a8.24,8.24,0,0,1-.51,1.18l1.33.64A20.28,20.28,0,0,0,427,533.78Z" transform="translate(-401.47 -501.75)"/><path d="M428.17,528.41a9.45,9.45,0,0,0,1.21-.86l.07,0,.06.06a3.52,3.52,0,0,1,.45.48l.06.07-.07.06A11,11,0,0,1,428,529.5a3.32,3.32,0,0,1,.63.77,12.24,12.24,0,0,0,1.91-1.31l.08-.07.07.08a12.65,12.65,0,0,1,.83,1.18l1-.69c-.23-.38-.55-.81-1-1.34l0-.06,0-.06a9,9,0,0,0,1-1.38l.06-.1-1.06-.18a6.94,6.94,0,0,1-.68.91l-.07.08-.07-.08c-.15-.14-.3-.31-.44-.47l-.06-.07.06-.06a8.43,8.43,0,0,0,.89-1.22l-1.07-.19a5.34,5.34,0,0,1-.52.71l-.06.08-.08-.07-.64-.58-.89.55c.23.22.49.47.75.75l.07.08-.07.06a7.52,7.52,0,0,1-1.15.81h0l0,0A4.38,4.38,0,0,1,428.17,528.41Z" transform="translate(-401.47 -501.75)"/><path d="M434,537.41l1.31-.58c-.32-1-.89-2.38-1.43-3.63l-1.24.5.21.52c.17.45.36.91.52,1.37C433.64,536.22,433.86,536.86,434,537.41Z" transform="translate(-401.47 -501.75)"/><path d="M420,538a19.33,19.33,0,0,0,.85-4.11l-1.3-.22a14.75,14.75,0,0,1-.81,3.9A12.29,12.29,0,0,1,420,538Z" transform="translate(-401.47 -501.75)"/><path d="M428.46,523.43h-2.71v8.64h8.75v-8.64h-4.33l.07-.15c.07-.14.15-.28.23-.42l.47-.91-1.95-.31a13.37,13.37,0,0,1-.51,1.72Zm4.29,1.49v5.62h-5.36v-5.62Z" transform="translate(-401.47 -501.75)"/><path d="M451.7,526.56v-4.25H440.19v4.25Zm-9.64-3.33h7.68V524h-7.68Zm0,1.64h7.68v.79h-7.68Z" transform="translate(-401.47 -501.75)"/><rect x="36.47" y="25.55" width="16.09" height="1.33"/><path d="M452.45,535.74v-1.19h-5.58v-.77h5.24v-4.41H439.87v4.41H445v.77h-5.51v1.19H445v.85h-7.11v1.35h16.16v-1.35h-7.2v-.85Zm-5.58-5.44h3.35v.83h-3.35Zm0,1.7h3.35v.83h-3.35Zm-1.85.83h-3.34V532H445Zm0-1.7h-3.34v-.83H445Z" transform="translate(-401.47 -501.75)"/><path d="M421.73,551.12h2.09v-6.66H422.1v-1a5.8,5.8,0,0,0,2.08-.72h1.13v8.33h1.88v1.23h-5.46Z" transform="translate(-401.47 -501.75)"/><path d="M428.16,551.48a1,1,0,1,1,2,0,1,1,0,1,1-2,0Z" transform="translate(-401.47 -501.75)"/><path d="M430.91,551.25l.71-1a3.07,3.07,0,0,0,2.24,1,1.87,1.87,0,0,0,1.9-2,1.78,1.78,0,0,0-1.82-2,2.53,2.53,0,0,0-1.54.54l-.73-.48.29-4.53h4.85v1.26h-3.55L433,546.5a2.88,2.88,0,0,1,4.22,2.71,3.15,3.15,0,0,1-3.22,3.31A4.22,4.22,0,0,1,430.91,551.25Z" transform="translate(-401.47 -501.75)"/><path d="M443.79,541.84a20.53,20.53,0,0,1-1.29,2.79v8.74h-1.14v-6.89c-.33.44-.65.84-1,1.22a8.93,8.93,0,0,0-.65-1.21,14.61,14.61,0,0,0,3-5Zm8,4.64v1.09h-8.37v-1.09h4.91a18.46,18.46,0,0,0,.94-2.51l1.14.3c-.29.74-.62,1.57-.95,2.21Zm-.42-2.54h-7.45v-1.06h3.18a10.64,10.64,0,0,0-.37-1.37l1.13-.19a11.33,11.33,0,0,1,.46,1.56h3Zm-6.89,4.62h6.22v4.76h-1.19v-.46H445.6v.51h-1.15Zm1-2.09a8.51,8.51,0,0,0-.71-2.14l1-.31a9.09,9.09,0,0,1,.77,2.11Zm.13,3.17v2.16h3.88v-2.16Z" transform="translate(-401.47 -501.75)"/></svg>