<svg id="圖層_1" data-name="圖層 1" xmlns="http://www.w3.org/2000/svg" viewBox="0 0 999 76.78"><defs><style>.cls-1{fill:#1b1464;}</style></defs><title>經典越式河粉米食_酸辣療癒系</title><path class="cls-1" d="M579.51,428.71a4.62,4.62,0,0,1-1.49-.65c-.34-.23-.5-.45-.5-.68a1.36,1.36,0,0,1,.2-.65,3.18,3.18,0,0,1,.46-.67.72.72,0,0,1,.45-.28,1.71,1.71,0,0,1,.51.21,9.35,9.35,0,0,0,1,.45,3.31,3.31,0,0,0,1.1.16,2.37,2.37,0,0,0,1.2-.28,1,1,0,0,0,.49-1,1.07,1.07,0,0,0-.46-.91,7.12,7.12,0,0,0-1.48-.74l-.83-.36a5,5,0,0,1-1.78-1.34,3.52,3.52,0,0,1-.65-2.28,3.33,3.33,0,0,1,.6-2,3.53,3.53,0,0,1,1.58-1.21,5.55,5.55,0,0,1,2.09-.39,7.08,7.08,0,0,1,1.66.19,3.52,3.52,0,0,1,1.18.5.76.76,0,0,1,.39.57,1.61,1.61,0,0,1-.16.63,2.81,2.81,0,0,1-.39.66c-.16.19-.3.28-.43.28a.85.85,0,0,1-.3-.09l-.35-.15a4.43,4.43,0,0,0-1.35-.21,2.06,2.06,0,0,0-1.31.31.9.9,0,0,0-.37.7,1.16,1.16,0,0,0,.26.77,1.86,1.86,0,0,0,.61.5c.24.12.59.29,1.06.49a13.75,13.75,0,0,1,1.67.82,3.54,3.54,0,0,1,1.13,1.12,3.29,3.29,0,0,1,.47,1.86,4,4,0,0,1-.58,2.27,3.34,3.34,0,0,1-1.5,1.27,4.87,4.87,0,0,1-2,.4A8.76,8.76,0,0,1,579.51,428.71Z" transform="translate(-112.74 -415.6)"/><path class="cls-1" d="M589.33,427.69a5,5,0,0,1-1.16-3.52,5.17,5.17,0,0,1,1.16-3.72,4.26,4.26,0,0,1,3.21-1.19,3.39,3.39,0,0,1,3,1.3,5.53,5.53,0,0,1,.94,3.34,1.17,1.17,0,0,1-.37.64c-.24.28-.43.42-.55.42h-4.59a2,2,0,0,0,.62,1.46,2.18,2.18,0,0,0,1.45.44,3.26,3.26,0,0,0,.92-.12,9,9,0,0,0,.87-.3,1.22,1.22,0,0,1,.39-.14.58.58,0,0,1,.41.26,2.36,2.36,0,0,1,.37.59,1.29,1.29,0,0,1,.16.51c0,.28-.19.52-.56.72a5.06,5.06,0,0,1-1.33.44,8.14,8.14,0,0,1-1.35.14A4.54,4.54,0,0,1,589.33,427.69Zm4.51-4.51a2.43,2.43,0,0,0-.32-1.32,1.1,1.1,0,0,0-1-.5c-.88,0-1.42.61-1.62,1.82Z" transform="translate(-112.74 -415.6)"/><path class="cls-1" d="M599.28,428.28v-5.71c0-.53,0-.93,0-1.21s-.07-.6-.12-.95a2.47,2.47,0,0,1,0-.38c0-.19.24-.33.73-.43a7.11,7.11,0,0,1,1.28-.14.46.46,0,0,1,.45.24,1.86,1.86,0,0,1,.19.53c0,.19.07.33.08.4a3.17,3.17,0,0,1,.81-1,1.75,1.75,0,0,1,1.16-.37.94.94,0,0,1,.8.3,1.06,1.06,0,0,1,.22.67,3.53,3.53,0,0,1-.16.95c-.11.37-.24.56-.4.56a1.56,1.56,0,0,1-.37-.07,1.78,1.78,0,0,0-.47-.07,1.37,1.37,0,0,0-.86.28,2.26,2.26,0,0,0-.58.62v5.78q0,.57-1.08.57h-.51Q599.28,428.85,599.28,428.28Z" transform="translate(-112.74 -415.6)"/><path class="cls-1" d="M607.12,417.55v-1.28c0-.44.44-.67,1.33-.67s1.33.23,1.33.67v1.28c0,.46-.44.68-1.33.68S607.12,418,607.12,417.55Zm0,10.73v-8.34q0-.57,1.08-.57h.5q1.08,0,1.08.57v8.34q0,.57-1.08.57h-.5Q607.12,428.85,607.12,428.28Z" transform="translate(-112.74 -415.6)"/><path class="cls-1" d="M613.84,427.69a5,5,0,0,1-1.16-3.52,5.17,5.17,0,0,1,1.16-3.72,4.28,4.28,0,0,1,3.22-1.19,3.38,3.38,0,0,1,2.94,1.3,5.53,5.53,0,0,1,1,3.34,1.24,1.24,0,0,1-.37.64c-.25.28-.43.42-.55.42h-4.59a2,2,0,0,0,.61,1.46,2.21,2.21,0,0,0,1.46.44,3.36,3.36,0,0,0,.92-.12c.27-.08.56-.18.86-.3a1.22,1.22,0,0,1,.39-.14.57.57,0,0,1,.41.26,2.39,2.39,0,0,1,.38.59,1.41,1.41,0,0,1,.15.51c0,.28-.19.52-.56.72a4.94,4.94,0,0,1-1.33.44,8,8,0,0,1-1.35.14A4.57,4.57,0,0,1,613.84,427.69Zm4.51-4.51a2.43,2.43,0,0,0-.32-1.32,1.09,1.09,0,0,0-1-.5c-.89,0-1.43.61-1.62,1.82Z" transform="translate(-112.74 -415.6)"/><path class="cls-1" d="M624.19,428.62c-.63-.23-.94-.52-.94-.88a1.69,1.69,0,0,1,.34-.88c.23-.34.43-.51.61-.51a1,1,0,0,1,.4.14q.38.17.69.27a2.68,2.68,0,0,0,.73.1,1.32,1.32,0,0,0,.78-.2.65.65,0,0,0,.27-.56.7.7,0,0,0-.2-.52,1.56,1.56,0,0,0-.43-.31l-.92-.36A4.18,4.18,0,0,1,624,424a2.45,2.45,0,0,1-.56-1.76,2.75,2.75,0,0,1,.88-2.17,3.47,3.47,0,0,1,2.39-.78,6.14,6.14,0,0,1,1.83.27c.58.18.87.44.87.77a2.17,2.17,0,0,1-.27.89c-.18.35-.35.54-.5.54a3.27,3.27,0,0,1-.52-.19,2.59,2.59,0,0,0-1-.19c-.64,0-1,.21-1,.63a.69.69,0,0,0,.31.61,6,6,0,0,0,1,.48l.34.15a3.11,3.11,0,0,1,.4.18,2.93,2.93,0,0,1,1.14.93,2.52,2.52,0,0,1,.43,1.55,2.85,2.85,0,0,1-.94,2.24,3.74,3.74,0,0,1-2.59.84A5.84,5.84,0,0,1,624.19,428.62Z" transform="translate(-112.74 -415.6)"/><path class="cls-1" d="M637.36,428.25a3.69,3.69,0,0,1-.16-1,.56.56,0,0,1,0-.27l4.56-5.58a2.75,2.75,0,0,0,.68-1.73,1.31,1.31,0,0,0-.47-1.08,1.85,1.85,0,0,0-1.2-.37,2.26,2.26,0,0,0-.87.15,5.46,5.46,0,0,0-.79.41.94.94,0,0,1-.45.21.88.88,0,0,1-.71-.43,1.4,1.4,0,0,1-.31-.81c0-.5.36-.91,1.09-1.21a6.54,6.54,0,0,1,2.49-.45,4.1,4.1,0,0,1,2.89,1,3.36,3.36,0,0,1,1,2.56,4.52,4.52,0,0,1-1.1,2.94l-3.38,4.17h4.16a.43.43,0,0,1,.41.22,1.32,1.32,0,0,1,.13.68v.31a1.32,1.32,0,0,1-.13.68.44.44,0,0,1-.41.22H637.7C637.58,428.82,637.47,428.63,637.36,428.25Z" transform="translate(-112.74 -415.6)"/><path class="cls-1" d="M470.77,459.46a21.37,21.37,0,0,0,2.49-2.51,3.38,3.38,0,0,0,.87-2.07,1.94,1.94,0,0,0-.42-1.19,12.39,12.39,0,0,0-1.11-1.24c-.36-.36-.69-.71-1-1a7.28,7.28,0,0,1-.76-1,4.53,4.53,0,0,1-.5-1,3.72,3.72,0,0,1-.18-1.19,6.72,6.72,0,0,1,.66-2.84,34.33,34.33,0,0,1,1.62-3.05h6q-2,3.17-2,4.9a3,3,0,0,0,.6,1.87,14.9,14.9,0,0,0,1.53,1.7,15.18,15.18,0,0,1,1.55,1.78,3.27,3.27,0,0,1,.58,1.94,6.17,6.17,0,0,1-1,2.9,17,17,0,0,1-3,3.7H469Zm8.16-19h5l-1.44,7.38h-4.77Z" transform="translate(-112.74 -415.6)"/><path class="cls-1" d="M487.69,461.09a21.7,21.7,0,0,1-1.89-3.88,9.93,9.93,0,0,1-.63-3.35,14.68,14.68,0,0,1,.8-4.62,26.21,26.21,0,0,1,2.41-5.13h4.95a37.33,37.33,0,0,0-3.36-3l7.2-1a13.82,13.82,0,0,1,3,3.81,9.19,9.19,0,0,1,1,4.17q0,5.37-5.46,13Zm4.2-1.35A36.62,36.62,0,0,0,494.2,454a17.91,17.91,0,0,0,.78-5,9.29,9.29,0,0,0-.33-2.56,6.17,6.17,0,0,0-1.11-2.12,26.45,26.45,0,0,0-2.43,10.11,17.9,17.9,0,0,0,.2,2.59A23.8,23.8,0,0,0,491.89,459.74Z" transform="translate(-112.74 -415.6)"/><path class="cls-1" d="M507.26,461.09a7.44,7.44,0,0,1-2.2-2.42,6.42,6.42,0,0,1-.68-3.05c0-.29,0-.76.08-1.41s.15-1.45.31-2.45l1.44-9.46h5.61l-2,12.07c0,.22-.07.42-.09.63s0,.4,0,.6q0,2.46,2.55,4.83l2.37-19.5h6l-3.42,20.16Z" transform="translate(-112.74 -415.6)"/><path class="cls-1" d="M524.83,443.29h5.79l-3.09,17.8h-4.86Zm4,11.67,2.88-5a11.25,11.25,0,0,0,1-2.36,6.39,6.39,0,0,0,.3-1.36,3.13,3.13,0,0,0-.69-1.89,5.55,5.55,0,0,0-2-1.59l-3.15-1.63,6.93-1.37q5,2.64,5,6,0,2.91-3.24,6.35l-2.1,2.25,3.63,6.7h-6.12Z" transform="translate(-112.74 -415.6)"/><path class="cls-1" d="M559.24,462.88a63.51,63.51,0,0,1-4.71-7.31,2.86,2.86,0,0,0-.87,2,3.58,3.58,0,0,0,.42,1.61,11.5,11.5,0,0,0,1.2,1.87h-6.39a8.35,8.35,0,0,1-1-1.88,5.6,5.6,0,0,1-.33-1.91,5.71,5.71,0,0,1,1.07-3.22,18.75,18.75,0,0,1,3.13-3.4,9.87,9.87,0,0,1-1.21-2.56,7.56,7.56,0,0,1-.38-2.09,5.56,5.56,0,0,1,1.59-3.73h3.66l-.81-1.85h6.21a7.64,7.64,0,0,1,1.14,3.9,8,8,0,0,1-1.27,4.23,24.5,24.5,0,0,1-3.77,4.5q1.5,2.61,3.18,5.05c1.12,1.63,2.32,3.22,3.6,4.75Zm-4.86-14.69a5.35,5.35,0,0,0,1.65-3.73,4.76,4.76,0,0,0-.42-1.83,4.56,4.56,0,0,0-1.86,3.37A4.65,4.65,0,0,0,554.38,448.19Z" transform="translate(-112.74 -415.6)"/><path class="cls-1" d="M573.43,459.46a21.37,21.37,0,0,0,2.49-2.51,3.38,3.38,0,0,0,.87-2.07,1.94,1.94,0,0,0-.42-1.19,12.39,12.39,0,0,0-1.11-1.24c-.36-.36-.69-.71-1-1a7.28,7.28,0,0,1-.76-1,4.53,4.53,0,0,1-.5-1,3.72,3.72,0,0,1-.18-1.19,6.72,6.72,0,0,1,.66-2.84,34.33,34.33,0,0,1,1.62-3.05h6q-2,3.17-2,4.9a3,3,0,0,0,.6,1.87,14.9,14.9,0,0,0,1.53,1.7,14.29,14.29,0,0,1,1.55,1.78,3.27,3.27,0,0,1,.58,1.94,6.17,6.17,0,0,1-1,2.9,17,17,0,0,1-3,3.7h-7.8Zm8.16-19h5l-1.44,7.38h-4.77Z" transform="translate(-112.74 -415.6)"/><path class="cls-1" d="M590,443.29h5.79l-3.09,17.8h-4.86Zm3.9,12.22a44.35,44.35,0,0,0,2.8-5.19,10,10,0,0,0,1-3.94,3.86,3.86,0,0,0-.32-1.59,4.17,4.17,0,0,0-1-1.28,8.45,8.45,0,0,0-1.63-1.16c-.66-.37-1.44-.77-2.34-1.22l6.93-1.37q1.08.66,1.89,1.26a7.29,7.29,0,0,1,1.33,1.24,4.56,4.56,0,0,1,.78,1.36,4.7,4.7,0,0,1,.26,1.57,11.53,11.53,0,0,1-1.07,4.3,50.1,50.1,0,0,1-3.13,6Z" transform="translate(-112.74 -415.6)"/><path class="cls-1" d="M607.78,441.5h6.09l-3.36,19.59h-5Z" transform="translate(-112.74 -415.6)"/><path class="cls-1" d="M620.88,461.09a20.29,20.29,0,0,1-3.61-3.95,7.18,7.18,0,0,1-1.22-4,13.51,13.51,0,0,1,1-4.85,40.66,40.66,0,0,1,3-6h5.76l.36-1.85h5.16l-1.8,10.32H624.3l1.44-7.95q-3.54,6.71-3.54,10,0,4.11,6,8.25Z" transform="translate(-112.74 -415.6)"/><path class="cls-1" d="M638.6,456.13h-4.47a9.42,9.42,0,0,1-.75-3c-.1-1.13-.15-2.4-.15-3.82,0-1.18,0-2.35.09-3.5s.16-2.31.3-3.47h5.73c-.3,2.07-.53,4-.69,5.72s-.24,3.35-.24,4.78a13.47,13.47,0,0,0,.3,3h.06L642,440.45h6.09l-5.61,20.64h-5Z" transform="translate(-112.74 -415.6)"/><path class="cls-1" d="M657.8,446.62l4.47-1.08v-.05l-5.13.14,1.14-4.5h10.86l-.69,4.12-4.62.18-1.08,5.28h4.74l-.63,3.24-4.74.33-1.23,6.81h-5.07Z" transform="translate(-112.74 -415.6)"/><path class="cls-1" d="M672.72,441.13h5.94l-2.82,16.5,4.92.09-.6,3.37h-9.84Z" transform="translate(-112.74 -415.6)"/><path class="cls-1" d="M686.48,442.3h5.79l-3.12,11.89h2.55l.66-13.74h6.06l-1.92,20.64h-5.19l.27-4.45-3.15.46-1,4h-4.56Z" transform="translate(-112.74 -415.6)"/><path class="cls-1" d="M702.68,442.3h5.85l-1.14,17.77,4.26-19.62h5.79l-5.55,20.64h-9.21Z" transform="translate(-112.74 -415.6)"/><path class="cls-1" d="M721.3,461.09a21.7,21.7,0,0,1-1.89-3.88,9.93,9.93,0,0,1-.63-3.35,15,15,0,0,1,.79-4.62,26.29,26.29,0,0,1,2.42-5.13h5a37.33,37.33,0,0,0-3.36-3l7.2-1a13.58,13.58,0,0,1,3,3.81,9.07,9.07,0,0,1,1,4.17q0,5.37-5.46,13Zm4.2-1.35a36.62,36.62,0,0,0,2.31-5.79,17.91,17.91,0,0,0,.78-5,9.29,9.29,0,0,0-.33-2.56,6.17,6.17,0,0,0-1.11-2.12,26.45,26.45,0,0,0-2.43,10.11,16.59,16.59,0,0,0,.2,2.59A23.8,23.8,0,0,0,725.5,459.74Z" transform="translate(-112.74 -415.6)"/><path class="cls-1" d="M739.67,443.29h5.79l-3.09,17.8h-4.86Zm4,11.67,2.88-5a11.25,11.25,0,0,0,1-2.36,6.39,6.39,0,0,0,.3-1.36,3.13,3.13,0,0,0-.69-1.89,5.55,5.55,0,0,0-2-1.59l-3.15-1.63,6.93-1.37q5,2.64,5,6,0,2.91-3.24,6.35l-2.1,2.25,3.63,6.7h-6.12Z" transform="translate(-112.74 -415.6)"/><path class="cls-1" d="M566.66,482.6a13.92,13.92,0,0,1-3.29,5.66,13.88,13.88,0,0,0,4.29,1.56A12.39,12.39,0,0,0,566,492.2a14.16,14.16,0,0,1-4.8-2.21,16.65,16.65,0,0,1-4.8,2.23,11.19,11.19,0,0,0-1.22-1.94v1.6H553v-1.19h-5.28v1.53h-2.09v-16.7h2.43v-2.36h-2.76v-2.37h10v2.37h-2.55v2.36h2.43v4.15A3.54,3.54,0,0,0,558,476.5a6.36,6.36,0,0,0-1.71.34,19.67,19.67,0,0,0-.86-2.45,3,3,0,0,0,1.32-.89,20.91,20.91,0,0,0,2.88-3.79l2.73.76a27.82,27.82,0,0,1-3,3.63l4-.22c-.39-.55-.77-1.1-1.13-1.56l2-1.05c1,1.34,2.54,3.19,3.26,4.32l-2.18,1.25c-.12-.27-.32-.56-.51-.89L564,476v1.82c0,.56,0,.75.38.75h1.44a6,6,0,0,0,1.34-.15c0,.6.1,1.59.17,2.16a4.9,4.9,0,0,1-1.44.17H564.3c-2.23,0-2.71-.81-2.71-2.95v-1.63l-1.1.09c-.27,2.52-1.08,4.3-4,5.4a6.09,6.09,0,0,0-1.29-1.84V490a14.81,14.81,0,0,0,4-1.7c-.38-.41-.72-.82-1.06-1.25a7.88,7.88,0,0,1-1.08.91,12,12,0,0,0-1.77-1.8,7.89,7.89,0,0,0,1.51-1.27,19.41,19.41,0,0,1-.89-2.14l2-1c.12.33.27.69.41,1a11.68,11.68,0,0,0,1.06-2.57l2.44.5a10.68,10.68,0,0,1-.43,1.28h3l.48-.12ZM553,488.48v-5.69h-.86c-1,0-1.35-.31-1.35-1.71v-3.21H550v1.77a6.07,6.07,0,0,1-1.34,4.18,4,4,0,0,0-.89-.77v5.43Zm-5.28-10.61v4.92a4.7,4.7,0,0,0,.94-3.17v-1.75Zm.67,6.89h3.87v2.16h-3.87Zm1.52-9.24h1v-2.36h-1Zm3.09,2.35h-.91v3.19c0,.31,0,.34.22.34h.38c.19,0,.26,0,.31,0Zm7.4,6.33c-.2.34-.39.65-.6,1a10.91,10.91,0,0,0,1.44,1.56,10.13,10.13,0,0,0,1.92-2.52Z" transform="translate(-112.74 -415.6)"/><path class="cls-1" d="M579.55,486a8.5,8.5,0,0,1-3.91,6.43,11,11,0,0,0-1.82-1.94,5.7,5.7,0,0,0,3-4.49H574V483.6h2.9v-1.82h-3.57v-2.35h2.45a23.4,23.4,0,0,0-1.44-3.7l1.51-.62H573.7v-2.33h3.79a20.52,20.52,0,0,0-1.29-2.16l2.3-1a19.8,19.8,0,0,1,1.68,2.66l-1,.46h3.48v2.33h-6.19a24.56,24.56,0,0,1,1.48,3.52l-1.84.8h2.35a29.53,29.53,0,0,0,1.49-4.32l2.52.57c-.56,1.25-1.15,2.62-1.73,3.75H583v2.35h-3.31v1.82h2.86V486Zm11.65-2.38a16.17,16.17,0,0,0,4.82,5.47,12,12,0,0,0-1.92,2.14,18.49,18.49,0,0,1-3.74-4.68v5.78h-2.74v-5.47a18.33,18.33,0,0,1-4.83,4.66,10.85,10.85,0,0,0-1.87-2.14,16.52,16.52,0,0,0,6-5.76h-3.44v-7.06h4.18v-1.58h-4.54v-2.47h4.54v-2.59h2.74v2.59h5v2.47h-5v1.58h4.34v7.06Zm-5.26-2.16h1.68v-2.74h-1.68Zm4.42-2.74v2.74h1.7v-2.74Z" transform="translate(-112.74 -415.6)"/><path class="cls-1" d="M623.32,479a16.09,16.09,0,0,1-1.63,1.36,10.3,10.3,0,0,0,2.28,1.13,8.17,8.17,0,0,0-1.66,2,10.22,10.22,0,0,1-1.29-.7v3.94h-4.2v3.07c0,1.18-.22,1.75-1.11,2.14a8.75,8.75,0,0,1-3.34.36,11.35,11.35,0,0,0-.88-2.28c.88,0,1.87,0,2.18,0s.38-.1.38-.34v-3H610v-4a13.54,13.54,0,0,1-1.43.86,6.18,6.18,0,0,0-1.33-1.56c-.24,3.48-1.08,7.54-3.5,10.2a9.8,9.8,0,0,0-2-1.89,11.58,11.58,0,0,0,2.64-6.22c-.86.53-1.7,1-2.54,1.49l-.79-2.57c.93-.38,2.23-1,3.6-1.73,0-.62,0-1.25,0-1.85v-.81l-2.11,1a49.31,49.31,0,0,0-1.32-4.83l2.11-.84c.46,1.35,1,3.08,1.32,4.25v-6.46h8c-.17-.5-.34-1-.48-1.43l2.9-.58c.24.62.48,1.34.7,2h7.85v2.41h-9l1.68.21c-.14.46-.31.87-.48,1.3h7.61v2.13h-1.63Zm-11,8.78a28.28,28.28,0,0,1-3.52,4,16.39,16.39,0,0,0-2.16-1.61,16.41,16.41,0,0,0,3.14-3.26Zm-5.08-8.26c0,.65,0,1.35,0,2.07a13.88,13.88,0,0,0,2.06-1.25c-.45-.38-1-.79-1.41-1.1l1.44-1.28c.45.29,1,.67,1.48,1a9.8,9.8,0,0,0,1-1.16h-3.67v-2.13h4.94c.19-.51.38-1,.53-1.51h-6.31Zm11.23,2.16h-6.17v.89h6.17Zm0,2.48h-6.17v.91h6.17Zm-3.77-6.32a16,16,0,0,1-1.56,2.16h4.63a13.21,13.21,0,0,1-1.46-2.16Zm5.16,9c1.08,1.1,2.62,2.66,3.41,3.65l-2.21,1.34c-.72-1-2.16-2.62-3.26-3.79Zm-1-9a9.56,9.56,0,0,0,1.27,1.37c.51-.45,1.06-1,1.42-1.37Z" transform="translate(-112.74 -415.6)"/><path class="cls-1" d="M644.93,475a29.3,29.3,0,0,0,6.79,2,7,7,0,0,0-1.49,1.95,36.07,36.07,0,0,1-3.79-1.28v1h-6.29v-.82a33.89,33.89,0,0,1-3.57,1.27,8.53,8.53,0,0,0-1.18-1.58v2c0,3.82-.5,9.41-3.58,12.75a10,10,0,0,0-2-1.88,11.76,11.76,0,0,0,2.64-6.26c-.87.53-1.71,1-2.55,1.53l-.79-2.56c.94-.41,2.23-1.06,3.6-1.73,0-.65,0-1.27,0-1.85v-.84l-2.11,1a20,20,0,0,0-1.29-4.82l2-.86a20.21,20.21,0,0,1,1.36,4.2v-6.39h8.29c-.15-.58-.34-1.15-.51-1.63l2.88-.55c.27.67.55,1.46.77,2.18h7.27v2.4h-7.29l1,.48Zm-10.54,15.63a10.67,10.67,0,0,0,2.07-3.43l2.13.93a13.18,13.18,0,0,1-2,3.7Zm1-13.44a22.28,22.28,0,0,0,7.13-2.91H635.4Zm7.66,7.72c0,.82-.15,1.13-.7,1.37a5.71,5.71,0,0,1-2.25.24,4.71,4.71,0,0,0-.49-1.39c.49,0,1,0,1.16,0s.24,0,.24-.24v-.48h-2.55a4,4,0,0,1-1.27,2.28,8.83,8.83,0,0,0-1.68-1.34,3.22,3.22,0,0,0,1.1-2.88v-3.12h6.44Zm-2-1.68v-.67h-2.38c0,.22,0,.46,0,.67Zm-2.38-2.47v.6H641v-.6Zm6.24,9.36c.63,0,.77-.19.84-1.44a6.49,6.49,0,0,0,2,.7c-.24,2-.84,2.57-2.57,2.57h-3.19c-2.43,0-3-.56-3-2.4v-2.28h2.33v2.25c0,.55.14.6,1,.6Zm.43-12.91c-.62-.29-1.27-.62-2-1-.56.36-1.11.7-1.71,1ZM643.44,486a20.49,20.49,0,0,1,2.31,2.2l-1.85,1.25a17.4,17.4,0,0,0-2.26-2.33Zm.6-6.53h2v4.65h-2Zm5.74,5.13c0,1-.15,1.47-.84,1.78a7.09,7.09,0,0,1-2.81.31,6.83,6.83,0,0,0-.7-1.85,16.8,16.8,0,0,0,1.78,0c.24,0,.31-.07.31-.28v-5.33h2.26Zm-.91,2.5a22.82,22.82,0,0,1,2.42,3.7l-2.16,1a21.61,21.61,0,0,0-2.3-3.8Z" transform="translate(-112.74 -415.6)"/><path class="cls-1" d="M665,486.39a26,26,0,0,1-5.28,5,25.49,25.49,0,0,0-2.5-1.88,16.77,16.77,0,0,0,4.88-4.12Zm4.8-1.92v4.75c0,1.42-.29,2.14-1.34,2.59a11.31,11.31,0,0,1-4.16.46,10.42,10.42,0,0,0-1-2.79c1.23,0,2.69,0,3.1,0s.53-.09.53-.38v-4.44c-5.45.43-6.53.6-7.37.91a20.49,20.49,0,0,0-.84-2.57,11.1,11.1,0,0,0,3.33-1.22,34.46,34.46,0,0,0,3.8-2c-3.84.26-4.66.38-5.21.62-.15-.55-.55-1.9-.84-2.64a6.25,6.25,0,0,0,2-.79,26.8,26.8,0,0,0,3.84-2.43c-2.3.46-4.63.82-6.84,1.11a8.88,8.88,0,0,0-.79-2.43c5.52-.74,11.57-2,15.24-3.55l2.11,2.26a45.16,45.16,0,0,1-6.88,2l1.29.84a42.28,42.28,0,0,1-4.08,2.69l4.15-.21c.89-.63,1.73-1.25,2.55-1.93l2.11,1.9a50.73,50.73,0,0,1-8.11,4.95l6.77-.46c-.51-.6-1-1.18-1.54-1.7l2.38-1.2a45.78,45.78,0,0,1,4.68,5.4l-2.43,1.46a20,20,0,0,0-1.22-1.68Zm3.6.57a31.8,31.8,0,0,1,5.38,4.4l-2.52,1.68a32.43,32.43,0,0,0-5.19-4.56Z" transform="translate(-112.74 -415.6)"/><path class="cls-1" d="M1109.74,454.79a2,2,0,0,1-.77-.15,2.16,2.16,0,0,1-.65-.43,2,2,0,0,1-.58-1.42,2.56,2.56,0,0,1,0-.39,2.29,2.29,0,0,1,.12-.37,2.31,2.31,0,0,1,.18-.35,2.48,2.48,0,0,1,.25-.3,2.34,2.34,0,0,1,.3-.25,2.31,2.31,0,0,1,.35-.18,2.65,2.65,0,0,1,.37-.12,2,2,0,0,1,1.81.55,2.48,2.48,0,0,1,.25.3,2.31,2.31,0,0,1,.18.35,2.29,2.29,0,0,1,.12.37,2,2,0,0,1,0,.79,2.65,2.65,0,0,1-.12.37,2.21,2.21,0,0,1-.18.34,2.42,2.42,0,0,1-.25.31,2.16,2.16,0,0,1-.65.43A2,2,0,0,1,1109.74,454.79Z" transform="translate(-112.74 -415.6)"/><path class="cls-1" d="M1097.48,452.79a2,2,0,0,1,2-2h0a2,2,0,0,1,2,2h0a2,2,0,0,1-2,2h0A2,2,0,0,1,1097.48,452.79Z" transform="translate(-112.74 -415.6)"/><path class="cls-1" d="M1087.22,452.79a2,2,0,0,1,2-2h0a2,2,0,0,1,2,2h0a2,2,0,0,1-2,2h0A2,2,0,0,1,1087.22,452.79Zm-10.26,0a2,2,0,0,1,2-2h0a2,2,0,0,1,2,2h0a2,2,0,0,1-2,2h0A2,2,0,0,1,1077,452.79Zm-10.25,0a2,2,0,0,1,2-2h0a2,2,0,0,1,2,2h0a2,2,0,0,1-2,2h0A2,2,0,0,1,1066.71,452.79Zm-10.26,0a2,2,0,0,1,2-2h0a2,2,0,0,1,2,2h0a2,2,0,0,1-2,2h0A2,2,0,0,1,1056.45,452.79Zm-10.26,0a2,2,0,0,1,2-2h0a2,2,0,0,1,2,2h0a2,2,0,0,1-2,2h0A2,2,0,0,1,1046.19,452.79Zm-10.26,0a2,2,0,0,1,2-2h0a2,2,0,0,1,2,2h0a2,2,0,0,1-2,2h0A2,2,0,0,1,1035.93,452.79Zm-10.26,0a2,2,0,0,1,2-2h0a2,2,0,0,1,2,2h0a2,2,0,0,1-2,2h0A2,2,0,0,1,1025.67,452.79Zm-10.25,0a2,2,0,0,1,2-2h0a2,2,0,0,1,2,2h0a2,2,0,0,1-2,2h0A2,2,0,0,1,1015.42,452.79Zm-10.26,0a2,2,0,0,1,2-2h0a2,2,0,0,1,2,2h0a2,2,0,0,1-2,2h0A2,2,0,0,1,1005.16,452.79Zm-10.26,0a2,2,0,0,1,2-2h0a2,2,0,0,1,2,2h0a2,2,0,0,1-2,2h0A2,2,0,0,1,994.9,452.79Zm-10.26,0a2,2,0,0,1,2-2h0a2,2,0,0,1,2,2h0a2,2,0,0,1-2,2h0A2,2,0,0,1,984.64,452.79Zm-10.25,0a2,2,0,0,1,2-2h0a2,2,0,0,1,2,2h0a2,2,0,0,1-2,2h0A2,2,0,0,1,974.39,452.79Zm-10.26,0a2,2,0,0,1,2-2h0a2,2,0,0,1,2,2h0a2,2,0,0,1-2,2h0A2,2,0,0,1,964.13,452.79Zm-10.26,0a2,2,0,0,1,2-2h0a2,2,0,0,1,2,2h0a2,2,0,0,1-2,2h0A2,2,0,0,1,953.87,452.79Zm-10.26,0a2,2,0,0,1,2-2h0a2,2,0,0,1,2,2h0a2,2,0,0,1-2,2h0A2,2,0,0,1,943.61,452.79Zm-10.25,0a2,2,0,0,1,2-2h0a2,2,0,0,1,2,2h0a2,2,0,0,1-2,2h0A2,2,0,0,1,933.36,452.79Zm-10.26,0a2,2,0,0,1,2-2h0a2,2,0,0,1,2,2h0a2,2,0,0,1-2,2h0A2,2,0,0,1,923.1,452.79Zm-10.26,0a2,2,0,0,1,2-2h0a2,2,0,0,1,2,2h0a2,2,0,0,1-2,2h0A2,2,0,0,1,912.84,452.79Zm-10.26,0a2,2,0,0,1,2-2h0a2,2,0,0,1,2,2h0a2,2,0,0,1-2,2h0A2,2,0,0,1,902.58,452.79Zm-10.25,0a2,2,0,0,1,2-2h0a2,2,0,0,1,2,2h0a2,2,0,0,1-2,2h0A2,2,0,0,1,892.33,452.79Zm-10.26,0a2,2,0,0,1,2-2h0a2,2,0,0,1,2,2h0a2,2,0,0,1-2,2h0A2,2,0,0,1,882.07,452.79Zm-10.26,0a2,2,0,0,1,2-2h0a2,2,0,0,1,2,2h0a2,2,0,0,1-2,2h0A2,2,0,0,1,871.81,452.79Zm-10.26,0a2,2,0,0,1,2-2h0a2,2,0,0,1,2,2h0a2,2,0,0,1-2,2h0A2,2,0,0,1,861.55,452.79Zm-10.26,0a2,2,0,0,1,2-2h0a2,2,0,0,1,2,2h0a2,2,0,0,1-2,2h0A2,2,0,0,1,851.29,452.79Zm-10.25,0a2,2,0,0,1,2-2h0a2,2,0,0,1,2,2h0a2,2,0,0,1-2,2h0A2,2,0,0,1,841,452.79Zm-10.26,0a2,2,0,0,1,2-2h0a2,2,0,0,1,2,2h0a2,2,0,0,1-2,2h0A2,2,0,0,1,830.78,452.79Zm-10.26,0a2,2,0,0,1,2-2h0a2,2,0,0,1,2,2h0a2,2,0,0,1-2,2h0A2,2,0,0,1,820.52,452.79Zm-10.26,0a2,2,0,0,1,2-2h0a2,2,0,0,1,2,2h0a2,2,0,0,1-2,2h0A2,2,0,0,1,810.26,452.79Zm-10.25,0a2,2,0,0,1,2-2h0a2,2,0,0,1,2,2h0a2,2,0,0,1-2,2h0A2,2,0,0,1,800,452.79Zm-10.26,0a2,2,0,0,1,2-2h0a2,2,0,0,1,2,2h0a2,2,0,0,1-2,2h0A2,2,0,0,1,789.75,452.79Z" transform="translate(-112.74 -415.6)"/><path class="cls-1" d="M781.49,454.79a2,2,0,0,1-2-2,2.58,2.58,0,0,1,0-.39,2.26,2.26,0,0,1,.11-.37,2.37,2.37,0,0,1,.19-.35,1.42,1.42,0,0,1,.25-.3,2,2,0,0,1,1.8-.55,2.78,2.78,0,0,1,.38.12,2.21,2.21,0,0,1,.34.18,1.81,1.81,0,0,1,.3.25,2,2,0,0,1-1.41,3.41Z" transform="translate(-112.74 -415.6)"/><path class="cls-1" d="M443,454.79a1.72,1.72,0,0,1-.39,0,1.66,1.66,0,0,1-.38-.11,2.21,2.21,0,0,1-.34-.18,1.81,1.81,0,0,1-.3-.25,2,2,0,0,1-.59-1.42,1.72,1.72,0,0,1,0-.39,2.26,2.26,0,0,1,.11-.37,2.37,2.37,0,0,1,.19-.35,1.42,1.42,0,0,1,.25-.3,1.81,1.81,0,0,1,.3-.25,1.92,1.92,0,0,1,.35-.18,2.29,2.29,0,0,1,.37-.12,2,2,0,0,1,.78,0,2.78,2.78,0,0,1,.38.12,2.21,2.21,0,0,1,.34.18,1.81,1.81,0,0,1,.3.25,2,2,0,0,1,.59,1.41,2,2,0,0,1-.59,1.42,1.85,1.85,0,0,1-.64.43A2,2,0,0,1,443,454.79Z" transform="translate(-112.74 -415.6)"/><path class="cls-1" d="M430.72,452.79a2,2,0,0,1,2-2h0a2,2,0,0,1,2,2h0a2,2,0,0,1-2,2h0A2,2,0,0,1,430.72,452.79Z" transform="translate(-112.74 -415.6)"/><path class="cls-1" d="M420.46,452.79a2,2,0,0,1,2-2h0a2,2,0,0,1,2,2h0a2,2,0,0,1-2,2h0A2,2,0,0,1,420.46,452.79Zm-10.25,0a2,2,0,0,1,2-2h0a2,2,0,0,1,2,2h0a2,2,0,0,1-2,2h0A2,2,0,0,1,410.21,452.79Zm-10.26,0a2,2,0,0,1,2-2h0a2,2,0,0,1,2,2h0a2,2,0,0,1-2,2h0A2,2,0,0,1,400,452.79Zm-10.26,0a2,2,0,0,1,2-2h0a2,2,0,0,1,2,2h0a2,2,0,0,1-2,2h0A2,2,0,0,1,389.69,452.79Zm-10.25,0a2,2,0,0,1,2-2h0a2,2,0,0,1,2,2h0a2,2,0,0,1-2,2h0A2,2,0,0,1,379.44,452.79Zm-10.26,0a2,2,0,0,1,2-2h0a2,2,0,0,1,2,2h0a2,2,0,0,1-2,2h0A2,2,0,0,1,369.18,452.79Zm-10.26,0a2,2,0,0,1,2-2h0a2,2,0,0,1,2,2h0a2,2,0,0,1-2,2h0A2,2,0,0,1,358.92,452.79Zm-10.26,0a2,2,0,0,1,2-2h0a2,2,0,0,1,2,2h0a2,2,0,0,1-2,2h0A2,2,0,0,1,348.66,452.79Zm-10.26,0a2,2,0,0,1,2-2h0a2,2,0,0,1,2,2h0a2,2,0,0,1-2,2h0A2,2,0,0,1,338.4,452.79Zm-10.25,0a2,2,0,0,1,2-2h0a2,2,0,0,1,2,2h0a2,2,0,0,1-2,2h0A2,2,0,0,1,328.15,452.79Zm-10.26,0a2,2,0,0,1,2-2h0a2,2,0,0,1,2,2h0a2,2,0,0,1-2,2h0A2,2,0,0,1,317.89,452.79Zm-10.26,0a2,2,0,0,1,2-2h0a2,2,0,0,1,2,2h0a2,2,0,0,1-2,2h0A2,2,0,0,1,307.63,452.79Zm-10.26,0a2,2,0,0,1,2-2h0a2,2,0,0,1,2,2h0a2,2,0,0,1-2,2h0A2,2,0,0,1,297.37,452.79Zm-10.25,0a2,2,0,0,1,2-2h0a2,2,0,0,1,2,2h0a2,2,0,0,1-2,2h0A2,2,0,0,1,287.12,452.79Zm-10.26,0a2,2,0,0,1,2-2h0a2,2,0,0,1,2,2h0a2,2,0,0,1-2,2h0A2,2,0,0,1,276.86,452.79Zm-10.26,0a2,2,0,0,1,2-2h0a2,2,0,0,1,2,2h0a2,2,0,0,1-2,2h0A2,2,0,0,1,266.6,452.79Zm-10.26,0a2,2,0,0,1,2-2h0a2,2,0,0,1,2,2h0a2,2,0,0,1-2,2h0A2,2,0,0,1,256.34,452.79Zm-10.25,0a2,2,0,0,1,2-2h0a2,2,0,0,1,2,2h0a2,2,0,0,1-2,2h0A2,2,0,0,1,246.09,452.79Zm-10.26,0a2,2,0,0,1,2-2h0a2,2,0,0,1,2,2h0a2,2,0,0,1-2,2h0A2,2,0,0,1,235.83,452.79Zm-10.26,0a2,2,0,0,1,2-2h0a2,2,0,0,1,2,2h0a2,2,0,0,1-2,2h0A2,2,0,0,1,225.57,452.79Zm-10.26,0a2,2,0,0,1,2-2h0a2,2,0,0,1,2,2h0a2,2,0,0,1-2,2h0A2,2,0,0,1,215.31,452.79Zm-10.26,0a2,2,0,0,1,2-2h0a2,2,0,0,1,2,2h0a2,2,0,0,1-2,2h0A2,2,0,0,1,205.05,452.79Zm-10.25,0a2,2,0,0,1,2-2h0a2,2,0,0,1,2,2h0a2,2,0,0,1-2,2h0A2,2,0,0,1,194.8,452.79Zm-10.26,0a2,2,0,0,1,2-2h0a2,2,0,0,1,2,2h0a2,2,0,0,1-2,2h0A2,2,0,0,1,184.54,452.79Zm-10.26,0a2,2,0,0,1,2-2h0a2,2,0,0,1,2,2h0a2,2,0,0,1-2,2h0A2,2,0,0,1,174.28,452.79Zm-10.25,0a2,2,0,0,1,2-2h0a2,2,0,0,1,2,2h0a2,2,0,0,1-2,2h0A2,2,0,0,1,164,452.79Zm-10.26,0a2,2,0,0,1,2-2h0a2,2,0,0,1,2,2h0a2,2,0,0,1-2,2h0A2,2,0,0,1,153.77,452.79Zm-10.26,0a2,2,0,0,1,2-2h0a2,2,0,0,1,2,2h0a2,2,0,0,1-2,2h0A2,2,0,0,1,143.51,452.79Zm-10.26,0a2,2,0,0,1,2-2h0a2,2,0,0,1,2,2h0a2,2,0,0,1-2,2h0A2,2,0,0,1,133.25,452.79Zm-10.26,0a2,2,0,0,1,2-2h0a2,2,0,0,1,2,2h0a2,2,0,0,1-2,2h0A2,2,0,0,1,123,452.79Z" transform="translate(-112.74 -415.6)"/><path class="cls-1" d="M114.74,454.79a2,2,0,0,1-1.42-.58,2,2,0,0,1,0-2.83,1.89,1.89,0,0,1,.31-.25A1.83,1.83,0,0,1,114,451a2.65,2.65,0,0,1,.37-.12,2,2,0,0,1,2.4,2,2,2,0,0,1-.59,1.42A2,2,0,0,1,114.74,454.79Z" transform="translate(-112.74 -415.6)"/></svg>