<svg id="圖層_1" data-name="圖層 1" xmlns="http://www.w3.org/2000/svg" viewBox="0 0 999 76.83"><defs><style>.cls-1{fill:#1b1464;}</style></defs><title>經典越式河粉米食_季限定殘酷系</title><path class="cls-1" d="M579.51,428.7a4.41,4.41,0,0,1-1.49-.64c-.34-.23-.5-.46-.5-.69a1.4,1.4,0,0,1,.2-.65,2.88,2.88,0,0,1,.46-.66c.18-.19.33-.29.45-.29a1.58,1.58,0,0,1,.51.22,9.35,9.35,0,0,0,1,.45,3.6,3.6,0,0,0,1.1.16,2.37,2.37,0,0,0,1.2-.28,1,1,0,0,0,.49-1,1.06,1.06,0,0,0-.46-.91,7.57,7.57,0,0,0-1.48-.75l-.83-.36a4.89,4.89,0,0,1-1.78-1.34,3.48,3.48,0,0,1-.65-2.28,3.38,3.38,0,0,1,.6-2,3.5,3.5,0,0,1,1.58-1.2,5.55,5.55,0,0,1,2.09-.39,6.58,6.58,0,0,1,1.66.19,3.52,3.52,0,0,1,1.18.49.78.78,0,0,1,.39.58,1.61,1.61,0,0,1-.16.63,3,3,0,0,1-.39.66.64.64,0,0,1-.43.27.85.85,0,0,1-.3-.09l-.35-.14a4.44,4.44,0,0,0-1.35-.22,2.13,2.13,0,0,0-1.31.31.93.93,0,0,0-.37.7,1.2,1.2,0,0,0,.26.78,1.84,1.84,0,0,0,.61.49c.24.13.59.29,1.06.5a12.42,12.42,0,0,1,1.67.82,3.51,3.51,0,0,1,1.13,1.11,3.34,3.34,0,0,1,.47,1.86,4,4,0,0,1-.58,2.27,3.36,3.36,0,0,1-1.5,1.28,5,5,0,0,1-2,.4A8.73,8.73,0,0,1,579.51,428.7Z" transform="translate(-112.74 -415.6)"/><path class="cls-1" d="M589.33,427.69a5,5,0,0,1-1.16-3.52,5.19,5.19,0,0,1,1.16-3.73,4.29,4.29,0,0,1,3.21-1.19,3.41,3.41,0,0,1,3,1.3,5.54,5.54,0,0,1,.94,3.35,1.2,1.2,0,0,1-.37.64c-.24.28-.43.42-.55.42h-4.59a2.05,2.05,0,0,0,.62,1.46,2.18,2.18,0,0,0,1.45.43,3.26,3.26,0,0,0,.92-.12,6.82,6.82,0,0,0,.87-.29,1.09,1.09,0,0,1,.39-.15.62.62,0,0,1,.41.26,2.62,2.62,0,0,1,.37.6,1.24,1.24,0,0,1,.16.51c0,.28-.19.51-.56.71a4.42,4.42,0,0,1-1.33.44,7.29,7.29,0,0,1-1.35.15A4.58,4.58,0,0,1,589.33,427.69Zm4.51-4.51a2.43,2.43,0,0,0-.32-1.32,1.1,1.1,0,0,0-1-.5c-.88,0-1.42.61-1.62,1.82Z" transform="translate(-112.74 -415.6)"/><path class="cls-1" d="M599.28,428.27v-5.7c0-.53,0-.94,0-1.22s-.07-.6-.12-.94a2.63,2.63,0,0,1,0-.38c0-.19.24-.34.73-.43a6.38,6.38,0,0,1,1.28-.15.45.45,0,0,1,.45.25,1.86,1.86,0,0,1,.19.53c0,.19.07.32.08.39a3.29,3.29,0,0,1,.81-1,1.81,1.81,0,0,1,1.16-.37.94.94,0,0,1,.8.3,1.09,1.09,0,0,1,.22.68,3.47,3.47,0,0,1-.16.94c-.11.38-.24.57-.4.57a2.38,2.38,0,0,1-.37-.07,1.84,1.84,0,0,0-.47-.08,1.43,1.43,0,0,0-.86.28,2.58,2.58,0,0,0-.58.62v5.78c0,.39-.36.58-1.08.58h-.51C599.64,428.85,599.28,428.66,599.28,428.27Z" transform="translate(-112.74 -415.6)"/><path class="cls-1" d="M607.12,417.54v-1.27c0-.45.44-.67,1.33-.67s1.33.22,1.33.67v1.27c0,.46-.44.69-1.33.69S607.12,418,607.12,417.54Zm0,10.73v-8.33c0-.39.36-.58,1.08-.58h.5c.72,0,1.08.19,1.08.58v8.33c0,.39-.36.58-1.08.58h-.5C607.48,428.85,607.12,428.66,607.12,428.27Z" transform="translate(-112.74 -415.6)"/><path class="cls-1" d="M613.84,427.69a5,5,0,0,1-1.16-3.52,5.19,5.19,0,0,1,1.16-3.73,4.32,4.32,0,0,1,3.22-1.19,3.41,3.41,0,0,1,2.94,1.3,5.54,5.54,0,0,1,1,3.35,1.27,1.27,0,0,1-.37.64c-.25.28-.43.42-.55.42h-4.59a2,2,0,0,0,.61,1.46,2.21,2.21,0,0,0,1.46.43,3.36,3.36,0,0,0,.92-.12,7.26,7.26,0,0,0,.86-.29,1.09,1.09,0,0,1,.39-.15.6.6,0,0,1,.41.26,2.65,2.65,0,0,1,.38.6,1.36,1.36,0,0,1,.15.51c0,.28-.19.51-.56.71a4.33,4.33,0,0,1-1.33.44,7.21,7.21,0,0,1-1.35.15A4.61,4.61,0,0,1,613.84,427.69Zm4.51-4.51a2.43,2.43,0,0,0-.32-1.32,1.09,1.09,0,0,0-1-.5c-.89,0-1.43.61-1.62,1.82Z" transform="translate(-112.74 -415.6)"/><path class="cls-1" d="M624.19,428.61c-.63-.22-.94-.52-.94-.88a1.64,1.64,0,0,1,.34-.87c.23-.34.43-.51.61-.51a.83.83,0,0,1,.4.14,5.53,5.53,0,0,0,.69.26,2.34,2.34,0,0,0,.73.1,1.25,1.25,0,0,0,.78-.2.65.65,0,0,0,.27-.56.73.73,0,0,0-.2-.52,1.52,1.52,0,0,0-.43-.3c-.16-.08-.47-.2-.92-.36A4.32,4.32,0,0,1,624,424a2.45,2.45,0,0,1-.56-1.76,2.73,2.73,0,0,1,.88-2.17,3.48,3.48,0,0,1,2.39-.79,6.14,6.14,0,0,1,1.83.27q.87.27.87.78a2.09,2.09,0,0,1-.27.88c-.18.36-.35.54-.5.54a2.42,2.42,0,0,1-.52-.19,2.78,2.78,0,0,0-1-.19c-.64,0-1,.21-1,.63a.68.68,0,0,0,.31.61,5.16,5.16,0,0,0,1,.49,3.66,3.66,0,0,0,.34.14,3.11,3.11,0,0,1,.4.18,2.93,2.93,0,0,1,1.14.93,2.55,2.55,0,0,1,.43,1.56,2.88,2.88,0,0,1-.94,2.24,3.74,3.74,0,0,1-2.59.84A5.84,5.84,0,0,1,624.19,428.61Z" transform="translate(-112.74 -415.6)"/><path class="cls-1" d="M642.19,428.27v-2h-4.72c-.14,0-.29-.21-.44-.63a3.28,3.28,0,0,1-.23-1.05.54.54,0,0,1,0-.2l5.35-7.86a.59.59,0,0,1,.39-.28,3.18,3.18,0,0,1,.7-.06h.49q1.08,0,1.08.57v7.4h.68a.44.44,0,0,1,.42.22,1.45,1.45,0,0,1,.12.68v.31a1.45,1.45,0,0,1-.12.68.46.46,0,0,1-.42.22h-.68v2c0,.39-.36.58-1.08.58h-.5C642.55,428.85,642.19,428.66,642.19,428.27Zm0-4.12v-3.49a4.15,4.15,0,0,1,.19-1h-.07l-2.82,4.46Z" transform="translate(-112.74 -415.6)"/><path class="cls-1" d="M477.12,459.46a22.14,22.14,0,0,0,2.49-2.52,3.35,3.35,0,0,0,.87-2.07,1.92,1.92,0,0,0-.42-1.18,12.37,12.37,0,0,0-1.11-1.25c-.36-.36-.69-.7-1-1a7.39,7.39,0,0,1-.77-1,4.69,4.69,0,0,1-.49-1,3.78,3.78,0,0,1-.18-1.2,6.68,6.68,0,0,1,.66-2.83,34.33,34.33,0,0,1,1.62-3.05h6q-2,3.15-2,4.89a3,3,0,0,0,.6,1.88,14.88,14.88,0,0,0,1.53,1.69,14.16,14.16,0,0,1,1.54,1.79,3.25,3.25,0,0,1,.59,1.93,6.24,6.24,0,0,1-1,2.91,17.23,17.23,0,0,1-3,3.69h-7.8Zm8.16-19h5l-1.44,7.38h-4.77Z" transform="translate(-112.74 -415.6)"/><path class="cls-1" d="M493.6,446.62l4.5-1.08v-.06l-5.22.15,1.14-4.5h10.86l-.69,4.11-4.62.18-.84,4.41h4.71l-.57,3.24-4.8.24-.75,4.23,4.77.24-.57,3.3h-9.9Z" transform="translate(-112.74 -415.6)"/><path class="cls-1" d="M509.52,442.3h5.79l-3.12,11.88h2.55l.66-13.74h6.06l-1.92,20.64h-5.19l.27-4.44-3.15.45-1.05,4h-4.56Z" transform="translate(-112.74 -415.6)"/><path class="cls-1" d="M525.21,459.46a22.14,22.14,0,0,0,2.49-2.52,3.35,3.35,0,0,0,.87-2.07,1.92,1.92,0,0,0-.42-1.18,12.37,12.37,0,0,0-1.11-1.25c-.36-.36-.69-.7-1-1a7.28,7.28,0,0,1-.76-1,4.73,4.73,0,0,1-.5-1,3.78,3.78,0,0,1-.18-1.2,6.68,6.68,0,0,1,.66-2.83,34.33,34.33,0,0,1,1.62-3.05h6q-2,3.15-2,4.89a3,3,0,0,0,.6,1.88,14.88,14.88,0,0,0,1.53,1.69,14.31,14.31,0,0,1,1.55,1.79,3.24,3.24,0,0,1,.58,1.93,6.24,6.24,0,0,1-1,2.91,17.23,17.23,0,0,1-3,3.69h-7.8Zm8.16-19h5L537,447.82H532.2Z" transform="translate(-112.74 -415.6)"/><path class="cls-1" d="M542.13,461.08a22,22,0,0,1-1.89-3.87,10,10,0,0,1-.63-3.36,14.68,14.68,0,0,1,.8-4.62,26.48,26.48,0,0,1,2.41-5.13h4.95a35.72,35.72,0,0,0-3.36-3l7.2-1a13.77,13.77,0,0,1,3,3.81,9.19,9.19,0,0,1,1,4.17q0,5.37-5.46,13Zm4.2-1.35a36.62,36.62,0,0,0,2.31-5.79,17.91,17.91,0,0,0,.78-5,9.16,9.16,0,0,0-.33-2.55,6.22,6.22,0,0,0-1.11-2.13,26.45,26.45,0,0,0-2.43,10.11,18,18,0,0,0,.2,2.6A23.65,23.65,0,0,0,546.33,459.73Z" transform="translate(-112.74 -415.6)"/><path class="cls-1" d="M565,447.61h-.06l-2,13.47h-4.29l1.59-18.78h7.62L569,456.82l1.62-16.38,5,.69-3.36,19.92-6.06.51Z" transform="translate(-112.74 -415.6)"/><path class="cls-1" d="M580.57,442.3h5.79l-3.12,11.88h2.56l.65-13.74h6.06l-1.91,20.64h-5.2l.28-4.44-3.16.45-1,4h-4.55Z" transform="translate(-112.74 -415.6)"/><path class="cls-1" d="M598,441.13h5.94l-2.82,16.5,4.92.09-.6,3.36h-9.84Z" transform="translate(-112.74 -415.6)"/><path class="cls-1" d="M611,441.13H617l-2.82,16.5,4.92.09-.6,3.36h-9.84Z" transform="translate(-112.74 -415.6)"/><path class="cls-1" d="M627.13,456.13h-4.47a9.49,9.49,0,0,1-.75-3c-.1-1.13-.15-2.41-.15-3.83,0-1.18,0-2.34.09-3.49s.16-2.31.3-3.47h5.73q-.45,3.09-.69,5.72c-.16,1.75-.24,3.34-.24,4.78a13.6,13.6,0,0,0,.3,3h.06l3.21-15.36h6.09L631,461.08h-5Z" transform="translate(-112.74 -415.6)"/><path class="cls-1" d="M646.75,441.13h5.94l-2.82,16.5,4.92.09-.6,3.36h-9.84Z" transform="translate(-112.74 -415.6)"/><path class="cls-1" d="M659.69,441.49h6.09l-3.36,19.59h-5Z" transform="translate(-112.74 -415.6)"/><path class="cls-1" d="M674.8,446.89l-2.19,14.19h-4.26L670,442.3h7.8l-.06,14.28,4.11-16.14,7.62.69-3.39,19.95h-4.62l1.89-15h-.06l-4,15-4.41.48Z" transform="translate(-112.74 -415.6)"/><path class="cls-1" d="M694.11,441.49h6.09l-3.36,19.59h-5Z" transform="translate(-112.74 -415.6)"/><path class="cls-1" d="M705.43,446.68l4.43-1.05v-.06l-7.76.3.59-4.74H715l-.79,4.38-2.82.09-2.67,15.48h-5Z" transform="translate(-112.74 -415.6)"/><path class="cls-1" d="M718,446.62l4.5-1.08v-.06l-5.22.15,1.14-4.5h10.86l-.69,4.11-4.62.18-.84,4.41h4.71l-.57,3.24-4.8.24-.75,4.23,4.77.24-.57,3.3H716Z" transform="translate(-112.74 -415.6)"/><path class="cls-1" d="M733.05,444.1h5.82l-2.91,17h-5Zm3.12,17a38.81,38.81,0,0,0,4-7,14.5,14.5,0,0,0,1.29-5.42,6.21,6.21,0,0,0-.36-2.17,5.54,5.54,0,0,0-1.12-1.82,10,10,0,0,0-1.94-1.6,24.72,24.72,0,0,0-2.79-1.55l6.09-1.38a14.51,14.51,0,0,1,4.7,3.54,6.8,6.8,0,0,1,1.51,4.38q0,4.83-5.88,13.05Z" transform="translate(-112.74 -415.6)"/><path class="cls-1" d="M543.59,485.28h9.19v2.45h-9.19v1.73c0,1.39-.33,2-1.41,2.4a15.62,15.62,0,0,1-4.61.36,9.19,9.19,0,0,0-1-2.48c1.44.08,3.17.08,3.6.05s.58-.09.58-.43v-1.63h-9.27v-2.45h9.27v-1.22a15.55,15.55,0,0,0,2-.87h-7v-1.85a21,21,0,0,1-3.12,1.4,12.08,12.08,0,0,0-1.75-2.16,22.63,22.63,0,0,0,7-3.46h-6.27v-2.4h9.1v-1.49c-2.38.17-4.8.24-7,.29a8,8,0,0,0-.64-2.26c5.42-.12,11.69-.55,15.19-1.37l2.35,2a57,57,0,0,1-7.06,1.08v1.73h9.29v2.4h-5.61a51.47,51.47,0,0,1,6.24,4.13l-1.85,2a62.06,62.06,0,0,0-8.07-5.5v2.69h-2.8v-2.64a21.71,21.71,0,0,1-4.3,3.21h9.82l.6-.14,1.73,1.51a29.8,29.8,0,0,1-4.95,2.76Z" transform="translate(-112.74 -415.6)"/><path class="cls-1" d="M567.86,471.77c-.63,2-1.42,4.44-2.07,6.28a7.82,7.82,0,0,1,1.73,5c0,1.53-.31,2.57-1.08,3.14a3,3,0,0,1-1.35.53,8.53,8.53,0,0,1-1.55,0,5.86,5.86,0,0,0-.63-2.45,7.43,7.43,0,0,0,1,0,1,1,0,0,0,.65-.19,1.78,1.78,0,0,0,.43-1.41,6.77,6.77,0,0,0-1.68-4.4c.46-1.46,1-3.41,1.37-5h-2.33v18.89h-2.49V470.81h5.71l.38-.12Zm12.93,12.33c-1,.82-2.28,1.73-3.36,2.43a10,10,0,0,0,3.89,3.21,10.46,10.46,0,0,0-1.9,2.48c-3.57-2-5.49-5.67-6.62-10.37h-1.44v6.74l3.34-.74a16,16,0,0,0,.12,2.59c-4.68,1.2-5.57,1.56-6.15,1.92a9.25,9.25,0,0,0-1.22-2.23,2.36,2.36,0,0,0,1.1-2.09V470.83H579.4v11h-4.15a15.8,15.8,0,0,0,1,2.61,22.9,22.9,0,0,0,2.73-2.37Zm-9.43-10.82v1.87h5.28v-1.87Zm0,6.1h5.28v-1.92h-5.28Z" transform="translate(-112.74 -415.6)"/><path class="cls-1" d="M599.75,488.93a21.26,21.26,0,0,0,2.84.17c1.27,0,5.23,0,6.86-.05a9.43,9.43,0,0,0-1,2.9h-6c-4.49,0-7.78-.74-10-4.22a12.26,12.26,0,0,1-3.22,4.61,13.6,13.6,0,0,0-2.32-1.9c2.59-1.94,3.79-5.28,4.22-9.36l2.91.26c-.12,1-.32,2-.51,2.91a6.57,6.57,0,0,0,3.22,3.84V480h-5.12v-2.74h13.21V480h-5.12v2.83h6.58v2.69h-6.58Zm-8.92-10.51H588v-6h8.9a18.71,18.71,0,0,0-.84-2l2.88-.79a14.66,14.66,0,0,1,1.25,2.79h8.33v6h-2.95V475.1H590.83Z" transform="translate(-112.74 -415.6)"/><path class="cls-1" d="M635.8,475.42a11.11,11.11,0,0,1-2.55,2.23,2.9,2.9,0,0,0,1.49.45c.58,0,.7-.36.82-1.53a5.5,5.5,0,0,0,1.89,1c-.38,2.38-1.12,2.93-2.85,2.93a5.72,5.72,0,0,1-3.72-1.49,31.65,31.65,0,0,1-5,1.83,14.53,14.53,0,0,0-1.51-2c-1.18,6.53-3.7,11.06-7.16,13.44a7.81,7.81,0,0,0-1.92-2,13.59,13.59,0,0,0,4.85-5.85c-.65-.63-1.51-1.37-2.3-2.07a16.6,16.6,0,0,1-1.3,2.09,16,16,0,0,0-1.9-2.21,21.19,21.19,0,0,0,3.24-8.59h-2.37v-2.59h9.24v2.06l2.9-.26a19.07,19.07,0,0,1-.43-3h2.5a14.16,14.16,0,0,0,.45,2.78l3.1-.26a15.82,15.82,0,0,0-2.3-1.13l1.29-1.63a15.59,15.59,0,0,1,2.95,1.39l-1,1.27,2.52-.21.17,2.23-3.38.31Zm-16.47,3.14c-.14.43-.29.86-.43,1.27a28,28,0,0,1,2.23,1.71,23.28,23.28,0,0,0,.67-3Zm3.72-2.62,1.63.53c-.09.79-.21,1.54-.33,2.26a28.61,28.61,0,0,0,5-1.49,13,13,0,0,1-1.1-2.14l-3.7.36-.17-1.82h-3.84c-.17.82-.34,1.58-.53,2.37h2.55Zm12.63,10.44a12.49,12.49,0,0,1-3,2.67,3.28,3.28,0,0,0,2,.79c.58,0,.74-.43.86-1.82a5.74,5.74,0,0,0,2,1c-.36,2.61-1.13,3.21-3,3.21a6,6,0,0,1-4.25-1.87,32.58,32.58,0,0,1-5.81,2,18.35,18.35,0,0,0-1.61-2.3,29.56,29.56,0,0,0,5.88-1.71,13.75,13.75,0,0,1-1.17-2.56l-3.94.36-.17-2.36,3.48-.28a16,16,0,0,1-.33-2.55h2.56a14.2,14.2,0,0,0,.34,2.33l3.46-.31a20.42,20.42,0,0,0-2.6-1.32l1.42-1.59a17.47,17.47,0,0,1,3.24,1.61L634,483l2.83-.24L637,485l-6.72.6a6.87,6.87,0,0,0,.82,1.6,7.43,7.43,0,0,0,2.08-1.77ZM631,474.89a10.05,10.05,0,0,0,.7,1.17,7.46,7.46,0,0,0,1.72-1.41Z" transform="translate(-112.74 -415.6)"/><path class="cls-1" d="M643.51,470.78h10v2.38H651v2.35h2.42v16.37h-2.18v-1.2H646v1.54h-2.09V475.51h2.43v-2.35h-2.76Zm7.73,17.69v-5.69h-.86c-1,0-1.35-.31-1.35-1.7v-3.22h-.84v1.76a6.14,6.14,0,0,1-1.34,4.2,5,5,0,0,0-.89-.8v5.45ZM646,477.86v4.92a4.68,4.68,0,0,0,.94-3.16v-1.76Zm.7,6.89h3.84v2.16h-3.84Zm2.44-11.59h-1v2.35h1Zm2.14,4.7h-.91v3.2c0,.31,0,.33.21.33h.39a1,1,0,0,0,.31,0Zm14.52,1v2.52H654.17v-2.52H659v-3H657.1a16.43,16.43,0,0,1-1.08,2.79,17.54,17.54,0,0,0-2.36-1.25,19,19,0,0,0,1.9-6.84l2.59.46c-.12.79-.26,1.56-.41,2.35H659v-3.53h2.66v3.53h3.65v2.49h-3.65v3Zm-10.82,3.91h10.15v9.38h-2.74V491h-4.8v1.18h-2.61Zm2.61,2.54v3.15h4.8V485.3Z" transform="translate(-112.74 -415.6)"/><path class="cls-1" d="M679.09,486.38a25.4,25.4,0,0,1-5.28,5,25.42,25.42,0,0,0-2.5-1.87,16.63,16.63,0,0,0,4.87-4.13Zm4.8-1.92v4.76c0,1.41-.29,2.13-1.35,2.59a11.26,11.26,0,0,1-4.15.45,10.23,10.23,0,0,0-1-2.78c1.22,0,2.69,0,3.1,0s.52-.1.52-.39V484.7c-5.44.44-6.53.6-7.36.92a21.1,21.1,0,0,0-.84-2.57,11.46,11.46,0,0,0,3.33-1.23,32,32,0,0,0,3.79-2c-3.84.27-4.65.39-5.2.63-.15-.56-.56-1.9-.84-2.64a6.15,6.15,0,0,0,2-.8,25.6,25.6,0,0,0,3.84-2.42c-2.3.45-4.63.82-6.84,1.1a8.81,8.81,0,0,0-.79-2.42c5.52-.75,11.57-2,15.24-3.55l2.11,2.25a45.27,45.27,0,0,1-6.89,2l1.3.84a43.55,43.55,0,0,1-4.08,2.69l4.15-.22c.89-.62,1.73-1.25,2.55-1.92l2.11,1.9a51.11,51.11,0,0,1-8.11,4.94l6.76-.45c-.5-.6-1-1.18-1.53-1.71l2.37-1.2a45.51,45.51,0,0,1,4.68,5.4l-2.42,1.47a20,20,0,0,0-1.22-1.68Zm3.6.58a31.3,31.3,0,0,1,5.38,4.39l-2.53,1.68a32.87,32.87,0,0,0-5.18-4.56Z" transform="translate(-112.74 -415.6)"/><path class="cls-1" d="M1109.74,454.79a2,2,0,0,1-1.42-.59,1.89,1.89,0,0,1-.43-.65,1.94,1.94,0,0,1-.15-.76,2,2,0,0,1,.58-1.42,2.25,2.25,0,0,1,.3-.24,1.7,1.7,0,0,1,.35-.19,1.73,1.73,0,0,1,.37-.11,2,2,0,0,1,1.81.54,3.76,3.76,0,0,1,.25.31,2.21,2.21,0,0,1,.18.34,2.4,2.4,0,0,1,.12.38,2.58,2.58,0,0,1,0,.39,2,2,0,0,1-2,2Z" transform="translate(-112.74 -415.6)"/><path class="cls-1" d="M1097.79,452.79a2,2,0,0,1,2-2h0a2,2,0,0,1,2,2h0a2,2,0,0,1-2,2h0A2,2,0,0,1,1097.79,452.79Z" transform="translate(-112.74 -415.6)"/><path class="cls-1" d="M1087.84,452.79a2,2,0,0,1,2-2h0a2,2,0,0,1,2,2h0a2,2,0,0,1-2,2h0A2,2,0,0,1,1087.84,452.79Zm-9.95,0a2,2,0,0,1,2-2h0a2,2,0,0,1,2,2h0a2,2,0,0,1-2,2h0A2,2,0,0,1,1077.89,452.79Zm-10,0a2,2,0,0,1,2-2h0a2,2,0,0,1,2,2h0a2,2,0,0,1-2,2h0A2,2,0,0,1,1067.94,452.79Zm-10,0a2,2,0,0,1,2-2h0a2,2,0,0,1,2,2h0a2,2,0,0,1-2,2h0A2,2,0,0,1,1058,452.79Zm-10,0a2,2,0,0,1,2-2h0a2,2,0,0,1,2,2h0a2,2,0,0,1-2,2h0A2,2,0,0,1,1048,452.79Zm-10,0a2,2,0,0,1,2-2h0a2,2,0,0,1,2,2h0a2,2,0,0,1-2,2h0A2,2,0,0,1,1038.09,452.79Zm-9.95,0a2,2,0,0,1,2-2h0a2,2,0,0,1,2,2h0a2,2,0,0,1-2,2h0A2,2,0,0,1,1028.14,452.79Zm-10,0a2,2,0,0,1,2-2h0a2,2,0,0,1,2,2h0a2,2,0,0,1-2,2h0A2,2,0,0,1,1018.19,452.79Zm-10,0a2,2,0,0,1,2-2h0a2,2,0,0,1,2,2h0a2,2,0,0,1-2,2h0A2,2,0,0,1,1008.24,452.79Zm-10,0a2,2,0,0,1,2-2h0a2,2,0,0,1,2,2h0a2,2,0,0,1-2,2h0A2,2,0,0,1,998.29,452.79Zm-9.94,0a2,2,0,0,1,2-2h0a2,2,0,0,1,2,2h0a2,2,0,0,1-2,2h0A2,2,0,0,1,988.35,452.79Zm-10,0a2,2,0,0,1,2-2h0a2,2,0,0,1,2,2h0a2,2,0,0,1-2,2h0A2,2,0,0,1,978.4,452.79Zm-9.95,0a2,2,0,0,1,2-2h0a2,2,0,0,1,2,2h0a2,2,0,0,1-2,2h0A2,2,0,0,1,968.45,452.79Zm-10,0a2,2,0,0,1,2-2h0a2,2,0,0,1,2,2h0a2,2,0,0,1-2,2h0A2,2,0,0,1,958.5,452.79Zm-10,0a2,2,0,0,1,2-2h0a2,2,0,0,1,2,2h0a2,2,0,0,1-2,2h0A2,2,0,0,1,948.55,452.79Zm-9.95,0a2,2,0,0,1,2-2h0a2,2,0,0,1,2,2h0a2,2,0,0,1-2,2h0A2,2,0,0,1,938.6,452.79Zm-10,0a2,2,0,0,1,2-2h0a2,2,0,0,1,2,2h0a2,2,0,0,1-2,2h0A2,2,0,0,1,928.65,452.79Zm-9.95,0a2,2,0,0,1,2-2h0a2,2,0,0,1,2,2h0a2,2,0,0,1-2,2h0A2,2,0,0,1,918.7,452.79Zm-10,0a2,2,0,0,1,2-2h0a2,2,0,0,1,2,2h0a2,2,0,0,1-2,2h0A2,2,0,0,1,908.75,452.79Zm-10,0a2,2,0,0,1,2-2h0a2,2,0,0,1,2,2h0a2,2,0,0,1-2,2h0A2,2,0,0,1,898.8,452.79Zm-9.95,0a2,2,0,0,1,2-2h0a2,2,0,0,1,2,2h0a2,2,0,0,1-2,2h0A2,2,0,0,1,888.85,452.79Zm-10,0a2,2,0,0,1,2-2h0a2,2,0,0,1,2,2h0a2,2,0,0,1-2,2h0A2,2,0,0,1,878.9,452.79Zm-9.95,0a2,2,0,0,1,2-2h0a2,2,0,0,1,2,2h0a2,2,0,0,1-2,2h0A2,2,0,0,1,869,452.79Zm-10,0a2,2,0,0,1,2-2h0a2,2,0,0,1,2,2h0a2,2,0,0,1-2,2h0A2,2,0,0,1,859,452.79Zm-9.94,0a2,2,0,0,1,2-2h0a2,2,0,0,1,2,2h0a2,2,0,0,1-2,2h0A2,2,0,0,1,849.06,452.79Zm-9.95,0a2,2,0,0,1,2-2h0a2,2,0,0,1,2,2h0a2,2,0,0,1-2,2h0A2,2,0,0,1,839.11,452.79Zm-10,0a2,2,0,0,1,2-2h0a2,2,0,0,1,2,2h0a2,2,0,0,1-2,2h0A2,2,0,0,1,829.16,452.79Zm-9.95,0a2,2,0,0,1,2-2h0a2,2,0,0,1,2,2h0a2,2,0,0,1-2,2h0A2,2,0,0,1,819.21,452.79Zm-10,0a2,2,0,0,1,2-2h0a2,2,0,0,1,2,2h0a2,2,0,0,1-2,2h0A2,2,0,0,1,809.26,452.79Zm-10,0a2,2,0,0,1,2-2h0a2,2,0,0,1,2,2h0a2,2,0,0,1-2,2h0A2,2,0,0,1,799.31,452.79Zm-9.95,0a2,2,0,0,1,2-2h0a2,2,0,0,1,2,2h0a2,2,0,0,1-2,2h0A2,2,0,0,1,789.36,452.79Zm-10,0a2,2,0,0,1,2-2h0a2,2,0,0,1,2,2h0a2,2,0,0,1-2,2h0A2,2,0,0,1,779.41,452.79Z" transform="translate(-112.74 -415.6)"/><path class="cls-1" d="M771.46,454.79a2,2,0,0,1-1.41-.59,1.92,1.92,0,0,1-.44-.65,2,2,0,0,1-.15-.76,2,2,0,0,1,.59-1.42,1.76,1.76,0,0,1,.3-.24,1.7,1.7,0,0,1,.35-.19,1.58,1.58,0,0,1,.37-.11,1.71,1.71,0,0,1,.78,0,1.66,1.66,0,0,1,.38.11,1.63,1.63,0,0,1,.34.19,2.34,2.34,0,0,1,.31.24,2,2,0,0,1,.58,1.42,2,2,0,0,1-.15.76,2,2,0,0,1-.43.65A2,2,0,0,1,771.46,454.79Z" transform="translate(-112.74 -415.6)"/><path class="cls-1" d="M453,454.79a2,2,0,0,1-1.42-.59,2,2,0,0,1-.43-.65,2,2,0,0,1-.15-.76,2,2,0,0,1,.58-1.42,2.34,2.34,0,0,1,.31-.24,1.63,1.63,0,0,1,.34-.19,1.66,1.66,0,0,1,.38-.11,1.71,1.71,0,0,1,.78,0,1.58,1.58,0,0,1,.37.11,1.48,1.48,0,0,1,.35.19,1.76,1.76,0,0,1,.3.24,2,2,0,0,1,.59,1.42,2,2,0,0,1-.15.76,1.92,1.92,0,0,1-.44.65A2,2,0,0,1,453,454.79Z" transform="translate(-112.74 -415.6)"/><path class="cls-1" d="M441.06,452.79a2,2,0,0,1,2-2h0a2,2,0,0,1,2,2h0a2,2,0,0,1-2,2h0A2,2,0,0,1,441.06,452.79Z" transform="translate(-112.74 -415.6)"/><path class="cls-1" d="M431.11,452.79a2,2,0,0,1,2-2h0a2,2,0,0,1,2,2h0a2,2,0,0,1-2,2h0A2,2,0,0,1,431.11,452.79Zm-9.95,0a2,2,0,0,1,2-2h0a2,2,0,0,1,2,2h0a2,2,0,0,1-2,2h0A2,2,0,0,1,421.16,452.79Zm-10,0a2,2,0,0,1,2-2h0a2,2,0,0,1,2,2h0a2,2,0,0,1-2,2h0A2,2,0,0,1,411.21,452.79Zm-9.95,0a2,2,0,0,1,2-2h0a2,2,0,0,1,2,2h0a2,2,0,0,1-2,2h0A2,2,0,0,1,401.26,452.79Zm-9.95,0a2,2,0,0,1,2-2h0a2,2,0,0,1,2,2h0a2,2,0,0,1-2,2h0A2,2,0,0,1,391.31,452.79Zm-9.94,0a2,2,0,0,1,2-2h0a2,2,0,0,1,2,2h0a2,2,0,0,1-2,2h0A2,2,0,0,1,381.37,452.79Zm-9.95,0a2,2,0,0,1,2-2h0a2,2,0,0,1,2,2h0a2,2,0,0,1-2,2h0A2,2,0,0,1,371.42,452.79Zm-9.95,0a2,2,0,0,1,2-2h0a2,2,0,0,1,2,2h0a2,2,0,0,1-2,2h0A2,2,0,0,1,361.47,452.79Zm-10,0a2,2,0,0,1,2-2h0a2,2,0,0,1,2,2h0a2,2,0,0,1-2,2h0A2,2,0,0,1,351.52,452.79Zm-9.95,0a2,2,0,0,1,2-2h0a2,2,0,0,1,2,2h0a2,2,0,0,1-2,2h0A2,2,0,0,1,341.57,452.79Zm-9.95,0a2,2,0,0,1,2-2h0a2,2,0,0,1,2,2h0a2,2,0,0,1-2,2h0A2,2,0,0,1,331.62,452.79Zm-9.95,0a2,2,0,0,1,2-2h0a2,2,0,0,1,2,2h0a2,2,0,0,1-2,2h0A2,2,0,0,1,321.67,452.79Zm-9.95,0a2,2,0,0,1,2-2h0a2,2,0,0,1,2,2h0a2,2,0,0,1-2,2h0A2,2,0,0,1,311.72,452.79Zm-10,0a2,2,0,0,1,2-2h0a2,2,0,0,1,2,2h0a2,2,0,0,1-2,2h0A2,2,0,0,1,301.77,452.79Zm-9.95,0a2,2,0,0,1,2-2h0a2,2,0,0,1,2,2h0a2,2,0,0,1-2,2h0A2,2,0,0,1,291.82,452.79Zm-9.95,0a2,2,0,0,1,2-2h0a2,2,0,0,1,2,2h0a2,2,0,0,1-2,2h0A2,2,0,0,1,281.87,452.79Zm-9.95,0a2,2,0,0,1,2-2h0a2,2,0,0,1,2,2h0a2,2,0,0,1-2,2h0A2,2,0,0,1,271.92,452.79Zm-9.95,0a2,2,0,0,1,2-2h0a2,2,0,0,1,2,2h0a2,2,0,0,1-2,2h0A2,2,0,0,1,262,452.79Zm-9.94,0a2,2,0,0,1,2-2h0a2,2,0,0,1,2,2h0a2,2,0,0,1-2,2h0A2,2,0,0,1,252,452.79Zm-9.95,0a2,2,0,0,1,2-2h0a2,2,0,0,1,2,2h0a2,2,0,0,1-2,2h0A2,2,0,0,1,242.08,452.79Zm-10,0a2,2,0,0,1,2-2h0a2,2,0,0,1,2,2h0a2,2,0,0,1-2,2h0A2,2,0,0,1,232.13,452.79Zm-9.95,0a2,2,0,0,1,2-2h0a2,2,0,0,1,2,2h0a2,2,0,0,1-2,2h0A2,2,0,0,1,222.18,452.79Zm-10,0a2,2,0,0,1,2-2h0a2,2,0,0,1,2,2h0a2,2,0,0,1-2,2h0A2,2,0,0,1,212.23,452.79Zm-9.95,0a2,2,0,0,1,2-2h0a2,2,0,0,1,2,2h0a2,2,0,0,1-2,2h0A2,2,0,0,1,202.28,452.79Zm-9.95,0a2,2,0,0,1,2-2h0a2,2,0,0,1,2,2h0a2,2,0,0,1-2,2h0A2,2,0,0,1,192.33,452.79Zm-10,0a2,2,0,0,1,2-2h0a2,2,0,0,1,2,2h0a2,2,0,0,1-2,2h0A2,2,0,0,1,182.38,452.79Zm-9.95,0a2,2,0,0,1,2-2h0a2,2,0,0,1,2,2h0a2,2,0,0,1-2,2h0A2,2,0,0,1,172.43,452.79Zm-10,0a2,2,0,0,1,2-2h0a2,2,0,0,1,2,2h0a2,2,0,0,1-2,2h0A2,2,0,0,1,162.48,452.79Zm-9.95,0a2,2,0,0,1,2-2h0a2,2,0,0,1,2,2h0a2,2,0,0,1-2,2h0A2,2,0,0,1,152.53,452.79Zm-9.95,0a2,2,0,0,1,2-2h0a2,2,0,0,1,2,2h0a2,2,0,0,1-2,2h0A2,2,0,0,1,142.58,452.79Zm-10,0a2,2,0,0,1,2-2h0a2,2,0,0,1,2,2h0a2,2,0,0,1-2,2h0A2,2,0,0,1,132.63,452.79Zm-9.95,0a2,2,0,0,1,2-2h0a2,2,0,0,1,2,2h0a2,2,0,0,1-2,2h0A2,2,0,0,1,122.68,452.79Z" transform="translate(-112.74 -415.6)"/><path class="cls-1" d="M114.74,454.79a2,2,0,0,1-1.42-.59,1.89,1.89,0,0,1-.43-.65,2,2,0,0,1-.15-.76,2,2,0,0,1,.58-1.42,1.83,1.83,0,0,1,.31-.24,1.41,1.41,0,0,1,.34-.19,1.66,1.66,0,0,1,.38-.11,2,2,0,0,1,1.8.54,2,2,0,0,1,.59,1.42,2,2,0,0,1-.15.76,1.92,1.92,0,0,1-.44.65,1.48,1.48,0,0,1-.31.25,1.86,1.86,0,0,1-.34.19,2.26,2.26,0,0,1-.37.11A2.58,2.58,0,0,1,114.74,454.79Z" transform="translate(-112.74 -415.6)"/></svg>