<svg id="圖層_1" data-name="圖層 1" xmlns="http://www.w3.org/2000/svg" viewBox="0 0 999 76.88"><defs><style>.cls-1{fill:#1b1464;}</style></defs><title>經典越式河粉米食_咖哩濃厚系</title><path class="cls-1" d="M579.51,428.15a4.62,4.62,0,0,1-1.49-.64c-.34-.23-.5-.46-.5-.69a1.4,1.4,0,0,1,.2-.65,2.88,2.88,0,0,1,.46-.66c.18-.2.33-.29.45-.29a1.58,1.58,0,0,1,.51.22,7.62,7.62,0,0,0,1,.44,3.3,3.3,0,0,0,1.1.17,2.37,2.37,0,0,0,1.2-.28,1,1,0,0,0,.49-1,1,1,0,0,0-.46-.91,7.57,7.57,0,0,0-1.48-.75l-.83-.36a5,5,0,0,1-1.78-1.34,3.48,3.48,0,0,1-.65-2.28,3.38,3.38,0,0,1,.6-2A3.53,3.53,0,0,1,580,415.9a5.75,5.75,0,0,1,2.09-.38,6.58,6.58,0,0,1,1.66.19,3.52,3.52,0,0,1,1.18.49.78.78,0,0,1,.39.58,1.65,1.65,0,0,1-.16.63,2.73,2.73,0,0,1-.39.65c-.16.19-.3.28-.43.28a.85.85,0,0,1-.3-.09l-.35-.14a4.44,4.44,0,0,0-1.35-.22,2.13,2.13,0,0,0-1.31.31.91.91,0,0,0-.37.7,1.2,1.2,0,0,0,.26.78,2,2,0,0,0,.61.49c.24.13.59.29,1.06.5a13.87,13.87,0,0,1,1.67.81,3.54,3.54,0,0,1,1.13,1.12,3.34,3.34,0,0,1,.47,1.86,4,4,0,0,1-.58,2.27,3.36,3.36,0,0,1-1.5,1.28,5,5,0,0,1-2,.39A8.76,8.76,0,0,1,579.51,428.15Z" transform="translate(-112.74 -415.05)"/><path class="cls-1" d="M589.33,427.14a5,5,0,0,1-1.16-3.52,5.19,5.19,0,0,1,1.16-3.73,4.29,4.29,0,0,1,3.21-1.19,3.41,3.41,0,0,1,3,1.3,5.54,5.54,0,0,1,.94,3.35,1.2,1.2,0,0,1-.37.64c-.24.28-.43.42-.55.42h-4.59a2.05,2.05,0,0,0,.62,1.46,2.24,2.24,0,0,0,1.45.43,3.26,3.26,0,0,0,.92-.12,6.93,6.93,0,0,0,.87-.3,1.22,1.22,0,0,1,.39-.14.62.62,0,0,1,.41.26,2.62,2.62,0,0,1,.37.6,1.24,1.24,0,0,1,.16.51c0,.27-.19.51-.56.71a4.42,4.42,0,0,1-1.33.44,7.19,7.19,0,0,1-1.35.14A4.57,4.57,0,0,1,589.33,427.14Zm4.51-4.51a2.47,2.47,0,0,0-.32-1.33,1.09,1.09,0,0,0-1-.49c-.88,0-1.42.61-1.62,1.82Z" transform="translate(-112.74 -415.05)"/><path class="cls-1" d="M599.28,427.72V422c0-.53,0-.94,0-1.22s-.07-.6-.12-.95a2.38,2.38,0,0,1,0-.37c0-.19.24-.34.73-.43a6.38,6.38,0,0,1,1.28-.15.46.46,0,0,1,.45.24,1.92,1.92,0,0,1,.19.54c0,.19.07.32.08.39a3.29,3.29,0,0,1,.81-1,1.81,1.81,0,0,1,1.16-.37.94.94,0,0,1,.8.3,1.09,1.09,0,0,1,.22.68,3.47,3.47,0,0,1-.16.94c-.11.38-.24.57-.4.57a1.77,1.77,0,0,1-.37-.08,2.33,2.33,0,0,0-.47-.07,1.43,1.43,0,0,0-.86.28,2.58,2.58,0,0,0-.58.62v5.78c0,.39-.36.58-1.08.58h-.51C599.64,428.3,599.28,428.11,599.28,427.72Z" transform="translate(-112.74 -415.05)"/><path class="cls-1" d="M607.12,417v-1.27c0-.45.44-.67,1.33-.67s1.33.22,1.33.67V417c0,.46-.44.69-1.33.69S607.12,417.45,607.12,417Zm0,10.73v-8.33c0-.39.36-.58,1.08-.58h.5c.72,0,1.08.19,1.08.58v8.33c0,.39-.36.58-1.08.58h-.5C607.48,428.3,607.12,428.11,607.12,427.72Z" transform="translate(-112.74 -415.05)"/><path class="cls-1" d="M613.84,427.14a5,5,0,0,1-1.16-3.52,5.19,5.19,0,0,1,1.16-3.73,4.32,4.32,0,0,1,3.22-1.19A3.41,3.41,0,0,1,620,420a5.54,5.54,0,0,1,1,3.35,1.27,1.27,0,0,1-.37.64c-.25.28-.43.42-.55.42h-4.59a2,2,0,0,0,.61,1.46,2.27,2.27,0,0,0,1.46.43,3.36,3.36,0,0,0,.92-.12,7.4,7.4,0,0,0,.86-.3,1.22,1.22,0,0,1,.39-.14.6.6,0,0,1,.41.26,2.65,2.65,0,0,1,.38.6,1.36,1.36,0,0,1,.15.51c0,.27-.19.51-.56.71a4.33,4.33,0,0,1-1.33.44,7.11,7.11,0,0,1-1.35.14A4.6,4.6,0,0,1,613.84,427.14Zm4.51-4.51a2.47,2.47,0,0,0-.32-1.33,1.08,1.08,0,0,0-1-.49c-.89,0-1.43.61-1.62,1.82Z" transform="translate(-112.74 -415.05)"/><path class="cls-1" d="M624.19,428.06c-.63-.22-.94-.52-.94-.88a1.64,1.64,0,0,1,.34-.87c.23-.34.43-.52.61-.52a.87.87,0,0,1,.4.15c.25.11.48.19.69.26a2.34,2.34,0,0,0,.73.1,1.32,1.32,0,0,0,.78-.2.65.65,0,0,0,.27-.56.72.72,0,0,0-.2-.52,1.8,1.8,0,0,0-.43-.31c-.16-.07-.47-.19-.92-.35a4.32,4.32,0,0,1-1.49-.94,2.46,2.46,0,0,1-.56-1.77,2.73,2.73,0,0,1,.88-2.16,3.43,3.43,0,0,1,2.39-.79,6.14,6.14,0,0,1,1.83.27q.87.27.87.78a2.09,2.09,0,0,1-.27.88c-.18.36-.35.54-.5.54a2.42,2.42,0,0,1-.52-.19,2.59,2.59,0,0,0-1-.19c-.64,0-1,.21-1,.63a.68.68,0,0,0,.31.61,5.16,5.16,0,0,0,1,.49l.34.14a3.11,3.11,0,0,1,.4.18,2.93,2.93,0,0,1,1.14.93,2.55,2.55,0,0,1,.43,1.56,2.88,2.88,0,0,1-.94,2.24,3.73,3.73,0,0,1-2.59.83A5.84,5.84,0,0,1,624.19,428.06Z" transform="translate(-112.74 -415.05)"/><path class="cls-1" d="M639.46,428.26a5,5,0,0,1-1.56-.47,1,1,0,0,1-.65-.86,1.36,1.36,0,0,1,.15-.51,2.68,2.68,0,0,1,.34-.6.53.53,0,0,1,.4-.26,1.49,1.49,0,0,1,.46.18,8.94,8.94,0,0,0,1,.41,3.89,3.89,0,0,0,1.14.15,1.77,1.77,0,0,0,1.29-.46,1.65,1.65,0,0,0,.49-1.29,1.74,1.74,0,0,0-.51-1.37,2.3,2.3,0,0,0-1.6-.46h-.5a.47.47,0,0,1-.42-.22,1.45,1.45,0,0,1-.12-.68v-.33a1.45,1.45,0,0,1,.12-.68.47.47,0,0,1,.42-.22h.34a2.08,2.08,0,0,0,1.36-.4,1.33,1.33,0,0,0,.49-1.09,1.51,1.51,0,0,0-.36-1.07,1.44,1.44,0,0,0-1.09-.39,3.43,3.43,0,0,0-1,.12,4.62,4.62,0,0,0-.76.3.94.94,0,0,1-.38.14c-.18,0-.37-.17-.58-.5a1.7,1.7,0,0,1-.32-.87c0-.42.34-.74,1-1a7.75,7.75,0,0,1,2.47-.34,4,4,0,0,1,2.7.85,3.14,3.14,0,0,1,.54,3.91,2.65,2.65,0,0,1-1.22,1v.07a3,3,0,0,1,1.57,1.24,3.75,3.75,0,0,1,.52,2,3.58,3.58,0,0,1-1.13,2.79,4.21,4.21,0,0,1-2.94,1A10.42,10.42,0,0,1,639.46,428.26Z" transform="translate(-112.74 -415.05)"/><path class="cls-1" d="M519.8,460.53a20.29,20.29,0,0,1-3.61-3.95,7.15,7.15,0,0,1-1.22-4,13.41,13.41,0,0,1,1-4.84,40.17,40.17,0,0,1,3-6h5.76l.36-1.86h5.16l-1.8,10.32h-5.28l1.44-7.95q-3.54,6.72-3.54,10,0,4.11,6,8.25Z" transform="translate(-112.74 -415.05)"/><path class="cls-1" d="M534.89,460.53a7.56,7.56,0,0,1-2.21-2.41,6.45,6.45,0,0,1-.67-3.05c0-.3,0-.77.07-1.41s.16-1.46.32-2.46l1.44-9.45h5.61l-2,12.06q-.06.33-.09.63t0,.6q0,2.46,2.55,4.83l2.37-19.5h6l-3.42,20.16Z" transform="translate(-112.74 -415.05)"/><path class="cls-1" d="M552.46,442.74h5.79l-3.09,17.79H550.3Zm4,11.67,2.88-5a11.25,11.25,0,0,0,1-2.36,6.27,6.27,0,0,0,.3-1.36,3.15,3.15,0,0,0-.69-1.89,5.55,5.55,0,0,0-2-1.59l-3.15-1.62,6.93-1.38q5,2.64,5,6,0,2.91-3.24,6.36l-2.1,2.25,3.63,6.69H559Z" transform="translate(-112.74 -415.05)"/><path class="cls-1" d="M571.1,442.74h5.79l-3.09,17.79h-4.86Zm4,11.67,2.88-5a11.25,11.25,0,0,0,1-2.36,6.27,6.27,0,0,0,.3-1.36,3.15,3.15,0,0,0-.69-1.89,5.55,5.55,0,0,0-2-1.59l-3.15-1.62,6.93-1.38q5,2.64,5,6,0,2.91-3.24,6.36l-2.1,2.25,3.63,6.69h-6.12Z" transform="translate(-112.74 -415.05)"/><path class="cls-1" d="M593.59,455.58h-4.47a9.55,9.55,0,0,1-.75-3c-.1-1.14-.15-2.41-.15-3.83,0-1.18,0-2.34.09-3.5s.16-2.3.3-3.46h5.73q-.45,3.09-.69,5.71c-.16,1.75-.24,3.35-.24,4.79a13.6,13.6,0,0,0,.3,3h.06L597,439.89h6.09l-5.61,20.64h-5Z" transform="translate(-112.74 -415.05)"/><path class="cls-1" d="M612.78,446.07l4.48-1.08v-.06l-5.13.15,1.13-4.5h10.87l-.7,4.11-4.62.18-1.08,5.28h4.74l-.62,3.24-4.75.33-1.22,6.81h-5.07Z" transform="translate(-112.74 -415.05)"/><path class="cls-1" d="M627.71,440.58h5.94l-2.82,16.5,4.92.09-.6,3.36h-9.84Z" transform="translate(-112.74 -415.05)"/><path class="cls-1" d="M641.46,441.75h5.79l-3.12,11.88h2.55l.66-13.74h6.06l-1.92,20.64h-5.19l.27-4.44-3.15.45-1,4h-4.55Z" transform="translate(-112.74 -415.05)"/><path class="cls-1" d="M657.66,441.75h5.85l-1.14,17.76,4.26-19.62h5.79l-5.55,20.64h-9.21Z" transform="translate(-112.74 -415.05)"/><path class="cls-1" d="M676.29,460.53a22.81,22.81,0,0,1-1.9-3.87,10,10,0,0,1-.63-3.36,14.68,14.68,0,0,1,.8-4.62,26.48,26.48,0,0,1,2.41-5.13h5a37,37,0,0,0-3.36-3l7.19-1a13.59,13.59,0,0,1,3,3.81,9.2,9.2,0,0,1,1,4.17q0,5.37-5.46,13Zm4.2-1.35a37.61,37.61,0,0,0,2.31-5.79,18.28,18.28,0,0,0,.78-5,9.16,9.16,0,0,0-.33-2.55,6.39,6.39,0,0,0-1.11-2.13,26.27,26.27,0,0,0-2.43,10.11,17.76,17.76,0,0,0,.19,2.59A22,22,0,0,0,680.49,459.18Z" transform="translate(-112.74 -415.05)"/><path class="cls-1" d="M694.65,442.74h5.79l-3.09,17.79h-4.86Zm4,11.67,2.88-5A11.25,11.25,0,0,0,702.6,447a6.27,6.27,0,0,0,.3-1.36,3.15,3.15,0,0,0-.69-1.89,5.55,5.55,0,0,0-2-1.59l-3.15-1.62L704,439.2q5,2.64,5,6,0,2.91-3.24,6.36l-2.1,2.25,3.63,6.69h-6.12Z" transform="translate(-112.74 -415.05)"/><path class="cls-1" d="M547.79,486.07v2H545.6V470.93h5.79v15.14Zm0-12.89v10.61h1.41V473.18Zm11.83.79s0,.87,0,1.21c-.27,10.34-.48,14-1.2,15a2.12,2.12,0,0,1-1.54,1.12,11.55,11.55,0,0,1-2.23.1,6.82,6.82,0,0,0-.65-2.52,13.68,13.68,0,0,0,1.54.07.68.68,0,0,0,.69-.45c.48-.65.7-3.58.92-12h-1.35c-.19,6.79-.93,11.93-3.91,15.36A7.08,7.08,0,0,0,550,490c2.62-3,3.22-7.44,3.36-13.51H552V474h1.42c0-1.43,0-3,0-4.53h2.42c0,1.56,0,3.07,0,4.53Zm7-1.94v18.58h-2.4V489H562.5v1.85h-2.28V472Zm-2.4,14.4v-11.9H562.5v11.9Z" transform="translate(-112.74 -415.05)"/><path class="cls-1" d="M576.54,485.47v2.14H574v-16.2h6.84v14.06Zm0-11.45v8.84h1.66V474Zm19.11,14.38V491H580.38V488.4h6.53v-2.28h-5v-2.57h5v-1.87h-4.82V470.5h12.43v11.18h-4.8v1.87h5.14v2.57h-5.14v2.28Zm-11-13.46h2.44v-2h-2.44Zm0,4.32h2.44v-2.07h-2.44Zm7.13-6.34H589.5v2h2.29Zm0,4.27H589.5v2.07h2.29Z" transform="translate(-112.74 -415.05)"/><path class="cls-1" d="M605,480.77a22.64,22.64,0,0,0-3.89-2.59l1.3-2.14a26,26,0,0,1,4,2.33Zm2.5,3.14c-1.16,2.5-2.53,5.23-3.85,7.56l-2-2a71.23,71.23,0,0,0,4.1-7.52Zm-1.3-9.5a29.48,29.48,0,0,0-3.84-2.69l1.34-2.09a28,28,0,0,1,3.94,2.45Zm17,12.74a22.89,22.89,0,0,1-2.52,1.44,8.84,8.84,0,0,0,2.95,1.08,7,7,0,0,0-1.44,2,9,9,0,0,1-6.43-5.55h-1.66v2.69l2.5-.57a11.17,11.17,0,0,0,.45,1.89c-4.2,1.15-4.94,1.44-5.42,1.78a6.81,6.81,0,0,0-1.06-2,2.17,2.17,0,0,0,1.08-1.95v-1.85h-1.13a11.68,11.68,0,0,1-2.71,5.65,10.31,10.31,0,0,0-2.09-1.49c2.45-2.5,2.74-6,2.74-8.45v-3h14.83v2.06H611v.77h10.92v1.66h-11c0,.26,0,.53-.07.81h12.82v2h-1.44Zm-.39-9.09h-14v-7.28h3.87v-1.46H615v1.46h1.58v-1.46h2.23v1.46h4.08Zm-11.57-4.44h1.47v-1.13h-1.47Zm0,2.78h1.47v-1.18h-1.47Zm3.68-3.91v1.13h1.58v-1.13Zm0,2.73v1.18h1.58v-1.18Zm3.16,10.92a7.76,7.76,0,0,0,1.08,1.32,20.31,20.31,0,0,0,2-1.32Zm2.26-13.65h-1.61v1.13h1.61Zm0,2.73h-1.61v1.18h1.61Z" transform="translate(-112.74 -415.05)"/><path class="cls-1" d="M634.35,477.6c0,4.13-.33,10.22-2.49,14.14a10.63,10.63,0,0,0-2.5-1.42c2-3.62,2.16-8.93,2.16-12.72v-7.34h20v2.59H634.35Zm17.4,10.06h-7.53V489c0,1.27-.34,1.87-1.35,2.21a14.2,14.2,0,0,1-4.29.33,10.37,10.37,0,0,0-.94-2.27c1.27,0,2.86,0,3.27,0s.52-.07.52-.39v-1.24h-7.27v-2.21h7.27v-.89a19.11,19.11,0,0,0,2.88-1h-8.49v-1.9h11.83l.58-.12,1.68,1.51a36.2,36.2,0,0,1-5.31,2.43h7.15ZM636,480.74v-7H649.5v7Zm2.72-4.32h8v-1h-8Zm0,2.6h8v-1h-8Z" transform="translate(-112.74 -415.05)"/><path class="cls-1" d="M665.14,485.83a25.42,25.42,0,0,1-5.28,5,25.27,25.27,0,0,0-2.49-1.87,16.63,16.63,0,0,0,4.87-4.13Zm4.81-1.92v4.75c0,1.42-.29,2.14-1.35,2.6a11.32,11.32,0,0,1-4.15.45,10.93,10.93,0,0,0-1-2.78c1.22.05,2.68.05,3.09.05s.53-.1.53-.39v-4.44c-5.45.43-6.53.6-7.37.91a19.88,19.88,0,0,0-.84-2.56,11.61,11.61,0,0,0,3.34-1.23,35.5,35.5,0,0,0,3.79-2c-3.84.26-4.66.38-5.21.62-.14-.55-.55-1.89-.84-2.64a6.15,6.15,0,0,0,2-.79,26.13,26.13,0,0,0,3.84-2.42c-2.31.45-4.63.81-6.84,1.1a9.16,9.16,0,0,0-.79-2.42c5.52-.75,11.56-2,15.24-3.55l2.11,2.25a46.44,46.44,0,0,1-6.89,2l1.3.84a44.9,44.9,0,0,1-4.08,2.69l4.15-.22c.89-.62,1.73-1.25,2.54-1.92l2.11,1.9a50.23,50.23,0,0,1-8.11,4.94l6.77-.46c-.5-.6-1-1.17-1.54-1.7l2.38-1.2a45.64,45.64,0,0,1,4.68,5.4l-2.42,1.46c-.31-.47-.72-1.05-1.23-1.68Zm3.59.58a30.92,30.92,0,0,1,5.38,4.39l-2.52,1.68a32.37,32.37,0,0,0-5.18-4.56Z" transform="translate(-112.74 -415.05)"/><path class="cls-1" d="M1109.74,454.24a2,2,0,0,1-2-2,2.47,2.47,0,0,1,0-.39,2.4,2.4,0,0,1,.12-.38,1.83,1.83,0,0,1,.18-.34,3.76,3.76,0,0,1,.25-.31,3.61,3.61,0,0,1,.3-.25,2.31,2.31,0,0,1,.35-.18,1.73,1.73,0,0,1,.37-.11,2,2,0,0,1,2.4,2,2,2,0,0,1-2,2Z" transform="translate(-112.74 -415.05)"/><path class="cls-1" d="M1097.78,452.24a2,2,0,0,1,2-2h0a2,2,0,0,1,2,2h0a2,2,0,0,1-2,2h0A2,2,0,0,1,1097.78,452.24Z" transform="translate(-112.74 -415.05)"/><path class="cls-1" d="M1087.82,452.24a2,2,0,0,1,2-2h0a2,2,0,0,1,2,2h0a2,2,0,0,1-2,2h0A2,2,0,0,1,1087.82,452.24Zm-10,0a2,2,0,0,1,2-2h0a2,2,0,0,1,2,2h0a2,2,0,0,1-2,2h0A2,2,0,0,1,1077.86,452.24Zm-9.95,0a2,2,0,0,1,2-2h0a2,2,0,0,1,2,2h0a2,2,0,0,1-2,2h0A2,2,0,0,1,1067.91,452.24Zm-10,0a2,2,0,0,1,2-2h0a2,2,0,0,1,2,2h0a2,2,0,0,1-2,2h0A2,2,0,0,1,1058,452.24Zm-10,0a2,2,0,0,1,2-2h0a2,2,0,0,1,2,2h0a2,2,0,0,1-2,2h0A2,2,0,0,1,1048,452.24Zm-10,0a2,2,0,0,1,2-2h0a2,2,0,0,1,2,2h0a2,2,0,0,1-2,2h0A2,2,0,0,1,1038,452.24Zm-10,0a2,2,0,0,1,2-2h0a2,2,0,0,1,2,2h0a2,2,0,0,1-2,2h0A2,2,0,0,1,1028.07,452.24Zm-9.95,0a2,2,0,0,1,2-2h0a2,2,0,0,1,2,2h0a2,2,0,0,1-2,2h0A2,2,0,0,1,1018.12,452.24Zm-10,0a2,2,0,0,1,2-2h0a2,2,0,0,1,2,2h0a2,2,0,0,1-2,2h0A2,2,0,0,1,1008.16,452.24Zm-10,0a2,2,0,0,1,2-2h0a2,2,0,0,1,2,2h0a2,2,0,0,1-2,2h0A2,2,0,0,1,998.2,452.24Zm-10,0a2,2,0,0,1,2-2h0a2,2,0,0,1,2,2h0a2,2,0,0,1-2,2h0A2,2,0,0,1,988.24,452.24Zm-10,0a2,2,0,0,1,2-2h0a2,2,0,0,1,2,2h0a2,2,0,0,1-2,2h0A2,2,0,0,1,978.29,452.24Zm-10,0a2,2,0,0,1,2-2h0a2,2,0,0,1,2,2h0a2,2,0,0,1-2,2h0A2,2,0,0,1,968.33,452.24Zm-10,0a2,2,0,0,1,2-2h0a2,2,0,0,1,2,2h0a2,2,0,0,1-2,2h0A2,2,0,0,1,958.37,452.24Zm-10,0a2,2,0,0,1,2-2h0a2,2,0,0,1,2,2h0a2,2,0,0,1-2,2h0A2,2,0,0,1,948.41,452.24Zm-9.95,0a2,2,0,0,1,2-2h0a2,2,0,0,1,2,2h0a2,2,0,0,1-2,2h0A2,2,0,0,1,938.46,452.24Zm-10,0a2,2,0,0,1,2-2h0a2,2,0,0,1,2,2h0a2,2,0,0,1-2,2h0A2,2,0,0,1,928.5,452.24Zm-10,0a2,2,0,0,1,2-2h0a2,2,0,0,1,2,2h0a2,2,0,0,1-2,2h0A2,2,0,0,1,918.54,452.24Zm-9.95,0a2,2,0,0,1,2-2h0a2,2,0,0,1,2,2h0a2,2,0,0,1-2,2h0A2,2,0,0,1,908.59,452.24Zm-10,0a2,2,0,0,1,2-2h0a2,2,0,0,1,2,2h0a2,2,0,0,1-2,2h0A2,2,0,0,1,898.63,452.24Zm-10,0a2,2,0,0,1,2-2h0a2,2,0,0,1,2,2h0a2,2,0,0,1-2,2h0A2,2,0,0,1,888.67,452.24Zm-10,0a2,2,0,0,1,2-2h0a2,2,0,0,1,2,2h0a2,2,0,0,1-2,2h0A2,2,0,0,1,878.71,452.24Zm-10,0a2,2,0,0,1,2-2h0a2,2,0,0,1,2,2h0a2,2,0,0,1-2,2h0A2,2,0,0,1,868.75,452.24Zm-10,0a2,2,0,0,1,2-2h0a2,2,0,0,1,2,2h0a2,2,0,0,1-2,2h0A2,2,0,0,1,858.8,452.24Zm-10,0a2,2,0,0,1,2-2h0a2,2,0,0,1,2,2h0a2,2,0,0,1-2,2h0A2,2,0,0,1,848.84,452.24Zm-10,0a2,2,0,0,1,2-2h0a2,2,0,0,1,2,2h0a2,2,0,0,1-2,2h0A2,2,0,0,1,838.88,452.24Zm-10,0a2,2,0,0,1,2-2h0a2,2,0,0,1,2,2h0a2,2,0,0,1-2,2h0A2,2,0,0,1,828.92,452.24Zm-9.95,0a2,2,0,0,1,2-2h0a2,2,0,0,1,2,2h0a2,2,0,0,1-2,2h0A2,2,0,0,1,819,452.24Zm-10,0a2,2,0,0,1,2-2h0a2,2,0,0,1,2,2h0a2,2,0,0,1-2,2h0A2,2,0,0,1,809,452.24Zm-10,0a2,2,0,0,1,2-2h0a2,2,0,0,1,2,2h0a2,2,0,0,1-2,2h0A2,2,0,0,1,799.05,452.24Zm-10,0a2,2,0,0,1,2-2h0a2,2,0,0,1,2,2h0a2,2,0,0,1-2,2h0A2,2,0,0,1,789.09,452.24Zm-10,0a2,2,0,0,1,2-2h0a2,2,0,0,1,2,2h0a2,2,0,0,1-2,2h0A2,2,0,0,1,779.14,452.24Zm-10,0a2,2,0,0,1,2-2h0a2,2,0,0,1,2,2h0a2,2,0,0,1-2,2h0A2,2,0,0,1,769.18,452.24Zm-10,0a2,2,0,0,1,2-2h0a2,2,0,0,1,2,2h0a2,2,0,0,1-2,2h0A2,2,0,0,1,759.22,452.24Zm-10,0a2,2,0,0,1,2-2h0a2,2,0,0,1,2,2h0a2,2,0,0,1-2,2h0A2,2,0,0,1,749.26,452.24Zm-10,0a2,2,0,0,1,2-2h0a2,2,0,0,1,2,2h0a2,2,0,0,1-2,2h0A2,2,0,0,1,739.31,452.24Z" transform="translate(-112.74 -415.05)"/><path class="cls-1" d="M731.35,454.24a2,2,0,0,1-1.42-.59,2.16,2.16,0,0,1-.43-.65,2,2,0,0,1-.15-.76,2,2,0,0,1,.58-1.42l.31-.25a2.21,2.21,0,0,1,.34-.18,1.66,1.66,0,0,1,.38-.11,1.71,1.71,0,0,1,.78,0,1.58,1.58,0,0,1,.37.11,2.31,2.31,0,0,1,.35.18,2.48,2.48,0,0,1,.3.25,2,2,0,0,1,.59,1.42,2,2,0,0,1-2,2Z" transform="translate(-112.74 -415.05)"/><path class="cls-1" d="M493.12,454.24a2.58,2.58,0,0,1-.39,0,2.26,2.26,0,0,1-.37-.11,2.37,2.37,0,0,1-.35-.19,1.81,1.81,0,0,1-.3-.25,1.92,1.92,0,0,1-.44-.65,2,2,0,0,1-.15-.76,2,2,0,0,1,.59-1.42,2.48,2.48,0,0,1,.3-.25,2.31,2.31,0,0,1,.35-.18,1.58,1.58,0,0,1,.37-.11,1.71,1.71,0,0,1,.78,0,1.66,1.66,0,0,1,.38.11,2.21,2.21,0,0,1,.34.18l.31.25a2,2,0,0,1,.58,1.42,2,2,0,0,1-.15.76,2.16,2.16,0,0,1-.43.65A2,2,0,0,1,493.12,454.24Z" transform="translate(-112.74 -415.05)"/><path class="cls-1" d="M481.17,452.24a2,2,0,0,1,2-2h0a2,2,0,0,1,2,2h0a2,2,0,0,1-2,2h0A2,2,0,0,1,481.17,452.24Z" transform="translate(-112.74 -415.05)"/><path class="cls-1" d="M471.21,452.24a2,2,0,0,1,2-2h0a2,2,0,0,1,2,2h0a2,2,0,0,1-2,2h0A2,2,0,0,1,471.21,452.24Zm-10,0a2,2,0,0,1,2-2h0a2,2,0,0,1,2,2h0a2,2,0,0,1-2,2h0A2,2,0,0,1,461.25,452.24Zm-10,0a2,2,0,0,1,2-2h0a2,2,0,0,1,2,2h0a2,2,0,0,1-2,2h0A2,2,0,0,1,451.29,452.24Zm-10,0a2,2,0,0,1,2-2h0a2,2,0,0,1,2,2h0a2,2,0,0,1-2,2h0A2,2,0,0,1,441.34,452.24Zm-10,0a2,2,0,0,1,2-2h0a2,2,0,0,1,2,2h0a2,2,0,0,1-2,2h0A2,2,0,0,1,431.38,452.24Zm-10,0a2,2,0,0,1,2-2h0a2,2,0,0,1,2,2h0a2,2,0,0,1-2,2h0A2,2,0,0,1,421.42,452.24Zm-10,0a2,2,0,0,1,2-2h0a2,2,0,0,1,2,2h0a2,2,0,0,1-2,2h0A2,2,0,0,1,411.46,452.24Zm-9.95,0a2,2,0,0,1,2-2h0a2,2,0,0,1,2,2h0a2,2,0,0,1-2,2h0A2,2,0,0,1,401.51,452.24Zm-10,0a2,2,0,0,1,2-2h0a2,2,0,0,1,2,2h0a2,2,0,0,1-2,2h0A2,2,0,0,1,391.55,452.24Zm-10,0a2,2,0,0,1,2-2h0a2,2,0,0,1,2,2h0a2,2,0,0,1-2,2h0A2,2,0,0,1,381.59,452.24Zm-10,0a2,2,0,0,1,2-2h0a2,2,0,0,1,2,2h0a2,2,0,0,1-2,2h0A2,2,0,0,1,371.63,452.24Zm-10,0a2,2,0,0,1,2-2h0a2,2,0,0,1,2,2h0a2,2,0,0,1-2,2h0A2,2,0,0,1,361.67,452.24Zm-9.95,0a2,2,0,0,1,2-2h0a2,2,0,0,1,2,2h0a2,2,0,0,1-2,2h0A2,2,0,0,1,351.72,452.24Zm-10,0a2,2,0,0,1,2-2h0a2,2,0,0,1,2,2h0a2,2,0,0,1-2,2h0A2,2,0,0,1,341.76,452.24Zm-10,0a2,2,0,0,1,2-2h0a2,2,0,0,1,2,2h0a2,2,0,0,1-2,2h0A2,2,0,0,1,331.8,452.24Zm-9.95,0a2,2,0,0,1,2-2h0a2,2,0,0,1,2,2h0a2,2,0,0,1-2,2h0A2,2,0,0,1,321.85,452.24Zm-10,0a2,2,0,0,1,2-2h0a2,2,0,0,1,2,2h0a2,2,0,0,1-2,2h0A2,2,0,0,1,311.89,452.24Zm-10,0a2,2,0,0,1,2-2h0a2,2,0,0,1,2,2h0a2,2,0,0,1-2,2h0A2,2,0,0,1,301.93,452.24Zm-10,0a2,2,0,0,1,2-2h0a2,2,0,0,1,2,2h0a2,2,0,0,1-2,2h0A2,2,0,0,1,292,452.24Zm-10,0a2,2,0,0,1,2-2h0a2,2,0,0,1,2,2h0a2,2,0,0,1-2,2h0A2,2,0,0,1,282,452.24Zm-9.95,0a2,2,0,0,1,2-2h0a2,2,0,0,1,2,2h0a2,2,0,0,1-2,2h0A2,2,0,0,1,272.06,452.24Zm-10,0a2,2,0,0,1,2-2h0a2,2,0,0,1,2,2h0a2,2,0,0,1-2,2h0A2,2,0,0,1,262.1,452.24Zm-10,0a2,2,0,0,1,2-2h0a2,2,0,0,1,2,2h0a2,2,0,0,1-2,2h0A2,2,0,0,1,252.14,452.24Zm-9.95,0a2,2,0,0,1,2-2h0a2,2,0,0,1,2,2h0a2,2,0,0,1-2,2h0A2,2,0,0,1,242.19,452.24Zm-10,0a2,2,0,0,1,2-2h0a2,2,0,0,1,2,2h0a2,2,0,0,1-2,2h0A2,2,0,0,1,232.23,452.24Zm-10,0a2,2,0,0,1,2-2h0a2,2,0,0,1,2,2h0a2,2,0,0,1-2,2h0A2,2,0,0,1,222.27,452.24Zm-10,0a2,2,0,0,1,2-2h0a2,2,0,0,1,2,2h0a2,2,0,0,1-2,2h0A2,2,0,0,1,212.31,452.24Zm-10,0a2,2,0,0,1,2-2h0a2,2,0,0,1,2,2h0a2,2,0,0,1-2,2h0A2,2,0,0,1,202.35,452.24Zm-9.95,0a2,2,0,0,1,2-2h0a2,2,0,0,1,2,2h0a2,2,0,0,1-2,2h0A2,2,0,0,1,192.4,452.24Zm-10,0a2,2,0,0,1,2-2h0a2,2,0,0,1,2,2h0a2,2,0,0,1-2,2h0A2,2,0,0,1,182.44,452.24Zm-10,0a2,2,0,0,1,2-2h0a2,2,0,0,1,2,2h0a2,2,0,0,1-2,2h0A2,2,0,0,1,172.48,452.24Zm-10,0a2,2,0,0,1,2-2h0a2,2,0,0,1,2,2h0a2,2,0,0,1-2,2h0A2,2,0,0,1,162.52,452.24Zm-10,0a2,2,0,0,1,2-2h0a2,2,0,0,1,2,2h0a2,2,0,0,1-2,2h0A2,2,0,0,1,152.57,452.24Zm-10,0a2,2,0,0,1,2-2h0a2,2,0,0,1,2,2h0a2,2,0,0,1-2,2h0A2,2,0,0,1,142.61,452.24Zm-10,0a2,2,0,0,1,2-2h0a2,2,0,0,1,2,2h0a2,2,0,0,1-2,2h0A2,2,0,0,1,132.65,452.24Zm-10,0a2,2,0,0,1,2-2h0a2,2,0,0,1,2,2h0a2,2,0,0,1-2,2h0A2,2,0,0,1,122.69,452.24Z" transform="translate(-112.74 -415.05)"/><path class="cls-1" d="M114.74,454.24a2,2,0,0,1-2-2,2.56,2.56,0,0,1,0-.39,2.4,2.4,0,0,1,.12-.38,1.83,1.83,0,0,1,.18-.34,3.76,3.76,0,0,1,.25-.31,3.61,3.61,0,0,1,.3-.25,2.31,2.31,0,0,1,.35-.18,1.73,1.73,0,0,1,.37-.11,1.76,1.76,0,0,1,.79,0,1.73,1.73,0,0,1,.37.11,2.31,2.31,0,0,1,.35.18,2.48,2.48,0,0,1,.3.25,2,2,0,0,1,.59,1.42,1.82,1.82,0,0,1-.16.76,2,2,0,0,1-1.84,1.24Z" transform="translate(-112.74 -415.05)"/></svg>