<svg id="圖層_1" data-name="圖層 1" xmlns="http://www.w3.org/2000/svg" viewBox="0 0 999 76.83"><defs><style>.cls-1{fill:#1b1464;}</style></defs><title>經典越式河粉米食_清燉贖罪系</title><path class="cls-1" d="M549.88,383.65a4.52,4.52,0,0,1-1.49-.65c-.34-.23-.51-.46-.51-.68a1.49,1.49,0,0,1,.2-.65,3,3,0,0,1,.47-.67c.18-.19.33-.29.45-.29a1.75,1.75,0,0,1,.5.22,10.31,10.31,0,0,0,1,.45,3.27,3.27,0,0,0,1.1.16,2.35,2.35,0,0,0,1.19-.28,1,1,0,0,0,.5-1,1.1,1.1,0,0,0-.46-.91,7.25,7.25,0,0,0-1.49-.74l-.82-.36a5.13,5.13,0,0,1-1.79-1.34,3.58,3.58,0,0,1-.64-2.28,3.39,3.39,0,0,1,.6-2,3.6,3.6,0,0,1,1.57-1.2,5.59,5.59,0,0,1,2.09-.39,7.16,7.16,0,0,1,1.67.19,3.46,3.46,0,0,1,1.17.5c.27.19.4.38.4.57a1.61,1.61,0,0,1-.16.63,2.7,2.7,0,0,1-.4.66.6.6,0,0,1-.43.28.91.91,0,0,1-.3-.09l-.35-.15a4.33,4.33,0,0,0-1.35-.21,2.1,2.1,0,0,0-1.3.3.9.9,0,0,0-.37.71,1.15,1.15,0,0,0,.25.77,2.12,2.12,0,0,0,.61.5c.24.12.6.29,1.07.49a13.75,13.75,0,0,1,1.67.82,3.42,3.42,0,0,1,1.12,1.12,3.29,3.29,0,0,1,.48,1.86,4,4,0,0,1-.58,2.27,3.43,3.43,0,0,1-1.51,1.27,4.83,4.83,0,0,1-2,.4A8.73,8.73,0,0,1,549.88,383.65Z" transform="translate(-83.1 -370.54)"/><path class="cls-1" d="M559.7,382.63a5,5,0,0,1-1.16-3.52,5.12,5.12,0,0,1,1.16-3.72,4.24,4.24,0,0,1,3.21-1.19,3.4,3.4,0,0,1,2.94,1.29,5.56,5.56,0,0,1,.95,3.35,1.24,1.24,0,0,1-.37.64c-.25.28-.43.42-.55.42h-4.59a2,2,0,0,0,.61,1.46,2.23,2.23,0,0,0,1.46.43,3.32,3.32,0,0,0,.92-.11c.27-.08.56-.18.86-.3a1,1,0,0,1,.4-.14c.12,0,.25.08.4.26a2.39,2.39,0,0,1,.38.59,1.36,1.36,0,0,1,.15.51c0,.28-.18.52-.55.71a4.79,4.79,0,0,1-1.34.45,7.93,7.93,0,0,1-1.35.14A4.53,4.53,0,0,1,559.7,382.63Zm4.51-4.51a2.35,2.35,0,0,0-.33-1.32,1.08,1.08,0,0,0-1-.5c-.89,0-1.43.61-1.62,1.82Z" transform="translate(-83.1 -370.54)"/><path class="cls-1" d="M569.65,383.22v-5.71c0-.53,0-.93,0-1.21s-.07-.6-.12-.95a1.78,1.78,0,0,1-.06-.38c0-.19.25-.33.73-.43a6.47,6.47,0,0,1,1.29-.14.46.46,0,0,1,.45.24,2.22,2.22,0,0,1,.19.53c0,.19.07.32.08.4a3.29,3.29,0,0,1,.8-1,1.77,1.77,0,0,1,1.16-.37.93.93,0,0,1,.8.3,1.07,1.07,0,0,1,.23.67,4,4,0,0,1-.16.95c-.11.37-.24.56-.4.56a1.62,1.62,0,0,1-.38-.07,1.73,1.73,0,0,0-.47-.07,1.36,1.36,0,0,0-.85.28,2.3,2.3,0,0,0-.59.62v5.78q0,.57-1.08.57h-.5Q569.65,383.79,569.65,383.22Z" transform="translate(-83.1 -370.54)"/><path class="cls-1" d="M577.48,372.49v-1.28c0-.44.45-.67,1.33-.67s1.34.23,1.34.67v1.28c0,.45-.45.68-1.34.68S577.48,372.94,577.48,372.49Zm0,10.73v-8.34q0-.57,1.08-.57h.51q1.08,0,1.08.57v8.34q0,.57-1.08.57h-.51Q577.48,383.79,577.48,383.22Z" transform="translate(-83.1 -370.54)"/><path class="cls-1" d="M584.21,382.63a5,5,0,0,1-1.16-3.52,5.17,5.17,0,0,1,1.16-3.72,4.26,4.26,0,0,1,3.21-1.19,3.41,3.41,0,0,1,3,1.29,5.56,5.56,0,0,1,.94,3.35,1.17,1.17,0,0,1-.37.64c-.24.28-.43.42-.55.42H585.8a2,2,0,0,0,.62,1.46,2.18,2.18,0,0,0,1.45.43,3.32,3.32,0,0,0,.92-.11,9,9,0,0,0,.87-.3,1,1,0,0,1,.39-.14.58.58,0,0,1,.41.26,2.36,2.36,0,0,1,.37.59,1.24,1.24,0,0,1,.16.51c0,.28-.19.52-.56.71a4.72,4.72,0,0,1-1.33.45,8.14,8.14,0,0,1-1.35.14A4.54,4.54,0,0,1,584.21,382.63Zm4.51-4.51a2.43,2.43,0,0,0-.32-1.32,1.1,1.1,0,0,0-1-.5c-.89,0-1.43.61-1.62,1.82Z" transform="translate(-83.1 -370.54)"/><path class="cls-1" d="M594.55,383.56c-.62-.23-.93-.52-.93-.88a1.69,1.69,0,0,1,.34-.88c.23-.34.43-.51.61-.51a1,1,0,0,1,.4.14q.38.17.69.27a2.65,2.65,0,0,0,.73.09,1.31,1.31,0,0,0,.77-.19.74.74,0,0,0,.07-1.08,1.27,1.27,0,0,0-.43-.31c-.15-.07-.46-.19-.91-.36a4.1,4.1,0,0,1-1.49-.94,2.4,2.4,0,0,1-.57-1.76,2.78,2.78,0,0,1,.88-2.17,3.5,3.5,0,0,1,2.4-.78,6.24,6.24,0,0,1,1.83.27c.58.18.87.44.87.77a2.09,2.09,0,0,1-.27.88q-.27.54-.51.54a3,3,0,0,1-.52-.18,2.54,2.54,0,0,0-1-.19q-1,0-1,.63a.71.71,0,0,0,.32.61,5.57,5.57,0,0,0,1,.48,2.47,2.47,0,0,0,.34.15,3.11,3.11,0,0,1,.4.18,2.93,2.93,0,0,1,1.14.93,2.59,2.59,0,0,1,.42,1.55,2.85,2.85,0,0,1-.93,2.24,3.76,3.76,0,0,1-2.6.84A5.92,5.92,0,0,1,594.55,383.56Z" transform="translate(-83.1 -370.54)"/><path class="cls-1" d="M607.85,383.54a1.45,1.45,0,0,1-.12-.68v-.31a1.45,1.45,0,0,1,.12-.68.45.45,0,0,1,.42-.22h2.39v-8.08l-2.45.36c-.2,0-.35-.17-.44-.5a3.83,3.83,0,0,1-.13-1c0-.28.15-.45.47-.51l4.48-.83a1,1,0,0,1,.48.14c.17.09.26.19.26.3v10.13h1.92a.45.45,0,0,1,.42.22,1.45,1.45,0,0,1,.12.68v.31a1.45,1.45,0,0,1-.12.68.47.47,0,0,1-.42.22h-7A.47.47,0,0,1,607.85,383.54Z" transform="translate(-83.1 -370.54)"/><path class="cls-1" d="M469.84,416a20,20,0,0,1-3.61-3.94,7.19,7.19,0,0,1-1.22-4,13.5,13.5,0,0,1,1-4.84,40.17,40.17,0,0,1,3-6h5.76l.36-1.85h5.16l-1.8,10.31h-5.28l1.44-7.94q-3.54,6.71-3.54,10,0,4.13,6,8.25Z" transform="translate(-83.1 -370.54)"/><path class="cls-1" d="M484,396.07H490l-2.82,16.5,4.92.09-.6,3.36h-9.84Z" transform="translate(-83.1 -370.54)"/><path class="cls-1" d="M497.77,397.24h5.79l-3.12,11.88H503l.66-13.73h6.06L507.79,416H502.6l.27-4.44-3.15.45-1.05,4h-4.56Z" transform="translate(-83.1 -370.54)"/><path class="cls-1" d="M513.46,414.4a23,23,0,0,0,2.49-2.51,3.38,3.38,0,0,0,.87-2.08,1.94,1.94,0,0,0-.42-1.18,12.39,12.39,0,0,0-1.11-1.24c-.36-.37-.69-.71-1-1a7.28,7.28,0,0,1-.76-1,4.53,4.53,0,0,1-.5-1,3.74,3.74,0,0,1-.18-1.2,6.71,6.71,0,0,1,.66-2.83,34.33,34.33,0,0,1,1.62-3.05h6q-2,3.17-2,4.9a3,3,0,0,0,.6,1.87,14.88,14.88,0,0,0,1.53,1.69,15.07,15.07,0,0,1,1.55,1.79,3.27,3.27,0,0,1,.58,1.94,6.21,6.21,0,0,1-1,2.9,17,17,0,0,1-3,3.69h-7.8Zm8.16-19h5l-1.44,7.38h-4.77Z" transform="translate(-83.1 -370.54)"/><path class="cls-1" d="M528.73,414.4a23,23,0,0,0,2.49-2.51,3.38,3.38,0,0,0,.87-2.08,1.94,1.94,0,0,0-.42-1.18,12.39,12.39,0,0,0-1.11-1.24c-.36-.37-.69-.71-1-1a7.39,7.39,0,0,1-.77-1,4.49,4.49,0,0,1-.49-1,3.74,3.74,0,0,1-.18-1.2,6.71,6.71,0,0,1,.66-2.83,34.33,34.33,0,0,1,1.62-3.05h6q-2,3.17-2,4.9A3,3,0,0,0,535,404a14.88,14.88,0,0,0,1.53,1.69,14.89,14.89,0,0,1,1.54,1.79,3.28,3.28,0,0,1,.59,1.94,6.21,6.21,0,0,1-1,2.9,17,17,0,0,1-3,3.69h-7.8Zm8.16-19h5l-1.44,7.38h-4.77Z" transform="translate(-83.1 -370.54)"/><path class="cls-1" d="M545.54,396.44h6.09L548.27,416h-5Z" transform="translate(-83.1 -370.54)"/><path class="cls-1" d="M558.64,416a20,20,0,0,1-3.61-3.94,7.19,7.19,0,0,1-1.22-4,13.5,13.5,0,0,1,1-4.84,40.17,40.17,0,0,1,3-6h5.76l.36-1.85h5.16l-1.8,10.31h-5.28l1.44-7.94q-3.54,6.71-3.54,10,0,4.13,6,8.25Z" transform="translate(-83.1 -370.54)"/><path class="cls-1" d="M578.89,398.23h5.79L581.59,416h-4.86Zm5,15.09a10.31,10.31,0,0,0,1-1.41,2.38,2.38,0,0,0,.36-1.17c0-.77-.73-1.51-2.19-2.18,1.26-1.83,2.24-3.33,2.94-4.54a6.26,6.26,0,0,0,1.05-2.94,2.4,2.4,0,0,0-.36-1.27,4.8,4.8,0,0,0-1.08-1.17,14.33,14.33,0,0,0-1.8-1.21c-.72-.42-1.56-.87-2.52-1.36l6.58-1.38a20.2,20.2,0,0,1,3.84,2.88,4.07,4.07,0,0,1,1.28,2.86,6.84,6.84,0,0,1-1.21,3.56,35.68,35.68,0,0,1-3.53,4.59,8.51,8.51,0,0,1,2,1.34,2,2,0,0,1,.64,1.43,2.8,2.8,0,0,1-.51,1.59q-.51.75-1.29,1.71L588,416H581.8Z" transform="translate(-83.1 -370.54)"/><path class="cls-1" d="M597.14,401.56l4.5-1.08v-.05l-5.22.14,1.14-4.5h10.86l-.69,4.12-4.62.17-.84,4.41H607l-.57,3.25-4.8.24-.75,4.22,4.77.25-.57,3.29h-9.9Z" transform="translate(-83.1 -370.54)"/><path class="cls-1" d="M612.24,401.56l4.5-1.08v-.05l-5.22.14,1.14-4.5h10.86l-.69,4.12-4.62.17-.84,4.41h4.71l-.57,3.25-4.8.24-.75,4.22,4.77.25-.57,3.29h-9.9Z" transform="translate(-83.1 -370.54)"/><path class="cls-1" d="M627.33,401.56l4.47-1.08v-.05l-5.13.14,1.14-4.5h10.86l-.69,4.12-4.62.17-1.08,5.29H637l-.63,3.24-4.74.33-1.23,6.8h-5.07Z" transform="translate(-83.1 -370.54)"/><path class="cls-1" d="M648.21,398.23H654L650.91,416h-4.86Zm3.9,12.21a43.77,43.77,0,0,0,2.81-5.18,10,10,0,0,0,1-3.94,3.82,3.82,0,0,0-.31-1.59,4.21,4.21,0,0,0-1-1.29,9,9,0,0,0-1.64-1.15c-.66-.37-1.44-.77-2.34-1.22l6.93-1.38q1.08.68,1.89,1.26a7.4,7.4,0,0,1,1.34,1.25,4.56,4.56,0,0,1,.78,1.36,4.64,4.64,0,0,1,.25,1.56,11.49,11.49,0,0,1-1.06,4.31,49.57,49.57,0,0,1-3.14,6Z" transform="translate(-83.1 -370.54)"/><path class="cls-1" d="M665.71,397.24h6l-1.38,9.09h3.3L675,395.39h6L677.38,416h-5l.9-7.2-3.45.42-1,6.78H664Z" transform="translate(-83.1 -370.54)"/><path class="cls-1" d="M685.53,416a21.32,21.32,0,0,1-1.89-3.87,10,10,0,0,1-.63-3.36,14.55,14.55,0,0,1,.79-4.61,26.35,26.35,0,0,1,2.42-5.14h4.95a38.81,38.81,0,0,0-3.36-3l7.2-1a13.69,13.69,0,0,1,3,3.8,9.26,9.26,0,0,1,1,4.17q0,5.37-5.46,13Zm4.2-1.34a36.62,36.62,0,0,0,2.31-5.79,18,18,0,0,0,.78-5,9.26,9.26,0,0,0-.33-2.55,6.22,6.22,0,0,0-1.11-2.13A26.54,26.54,0,0,0,689,409.31a17.86,17.86,0,0,0,.19,2.59A23.91,23.91,0,0,0,689.73,414.68Z" transform="translate(-83.1 -370.54)"/><path class="cls-1" d="M519,436.36c-.89-.67-2.76-1.8-4-2.57l1.41-2.18c1.23.67,3.15,1.68,4.08,2.35Zm-3.45,8.9a74.64,74.64,0,0,0,3.88-7.65l2,1.58c-1.08,2.55-2.42,5.33-3.64,7.63Zm4.24-15.14a39.83,39.83,0,0,0-3.57-2.95l1.65-2c1.16.79,2.84,1.92,3.68,2.66Zm17.89,2.06v2H521v-2h7v-1.1h-5.59v-1.92h5.59V428.1h-6.26v-2h6.26v-1.25h2.86v1.25h6.41v2h-6.41v1.06h5.81v1.92h-5.81v1.1Zm-1.85,12.24c0,1.32-.29,1.95-1.18,2.36a10.67,10.67,0,0,1-3.84.4,9.52,9.52,0,0,0-.84-2.42c1,.05,2.14.05,2.47.05s.46-.12.46-.41v-1H525.5a8.84,8.84,0,0,1-1.78,3.86,12,12,0,0,0-2.18-2c1.37-1.63,1.49-3.91,1.49-5.76v-4.27h12.84Zm-2.93-2.9v-1.25h-7.08c0,.41-.05.82-.1,1.25Zm-7.08-4.32v1.25h7.08V437.2Z" transform="translate(-83.1 -370.54)"/><path class="cls-1" d="M544.36,436a61.49,61.49,0,0,0-1.17-6.57L545,429c.5,2.13,1.06,4.87,1.25,6.43Zm20.57-4.34a34.32,34.32,0,0,1-1.85,9.31,11.2,11.2,0,0,0,3,4.28,7.93,7.93,0,0,0-1.82,2.08,12,12,0,0,1-2.55-3.62,12.63,12.63,0,0,1-3.48,3.62,9.88,9.88,0,0,0-1.77-2,11.44,11.44,0,0,0,4.08-4.59,44.1,44.1,0,0,1-1.06-4.39,9.67,9.67,0,0,1-.55,1,16.68,16.68,0,0,0-1.58-1.94h-6v-4.9c-.53,1.75-1,3.72-1.42,5l-1.36-.55c0,1.29-.1,2.57-.24,3.82.52.72,1.75,2.71,2.4,3.74l-.34-1.68,2.88-.36v-1a10.11,10.11,0,0,0,1.2-1.11h-3.7v-2h5.64l.51-.14,1.41,1.17a23.16,23.16,0,0,1-2.54,2.38v.46l2.76-.39.12,2-2.88.48v2.36c0,1.1-.17,1.63-1,2a7.7,7.7,0,0,1-3,.33,7.41,7.41,0,0,0-.75-2.08c.77,0,1.63,0,1.87,0s.34-.08.34-.32v-1.89l-2.23.36,0,.05-1.7,1.72c-.34-.81-1-2-1.56-3.12a13.12,13.12,0,0,1-2.79,5.48,9.22,9.22,0,0,0-1.7-1.83c2.66-3.24,2.95-7.44,2.95-11.54v-8.64h2.31v9.29a44.94,44.94,0,0,0,.86-5.38l2.14.72-.17.53h6.33v3.91a32.3,32.3,0,0,0,2-9.39l2.49.36c-.14,1.35-.33,2.69-.57,4h4.2v2.47Zm-6.41-2.25h-7.89v-2.17h2.8a15.39,15.39,0,0,0-.79-1.46l2.16-.77a14.06,14.06,0,0,1,1.25,2.23h2.47Zm-2.93,2.56h-2.18v1.76h2.18Zm5.55-.31c-.07.26-.15.53-.22.77a42.91,42.91,0,0,0,.94,4.85,37.52,37.52,0,0,0,.86-5.62Z" transform="translate(-83.1 -370.54)"/><path class="cls-1" d="M575.93,442.26a34,34,0,0,1-2.4,4.76,11.23,11.23,0,0,0-1.85-1.28,21.72,21.72,0,0,0,2.19-4.15Zm3.6-1.05h-6.75V425.87h6.75Zm-2.26-13.06H575v2.16h2.3Zm0,4.25H575v2.21h2.3Zm0,4.32H575v2.21h2.3Zm1,4.85a24.93,24.93,0,0,1,1.82,3.09l-1.77,1.16a28.58,28.58,0,0,0-1.78-3.27Zm11.61,2.11c1.64.55,3.32,1.2,4.4,1.66l-1.13,1.94c-1.3-.57-3.39-1.46-5.23-2.16l.79-1.44H585l1.47,1.42c-1.9.81-4.27,1.7-6,2.28a15.37,15.37,0,0,0-1-2,41.92,41.92,0,0,0,4.54-1.73h-2.62v-7.2h11.79v7.2Zm-4.32-16h-5.16v-1.76h5.16v-1.08h2.79v1.08h5.49v1.76h-5.49v.89h4.85v1.63h-12v-1.63h4.34Zm-5.06,3.21h13.2v5h-13.2Zm2.23,3.58h1.68v-2.16h-1.68Zm1.08,4.22h6.63v-.72H583.8Zm0,1.78h6.63v-.72H583.8Zm0,1.8h6.63v-.77H583.8Zm4.11-7.8v-2.16h-1.8v2.16Zm3.43-2.16h-1.68v2.16h1.68Z" transform="translate(-83.1 -370.54)"/><path class="cls-1" d="M607,432.47h2.74v6.67c0,3.77-1.06,6.58-6.56,8.16a13.16,13.16,0,0,0-1.72-2.11,8.76,8.76,0,0,0,4.29-2.16l-5.57.67-.24-2.49c1.8-.12,4.35-.34,6.94-.55a9.07,9.07,0,0,0,.12-1.18h-5.59v-2.26H607V436.1h-6.12v-2.38H607Zm13.85-.45H601.22v-6.39h19.66Zm-14-4.11H604v1.82h2.88Zm5.54,0h-2.93v1.82h2.93Zm9.48,15.67H615v3.58h-2.9V432.47H615v1.25h6.43v2.42H615v1.11h5.83v2.35H615V441h6.91ZM618,427.91h-3v1.82h3Z" transform="translate(-83.1 -370.54)"/><path class="cls-1" d="M635.49,441.33a26.21,26.21,0,0,1-5.28,5,25.49,25.49,0,0,0-2.5-1.88,16.48,16.48,0,0,0,4.87-4.13Zm4.8-1.92v4.75c0,1.42-.29,2.14-1.35,2.59a11.23,11.23,0,0,1-4.15.46,10.42,10.42,0,0,0-1-2.79c1.22.05,2.69.05,3.1.05s.52-.09.52-.38v-4.44c-5.45.43-6.53.6-7.37.91a18.53,18.53,0,0,0-.84-2.57,11.14,11.14,0,0,0,3.34-1.22,34.56,34.56,0,0,0,3.79-2c-3.84.26-4.65.38-5.21.62-.14-.55-.55-1.9-.84-2.64a6.38,6.38,0,0,0,2-.79,26.8,26.8,0,0,0,3.84-2.43c-2.3.46-4.63.82-6.84,1.11a9.23,9.23,0,0,0-.79-2.43c5.52-.74,11.57-2,15.24-3.55l2.11,2.26a45.3,45.3,0,0,1-6.89,2l1.3.84a44.9,44.9,0,0,1-4.08,2.69l4.15-.21c.89-.63,1.73-1.25,2.55-1.93l2.11,1.9a51.17,51.17,0,0,1-8.11,4.95l6.76-.46c-.5-.6-1-1.18-1.53-1.7l2.37-1.21a45.51,45.51,0,0,1,4.68,5.4l-2.42,1.47A20,20,0,0,0,645.5,439Zm3.6.57a31.31,31.31,0,0,1,5.37,4.4l-2.52,1.68a31.89,31.89,0,0,0-5.18-4.56Z" transform="translate(-83.1 -370.54)"/><path class="cls-1" d="M1080.1,409.73a2,2,0,0,1-1.41-3.41,1.81,1.81,0,0,1,.3-.25,2.21,2.21,0,0,1,.34-.18,2.4,2.4,0,0,1,.38-.12,2,2,0,0,1,1.8.55,1.42,1.42,0,0,1,.25.3,2.37,2.37,0,0,1,.19.35,1.58,1.58,0,0,1,.11.37,1.72,1.72,0,0,1,0,.39,2,2,0,0,1-.59,1.42,2.48,2.48,0,0,1-.3.25,2.21,2.21,0,0,1-.34.18,1.82,1.82,0,0,1-.38.11A1.72,1.72,0,0,1,1080.1,409.73Z" transform="translate(-83.1 -370.54)"/><path class="cls-1" d="M1067.86,407.73a2,2,0,0,1,2-2h0a2,2,0,0,1,2,2h0a2,2,0,0,1-2,2h0A2,2,0,0,1,1067.86,407.73Z" transform="translate(-83.1 -370.54)"/><path class="cls-1" d="M1057.61,407.73a2,2,0,0,1,2-2h0a2,2,0,0,1,2,2h0a2,2,0,0,1-2,2h0A2,2,0,0,1,1057.61,407.73Zm-10.24,0a2,2,0,0,1,2-2h0a2,2,0,0,1,2,2h0a2,2,0,0,1-2,2h0A2,2,0,0,1,1047.37,407.73Zm-10.25,0a2,2,0,0,1,2-2h0a2,2,0,0,1,2,2h0a2,2,0,0,1-2,2h0A2,2,0,0,1,1037.12,407.73Zm-10.24,0a2,2,0,0,1,2-2h0a2,2,0,0,1,2,2h0a2,2,0,0,1-2,2h0A2,2,0,0,1,1026.88,407.73Zm-10.25,0a2,2,0,0,1,2-2h0a2,2,0,0,1,2,2h0a2,2,0,0,1-2,2h0A2,2,0,0,1,1016.63,407.73Zm-10.24,0a2,2,0,0,1,2-2h0a2,2,0,0,1,2,2h0a2,2,0,0,1-2,2h0A2,2,0,0,1,1006.39,407.73Zm-10.24,0a2,2,0,0,1,2-2h0a2,2,0,0,1,2,2h0a2,2,0,0,1-2,2h0A2,2,0,0,1,996.15,407.73Zm-10.25,0a2,2,0,0,1,2-2h0a2,2,0,0,1,2,2h0a2,2,0,0,1-2,2h0A2,2,0,0,1,985.9,407.73Zm-10.24,0a2,2,0,0,1,2-2h0a2,2,0,0,1,2,2h0a2,2,0,0,1-2,2h0A2,2,0,0,1,975.66,407.73Zm-10.25,0a2,2,0,0,1,2-2h0a2,2,0,0,1,2,2h0a2,2,0,0,1-2,2h0A2,2,0,0,1,965.41,407.73Zm-10.24,0a2,2,0,0,1,2-2h0a2,2,0,0,1,2,2h0a2,2,0,0,1-2,2h0A2,2,0,0,1,955.17,407.73Zm-10.25,0a2,2,0,0,1,2-2h0a2,2,0,0,1,2,2h0a2,2,0,0,1-2,2h0A2,2,0,0,1,944.92,407.73Zm-10.24,0a2,2,0,0,1,2-2h0a2,2,0,0,1,2,2h0a2,2,0,0,1-2,2h0A2,2,0,0,1,934.68,407.73Zm-10.24,0a2,2,0,0,1,2-2h0a2,2,0,0,1,2,2h0a2,2,0,0,1-2,2h0A2,2,0,0,1,924.44,407.73Zm-10.25,0a2,2,0,0,1,2-2h0a2,2,0,0,1,2,2h0a2,2,0,0,1-2,2h0A2,2,0,0,1,914.19,407.73Zm-10.24,0a2,2,0,0,1,2-2h0a2,2,0,0,1,2,2h0a2,2,0,0,1-2,2h0A2,2,0,0,1,904,407.73Zm-10.25,0a2,2,0,0,1,2-2h0a2,2,0,0,1,2,2h0a2,2,0,0,1-2,2h0A2,2,0,0,1,893.7,407.73Zm-10.24,0a2,2,0,0,1,2-2h0a2,2,0,0,1,2,2h0a2,2,0,0,1-2,2h0A2,2,0,0,1,883.46,407.73Zm-10.24,0a2,2,0,0,1,2-2h0a2,2,0,0,1,2,2h0a2,2,0,0,1-2,2h0A2,2,0,0,1,873.22,407.73Zm-10.25,0a2,2,0,0,1,2-2h0a2,2,0,0,1,2,2h0a2,2,0,0,1-2,2h0A2,2,0,0,1,863,407.73Zm-10.24,0a2,2,0,0,1,2-2h0a2,2,0,0,1,2,2h0a2,2,0,0,1-2,2h0A2,2,0,0,1,852.73,407.73Zm-10.25,0a2,2,0,0,1,2-2h0a2,2,0,0,1,2,2h0a2,2,0,0,1-2,2h0A2,2,0,0,1,842.48,407.73Zm-10.24,0a2,2,0,0,1,2-2h0a2,2,0,0,1,2,2h0a2,2,0,0,1-2,2h0A2,2,0,0,1,832.24,407.73Zm-10.24,0a2,2,0,0,1,2-2h0a2,2,0,0,1,2,2h0a2,2,0,0,1-2,2h0A2,2,0,0,1,822,407.73Zm-10.25,0a2,2,0,0,1,2-2h0a2,2,0,0,1,2,2h0a2,2,0,0,1-2,2h0A2,2,0,0,1,811.75,407.73Zm-10.24,0a2,2,0,0,1,2-2h0a2,2,0,0,1,2,2h0a2,2,0,0,1-2,2h0A2,2,0,0,1,801.51,407.73Zm-10.25,0a2,2,0,0,1,2-2h0a2,2,0,0,1,2,2h0a2,2,0,0,1-2,2h0A2,2,0,0,1,791.26,407.73Zm-10.24,0a2,2,0,0,1,2-2h0a2,2,0,0,1,2,2h0a2,2,0,0,1-2,2h0A2,2,0,0,1,781,407.73Zm-10.24,0a2,2,0,0,1,2-2h0a2,2,0,0,1,2,2h0a2,2,0,0,1-2,2h0A2,2,0,0,1,770.78,407.73Zm-10.25,0a2,2,0,0,1,2-2h0a2,2,0,0,1,2,2h0a2,2,0,0,1-2,2h0A2,2,0,0,1,760.53,407.73Zm-10.24,0a2,2,0,0,1,2-2h0a2,2,0,0,1,2,2h0a2,2,0,0,1-2,2h0A2,2,0,0,1,750.29,407.73Zm-10.25,0a2,2,0,0,1,2-2h0a2,2,0,0,1,2,2h0a2,2,0,0,1-2,2h0A2,2,0,0,1,740,407.73Z" transform="translate(-83.1 -370.54)"/><path class="cls-1" d="M731.8,409.73a1.72,1.72,0,0,1-.39,0,1.66,1.66,0,0,1-.38-.11,2.21,2.21,0,0,1-.34-.18l-.31-.25a2,2,0,0,1-.58-1.42,2,2,0,0,1,.58-1.41,2.42,2.42,0,0,1,.31-.25,2.21,2.21,0,0,1,.34-.18,2.4,2.4,0,0,1,.38-.12,2,2,0,0,1,.78,0,2.29,2.29,0,0,1,.37.12,2.31,2.31,0,0,1,.35.18,1.81,1.81,0,0,1,.3.25,2,2,0,0,1,.59,1.41,1.72,1.72,0,0,1,0,.39,1.68,1.68,0,0,1-.12.38,2.21,2.21,0,0,1-.18.34,2.42,2.42,0,0,1-.25.31,2.48,2.48,0,0,1-.3.25,2.31,2.31,0,0,1-.35.18,1.58,1.58,0,0,1-.37.11A1.72,1.72,0,0,1,731.8,409.73Z" transform="translate(-83.1 -370.54)"/><path class="cls-1" d="M433.4,409.73a2,2,0,0,1-1.41-.58,2,2,0,0,1-.59-1.42,2,2,0,0,1,.59-1.41,1.81,1.81,0,0,1,.3-.25,2.31,2.31,0,0,1,.35-.18,2.29,2.29,0,0,1,.37-.12,2,2,0,1,1,.39,4Z" transform="translate(-83.1 -370.54)"/><path class="cls-1" d="M421.16,407.73a2,2,0,0,1,2-2h0a2,2,0,0,1,2,2h0a2,2,0,0,1-2,2h0A2,2,0,0,1,421.16,407.73Z" transform="translate(-83.1 -370.54)"/><path class="cls-1" d="M410.91,407.73a2,2,0,0,1,2-2h0a2,2,0,0,1,2,2h0a2,2,0,0,1-2,2h0A2,2,0,0,1,410.91,407.73Zm-10.24,0a2,2,0,0,1,2-2h0a2,2,0,0,1,2,2h0a2,2,0,0,1-2,2h0A2,2,0,0,1,400.67,407.73Zm-10.25,0a2,2,0,0,1,2-2h0a2,2,0,0,1,2,2h0a2,2,0,0,1-2,2h0A2,2,0,0,1,390.42,407.73Zm-10.24,0a2,2,0,0,1,2-2h0a2,2,0,0,1,2,2h0a2,2,0,0,1-2,2h0A2,2,0,0,1,380.18,407.73Zm-10.24,0a2,2,0,0,1,2-2h0a2,2,0,0,1,2,2h0a2,2,0,0,1-2,2h0A2,2,0,0,1,369.94,407.73Zm-10.25,0a2,2,0,0,1,2-2h0a2,2,0,0,1,2,2h0a2,2,0,0,1-2,2h0A2,2,0,0,1,359.69,407.73Zm-10.24,0a2,2,0,0,1,2-2h0a2,2,0,0,1,2,2h0a2,2,0,0,1-2,2h0A2,2,0,0,1,349.45,407.73Zm-10.25,0a2,2,0,0,1,2-2h0a2,2,0,0,1,2,2h0a2,2,0,0,1-2,2h0A2,2,0,0,1,339.2,407.73Zm-10.24,0a2,2,0,0,1,2-2h0a2,2,0,0,1,2,2h0a2,2,0,0,1-2,2h0A2,2,0,0,1,329,407.73Zm-10.25,0a2,2,0,0,1,2-2h0a2,2,0,0,1,2,2h0a2,2,0,0,1-2,2h0A2,2,0,0,1,318.71,407.73Zm-10.24,0a2,2,0,0,1,2-2h0a2,2,0,0,1,2,2h0a2,2,0,0,1-2,2h0A2,2,0,0,1,308.47,407.73Zm-10.24,0a2,2,0,0,1,2-2h0a2,2,0,0,1,2,2h0a2,2,0,0,1-2,2h0A2,2,0,0,1,298.23,407.73Zm-10.25,0a2,2,0,0,1,2-2h0a2,2,0,0,1,2,2h0a2,2,0,0,1-2,2h0A2,2,0,0,1,288,407.73Zm-10.24,0a2,2,0,0,1,2-2h0a2,2,0,0,1,2,2h0a2,2,0,0,1-2,2h0A2,2,0,0,1,277.74,407.73Zm-10.25,0a2,2,0,0,1,2-2h0a2,2,0,0,1,2,2h0a2,2,0,0,1-2,2h0A2,2,0,0,1,267.49,407.73Zm-10.24,0a2,2,0,0,1,2-2h0a2,2,0,0,1,2,2h0a2,2,0,0,1-2,2h0A2,2,0,0,1,257.25,407.73Zm-10.24,0a2,2,0,0,1,2-2h0a2,2,0,0,1,2,2h0a2,2,0,0,1-2,2h0A2,2,0,0,1,247,407.73Zm-10.25,0a2,2,0,0,1,2-2h0a2,2,0,0,1,2,2h0a2,2,0,0,1-2,2h0A2,2,0,0,1,236.76,407.73Zm-10.24,0a2,2,0,0,1,2-2h0a2,2,0,0,1,2,2h0a2,2,0,0,1-2,2h0A2,2,0,0,1,226.52,407.73Zm-10.25,0a2,2,0,0,1,2-2h0a2,2,0,0,1,2,2h0a2,2,0,0,1-2,2h0A2,2,0,0,1,216.27,407.73Zm-10.24,0a2,2,0,0,1,2-2h0a2,2,0,0,1,2,2h0a2,2,0,0,1-2,2h0A2,2,0,0,1,206,407.73Zm-10.24,0a2,2,0,0,1,2-2h0a2,2,0,0,1,2,2h0a2,2,0,0,1-2,2h0A2,2,0,0,1,195.79,407.73Zm-10.25,0a2,2,0,0,1,2-2h0a2,2,0,0,1,2,2h0a2,2,0,0,1-2,2h0A2,2,0,0,1,185.54,407.73Zm-10.24,0a2,2,0,0,1,2-2h0a2,2,0,0,1,2,2h0a2,2,0,0,1-2,2h0A2,2,0,0,1,175.3,407.73Zm-10.25,0a2,2,0,0,1,2-2h0a2,2,0,0,1,2,2h0a2,2,0,0,1-2,2h0A2,2,0,0,1,165.05,407.73Zm-10.24,0a2,2,0,0,1,2-2h0a2,2,0,0,1,2,2h0a2,2,0,0,1-2,2h0A2,2,0,0,1,154.81,407.73Zm-10.25,0a2,2,0,0,1,2-2h0a2,2,0,0,1,2,2h0a2,2,0,0,1-2,2h0A2,2,0,0,1,144.56,407.73Zm-10.24,0a2,2,0,0,1,2-2h0a2,2,0,0,1,2,2h0a2,2,0,0,1-2,2h0A2,2,0,0,1,134.32,407.73Zm-10.24,0a2,2,0,0,1,2-2h0a2,2,0,0,1,2,2h0a2,2,0,0,1-2,2h0A2,2,0,0,1,124.08,407.73Zm-10.25,0a2,2,0,0,1,2-2h0a2,2,0,0,1,2,2h0a2,2,0,0,1-2,2h0A2,2,0,0,1,113.83,407.73Zm-10.24,0a2,2,0,0,1,2-2h0a2,2,0,0,1,2,2h0a2,2,0,0,1-2,2h0A2,2,0,0,1,103.59,407.73Zm-10.25,0a2,2,0,0,1,2-2h0a2,2,0,0,1,2,2h0a2,2,0,0,1-2,2h0A2,2,0,0,1,93.34,407.73Z" transform="translate(-83.1 -370.54)"/><path class="cls-1" d="M85.1,409.73a2,2,0,0,1-1.41-3.41,2.06,2.06,0,0,1,2.82,0,2,2,0,0,1-1.41,3.41Z" transform="translate(-83.1 -370.54)"/></svg>